G04 #@! TF.GenerationSoftware,KiCad,Pcbnew,9.0.1*
G04 #@! TF.CreationDate,2025-05-31T12:37:46+02:00*
G04 #@! TF.ProjectId,piskvorky,7069736b-766f-4726-9b79-2e6b69636164,rev?*
G04 #@! TF.SameCoordinates,Original*
G04 #@! TF.FileFunction,Copper,L2,Bot*
G04 #@! TF.FilePolarity,Positive*
%FSLAX46Y46*%
G04 Gerber Fmt 4.6, Leading zero omitted, Abs format (unit mm)*
G04 Created by KiCad (PCBNEW 9.0.1) date 2025-05-31 12:37:46*
%MOMM*%
%LPD*%
G01*
G04 APERTURE LIST*
G04 Aperture macros list*
%AMRoundRect*
0 Rectangle with rounded corners*
0 $1 Rounding radius*
0 $2 $3 $4 $5 $6 $7 $8 $9 X,Y pos of 4 corners*
0 Add a 4 corners polygon primitive as box body*
4,1,4,$2,$3,$4,$5,$6,$7,$8,$9,$2,$3,0*
0 Add four circle primitives for the rounded corners*
1,1,$1+$1,$2,$3*
1,1,$1+$1,$4,$5*
1,1,$1+$1,$6,$7*
1,1,$1+$1,$8,$9*
0 Add four rect primitives between the rounded corners*
20,1,$1+$1,$2,$3,$4,$5,0*
20,1,$1+$1,$4,$5,$6,$7,0*
20,1,$1+$1,$6,$7,$8,$9,0*
20,1,$1+$1,$8,$9,$2,$3,0*%
%AMOutline4P*
0 Free polygon, 4 corners , with rotation*
0 The origin of the aperture is its center*
0 number of corners: always 4*
0 $1 to $8 corner X, Y*
0 $9 Rotation angle, in degrees counterclockwise*
0 create outline with 4 corners*
4,1,4,$1,$2,$3,$4,$5,$6,$7,$8,$1,$2,$9*%
G04 Aperture macros list end*
G04 #@! TA.AperFunction,ComponentPad*
%ADD10R,1.000000X1.800000*%
G04 #@! TD*
G04 #@! TA.AperFunction,ComponentPad*
%ADD11O,1.000000X1.800000*%
G04 #@! TD*
G04 #@! TA.AperFunction,ComponentPad*
%ADD12C,2.000000*%
G04 #@! TD*
G04 #@! TA.AperFunction,ComponentPad*
%ADD13R,2.000000X2.000000*%
G04 #@! TD*
G04 #@! TA.AperFunction,ComponentPad*
%ADD14C,1.600000*%
G04 #@! TD*
G04 #@! TA.AperFunction,ComponentPad*
%ADD15O,1.600000X1.600000*%
G04 #@! TD*
G04 #@! TA.AperFunction,ComponentPad*
%ADD16R,1.524000X2.400000*%
G04 #@! TD*
G04 #@! TA.AperFunction,ComponentPad*
%ADD17RoundRect,0.250000X0.512000X-0.950000X0.512000X0.950000X-0.512000X0.950000X-0.512000X-0.950000X0*%
G04 #@! TD*
G04 #@! TA.AperFunction,ComponentPad*
%ADD18RoundRect,0.250000X0.950000X0.512000X-0.950000X0.512000X-0.950000X-0.512000X0.950000X-0.512000X0*%
G04 #@! TD*
G04 #@! TA.AperFunction,ComponentPad*
%ADD19RoundRect,0.250000X-0.512000X0.950000X-0.512000X-0.950000X0.512000X-0.950000X0.512000X0.950000X0*%
G04 #@! TD*
G04 #@! TA.AperFunction,ComponentPad*
%ADD20R,1.500000X1.500000*%
G04 #@! TD*
G04 #@! TA.AperFunction,ComponentPad*
%ADD21C,1.500000*%
G04 #@! TD*
G04 #@! TA.AperFunction,ComponentPad*
%ADD22Outline4P,-1.250000X0.762000X1.250000X0.762000X1.250000X-0.762000X-1.250000X-0.762000X0.000000*%
G04 #@! TD*
G04 #@! TA.AperFunction,ComponentPad*
%ADD23RoundRect,0.250000X-1.000000X-0.512000X1.000000X-0.512000X1.000000X0.512000X-1.000000X0.512000X0*%
G04 #@! TD*
G04 #@! TA.AperFunction,ComponentPad*
%ADD24R,1.600000X1.600000*%
G04 #@! TD*
G04 #@! TA.AperFunction,ComponentPad*
%ADD25RoundRect,0.250001X0.949999X0.949999X-0.949999X0.949999X-0.949999X-0.949999X0.949999X-0.949999X0*%
G04 #@! TD*
G04 #@! TA.AperFunction,ComponentPad*
%ADD26C,2.400000*%
G04 #@! TD*
G04 #@! TA.AperFunction,ViaPad*
%ADD27C,0.700000*%
G04 #@! TD*
G04 #@! TA.AperFunction,ViaPad*
%ADD28C,6.300000*%
G04 #@! TD*
G04 #@! TA.AperFunction,Conductor*
%ADD29C,0.500000*%
G04 #@! TD*
G04 #@! TA.AperFunction,Conductor*
%ADD30C,0.300000*%
G04 #@! TD*
G04 APERTURE END LIST*
D10*
X153800000Y-73750000D03*
D11*
X155070000Y-73750000D03*
X156340000Y-73750000D03*
X157610000Y-73750000D03*
D12*
X173800000Y-46750000D03*
X180300000Y-46750000D03*
X173800000Y-51250000D03*
X180300000Y-51250000D03*
D13*
X177500000Y-73250000D03*
D12*
X185100000Y-73250000D03*
D10*
X168000000Y-28000000D03*
D11*
X169270000Y-28000000D03*
X170540000Y-28000000D03*
X171810000Y-28000000D03*
D14*
X165990000Y-68750000D03*
D15*
X173610000Y-68750000D03*
D12*
X152800000Y-80250000D03*
X159300000Y-80250000D03*
X152800000Y-84750000D03*
X159300000Y-84750000D03*
X159800000Y-60750000D03*
X166300000Y-60750000D03*
X159800000Y-65250000D03*
X166300000Y-65250000D03*
X145800000Y-60750000D03*
X152300000Y-60750000D03*
X145800000Y-65250000D03*
X152300000Y-65250000D03*
X159800000Y-46750000D03*
X166300000Y-46750000D03*
X159800000Y-51250000D03*
X166300000Y-51250000D03*
D16*
X120800000Y-76750000D03*
D17*
X123340000Y-76750000D03*
X125880000Y-76750000D03*
X128420000Y-76750000D03*
X130960000Y-76750000D03*
X133500000Y-76750000D03*
X136040000Y-76750000D03*
X138580000Y-76750000D03*
X141120000Y-76750000D03*
D18*
X141120000Y-74210000D03*
X141120000Y-71670000D03*
X141120000Y-69130000D03*
X141120000Y-66590000D03*
X141120000Y-64050000D03*
D19*
X141120000Y-61510000D03*
X138580000Y-61510000D03*
X136040000Y-61510000D03*
X133500000Y-61510000D03*
X130960000Y-61510000D03*
X128420000Y-61510000D03*
X125880000Y-61510000D03*
X123340000Y-61510000D03*
X120800000Y-61510000D03*
D14*
X158860000Y-68750000D03*
D15*
X151240000Y-68750000D03*
D10*
X168000000Y-42000000D03*
D11*
X169270000Y-42000000D03*
X170540000Y-42000000D03*
X171810000Y-42000000D03*
D12*
X166800000Y-80250000D03*
X173300000Y-80250000D03*
X166800000Y-84750000D03*
X173300000Y-84750000D03*
D20*
X163050000Y-76790000D03*
D21*
X163050000Y-74250000D03*
X163050000Y-71710000D03*
D10*
X154000000Y-28000000D03*
D11*
X155270000Y-28000000D03*
X156540000Y-28000000D03*
X157810000Y-28000000D03*
D12*
X159800000Y-32750000D03*
X166300000Y-32750000D03*
X159800000Y-37250000D03*
X166300000Y-37250000D03*
D22*
X121162500Y-40137500D03*
D23*
X121162500Y-30637500D03*
X136662500Y-30637500D03*
X136662500Y-40137500D03*
D24*
X136644205Y-51004282D03*
D15*
X136644205Y-43384282D03*
D12*
X145800000Y-32750000D03*
X152300000Y-32750000D03*
X145800000Y-37250000D03*
X152300000Y-37250000D03*
X173800000Y-32750000D03*
X180300000Y-32750000D03*
X173800000Y-37250000D03*
X180300000Y-37250000D03*
D10*
X140000000Y-28000000D03*
D11*
X141270000Y-28000000D03*
X142540000Y-28000000D03*
X143810000Y-28000000D03*
D10*
X154000000Y-42000000D03*
D11*
X155270000Y-42000000D03*
X156540000Y-42000000D03*
X157810000Y-42000000D03*
D24*
X126800000Y-45750000D03*
D14*
X128800000Y-45750000D03*
X130800000Y-45750000D03*
X126800000Y-50750000D03*
X128800000Y-50750000D03*
X130800000Y-50750000D03*
D10*
X140000000Y-42000000D03*
D11*
X141270000Y-42000000D03*
X142540000Y-42000000D03*
X143810000Y-42000000D03*
D12*
X173800000Y-60750000D03*
X180300000Y-60750000D03*
X173800000Y-65250000D03*
X180300000Y-65250000D03*
X145800000Y-46750000D03*
X152300000Y-46750000D03*
X145800000Y-51250000D03*
X152300000Y-51250000D03*
D10*
X154000000Y-56000000D03*
D11*
X155270000Y-56000000D03*
X156540000Y-56000000D03*
X157810000Y-56000000D03*
D25*
X135800000Y-21982500D03*
D26*
X132300000Y-21982500D03*
D10*
X167800000Y-73750000D03*
D11*
X169070000Y-73750000D03*
X170340000Y-73750000D03*
X171610000Y-73750000D03*
D10*
X168000000Y-56000000D03*
D11*
X169270000Y-56000000D03*
X170540000Y-56000000D03*
X171810000Y-56000000D03*
D10*
X140000000Y-56000000D03*
D11*
X141270000Y-56000000D03*
X142540000Y-56000000D03*
X143810000Y-56000000D03*
D27*
X152200000Y-54150000D03*
X123400000Y-73950000D03*
X138000000Y-56750000D03*
D28*
X124800000Y-82750000D03*
X182800000Y-22750000D03*
X182800000Y-82750000D03*
X124800000Y-22750000D03*
D27*
X149800000Y-44250000D03*
X146550000Y-24250000D03*
X164050000Y-59150000D03*
D29*
X151300000Y-67000000D02*
X149300000Y-65000000D01*
X165990000Y-68750000D02*
X164240000Y-67000000D01*
X164240000Y-67000000D02*
X151300000Y-67000000D01*
X149300000Y-65000000D02*
X149300000Y-44750000D01*
X149300000Y-44750000D02*
X149800000Y-44250000D01*
X156540000Y-28000000D02*
X156540000Y-23010000D01*
X156550000Y-23000000D02*
X143800000Y-23000000D01*
X141550000Y-38500000D02*
X141550000Y-31245000D01*
X142540000Y-30255000D02*
X142540000Y-28000000D01*
X141675000Y-58500000D02*
X122550000Y-58500000D01*
X125880000Y-71080000D02*
X122300000Y-67500000D01*
X142540000Y-42000000D02*
X142540000Y-39490000D01*
X142540000Y-24260000D02*
X142540000Y-28000000D01*
X141295000Y-44745000D02*
X142540000Y-43500000D01*
X125880000Y-76750000D02*
X125880000Y-71080000D01*
X159050000Y-78500000D02*
X168550000Y-78500000D01*
X140050000Y-49000000D02*
X140050000Y-45990000D01*
X142540000Y-43500000D02*
X142540000Y-42000000D01*
X122550000Y-58500000D02*
X122013000Y-59037000D01*
X143800000Y-23000000D02*
X142540000Y-24260000D01*
D30*
X122013000Y-59037000D02*
X122013000Y-64463000D01*
D29*
X168550000Y-78500000D02*
X170340000Y-76710000D01*
X142540000Y-39490000D02*
X141550000Y-38500000D01*
X140050000Y-45990000D02*
X141295000Y-44745000D01*
X170340000Y-76710000D02*
X170340000Y-73750000D01*
X170340000Y-69940000D02*
X170340000Y-73750000D01*
X156340000Y-75790000D02*
X159050000Y-78500000D01*
X169550000Y-23000000D02*
X156550000Y-23000000D01*
X170530000Y-69750000D02*
X170340000Y-69940000D01*
X170540000Y-56000000D02*
X170540000Y-28000000D01*
X156540000Y-23010000D02*
X156550000Y-23000000D01*
X142540000Y-57635000D02*
X141675000Y-58500000D01*
X142540000Y-56000000D02*
X142540000Y-54490000D01*
X140050000Y-49250000D02*
X140050000Y-52000000D01*
X122013000Y-64463000D02*
X122050000Y-64500000D01*
X141550000Y-31245000D02*
X142540000Y-30255000D01*
X170550000Y-69750000D02*
X170530000Y-69750000D01*
X170540000Y-23990000D02*
X170540000Y-28000000D01*
X122300000Y-67500000D02*
X122050000Y-67250000D01*
X122050000Y-67250000D02*
X122050000Y-64500000D01*
X170540000Y-23990000D02*
X169550000Y-23000000D01*
X142540000Y-54490000D02*
X141425000Y-53375000D01*
X170540000Y-56000000D02*
X170540000Y-69740000D01*
X156540000Y-28000000D02*
X156540000Y-56000000D01*
X156340000Y-73750000D02*
X156340000Y-75790000D01*
X140050000Y-52000000D02*
X141425000Y-53375000D01*
X170540000Y-69740000D02*
X170550000Y-69750000D01*
X140050000Y-49250000D02*
X140050000Y-49000000D01*
X142540000Y-56000000D02*
X142540000Y-57635000D01*
X143810000Y-39510000D02*
X142550000Y-38250000D01*
X142550000Y-32750000D02*
X146550000Y-28750000D01*
X146550000Y-28750000D02*
X146550000Y-24250000D01*
X142550000Y-38250000D02*
X142550000Y-32750000D01*
X143810000Y-42000000D02*
X143810000Y-39510000D01*
X164050000Y-59150000D02*
X164050000Y-57500000D01*
X166300000Y-42000000D02*
X168000000Y-42000000D01*
X164050000Y-44250000D02*
X166300000Y-42000000D01*
X164050000Y-57500000D02*
X164050000Y-44250000D01*
X157610000Y-73750000D02*
X157610000Y-72060000D01*
X145550000Y-70750000D02*
X145300000Y-70500000D01*
D30*
X137957000Y-70343000D02*
X145143000Y-70343000D01*
D29*
X137957000Y-70343000D02*
X128143000Y-70343000D01*
X123340000Y-65540000D02*
X123340000Y-61510000D01*
D30*
X145143000Y-70343000D02*
X145550000Y-70750000D01*
D29*
X128143000Y-70343000D02*
X123340000Y-65540000D01*
X156800000Y-71250000D02*
X146050000Y-71250000D01*
X146050000Y-71250000D02*
X145550000Y-70750000D01*
X157610000Y-72060000D02*
X156800000Y-71250000D01*
X142925000Y-58750000D02*
X141120000Y-60555000D01*
X141300000Y-51250000D02*
X145300000Y-55250000D01*
X143550000Y-35000000D02*
X143550000Y-37875000D01*
X145800000Y-32750000D02*
X143550000Y-35000000D01*
X145300000Y-55250000D02*
X145300000Y-57500000D01*
X143550000Y-37875000D02*
X145300000Y-39625000D01*
X145300000Y-39625000D02*
X145300000Y-43250000D01*
X145300000Y-43250000D02*
X141300000Y-47250000D01*
X144050000Y-58750000D02*
X142925000Y-58750000D01*
X141300000Y-47250000D02*
X141300000Y-51250000D01*
X141120000Y-60555000D02*
X141120000Y-61510000D01*
X145300000Y-57500000D02*
X144050000Y-58750000D01*
X145800000Y-51250000D02*
X148300000Y-51250000D01*
X145800000Y-65250000D02*
X148300000Y-62750000D01*
X148300000Y-51250000D02*
X148300000Y-39750000D01*
X148300000Y-39750000D02*
X145800000Y-37250000D01*
X148300000Y-62750000D02*
X148300000Y-51250000D01*
X162300000Y-62750000D02*
X162300000Y-51250000D01*
X159800000Y-65250000D02*
X162300000Y-62750000D01*
X162300000Y-51250000D02*
X162300000Y-50750000D01*
X159800000Y-51250000D02*
X162300000Y-51250000D01*
X162300000Y-50750000D02*
X162300000Y-39750000D01*
X162300000Y-39750000D02*
X159800000Y-37250000D01*
X143550000Y-60500000D02*
X146300000Y-57750000D01*
X143050000Y-51250000D02*
X143050000Y-49500000D01*
X143050000Y-49500000D02*
X145800000Y-46750000D01*
X142250000Y-64050000D02*
X143550000Y-62750000D01*
X146300000Y-57750000D02*
X146300000Y-54500000D01*
X143550000Y-62750000D02*
X143550000Y-60500000D01*
X141120000Y-64050000D02*
X142250000Y-64050000D01*
X146300000Y-54500000D02*
X143050000Y-51250000D01*
X141120000Y-66590000D02*
X142960000Y-66590000D01*
X143800000Y-64000000D02*
X145800000Y-62000000D01*
X143800000Y-65750000D02*
X143800000Y-64000000D01*
X142960000Y-66590000D02*
X143800000Y-65750000D01*
X145800000Y-62000000D02*
X145800000Y-60750000D01*
G04 #@! TA.AperFunction,Conductor*
G36*
X188242539Y-18270185D02*
G01*
X188288294Y-18322989D01*
X188299500Y-18374500D01*
X188299500Y-87125500D01*
X188279815Y-87192539D01*
X188227011Y-87238294D01*
X188175500Y-87249500D01*
X119424500Y-87249500D01*
X119357461Y-87229815D01*
X119311706Y-87177011D01*
X119300500Y-87125500D01*
X119300500Y-84631947D01*
X151300000Y-84631947D01*
X151300000Y-84868052D01*
X151336934Y-85101247D01*
X151409897Y-85325802D01*
X151517087Y-85536174D01*
X151577338Y-85619104D01*
X151577340Y-85619105D01*
X152276212Y-84920233D01*
X152287482Y-84962292D01*
X152359890Y-85087708D01*
X152462292Y-85190110D01*
X152587708Y-85262518D01*
X152629765Y-85273787D01*
X151930893Y-85972658D01*
X152013828Y-86032914D01*
X152224197Y-86140102D01*
X152448752Y-86213065D01*
X152448751Y-86213065D01*
X152681948Y-86250000D01*
X152918052Y-86250000D01*
X153151247Y-86213065D01*
X153375802Y-86140102D01*
X153586163Y-86032918D01*
X153586169Y-86032914D01*
X153669104Y-85972658D01*
X153669105Y-85972658D01*
X152970233Y-85273787D01*
X153012292Y-85262518D01*
X153137708Y-85190110D01*
X153240110Y-85087708D01*
X153312518Y-84962292D01*
X153323787Y-84920234D01*
X154022658Y-85619105D01*
X154022658Y-85619104D01*
X154082914Y-85536169D01*
X154082918Y-85536163D01*
X154190102Y-85325802D01*
X154263065Y-85101247D01*
X154300000Y-84868052D01*
X154300000Y-84631947D01*
X157800000Y-84631947D01*
X157800000Y-84868052D01*
X157836934Y-85101247D01*
X157909897Y-85325802D01*
X158017087Y-85536174D01*
X158077338Y-85619104D01*
X158077340Y-85619105D01*
X158776212Y-84920233D01*
X158787482Y-84962292D01*
X158859890Y-85087708D01*
X158962292Y-85190110D01*
X159087708Y-85262518D01*
X159129765Y-85273787D01*
X158430893Y-85972658D01*
X158513828Y-86032914D01*
X158724197Y-86140102D01*
X158948752Y-86213065D01*
X158948751Y-86213065D01*
X159181948Y-86250000D01*
X159418052Y-86250000D01*
X159651247Y-86213065D01*
X159875802Y-86140102D01*
X160086163Y-86032918D01*
X160086169Y-86032914D01*
X160169104Y-85972658D01*
X160169105Y-85972658D01*
X159470233Y-85273787D01*
X159512292Y-85262518D01*
X159637708Y-85190110D01*
X159740110Y-85087708D01*
X159812518Y-84962292D01*
X159823787Y-84920234D01*
X160522658Y-85619105D01*
X160522658Y-85619104D01*
X160582914Y-85536169D01*
X160582918Y-85536163D01*
X160690102Y-85325802D01*
X160763065Y-85101247D01*
X160800000Y-84868052D01*
X160800000Y-84631947D01*
X165300000Y-84631947D01*
X165300000Y-84868052D01*
X165336934Y-85101247D01*
X165409897Y-85325802D01*
X165517087Y-85536174D01*
X165577338Y-85619104D01*
X165577340Y-85619105D01*
X166276212Y-84920233D01*
X166287482Y-84962292D01*
X166359890Y-85087708D01*
X166462292Y-85190110D01*
X166587708Y-85262518D01*
X166629765Y-85273787D01*
X165930893Y-85972658D01*
X166013828Y-86032914D01*
X166224197Y-86140102D01*
X166448752Y-86213065D01*
X166448751Y-86213065D01*
X166681948Y-86250000D01*
X166918052Y-86250000D01*
X167151247Y-86213065D01*
X167375802Y-86140102D01*
X167586163Y-86032918D01*
X167586169Y-86032914D01*
X167669104Y-85972658D01*
X167669105Y-85972658D01*
X166970233Y-85273787D01*
X167012292Y-85262518D01*
X167137708Y-85190110D01*
X167240110Y-85087708D01*
X167312518Y-84962292D01*
X167323787Y-84920234D01*
X168022658Y-85619105D01*
X168022658Y-85619104D01*
X168082914Y-85536169D01*
X168082918Y-85536163D01*
X168190102Y-85325802D01*
X168263065Y-85101247D01*
X168300000Y-84868052D01*
X168300000Y-84631947D01*
X171800000Y-84631947D01*
X171800000Y-84868052D01*
X171836934Y-85101247D01*
X171909897Y-85325802D01*
X172017087Y-85536174D01*
X172077338Y-85619104D01*
X172077340Y-85619105D01*
X172776212Y-84920233D01*
X172787482Y-84962292D01*
X172859890Y-85087708D01*
X172962292Y-85190110D01*
X173087708Y-85262518D01*
X173129765Y-85273787D01*
X172430893Y-85972658D01*
X172513828Y-86032914D01*
X172724197Y-86140102D01*
X172948752Y-86213065D01*
X172948751Y-86213065D01*
X173181948Y-86250000D01*
X173418052Y-86250000D01*
X173651247Y-86213065D01*
X173875802Y-86140102D01*
X174086163Y-86032918D01*
X174086169Y-86032914D01*
X174169104Y-85972658D01*
X174169105Y-85972658D01*
X173470233Y-85273787D01*
X173512292Y-85262518D01*
X173637708Y-85190110D01*
X173740110Y-85087708D01*
X173812518Y-84962292D01*
X173823787Y-84920233D01*
X174522658Y-85619105D01*
X174522658Y-85619104D01*
X174582914Y-85536169D01*
X174582918Y-85536163D01*
X174690102Y-85325802D01*
X174763065Y-85101247D01*
X174800000Y-84868052D01*
X174800000Y-84631947D01*
X174763065Y-84398752D01*
X174690102Y-84174197D01*
X174582914Y-83963828D01*
X174522658Y-83880894D01*
X174522658Y-83880893D01*
X173823787Y-84579765D01*
X173812518Y-84537708D01*
X173740110Y-84412292D01*
X173637708Y-84309890D01*
X173512292Y-84237482D01*
X173470234Y-84226212D01*
X174169105Y-83527340D01*
X174169104Y-83527338D01*
X174086174Y-83467087D01*
X173875802Y-83359897D01*
X173651247Y-83286934D01*
X173651248Y-83286934D01*
X173418052Y-83250000D01*
X173181948Y-83250000D01*
X172948752Y-83286934D01*
X172724197Y-83359897D01*
X172513830Y-83467084D01*
X172430894Y-83527340D01*
X173129766Y-84226212D01*
X173087708Y-84237482D01*
X172962292Y-84309890D01*
X172859890Y-84412292D01*
X172787482Y-84537708D01*
X172776212Y-84579765D01*
X172077340Y-83880894D01*
X172017084Y-83963830D01*
X171909897Y-84174197D01*
X171836934Y-84398752D01*
X171800000Y-84631947D01*
X168300000Y-84631947D01*
X168263065Y-84398752D01*
X168190102Y-84174197D01*
X168082914Y-83963828D01*
X168022658Y-83880894D01*
X168022658Y-83880893D01*
X167323787Y-84579765D01*
X167312518Y-84537708D01*
X167240110Y-84412292D01*
X167137708Y-84309890D01*
X167012292Y-84237482D01*
X166970234Y-84226212D01*
X167669105Y-83527340D01*
X167669104Y-83527339D01*
X167586174Y-83467087D01*
X167375802Y-83359897D01*
X167151247Y-83286934D01*
X167151248Y-83286934D01*
X166918052Y-83250000D01*
X166681948Y-83250000D01*
X166448752Y-83286934D01*
X166224197Y-83359897D01*
X166013830Y-83467084D01*
X165930894Y-83527340D01*
X166629766Y-84226212D01*
X166587708Y-84237482D01*
X166462292Y-84309890D01*
X166359890Y-84412292D01*
X166287482Y-84537708D01*
X166276212Y-84579766D01*
X165577340Y-83880894D01*
X165517084Y-83963830D01*
X165409897Y-84174197D01*
X165336934Y-84398752D01*
X165300000Y-84631947D01*
X160800000Y-84631947D01*
X160763065Y-84398752D01*
X160690102Y-84174197D01*
X160582914Y-83963828D01*
X160522658Y-83880894D01*
X160522658Y-83880893D01*
X159823787Y-84579765D01*
X159812518Y-84537708D01*
X159740110Y-84412292D01*
X159637708Y-84309890D01*
X159512292Y-84237482D01*
X159470234Y-84226212D01*
X160169105Y-83527340D01*
X160169104Y-83527339D01*
X160086174Y-83467087D01*
X159875802Y-83359897D01*
X159651247Y-83286934D01*
X159651248Y-83286934D01*
X159418052Y-83250000D01*
X159181948Y-83250000D01*
X158948752Y-83286934D01*
X158724197Y-83359897D01*
X158513830Y-83467084D01*
X158430894Y-83527340D01*
X159129766Y-84226212D01*
X159087708Y-84237482D01*
X158962292Y-84309890D01*
X158859890Y-84412292D01*
X158787482Y-84537708D01*
X158776212Y-84579766D01*
X158077340Y-83880894D01*
X158017084Y-83963830D01*
X157909897Y-84174197D01*
X157836934Y-84398752D01*
X157800000Y-84631947D01*
X154300000Y-84631947D01*
X154263065Y-84398752D01*
X154190102Y-84174197D01*
X154082914Y-83963828D01*
X154022658Y-83880894D01*
X154022658Y-83880893D01*
X153323787Y-84579765D01*
X153312518Y-84537708D01*
X153240110Y-84412292D01*
X153137708Y-84309890D01*
X153012292Y-84237482D01*
X152970234Y-84226212D01*
X153669105Y-83527340D01*
X153669104Y-83527339D01*
X153586174Y-83467087D01*
X153375802Y-83359897D01*
X153151247Y-83286934D01*
X153151248Y-83286934D01*
X152918052Y-83250000D01*
X152681948Y-83250000D01*
X152448752Y-83286934D01*
X152224197Y-83359897D01*
X152013830Y-83467084D01*
X151930894Y-83527340D01*
X152629766Y-84226212D01*
X152587708Y-84237482D01*
X152462292Y-84309890D01*
X152359890Y-84412292D01*
X152287482Y-84537708D01*
X152276212Y-84579765D01*
X151577340Y-83880894D01*
X151517084Y-83963830D01*
X151409897Y-84174197D01*
X151336934Y-84398752D01*
X151300000Y-84631947D01*
X119300500Y-84631947D01*
X119300500Y-80131902D01*
X151299500Y-80131902D01*
X151299500Y-80368097D01*
X151336446Y-80601368D01*
X151409433Y-80825996D01*
X151516657Y-81036433D01*
X151655483Y-81227510D01*
X151822490Y-81394517D01*
X152013567Y-81533343D01*
X152112991Y-81584002D01*
X152224003Y-81640566D01*
X152224005Y-81640566D01*
X152224008Y-81640568D01*
X152344412Y-81679689D01*
X152448631Y-81713553D01*
X152681903Y-81750500D01*
X152681908Y-81750500D01*
X152918097Y-81750500D01*
X153151368Y-81713553D01*
X153375992Y-81640568D01*
X153586433Y-81533343D01*
X153777510Y-81394517D01*
X153944517Y-81227510D01*
X154083343Y-81036433D01*
X154190568Y-80825992D01*
X154263553Y-80601368D01*
X154300500Y-80368097D01*
X154300500Y-80131902D01*
X154263553Y-79898631D01*
X154190566Y-79674003D01*
X154083342Y-79463566D01*
X154071586Y-79447385D01*
X153944517Y-79272490D01*
X153777510Y-79105483D01*
X153586433Y-78966657D01*
X153553432Y-78949842D01*
X153375996Y-78859433D01*
X153151368Y-78786446D01*
X152918097Y-78749500D01*
X152918092Y-78749500D01*
X152681908Y-78749500D01*
X152681903Y-78749500D01*
X152448631Y-78786446D01*
X152224003Y-78859433D01*
X152013566Y-78966657D01*
X151940788Y-79019534D01*
X151822490Y-79105483D01*
X151822488Y-79105485D01*
X151822487Y-79105485D01*
X151655485Y-79272487D01*
X151655485Y-79272488D01*
X151655483Y-79272490D01*
X151625670Y-79313524D01*
X151516657Y-79463566D01*
X151409433Y-79674003D01*
X151336446Y-79898631D01*
X151299500Y-80131902D01*
X119300500Y-80131902D01*
X119300500Y-78091364D01*
X119320185Y-78024325D01*
X119372989Y-77978570D01*
X119442147Y-77968626D01*
X119505703Y-77997651D01*
X119539815Y-78050730D01*
X119541198Y-78050215D01*
X119594202Y-78192328D01*
X119594206Y-78192335D01*
X119680452Y-78307544D01*
X119680455Y-78307547D01*
X119795664Y-78393793D01*
X119795671Y-78393797D01*
X119930517Y-78444091D01*
X119930516Y-78444091D01*
X119937444Y-78444835D01*
X119990127Y-78450500D01*
X121609872Y-78450499D01*
X121669483Y-78444091D01*
X121804331Y-78393796D01*
X121919546Y-78307546D01*
X122005796Y-78192331D01*
X122009389Y-78182696D01*
X122051259Y-78126763D01*
X122116723Y-78102344D01*
X122184996Y-78117194D01*
X122231110Y-78160931D01*
X122235680Y-78168340D01*
X122235683Y-78168344D01*
X122359654Y-78292315D01*
X122508875Y-78384356D01*
X122508880Y-78384358D01*
X122675302Y-78439505D01*
X122675309Y-78439506D01*
X122778019Y-78449999D01*
X123089999Y-78449999D01*
X123090000Y-78449998D01*
X123090000Y-77298482D01*
X123108409Y-77309111D01*
X123261009Y-77350000D01*
X123418991Y-77350000D01*
X123571591Y-77309111D01*
X123590000Y-77298482D01*
X123590000Y-78449999D01*
X123901972Y-78449999D01*
X123901986Y-78449998D01*
X124004697Y-78439505D01*
X124171119Y-78384358D01*
X124171124Y-78384356D01*
X124320345Y-78292315D01*
X124444317Y-78168343D01*
X124504167Y-78071311D01*
X124556115Y-78024586D01*
X124625077Y-78013363D01*
X124689160Y-78041206D01*
X124715244Y-78071309D01*
X124775288Y-78168656D01*
X124899344Y-78292712D01*
X125048666Y-78384814D01*
X125215203Y-78439999D01*
X125317991Y-78450500D01*
X126442008Y-78450499D01*
X126544797Y-78439999D01*
X126711334Y-78384814D01*
X126860656Y-78292712D01*
X126984712Y-78168656D01*
X127044461Y-78071787D01*
X127096409Y-78025062D01*
X127165371Y-78013839D01*
X127229454Y-78041683D01*
X127255539Y-78071787D01*
X127315288Y-78168656D01*
X127439344Y-78292712D01*
X127588666Y-78384814D01*
X127755203Y-78439999D01*
X127857991Y-78450500D01*
X128982008Y-78450499D01*
X129084797Y-78439999D01*
X129251334Y-78384814D01*
X129400656Y-78292712D01*
X129524712Y-78168656D01*
X129584461Y-78071787D01*
X129636409Y-78025062D01*
X129705371Y-78013839D01*
X129769454Y-78041683D01*
X129795539Y-78071787D01*
X129855288Y-78168656D01*
X129979344Y-78292712D01*
X130128666Y-78384814D01*
X130295203Y-78439999D01*
X130397991Y-78450500D01*
X131522008Y-78450499D01*
X131624797Y-78439999D01*
X131791334Y-78384814D01*
X131940656Y-78292712D01*
X132064712Y-78168656D01*
X132124461Y-78071787D01*
X132176409Y-78025062D01*
X132245371Y-78013839D01*
X132309454Y-78041683D01*
X132335539Y-78071787D01*
X132395288Y-78168656D01*
X132519344Y-78292712D01*
X132668666Y-78384814D01*
X132835203Y-78439999D01*
X132937991Y-78450500D01*
X134062008Y-78450499D01*
X134164797Y-78439999D01*
X134331334Y-78384814D01*
X134480656Y-78292712D01*
X134604712Y-78168656D01*
X134664461Y-78071787D01*
X134716409Y-78025062D01*
X134785371Y-78013839D01*
X134849454Y-78041683D01*
X134875539Y-78071787D01*
X134935288Y-78168656D01*
X135059344Y-78292712D01*
X135208666Y-78384814D01*
X135375203Y-78439999D01*
X135477991Y-78450500D01*
X136602008Y-78450499D01*
X136704797Y-78439999D01*
X136871334Y-78384814D01*
X137020656Y-78292712D01*
X137144712Y-78168656D01*
X137204461Y-78071787D01*
X137256409Y-78025062D01*
X137325371Y-78013839D01*
X137389454Y-78041683D01*
X137415539Y-78071787D01*
X137475288Y-78168656D01*
X137599344Y-78292712D01*
X137748666Y-78384814D01*
X137915203Y-78439999D01*
X138017991Y-78450500D01*
X139142008Y-78450499D01*
X139244797Y-78439999D01*
X139411334Y-78384814D01*
X139560656Y-78292712D01*
X139684712Y-78168656D01*
X139744461Y-78071787D01*
X139796409Y-78025062D01*
X139865371Y-78013839D01*
X139929454Y-78041683D01*
X139955539Y-78071787D01*
X140015288Y-78168656D01*
X140139344Y-78292712D01*
X140288666Y-78384814D01*
X140455203Y-78439999D01*
X140557991Y-78450500D01*
X141682008Y-78450499D01*
X141784797Y-78439999D01*
X141951334Y-78384814D01*
X142100656Y-78292712D01*
X142224712Y-78168656D01*
X142316814Y-78019334D01*
X142371999Y-77852797D01*
X142382500Y-77750009D01*
X142382499Y-75749992D01*
X142371999Y-75647203D01*
X142339641Y-75549556D01*
X142337240Y-75479729D01*
X142372971Y-75419687D01*
X142392252Y-75405014D01*
X142450368Y-75369168D01*
X142538656Y-75314712D01*
X142662712Y-75190656D01*
X142754814Y-75041334D01*
X142809999Y-74874797D01*
X142820500Y-74772009D01*
X142820499Y-73647992D01*
X142815044Y-73594595D01*
X142809999Y-73545203D01*
X142809998Y-73545200D01*
X142786303Y-73473694D01*
X142754814Y-73378666D01*
X142662712Y-73229344D01*
X142538656Y-73105288D01*
X142441787Y-73045539D01*
X142421106Y-73022546D01*
X142398921Y-73000993D01*
X142397944Y-72996795D01*
X142395062Y-72993591D01*
X142390093Y-72963060D01*
X142383084Y-72932941D01*
X142384531Y-72928882D01*
X142383839Y-72924629D01*
X142396164Y-72896262D01*
X142406553Y-72867131D01*
X142410352Y-72863607D01*
X142411683Y-72860546D01*
X142431146Y-72841817D01*
X142436273Y-72837861D01*
X142538656Y-72774712D01*
X142662712Y-72650656D01*
X142754814Y-72501334D01*
X142809999Y-72334797D01*
X142820500Y-72232009D01*
X142820499Y-71117499D01*
X142840184Y-71050461D01*
X142892987Y-71004706D01*
X142944499Y-70993500D01*
X144680770Y-70993500D01*
X144747809Y-71013185D01*
X144768451Y-71029819D01*
X144962707Y-71224075D01*
X144962717Y-71224086D01*
X145571584Y-71832952D01*
X145571586Y-71832954D01*
X145601058Y-71852645D01*
X145645270Y-71882186D01*
X145694505Y-71915084D01*
X145694506Y-71915084D01*
X145694507Y-71915085D01*
X145694509Y-71915086D01*
X145792334Y-71955606D01*
X145831087Y-71971658D01*
X145831091Y-71971658D01*
X145831092Y-71971659D01*
X145976079Y-72000500D01*
X145976082Y-72000500D01*
X145976083Y-72000500D01*
X146123918Y-72000500D01*
X156437770Y-72000500D01*
X156504809Y-72020185D01*
X156525451Y-72036819D01*
X156648305Y-72159673D01*
X156681790Y-72220996D01*
X156676806Y-72290688D01*
X156634934Y-72346621D01*
X156569470Y-72371038D01*
X156536433Y-72368971D01*
X156438545Y-72349500D01*
X156438541Y-72349500D01*
X156241459Y-72349500D01*
X156241457Y-72349500D01*
X156048170Y-72387947D01*
X156048160Y-72387950D01*
X155866093Y-72463364D01*
X155866082Y-72463370D01*
X155773440Y-72525271D01*
X155706762Y-72546148D01*
X155639382Y-72527663D01*
X155635659Y-72525270D01*
X155543684Y-72463814D01*
X155543671Y-72463807D01*
X155361691Y-72388429D01*
X155361683Y-72388427D01*
X155320000Y-72380135D01*
X155320000Y-73374722D01*
X155243694Y-73330667D01*
X155129244Y-73300000D01*
X155010756Y-73300000D01*
X154896306Y-73330667D01*
X154820000Y-73374722D01*
X154820000Y-72380136D01*
X154819999Y-72380135D01*
X154778316Y-72388427D01*
X154676339Y-72430666D01*
X154606870Y-72438133D01*
X154554578Y-72415372D01*
X154542330Y-72406203D01*
X154542328Y-72406202D01*
X154407482Y-72355908D01*
X154407483Y-72355908D01*
X154347883Y-72349501D01*
X154347881Y-72349500D01*
X154347873Y-72349500D01*
X154347864Y-72349500D01*
X153252129Y-72349500D01*
X153252123Y-72349501D01*
X153192516Y-72355908D01*
X153057671Y-72406202D01*
X153057664Y-72406206D01*
X152942455Y-72492452D01*
X152942452Y-72492455D01*
X152856206Y-72607664D01*
X152856202Y-72607671D01*
X152805908Y-72742517D01*
X152799501Y-72802116D01*
X152799500Y-72802135D01*
X152799500Y-74697870D01*
X152799501Y-74697876D01*
X152805908Y-74757483D01*
X152856202Y-74892328D01*
X152856206Y-74892335D01*
X152942452Y-75007544D01*
X152942455Y-75007547D01*
X153057664Y-75093793D01*
X153057671Y-75093797D01*
X153192517Y-75144091D01*
X153192516Y-75144091D01*
X153199444Y-75144835D01*
X153252127Y-75150500D01*
X154347872Y-75150499D01*
X154407483Y-75144091D01*
X154542331Y-75093796D01*
X154554575Y-75084629D01*
X154620035Y-75060210D01*
X154676339Y-75069333D01*
X154778308Y-75111569D01*
X154820000Y-75119862D01*
X154820000Y-74125277D01*
X154896306Y-74169333D01*
X155010756Y-74200000D01*
X155129244Y-74200000D01*
X155243694Y-74169333D01*
X155320000Y-74125277D01*
X155320000Y-75119862D01*
X155361689Y-75111570D01*
X155418047Y-75088226D01*
X155487516Y-75080757D01*
X155549996Y-75112032D01*
X155585648Y-75172121D01*
X155589500Y-75202787D01*
X155589500Y-75863918D01*
X155589500Y-75863920D01*
X155589499Y-75863920D01*
X155618340Y-76008907D01*
X155618343Y-76008917D01*
X155674912Y-76145488D01*
X155674916Y-76145495D01*
X155693434Y-76173209D01*
X155693435Y-76173212D01*
X155693436Y-76173212D01*
X155757051Y-76268420D01*
X155757052Y-76268421D01*
X158377151Y-78888519D01*
X158410636Y-78949842D01*
X158405652Y-79019534D01*
X158363780Y-79075467D01*
X158362357Y-79076517D01*
X158322490Y-79105482D01*
X158155485Y-79272487D01*
X158155485Y-79272488D01*
X158155483Y-79272490D01*
X158125670Y-79313524D01*
X158016657Y-79463566D01*
X157909433Y-79674003D01*
X157836446Y-79898631D01*
X157799500Y-80131902D01*
X157799500Y-80368097D01*
X157836446Y-80601368D01*
X157909433Y-80825996D01*
X158016657Y-81036433D01*
X158155483Y-81227510D01*
X158322490Y-81394517D01*
X158513567Y-81533343D01*
X158612991Y-81584002D01*
X158724003Y-81640566D01*
X158724005Y-81640566D01*
X158724008Y-81640568D01*
X158844412Y-81679689D01*
X158948631Y-81713553D01*
X159181903Y-81750500D01*
X159181908Y-81750500D01*
X159418097Y-81750500D01*
X159651368Y-81713553D01*
X159875992Y-81640568D01*
X160086433Y-81533343D01*
X160277510Y-81394517D01*
X160444517Y-81227510D01*
X160583343Y-81036433D01*
X160690568Y-80825992D01*
X160763553Y-80601368D01*
X160800500Y-80368097D01*
X160800500Y-80131902D01*
X160763553Y-79898631D01*
X160690566Y-79674003D01*
X160583343Y-79463567D01*
X160571586Y-79447385D01*
X160548107Y-79381578D01*
X160563933Y-79313524D01*
X160614039Y-79264830D01*
X160671905Y-79250500D01*
X165428095Y-79250500D01*
X165495134Y-79270185D01*
X165540889Y-79322989D01*
X165550833Y-79392147D01*
X165528414Y-79447385D01*
X165516656Y-79463567D01*
X165409433Y-79674003D01*
X165336446Y-79898631D01*
X165299500Y-80131902D01*
X165299500Y-80368097D01*
X165336446Y-80601368D01*
X165409433Y-80825996D01*
X165516657Y-81036433D01*
X165655483Y-81227510D01*
X165822490Y-81394517D01*
X166013567Y-81533343D01*
X166112991Y-81584002D01*
X166224003Y-81640566D01*
X166224005Y-81640566D01*
X166224008Y-81640568D01*
X166344412Y-81679689D01*
X166448631Y-81713553D01*
X166681903Y-81750500D01*
X166681908Y-81750500D01*
X166918097Y-81750500D01*
X167151368Y-81713553D01*
X167375992Y-81640568D01*
X167586433Y-81533343D01*
X167777510Y-81394517D01*
X167944517Y-81227510D01*
X168083343Y-81036433D01*
X168190568Y-80825992D01*
X168263553Y-80601368D01*
X168300500Y-80368097D01*
X168300500Y-80131902D01*
X171799500Y-80131902D01*
X171799500Y-80368097D01*
X171836446Y-80601368D01*
X171909433Y-80825996D01*
X172016657Y-81036433D01*
X172155483Y-81227510D01*
X172322490Y-81394517D01*
X172513567Y-81533343D01*
X172612991Y-81584002D01*
X172724003Y-81640566D01*
X172724005Y-81640566D01*
X172724008Y-81640568D01*
X172844412Y-81679689D01*
X172948631Y-81713553D01*
X173181903Y-81750500D01*
X173181908Y-81750500D01*
X173418097Y-81750500D01*
X173651368Y-81713553D01*
X173875992Y-81640568D01*
X174086433Y-81533343D01*
X174277510Y-81394517D01*
X174444517Y-81227510D01*
X174583343Y-81036433D01*
X174690568Y-80825992D01*
X174763553Y-80601368D01*
X174800500Y-80368097D01*
X174800500Y-80131902D01*
X174763553Y-79898631D01*
X174690566Y-79674003D01*
X174583342Y-79463566D01*
X174571586Y-79447385D01*
X174444517Y-79272490D01*
X174277510Y-79105483D01*
X174086433Y-78966657D01*
X174053432Y-78949842D01*
X173875996Y-78859433D01*
X173651368Y-78786446D01*
X173418097Y-78749500D01*
X173418092Y-78749500D01*
X173181908Y-78749500D01*
X173181903Y-78749500D01*
X172948631Y-78786446D01*
X172724003Y-78859433D01*
X172513566Y-78966657D01*
X172440788Y-79019534D01*
X172322490Y-79105483D01*
X172322488Y-79105485D01*
X172322487Y-79105485D01*
X172155485Y-79272487D01*
X172155485Y-79272488D01*
X172155483Y-79272490D01*
X172125670Y-79313524D01*
X172016657Y-79463566D01*
X171909433Y-79674003D01*
X171836446Y-79898631D01*
X171799500Y-80131902D01*
X168300500Y-80131902D01*
X168263553Y-79898631D01*
X168190566Y-79674003D01*
X168083343Y-79463567D01*
X168071586Y-79447385D01*
X168048107Y-79381578D01*
X168063933Y-79313524D01*
X168114039Y-79264830D01*
X168171905Y-79250500D01*
X168623920Y-79250500D01*
X168721462Y-79231096D01*
X168768913Y-79221658D01*
X168905495Y-79165084D01*
X168954729Y-79132186D01*
X169028416Y-79082952D01*
X170922951Y-77188416D01*
X171005084Y-77065495D01*
X171061658Y-76928913D01*
X171090500Y-76783918D01*
X171090500Y-76636083D01*
X171090500Y-75203328D01*
X171110185Y-75136289D01*
X171162989Y-75090534D01*
X171232147Y-75080590D01*
X171261950Y-75088766D01*
X171318165Y-75112051D01*
X171318169Y-75112051D01*
X171318170Y-75112052D01*
X171511456Y-75150500D01*
X171511459Y-75150500D01*
X171708543Y-75150500D01*
X171862567Y-75119862D01*
X171901835Y-75112051D01*
X172052848Y-75049500D01*
X172083907Y-75036635D01*
X172083907Y-75036634D01*
X172083914Y-75036632D01*
X172247782Y-74927139D01*
X172387139Y-74787782D01*
X172496632Y-74623914D01*
X172572051Y-74441835D01*
X172600687Y-74297873D01*
X172610500Y-74248543D01*
X172610500Y-73251456D01*
X172572052Y-73058170D01*
X172572051Y-73058169D01*
X172572051Y-73058165D01*
X172548370Y-73000993D01*
X172496635Y-72876092D01*
X172496628Y-72876079D01*
X172387139Y-72712218D01*
X172387136Y-72712214D01*
X172247785Y-72572863D01*
X172247781Y-72572860D01*
X172083920Y-72463371D01*
X172083907Y-72463364D01*
X171901839Y-72387950D01*
X171901829Y-72387947D01*
X171708543Y-72349500D01*
X171708541Y-72349500D01*
X171511459Y-72349500D01*
X171511457Y-72349500D01*
X171318170Y-72387947D01*
X171318165Y-72387949D01*
X171261951Y-72411233D01*
X171229327Y-72414739D01*
X171196853Y-72419409D01*
X171194763Y-72418454D01*
X171192482Y-72418700D01*
X171163151Y-72404017D01*
X171133297Y-72390384D01*
X171132055Y-72388452D01*
X171130003Y-72387425D01*
X171113261Y-72359207D01*
X171095523Y-72331606D01*
X171095087Y-72328576D01*
X171094351Y-72327335D01*
X171090500Y-72296671D01*
X171090500Y-72202135D01*
X175999500Y-72202135D01*
X175999500Y-74297870D01*
X175999501Y-74297876D01*
X176005908Y-74357483D01*
X176056202Y-74492328D01*
X176056206Y-74492335D01*
X176142452Y-74607544D01*
X176142455Y-74607547D01*
X176257664Y-74693793D01*
X176257671Y-74693797D01*
X176392517Y-74744091D01*
X176392516Y-74744091D01*
X176399444Y-74744835D01*
X176452127Y-74750500D01*
X178547872Y-74750499D01*
X178607483Y-74744091D01*
X178742331Y-74693796D01*
X178857546Y-74607546D01*
X178943796Y-74492331D01*
X178994091Y-74357483D01*
X179000500Y-74297873D01*
X179000499Y-73131902D01*
X183599500Y-73131902D01*
X183599500Y-73368097D01*
X183636446Y-73601368D01*
X183709433Y-73825996D01*
X183811497Y-74026306D01*
X183816657Y-74036433D01*
X183955483Y-74227510D01*
X184122490Y-74394517D01*
X184313567Y-74533343D01*
X184412991Y-74584002D01*
X184524003Y-74640566D01*
X184524005Y-74640566D01*
X184524008Y-74640568D01*
X184644412Y-74679689D01*
X184748631Y-74713553D01*
X184981903Y-74750500D01*
X184981908Y-74750500D01*
X185218097Y-74750500D01*
X185451368Y-74713553D01*
X185675992Y-74640568D01*
X185886433Y-74533343D01*
X186077510Y-74394517D01*
X186244517Y-74227510D01*
X186383343Y-74036433D01*
X186490568Y-73825992D01*
X186563553Y-73601368D01*
X186567522Y-73576306D01*
X186600500Y-73368097D01*
X186600500Y-73131902D01*
X186563553Y-72898631D01*
X186501337Y-72707153D01*
X186490568Y-72674008D01*
X186490566Y-72674005D01*
X186490566Y-72674003D01*
X186425420Y-72546148D01*
X186383343Y-72463567D01*
X186244517Y-72272490D01*
X186077510Y-72105483D01*
X185886433Y-71966657D01*
X185864744Y-71955606D01*
X185675996Y-71859433D01*
X185451368Y-71786446D01*
X185218097Y-71749500D01*
X185218092Y-71749500D01*
X184981908Y-71749500D01*
X184981903Y-71749500D01*
X184748631Y-71786446D01*
X184524003Y-71859433D01*
X184313566Y-71966657D01*
X184204550Y-72045862D01*
X184122490Y-72105483D01*
X184122488Y-72105485D01*
X184122487Y-72105485D01*
X183955485Y-72272487D01*
X183955485Y-72272488D01*
X183955483Y-72272490D01*
X183915636Y-72327335D01*
X183816657Y-72463566D01*
X183709433Y-72674003D01*
X183636446Y-72898631D01*
X183599500Y-73131902D01*
X179000499Y-73131902D01*
X179000499Y-72202128D01*
X178994091Y-72142517D01*
X178980278Y-72105483D01*
X178943797Y-72007671D01*
X178943793Y-72007664D01*
X178857547Y-71892455D01*
X178857544Y-71892452D01*
X178742335Y-71806206D01*
X178742328Y-71806202D01*
X178607482Y-71755908D01*
X178607483Y-71755908D01*
X178547883Y-71749501D01*
X178547881Y-71749500D01*
X178547873Y-71749500D01*
X178547864Y-71749500D01*
X176452129Y-71749500D01*
X176452123Y-71749501D01*
X176392516Y-71755908D01*
X176257671Y-71806202D01*
X176257664Y-71806206D01*
X176142455Y-71892452D01*
X176142452Y-71892455D01*
X176056206Y-72007664D01*
X176056202Y-72007671D01*
X176005908Y-72142517D01*
X175999501Y-72202116D01*
X175999501Y-72202123D01*
X175999500Y-72202135D01*
X171090500Y-72202135D01*
X171090500Y-70322229D01*
X171110185Y-70255190D01*
X171126823Y-70234544D01*
X171132950Y-70228417D01*
X171132951Y-70228416D01*
X171215084Y-70105495D01*
X171271658Y-69968913D01*
X171292113Y-69866082D01*
X171300500Y-69823920D01*
X171300500Y-69676080D01*
X171292883Y-69637790D01*
X171290500Y-69613597D01*
X171290500Y-68647648D01*
X172309500Y-68647648D01*
X172309500Y-68852351D01*
X172341522Y-69054534D01*
X172404781Y-69249223D01*
X172468691Y-69374653D01*
X172496450Y-69429132D01*
X172497715Y-69431613D01*
X172618028Y-69597213D01*
X172762786Y-69741971D01*
X172890719Y-69834918D01*
X172928390Y-69862287D01*
X173035864Y-69917048D01*
X173110776Y-69955218D01*
X173110778Y-69955218D01*
X173110781Y-69955220D01*
X173215137Y-69989127D01*
X173305465Y-70018477D01*
X173406557Y-70034488D01*
X173507648Y-70050500D01*
X173507649Y-70050500D01*
X173712351Y-70050500D01*
X173712352Y-70050500D01*
X173914534Y-70018477D01*
X174109219Y-69955220D01*
X174291610Y-69862287D01*
X174384590Y-69794732D01*
X174457213Y-69741971D01*
X174457215Y-69741968D01*
X174457219Y-69741966D01*
X174601966Y-69597219D01*
X174601968Y-69597215D01*
X174601971Y-69597213D01*
X174654732Y-69524590D01*
X174722287Y-69431610D01*
X174815220Y-69249219D01*
X174878477Y-69054534D01*
X174910500Y-68852352D01*
X174910500Y-68647648D01*
X174901682Y-68591972D01*
X174878477Y-68445465D01*
X174815218Y-68250776D01*
X174763534Y-68149342D01*
X174722287Y-68068390D01*
X174656918Y-67978416D01*
X174601971Y-67902786D01*
X174457213Y-67758028D01*
X174291613Y-67637715D01*
X174291612Y-67637714D01*
X174291610Y-67637713D01*
X174228373Y-67605492D01*
X174109223Y-67544781D01*
X173914534Y-67481522D01*
X173739995Y-67453878D01*
X173712352Y-67449500D01*
X173507648Y-67449500D01*
X173483329Y-67453351D01*
X173305465Y-67481522D01*
X173110776Y-67544781D01*
X172928386Y-67637715D01*
X172762786Y-67758028D01*
X172618028Y-67902786D01*
X172497715Y-68068386D01*
X172404781Y-68250776D01*
X172341522Y-68445465D01*
X172309500Y-68647648D01*
X171290500Y-68647648D01*
X171290500Y-65131902D01*
X172299500Y-65131902D01*
X172299500Y-65368097D01*
X172336446Y-65601368D01*
X172409433Y-65825996D01*
X172512356Y-66027991D01*
X172516657Y-66036433D01*
X172655483Y-66227510D01*
X172822490Y-66394517D01*
X173013567Y-66533343D01*
X173112991Y-66584002D01*
X173224003Y-66640566D01*
X173224005Y-66640566D01*
X173224008Y-66640568D01*
X173344412Y-66679689D01*
X173448631Y-66713553D01*
X173681903Y-66750500D01*
X173681908Y-66750500D01*
X173918097Y-66750500D01*
X174151368Y-66713553D01*
X174375992Y-66640568D01*
X174586433Y-66533343D01*
X174777510Y-66394517D01*
X174944517Y-66227510D01*
X175083343Y-66036433D01*
X175190568Y-65825992D01*
X175263553Y-65601368D01*
X175281938Y-65485289D01*
X175300500Y-65368097D01*
X175300500Y-65131902D01*
X178799500Y-65131902D01*
X178799500Y-65368097D01*
X178836446Y-65601368D01*
X178909433Y-65825996D01*
X179012356Y-66027991D01*
X179016657Y-66036433D01*
X179155483Y-66227510D01*
X179322490Y-66394517D01*
X179513567Y-66533343D01*
X179612991Y-66584002D01*
X179724003Y-66640566D01*
X179724005Y-66640566D01*
X179724008Y-66640568D01*
X179844412Y-66679689D01*
X179948631Y-66713553D01*
X180181903Y-66750500D01*
X180181908Y-66750500D01*
X180418097Y-66750500D01*
X180651368Y-66713553D01*
X180875992Y-66640568D01*
X181086433Y-66533343D01*
X181277510Y-66394517D01*
X181444517Y-66227510D01*
X181583343Y-66036433D01*
X181690568Y-65825992D01*
X181763553Y-65601368D01*
X181781938Y-65485289D01*
X181800500Y-65368097D01*
X181800500Y-65131902D01*
X181763553Y-64898631D01*
X181699535Y-64701607D01*
X181690568Y-64674008D01*
X181690566Y-64674005D01*
X181690566Y-64674003D01*
X181583342Y-64463566D01*
X181444517Y-64272490D01*
X181277510Y-64105483D01*
X181086433Y-63966657D01*
X180875996Y-63859433D01*
X180651368Y-63786446D01*
X180418097Y-63749500D01*
X180418092Y-63749500D01*
X180181908Y-63749500D01*
X180181903Y-63749500D01*
X179948631Y-63786446D01*
X179724003Y-63859433D01*
X179513566Y-63966657D01*
X179404550Y-64045862D01*
X179322490Y-64105483D01*
X179322488Y-64105485D01*
X179322487Y-64105485D01*
X179155485Y-64272487D01*
X179155485Y-64272488D01*
X179155483Y-64272490D01*
X179126874Y-64311867D01*
X179016657Y-64463566D01*
X178909433Y-64674003D01*
X178836446Y-64898631D01*
X178799500Y-65131902D01*
X175300500Y-65131902D01*
X175263553Y-64898631D01*
X175199535Y-64701607D01*
X175190568Y-64674008D01*
X175190566Y-64674005D01*
X175190566Y-64674003D01*
X175083342Y-64463566D01*
X174944517Y-64272490D01*
X174777510Y-64105483D01*
X174586433Y-63966657D01*
X174375996Y-63859433D01*
X174151368Y-63786446D01*
X173918097Y-63749500D01*
X173918092Y-63749500D01*
X173681908Y-63749500D01*
X173681903Y-63749500D01*
X173448631Y-63786446D01*
X173224003Y-63859433D01*
X173013566Y-63966657D01*
X172904550Y-64045862D01*
X172822490Y-64105483D01*
X172822488Y-64105485D01*
X172822487Y-64105485D01*
X172655485Y-64272487D01*
X172655485Y-64272488D01*
X172655483Y-64272490D01*
X172626874Y-64311867D01*
X172516657Y-64463566D01*
X172409433Y-64674003D01*
X172336446Y-64898631D01*
X172299500Y-65131902D01*
X171290500Y-65131902D01*
X171290500Y-60631902D01*
X172299500Y-60631902D01*
X172299500Y-60868097D01*
X172336446Y-61101368D01*
X172409433Y-61325996D01*
X172496979Y-61497813D01*
X172516657Y-61536433D01*
X172655483Y-61727510D01*
X172822490Y-61894517D01*
X173013567Y-62033343D01*
X173093200Y-62073918D01*
X173224003Y-62140566D01*
X173224005Y-62140566D01*
X173224008Y-62140568D01*
X173344412Y-62179689D01*
X173448631Y-62213553D01*
X173681903Y-62250500D01*
X173681908Y-62250500D01*
X173918097Y-62250500D01*
X174151368Y-62213553D01*
X174152821Y-62213081D01*
X174375992Y-62140568D01*
X174586433Y-62033343D01*
X174777510Y-61894517D01*
X174944517Y-61727510D01*
X175083343Y-61536433D01*
X175190568Y-61325992D01*
X175263553Y-61101368D01*
X175300500Y-60868097D01*
X175300500Y-60631902D01*
X178799500Y-60631902D01*
X178799500Y-60868097D01*
X178836446Y-61101368D01*
X178909433Y-61325996D01*
X178996979Y-61497813D01*
X179016657Y-61536433D01*
X179155483Y-61727510D01*
X179322490Y-61894517D01*
X179513567Y-62033343D01*
X179593200Y-62073918D01*
X179724003Y-62140566D01*
X179724005Y-62140566D01*
X179724008Y-62140568D01*
X179844412Y-62179689D01*
X179948631Y-62213553D01*
X180181903Y-62250500D01*
X180181908Y-62250500D01*
X180418097Y-62250500D01*
X180651368Y-62213553D01*
X180652821Y-62213081D01*
X180875992Y-62140568D01*
X181086433Y-62033343D01*
X181277510Y-61894517D01*
X181444517Y-61727510D01*
X181583343Y-61536433D01*
X181690568Y-61325992D01*
X181763553Y-61101368D01*
X181800500Y-60868097D01*
X181800500Y-60631902D01*
X181763553Y-60398631D01*
X181712227Y-60240668D01*
X181690568Y-60174008D01*
X181690566Y-60174005D01*
X181690566Y-60174003D01*
X181634002Y-60062991D01*
X181583343Y-59963567D01*
X181444517Y-59772490D01*
X181277510Y-59605483D01*
X181086433Y-59466657D01*
X181064935Y-59455703D01*
X180875996Y-59359433D01*
X180651368Y-59286446D01*
X180418097Y-59249500D01*
X180418092Y-59249500D01*
X180181908Y-59249500D01*
X180181903Y-59249500D01*
X179948631Y-59286446D01*
X179724003Y-59359433D01*
X179513566Y-59466657D01*
X179404550Y-59545862D01*
X179322490Y-59605483D01*
X179322488Y-59605485D01*
X179322487Y-59605485D01*
X179155485Y-59772487D01*
X179155485Y-59772488D01*
X179155483Y-59772490D01*
X179095862Y-59854550D01*
X179016657Y-59963566D01*
X178909433Y-60174003D01*
X178836446Y-60398631D01*
X178799500Y-60631902D01*
X175300500Y-60631902D01*
X175263553Y-60398631D01*
X175212227Y-60240668D01*
X175190568Y-60174008D01*
X175190566Y-60174005D01*
X175190566Y-60174003D01*
X175134002Y-60062991D01*
X175083343Y-59963567D01*
X174944517Y-59772490D01*
X174777510Y-59605483D01*
X174586433Y-59466657D01*
X174564935Y-59455703D01*
X174375996Y-59359433D01*
X174151368Y-59286446D01*
X173918097Y-59249500D01*
X173918092Y-59249500D01*
X173681908Y-59249500D01*
X173681903Y-59249500D01*
X173448631Y-59286446D01*
X173224003Y-59359433D01*
X173013566Y-59466657D01*
X172904550Y-59545862D01*
X172822490Y-59605483D01*
X172822488Y-59605485D01*
X172822487Y-59605485D01*
X172655485Y-59772487D01*
X172655485Y-59772488D01*
X172655483Y-59772490D01*
X172595862Y-59854550D01*
X172516657Y-59963566D01*
X172409433Y-60174003D01*
X172336446Y-60398631D01*
X172299500Y-60631902D01*
X171290500Y-60631902D01*
X171290500Y-57453328D01*
X171310185Y-57386289D01*
X171362989Y-57340534D01*
X171432147Y-57330590D01*
X171461950Y-57338766D01*
X171518165Y-57362051D01*
X171518169Y-57362051D01*
X171518170Y-57362052D01*
X171711456Y-57400500D01*
X171711459Y-57400500D01*
X171908543Y-57400500D01*
X172043880Y-57373579D01*
X172101835Y-57362051D01*
X172283914Y-57286632D01*
X172447782Y-57177139D01*
X172587139Y-57037782D01*
X172696632Y-56873914D01*
X172772051Y-56691835D01*
X172810500Y-56498541D01*
X172810500Y-55501459D01*
X172810500Y-55501456D01*
X172772052Y-55308170D01*
X172772051Y-55308169D01*
X172772051Y-55308165D01*
X172772049Y-55308160D01*
X172696635Y-55126092D01*
X172696628Y-55126079D01*
X172587139Y-54962218D01*
X172587136Y-54962214D01*
X172447785Y-54822863D01*
X172447781Y-54822860D01*
X172283920Y-54713371D01*
X172283907Y-54713364D01*
X172101839Y-54637950D01*
X172101829Y-54637947D01*
X171908543Y-54599500D01*
X171908541Y-54599500D01*
X171711459Y-54599500D01*
X171711457Y-54599500D01*
X171518170Y-54637947D01*
X171518165Y-54637949D01*
X171461951Y-54661233D01*
X171392482Y-54668700D01*
X171330003Y-54637425D01*
X171294351Y-54577335D01*
X171290500Y-54546671D01*
X171290500Y-51131902D01*
X172299500Y-51131902D01*
X172299500Y-51368097D01*
X172336446Y-51601368D01*
X172409433Y-51825996D01*
X172475276Y-51955218D01*
X172516657Y-52036433D01*
X172655483Y-52227510D01*
X172822490Y-52394517D01*
X173013567Y-52533343D01*
X173112991Y-52584002D01*
X173224003Y-52640566D01*
X173224005Y-52640566D01*
X173224008Y-52640568D01*
X173344412Y-52679689D01*
X173448631Y-52713553D01*
X173681903Y-52750500D01*
X173681908Y-52750500D01*
X173918097Y-52750500D01*
X174151368Y-52713553D01*
X174375992Y-52640568D01*
X174586433Y-52533343D01*
X174777510Y-52394517D01*
X174944517Y-52227510D01*
X175083343Y-52036433D01*
X175190568Y-51825992D01*
X175263553Y-51601368D01*
X175265962Y-51586161D01*
X175300500Y-51368097D01*
X175300500Y-51131902D01*
X178799500Y-51131902D01*
X178799500Y-51368097D01*
X178836446Y-51601368D01*
X178909433Y-51825996D01*
X178975276Y-51955218D01*
X179016657Y-52036433D01*
X179155483Y-52227510D01*
X179322490Y-52394517D01*
X179513567Y-52533343D01*
X179612991Y-52584002D01*
X179724003Y-52640566D01*
X179724005Y-52640566D01*
X179724008Y-52640568D01*
X179844412Y-52679689D01*
X179948631Y-52713553D01*
X180181903Y-52750500D01*
X180181908Y-52750500D01*
X180418097Y-52750500D01*
X180651368Y-52713553D01*
X180875992Y-52640568D01*
X181086433Y-52533343D01*
X181277510Y-52394517D01*
X181444517Y-52227510D01*
X181583343Y-52036433D01*
X181690568Y-51825992D01*
X181763553Y-51601368D01*
X181765962Y-51586161D01*
X181800500Y-51368097D01*
X181800500Y-51131902D01*
X181763553Y-50898631D01*
X181690566Y-50674003D01*
X181602405Y-50500978D01*
X181583343Y-50463567D01*
X181444517Y-50272490D01*
X181277510Y-50105483D01*
X181086433Y-49966657D01*
X181077187Y-49961946D01*
X180875996Y-49859433D01*
X180651368Y-49786446D01*
X180418097Y-49749500D01*
X180418092Y-49749500D01*
X180181908Y-49749500D01*
X180181903Y-49749500D01*
X179948631Y-49786446D01*
X179724003Y-49859433D01*
X179513566Y-49966657D01*
X179404550Y-50045862D01*
X179322490Y-50105483D01*
X179322488Y-50105485D01*
X179322487Y-50105485D01*
X179155485Y-50272487D01*
X179155485Y-50272488D01*
X179155483Y-50272490D01*
X179095862Y-50354550D01*
X179016657Y-50463566D01*
X178909433Y-50674003D01*
X178836446Y-50898631D01*
X178799500Y-51131902D01*
X175300500Y-51131902D01*
X175263553Y-50898631D01*
X175190566Y-50674003D01*
X175102405Y-50500978D01*
X175083343Y-50463567D01*
X174944517Y-50272490D01*
X174777510Y-50105483D01*
X174586433Y-49966657D01*
X174577187Y-49961946D01*
X174375996Y-49859433D01*
X174151368Y-49786446D01*
X173918097Y-49749500D01*
X173918092Y-49749500D01*
X173681908Y-49749500D01*
X173681903Y-49749500D01*
X173448631Y-49786446D01*
X173224003Y-49859433D01*
X173013566Y-49966657D01*
X172904550Y-50045862D01*
X172822490Y-50105483D01*
X172822488Y-50105485D01*
X172822487Y-50105485D01*
X172655485Y-50272487D01*
X172655485Y-50272488D01*
X172655483Y-50272490D01*
X172595862Y-50354550D01*
X172516657Y-50463566D01*
X172409433Y-50674003D01*
X172336446Y-50898631D01*
X172299500Y-51131902D01*
X171290500Y-51131902D01*
X171290500Y-46631902D01*
X172299500Y-46631902D01*
X172299500Y-46868097D01*
X172336446Y-47101368D01*
X172409433Y-47325996D01*
X172496979Y-47497813D01*
X172516657Y-47536433D01*
X172655483Y-47727510D01*
X172822490Y-47894517D01*
X173013567Y-48033343D01*
X173112991Y-48084002D01*
X173224003Y-48140566D01*
X173224005Y-48140566D01*
X173224008Y-48140568D01*
X173344412Y-48179689D01*
X173448631Y-48213553D01*
X173681903Y-48250500D01*
X173681908Y-48250500D01*
X173918097Y-48250500D01*
X174151368Y-48213553D01*
X174189725Y-48201090D01*
X174375992Y-48140568D01*
X174586433Y-48033343D01*
X174777510Y-47894517D01*
X174944517Y-47727510D01*
X175083343Y-47536433D01*
X175190568Y-47325992D01*
X175263553Y-47101368D01*
X175276682Y-47018477D01*
X175300500Y-46868097D01*
X175300500Y-46631902D01*
X178799500Y-46631902D01*
X178799500Y-46868097D01*
X178836446Y-47101368D01*
X178909433Y-47325996D01*
X178996979Y-47497813D01*
X179016657Y-47536433D01*
X179155483Y-47727510D01*
X179322490Y-47894517D01*
X179513567Y-48033343D01*
X179612991Y-48084002D01*
X179724003Y-48140566D01*
X179724005Y-48140566D01*
X179724008Y-48140568D01*
X179844412Y-48179689D01*
X179948631Y-48213553D01*
X180181903Y-48250500D01*
X180181908Y-48250500D01*
X180418097Y-48250500D01*
X180651368Y-48213553D01*
X180689725Y-48201090D01*
X180875992Y-48140568D01*
X181086433Y-48033343D01*
X181277510Y-47894517D01*
X181444517Y-47727510D01*
X181583343Y-47536433D01*
X181690568Y-47325992D01*
X181763553Y-47101368D01*
X181776682Y-47018477D01*
X181800500Y-46868097D01*
X181800500Y-46631902D01*
X181763553Y-46398631D01*
X181715007Y-46249223D01*
X181690568Y-46174008D01*
X181690566Y-46174005D01*
X181690566Y-46174003D01*
X181583342Y-45963566D01*
X181444517Y-45772490D01*
X181277510Y-45605483D01*
X181086433Y-45466657D01*
X180875996Y-45359433D01*
X180651368Y-45286446D01*
X180418097Y-45249500D01*
X180418092Y-45249500D01*
X180181908Y-45249500D01*
X180181903Y-45249500D01*
X179948631Y-45286446D01*
X179724003Y-45359433D01*
X179513566Y-45466657D01*
X179451736Y-45511580D01*
X179322490Y-45605483D01*
X179322488Y-45605485D01*
X179322487Y-45605485D01*
X179155485Y-45772487D01*
X179155485Y-45772488D01*
X179155483Y-45772490D01*
X179097460Y-45852351D01*
X179016657Y-45963566D01*
X178909433Y-46174003D01*
X178836446Y-46398631D01*
X178799500Y-46631902D01*
X175300500Y-46631902D01*
X175263553Y-46398631D01*
X175215007Y-46249223D01*
X175190568Y-46174008D01*
X175190566Y-46174005D01*
X175190566Y-46174003D01*
X175083342Y-45963566D01*
X174944517Y-45772490D01*
X174777510Y-45605483D01*
X174586433Y-45466657D01*
X174375996Y-45359433D01*
X174151368Y-45286446D01*
X173918097Y-45249500D01*
X173918092Y-45249500D01*
X173681908Y-45249500D01*
X173681903Y-45249500D01*
X173448631Y-45286446D01*
X173224003Y-45359433D01*
X173013566Y-45466657D01*
X172951736Y-45511580D01*
X172822490Y-45605483D01*
X172822488Y-45605485D01*
X172822487Y-45605485D01*
X172655485Y-45772487D01*
X172655485Y-45772488D01*
X172655483Y-45772490D01*
X172597460Y-45852351D01*
X172516657Y-45963566D01*
X172409433Y-46174003D01*
X172336446Y-46398631D01*
X172299500Y-46631902D01*
X171290500Y-46631902D01*
X171290500Y-43453328D01*
X171310185Y-43386289D01*
X171362989Y-43340534D01*
X171432147Y-43330590D01*
X171461950Y-43338766D01*
X171518165Y-43362051D01*
X171518169Y-43362051D01*
X171518170Y-43362052D01*
X171711456Y-43400500D01*
X171711459Y-43400500D01*
X171908543Y-43400500D01*
X172062567Y-43369862D01*
X172101835Y-43362051D01*
X172283914Y-43286632D01*
X172447782Y-43177139D01*
X172587139Y-43037782D01*
X172696632Y-42873914D01*
X172772051Y-42691835D01*
X172784632Y-42628582D01*
X172810500Y-42498543D01*
X172810500Y-41501456D01*
X172772051Y-41308165D01*
X172772049Y-41308160D01*
X172696635Y-41126092D01*
X172696628Y-41126079D01*
X172587139Y-40962218D01*
X172587136Y-40962214D01*
X172447785Y-40822863D01*
X172447781Y-40822860D01*
X172283920Y-40713371D01*
X172283907Y-40713364D01*
X172101839Y-40637950D01*
X172101829Y-40637947D01*
X171908543Y-40599500D01*
X171908541Y-40599500D01*
X171711459Y-40599500D01*
X171711457Y-40599500D01*
X171518170Y-40637947D01*
X171518165Y-40637949D01*
X171461951Y-40661233D01*
X171392482Y-40668700D01*
X171330003Y-40637425D01*
X171294351Y-40577335D01*
X171290500Y-40546671D01*
X171290500Y-37131902D01*
X172299500Y-37131902D01*
X172299500Y-37368097D01*
X172336446Y-37601368D01*
X172409433Y-37825996D01*
X172516657Y-38036433D01*
X172655483Y-38227510D01*
X172822490Y-38394517D01*
X173013567Y-38533343D01*
X173093200Y-38573918D01*
X173224003Y-38640566D01*
X173224005Y-38640566D01*
X173224008Y-38640568D01*
X173344412Y-38679689D01*
X173448631Y-38713553D01*
X173681903Y-38750500D01*
X173681908Y-38750500D01*
X173918097Y-38750500D01*
X174151368Y-38713553D01*
X174189725Y-38701090D01*
X174375992Y-38640568D01*
X174586433Y-38533343D01*
X174777510Y-38394517D01*
X174944517Y-38227510D01*
X175083343Y-38036433D01*
X175190568Y-37825992D01*
X175263553Y-37601368D01*
X175269451Y-37564132D01*
X175300500Y-37368097D01*
X175300500Y-37131902D01*
X178799500Y-37131902D01*
X178799500Y-37368097D01*
X178836446Y-37601368D01*
X178909433Y-37825996D01*
X179016657Y-38036433D01*
X179155483Y-38227510D01*
X179322490Y-38394517D01*
X179513567Y-38533343D01*
X179593200Y-38573918D01*
X179724003Y-38640566D01*
X179724005Y-38640566D01*
X179724008Y-38640568D01*
X179844412Y-38679689D01*
X179948631Y-38713553D01*
X180181903Y-38750500D01*
X180181908Y-38750500D01*
X180418097Y-38750500D01*
X180651368Y-38713553D01*
X180689725Y-38701090D01*
X180875992Y-38640568D01*
X181086433Y-38533343D01*
X181277510Y-38394517D01*
X181444517Y-38227510D01*
X181583343Y-38036433D01*
X181690568Y-37825992D01*
X181763553Y-37601368D01*
X181769451Y-37564132D01*
X181800500Y-37368097D01*
X181800500Y-37131902D01*
X181763553Y-36898631D01*
X181690566Y-36674003D01*
X181583342Y-36463566D01*
X181444517Y-36272490D01*
X181277510Y-36105483D01*
X181086433Y-35966657D01*
X180875996Y-35859433D01*
X180651368Y-35786446D01*
X180418097Y-35749500D01*
X180418092Y-35749500D01*
X180181908Y-35749500D01*
X180181903Y-35749500D01*
X179948631Y-35786446D01*
X179724003Y-35859433D01*
X179513566Y-35966657D01*
X179404550Y-36045862D01*
X179322490Y-36105483D01*
X179322488Y-36105485D01*
X179322487Y-36105485D01*
X179155485Y-36272487D01*
X179155485Y-36272488D01*
X179155483Y-36272490D01*
X179095862Y-36354550D01*
X179016657Y-36463566D01*
X178909433Y-36674003D01*
X178836446Y-36898631D01*
X178799500Y-37131902D01*
X175300500Y-37131902D01*
X175263553Y-36898631D01*
X175190566Y-36674003D01*
X175083342Y-36463566D01*
X174944517Y-36272490D01*
X174777510Y-36105483D01*
X174586433Y-35966657D01*
X174375996Y-35859433D01*
X174151368Y-35786446D01*
X173918097Y-35749500D01*
X173918092Y-35749500D01*
X173681908Y-35749500D01*
X173681903Y-35749500D01*
X173448631Y-35786446D01*
X173224003Y-35859433D01*
X173013566Y-35966657D01*
X172904550Y-36045862D01*
X172822490Y-36105483D01*
X172822488Y-36105485D01*
X172822487Y-36105485D01*
X172655485Y-36272487D01*
X172655485Y-36272488D01*
X172655483Y-36272490D01*
X172595862Y-36354550D01*
X172516657Y-36463566D01*
X172409433Y-36674003D01*
X172336446Y-36898631D01*
X172299500Y-37131902D01*
X171290500Y-37131902D01*
X171290500Y-32631902D01*
X172299500Y-32631902D01*
X172299500Y-32868097D01*
X172336446Y-33101368D01*
X172409433Y-33325996D01*
X172516657Y-33536433D01*
X172655483Y-33727510D01*
X172822490Y-33894517D01*
X173013567Y-34033343D01*
X173112991Y-34084002D01*
X173224003Y-34140566D01*
X173224005Y-34140566D01*
X173224008Y-34140568D01*
X173344412Y-34179689D01*
X173448631Y-34213553D01*
X173681903Y-34250500D01*
X173681908Y-34250500D01*
X173918097Y-34250500D01*
X174151368Y-34213553D01*
X174189725Y-34201090D01*
X174375992Y-34140568D01*
X174586433Y-34033343D01*
X174777510Y-33894517D01*
X174944517Y-33727510D01*
X175083343Y-33536433D01*
X175190568Y-33325992D01*
X175263553Y-33101368D01*
X175275720Y-33024548D01*
X175300500Y-32868097D01*
X175300500Y-32631902D01*
X178799500Y-32631902D01*
X178799500Y-32868097D01*
X178836446Y-33101368D01*
X178909433Y-33325996D01*
X179016657Y-33536433D01*
X179155483Y-33727510D01*
X179322490Y-33894517D01*
X179513567Y-34033343D01*
X179612991Y-34084002D01*
X179724003Y-34140566D01*
X179724005Y-34140566D01*
X179724008Y-34140568D01*
X179844412Y-34179689D01*
X179948631Y-34213553D01*
X180181903Y-34250500D01*
X180181908Y-34250500D01*
X180418097Y-34250500D01*
X180651368Y-34213553D01*
X180689725Y-34201090D01*
X180875992Y-34140568D01*
X181086433Y-34033343D01*
X181277510Y-33894517D01*
X181444517Y-33727510D01*
X181583343Y-33536433D01*
X181690568Y-33325992D01*
X181763553Y-33101368D01*
X181775720Y-33024548D01*
X181800500Y-32868097D01*
X181800500Y-32631902D01*
X181763553Y-32398631D01*
X181690566Y-32174003D01*
X181583342Y-31963566D01*
X181564863Y-31938132D01*
X181444517Y-31772490D01*
X181277510Y-31605483D01*
X181086433Y-31466657D01*
X180875996Y-31359433D01*
X180651368Y-31286446D01*
X180418097Y-31249500D01*
X180418092Y-31249500D01*
X180181908Y-31249500D01*
X180181903Y-31249500D01*
X179948631Y-31286446D01*
X179724003Y-31359433D01*
X179513566Y-31466657D01*
X179412358Y-31540190D01*
X179322490Y-31605483D01*
X179322488Y-31605485D01*
X179322487Y-31605485D01*
X179155485Y-31772487D01*
X179155485Y-31772488D01*
X179155483Y-31772490D01*
X179095862Y-31854550D01*
X179016657Y-31963566D01*
X178909433Y-32174003D01*
X178836446Y-32398631D01*
X178799500Y-32631902D01*
X175300500Y-32631902D01*
X175263553Y-32398631D01*
X175190566Y-32174003D01*
X175083342Y-31963566D01*
X175064863Y-31938132D01*
X174944517Y-31772490D01*
X174777510Y-31605483D01*
X174586433Y-31466657D01*
X174375996Y-31359433D01*
X174151368Y-31286446D01*
X173918097Y-31249500D01*
X173918092Y-31249500D01*
X173681908Y-31249500D01*
X173681903Y-31249500D01*
X173448631Y-31286446D01*
X173224003Y-31359433D01*
X173013566Y-31466657D01*
X172912358Y-31540190D01*
X172822490Y-31605483D01*
X172822488Y-31605485D01*
X172822487Y-31605485D01*
X172655485Y-31772487D01*
X172655485Y-31772488D01*
X172655483Y-31772490D01*
X172595862Y-31854550D01*
X172516657Y-31963566D01*
X172409433Y-32174003D01*
X172336446Y-32398631D01*
X172299500Y-32631902D01*
X171290500Y-32631902D01*
X171290500Y-29453328D01*
X171310185Y-29386289D01*
X171362989Y-29340534D01*
X171432147Y-29330590D01*
X171461950Y-29338766D01*
X171518165Y-29362051D01*
X171518169Y-29362051D01*
X171518170Y-29362052D01*
X171711456Y-29400500D01*
X171711459Y-29400500D01*
X171908543Y-29400500D01*
X172062567Y-29369862D01*
X172101835Y-29362051D01*
X172283914Y-29286632D01*
X172447782Y-29177139D01*
X172587139Y-29037782D01*
X172696632Y-28873914D01*
X172772051Y-28691835D01*
X172810500Y-28498541D01*
X172810500Y-27501459D01*
X172810500Y-27501456D01*
X172772052Y-27308170D01*
X172772051Y-27308169D01*
X172772051Y-27308165D01*
X172772049Y-27308160D01*
X172696635Y-27126092D01*
X172696628Y-27126079D01*
X172587139Y-26962218D01*
X172587136Y-26962214D01*
X172447785Y-26822863D01*
X172447781Y-26822860D01*
X172283920Y-26713371D01*
X172283907Y-26713364D01*
X172101839Y-26637950D01*
X172101829Y-26637947D01*
X171908543Y-26599500D01*
X171908541Y-26599500D01*
X171711459Y-26599500D01*
X171711457Y-26599500D01*
X171518170Y-26637947D01*
X171518165Y-26637949D01*
X171461951Y-26661233D01*
X171392482Y-26668700D01*
X171330003Y-26637425D01*
X171294351Y-26577335D01*
X171290500Y-26546671D01*
X171290500Y-23916079D01*
X171261659Y-23771092D01*
X171261658Y-23771091D01*
X171261658Y-23771087D01*
X171254726Y-23754352D01*
X171205087Y-23634511D01*
X171205080Y-23634498D01*
X171122952Y-23511585D01*
X171121816Y-23510449D01*
X171018416Y-23407049D01*
X170863201Y-23251834D01*
X170028421Y-22417052D01*
X170028414Y-22417046D01*
X169954729Y-22367812D01*
X169954729Y-22367813D01*
X169905491Y-22334913D01*
X169768917Y-22278343D01*
X169768907Y-22278340D01*
X169623920Y-22249500D01*
X169623918Y-22249500D01*
X156623918Y-22249500D01*
X143726082Y-22249500D01*
X143726080Y-22249500D01*
X143581092Y-22278340D01*
X143581082Y-22278343D01*
X143444511Y-22334912D01*
X143444498Y-22334919D01*
X143339699Y-22404945D01*
X143339698Y-22404946D01*
X143321581Y-22417050D01*
X143321580Y-22417051D01*
X141957052Y-23781578D01*
X141957049Y-23781581D01*
X141921135Y-23835330D01*
X141921136Y-23835331D01*
X141874914Y-23904508D01*
X141818343Y-24041082D01*
X141818340Y-24041092D01*
X141789500Y-24186079D01*
X141789500Y-26547212D01*
X141769815Y-26614251D01*
X141717011Y-26660006D01*
X141647853Y-26669950D01*
X141618048Y-26661773D01*
X141561691Y-26638429D01*
X141561683Y-26638427D01*
X141520000Y-26630135D01*
X141520000Y-27624722D01*
X141443694Y-27580667D01*
X141329244Y-27550000D01*
X141210756Y-27550000D01*
X141096306Y-27580667D01*
X141020000Y-27624722D01*
X141020000Y-26630136D01*
X141019999Y-26630135D01*
X140978316Y-26638427D01*
X140876339Y-26680666D01*
X140806870Y-26688133D01*
X140754578Y-26665372D01*
X140742330Y-26656203D01*
X140742328Y-26656202D01*
X140607482Y-26605908D01*
X140607483Y-26605908D01*
X140547883Y-26599501D01*
X140547881Y-26599500D01*
X140547873Y-26599500D01*
X140547864Y-26599500D01*
X139452129Y-26599500D01*
X139452123Y-26599501D01*
X139392516Y-26605908D01*
X139257671Y-26656202D01*
X139257664Y-26656206D01*
X139142455Y-26742452D01*
X139142452Y-26742455D01*
X139056206Y-26857664D01*
X139056202Y-26857671D01*
X139005908Y-26992517D01*
X138999501Y-27052116D01*
X138999500Y-27052135D01*
X138999500Y-28947870D01*
X138999501Y-28947876D01*
X139005908Y-29007483D01*
X139056202Y-29142328D01*
X139056206Y-29142335D01*
X139142452Y-29257544D01*
X139142455Y-29257547D01*
X139257664Y-29343793D01*
X139257671Y-29343797D01*
X139392517Y-29394091D01*
X139392516Y-29394091D01*
X139399444Y-29394835D01*
X139452127Y-29400500D01*
X140547872Y-29400499D01*
X140607483Y-29394091D01*
X140742331Y-29343796D01*
X140754575Y-29334629D01*
X140820035Y-29310210D01*
X140876339Y-29319333D01*
X140978308Y-29361569D01*
X141020000Y-29369862D01*
X141020000Y-28375277D01*
X141096306Y-28419333D01*
X141210756Y-28450000D01*
X141329244Y-28450000D01*
X141443694Y-28419333D01*
X141520000Y-28375277D01*
X141520000Y-29369862D01*
X141561689Y-29361570D01*
X141618047Y-29338226D01*
X141687516Y-29330757D01*
X141749996Y-29362032D01*
X141785648Y-29422121D01*
X141789500Y-29452787D01*
X141789500Y-29892769D01*
X141769815Y-29959808D01*
X141753181Y-29980450D01*
X140967052Y-30766578D01*
X140967046Y-30766585D01*
X140919362Y-30837950D01*
X140919363Y-30837951D01*
X140884914Y-30889508D01*
X140828343Y-31026082D01*
X140828340Y-31026092D01*
X140799500Y-31171079D01*
X140799500Y-31171082D01*
X140799500Y-38573918D01*
X140799500Y-38573920D01*
X140799499Y-38573920D01*
X140828340Y-38718907D01*
X140828343Y-38718917D01*
X140884914Y-38855491D01*
X140884916Y-38855495D01*
X140904965Y-38885501D01*
X140916885Y-38903341D01*
X140967049Y-38978418D01*
X140967052Y-38978421D01*
X141753181Y-39764548D01*
X141786666Y-39825871D01*
X141789500Y-39852229D01*
X141789500Y-40547212D01*
X141769815Y-40614251D01*
X141717011Y-40660006D01*
X141647853Y-40669950D01*
X141618048Y-40661773D01*
X141561691Y-40638429D01*
X141561683Y-40638427D01*
X141520000Y-40630135D01*
X141520000Y-41624722D01*
X141443694Y-41580667D01*
X141329244Y-41550000D01*
X141210756Y-41550000D01*
X141096306Y-41580667D01*
X141020000Y-41624722D01*
X141020000Y-40630136D01*
X141019999Y-40630135D01*
X140978316Y-40638427D01*
X140876339Y-40680666D01*
X140806870Y-40688133D01*
X140754578Y-40665372D01*
X140742330Y-40656203D01*
X140742328Y-40656202D01*
X140607482Y-40605908D01*
X140607483Y-40605908D01*
X140547883Y-40599501D01*
X140547881Y-40599500D01*
X140547873Y-40599500D01*
X140547864Y-40599500D01*
X139452129Y-40599500D01*
X139452123Y-40599501D01*
X139392516Y-40605908D01*
X139257671Y-40656202D01*
X139257664Y-40656206D01*
X139142455Y-40742452D01*
X139142452Y-40742455D01*
X139056206Y-40857664D01*
X139056202Y-40857671D01*
X139005908Y-40992517D01*
X138999501Y-41052116D01*
X138999500Y-41052135D01*
X138999500Y-42947870D01*
X138999501Y-42947876D01*
X139005908Y-43007483D01*
X139056202Y-43142328D01*
X139056206Y-43142335D01*
X139142452Y-43257544D01*
X139142455Y-43257547D01*
X139257664Y-43343793D01*
X139257671Y-43343797D01*
X139392517Y-43394091D01*
X139392516Y-43394091D01*
X139399444Y-43394835D01*
X139452127Y-43400500D01*
X140547872Y-43400499D01*
X140607483Y-43394091D01*
X140742331Y-43343796D01*
X140754575Y-43334629D01*
X140820035Y-43310210D01*
X140876339Y-43319333D01*
X140978308Y-43361569D01*
X141020000Y-43369862D01*
X141020000Y-42375277D01*
X141096306Y-42419333D01*
X141210756Y-42450000D01*
X141329244Y-42450000D01*
X141443694Y-42419333D01*
X141520000Y-42375277D01*
X141520000Y-43407269D01*
X141500315Y-43474308D01*
X141483681Y-43494950D01*
X140816584Y-44162048D01*
X139467050Y-45511580D01*
X139467044Y-45511588D01*
X139417812Y-45585268D01*
X139417813Y-45585269D01*
X139384921Y-45634496D01*
X139384914Y-45634508D01*
X139328342Y-45771086D01*
X139328340Y-45771092D01*
X139299500Y-45916079D01*
X139299500Y-45916082D01*
X139299500Y-48926082D01*
X139299500Y-49176082D01*
X139299500Y-52073918D01*
X139299500Y-52073920D01*
X139299499Y-52073920D01*
X139328340Y-52218907D01*
X139328343Y-52218917D01*
X139384913Y-52355490D01*
X139384914Y-52355492D01*
X139410990Y-52394517D01*
X139410991Y-52394519D01*
X139467043Y-52478410D01*
X139467047Y-52478415D01*
X140837707Y-53849074D01*
X140837728Y-53849097D01*
X141483681Y-54495048D01*
X141517166Y-54556371D01*
X141520000Y-54582729D01*
X141520000Y-55624722D01*
X141443694Y-55580667D01*
X141329244Y-55550000D01*
X141210756Y-55550000D01*
X141096306Y-55580667D01*
X141020000Y-55624722D01*
X141020000Y-54630136D01*
X141019999Y-54630135D01*
X140978316Y-54638427D01*
X140876339Y-54680666D01*
X140806870Y-54688133D01*
X140754578Y-54665372D01*
X140742330Y-54656203D01*
X140742328Y-54656202D01*
X140607482Y-54605908D01*
X140607483Y-54605908D01*
X140547883Y-54599501D01*
X140547881Y-54599500D01*
X140547873Y-54599500D01*
X140547864Y-54599500D01*
X139452129Y-54599500D01*
X139452123Y-54599501D01*
X139392516Y-54605908D01*
X139257671Y-54656202D01*
X139257664Y-54656206D01*
X139142455Y-54742452D01*
X139142452Y-54742455D01*
X139056206Y-54857664D01*
X139056202Y-54857671D01*
X139005908Y-54992517D01*
X138999501Y-55052116D01*
X138999500Y-55052135D01*
X138999500Y-56947870D01*
X138999501Y-56947876D01*
X139005908Y-57007483D01*
X139056202Y-57142328D01*
X139056206Y-57142335D01*
X139142452Y-57257544D01*
X139142455Y-57257547D01*
X139257664Y-57343793D01*
X139257671Y-57343797D01*
X139392517Y-57394091D01*
X139392516Y-57394091D01*
X139399444Y-57394835D01*
X139452127Y-57400500D01*
X140547872Y-57400499D01*
X140607483Y-57394091D01*
X140742331Y-57343796D01*
X140754575Y-57334629D01*
X140820035Y-57310210D01*
X140876339Y-57319333D01*
X140978308Y-57361569D01*
X141020000Y-57369862D01*
X141020000Y-56375277D01*
X141096306Y-56419333D01*
X141210756Y-56450000D01*
X141329244Y-56450000D01*
X141443694Y-56419333D01*
X141520000Y-56375277D01*
X141520000Y-57369863D01*
X141537147Y-57383936D01*
X141576481Y-57441682D01*
X141578350Y-57511526D01*
X141546163Y-57567469D01*
X141400449Y-57713182D01*
X141339129Y-57746666D01*
X141312770Y-57749500D01*
X122476076Y-57749500D01*
X122447242Y-57755234D01*
X122447243Y-57755235D01*
X122331093Y-57778339D01*
X122331083Y-57778342D01*
X122251081Y-57811479D01*
X122251082Y-57811480D01*
X122194505Y-57834915D01*
X122112372Y-57889795D01*
X122071585Y-57917047D01*
X122071581Y-57917050D01*
X121430052Y-58558578D01*
X121430052Y-58558579D01*
X121430049Y-58558582D01*
X121430048Y-58558584D01*
X121389400Y-58619418D01*
X121347918Y-58681502D01*
X121347914Y-58681509D01*
X121291342Y-58818087D01*
X121291340Y-58818093D01*
X121262500Y-58963080D01*
X121262500Y-58963083D01*
X121262500Y-59110917D01*
X121262500Y-59110919D01*
X121262499Y-59110919D01*
X121291340Y-59255906D01*
X121291343Y-59255916D01*
X121350247Y-59398123D01*
X121349383Y-59398480D01*
X121351366Y-59406395D01*
X121357477Y-59415904D01*
X121362500Y-59450839D01*
X121362500Y-59685500D01*
X121342815Y-59752539D01*
X121290011Y-59798294D01*
X121238500Y-59809500D01*
X120237998Y-59809500D01*
X120237981Y-59809501D01*
X120135203Y-59820000D01*
X120135200Y-59820001D01*
X119968668Y-59875185D01*
X119968663Y-59875187D01*
X119819342Y-59967289D01*
X119695289Y-60091342D01*
X119603187Y-60240663D01*
X119603186Y-60240666D01*
X119548001Y-60407203D01*
X119548001Y-60407204D01*
X119548000Y-60407204D01*
X119547858Y-60408603D01*
X119547528Y-60409410D01*
X119546583Y-60413827D01*
X119545795Y-60413658D01*
X119521462Y-60473294D01*
X119464281Y-60513446D01*
X119394470Y-60516309D01*
X119334193Y-60480975D01*
X119302588Y-60418662D01*
X119300500Y-60396000D01*
X119300500Y-50647648D01*
X125499500Y-50647648D01*
X125499500Y-50852351D01*
X125531522Y-51054534D01*
X125594781Y-51249223D01*
X125687715Y-51431613D01*
X125808028Y-51597213D01*
X125952786Y-51741971D01*
X126104458Y-51852165D01*
X126118390Y-51862287D01*
X126215494Y-51911764D01*
X126300776Y-51955218D01*
X126300778Y-51955218D01*
X126300781Y-51955220D01*
X126405137Y-51989127D01*
X126495465Y-52018477D01*
X126548254Y-52026838D01*
X126697648Y-52050500D01*
X126697649Y-52050500D01*
X126902351Y-52050500D01*
X126902352Y-52050500D01*
X127104534Y-52018477D01*
X127299219Y-51955220D01*
X127481610Y-51862287D01*
X127574590Y-51794732D01*
X127647213Y-51741971D01*
X127647215Y-51741968D01*
X127647219Y-51741966D01*
X127712319Y-51676866D01*
X127773642Y-51643381D01*
X127843334Y-51648365D01*
X127887681Y-51676866D01*
X127952786Y-51741971D01*
X128104458Y-51852165D01*
X128118390Y-51862287D01*
X128215494Y-51911764D01*
X128300776Y-51955218D01*
X128300778Y-51955218D01*
X128300781Y-51955220D01*
X128405137Y-51989127D01*
X128495465Y-52018477D01*
X128548254Y-52026838D01*
X128697648Y-52050500D01*
X128697649Y-52050500D01*
X128902351Y-52050500D01*
X128902352Y-52050500D01*
X129104534Y-52018477D01*
X129299219Y-51955220D01*
X129481610Y-51862287D01*
X129574590Y-51794732D01*
X129647213Y-51741971D01*
X129647215Y-51741968D01*
X129647219Y-51741966D01*
X129712319Y-51676866D01*
X129773642Y-51643381D01*
X129843334Y-51648365D01*
X129887681Y-51676866D01*
X129952786Y-51741971D01*
X130104458Y-51852165D01*
X130118390Y-51862287D01*
X130215494Y-51911764D01*
X130300776Y-51955218D01*
X130300778Y-51955218D01*
X130300781Y-51955220D01*
X130405137Y-51989127D01*
X130495465Y-52018477D01*
X130548254Y-52026838D01*
X130697648Y-52050500D01*
X130697649Y-52050500D01*
X130902351Y-52050500D01*
X130902352Y-52050500D01*
X131104534Y-52018477D01*
X131299219Y-51955220D01*
X131481610Y-51862287D01*
X131574590Y-51794732D01*
X131647213Y-51741971D01*
X131647215Y-51741968D01*
X131647219Y-51741966D01*
X131791966Y-51597219D01*
X131791968Y-51597215D01*
X131791971Y-51597213D01*
X131844732Y-51524590D01*
X131912287Y-51431610D01*
X132005220Y-51249219D01*
X132068477Y-51054534D01*
X132100500Y-50852352D01*
X132100500Y-50647648D01*
X132077035Y-50499500D01*
X132068477Y-50445465D01*
X132040148Y-50358278D01*
X132005220Y-50250781D01*
X132005218Y-50250778D01*
X132005217Y-50250773D01*
X131984128Y-50209384D01*
X131984127Y-50209383D01*
X131957139Y-50156417D01*
X135343705Y-50156417D01*
X135343705Y-51852152D01*
X135343706Y-51852158D01*
X135350113Y-51911765D01*
X135400407Y-52046610D01*
X135400411Y-52046617D01*
X135486657Y-52161826D01*
X135486660Y-52161829D01*
X135601869Y-52248075D01*
X135601876Y-52248079D01*
X135736722Y-52298373D01*
X135736721Y-52298373D01*
X135743649Y-52299117D01*
X135796332Y-52304782D01*
X137492077Y-52304781D01*
X137551688Y-52298373D01*
X137686536Y-52248078D01*
X137801751Y-52161828D01*
X137888001Y-52046613D01*
X137938296Y-51911765D01*
X137944705Y-51852155D01*
X137944704Y-50156410D01*
X137938296Y-50096799D01*
X137888001Y-49961951D01*
X137888000Y-49961950D01*
X137887998Y-49961946D01*
X137801752Y-49846737D01*
X137801749Y-49846734D01*
X137686540Y-49760488D01*
X137686533Y-49760484D01*
X137551687Y-49710190D01*
X137551688Y-49710190D01*
X137492088Y-49703783D01*
X137492086Y-49703782D01*
X137492078Y-49703782D01*
X137492069Y-49703782D01*
X135796334Y-49703782D01*
X135796328Y-49703783D01*
X135736721Y-49710190D01*
X135601876Y-49760484D01*
X135601869Y-49760488D01*
X135486660Y-49846734D01*
X135486657Y-49846737D01*
X135400411Y-49961946D01*
X135400407Y-49961953D01*
X135350113Y-50096799D01*
X135343706Y-50156398D01*
X135343706Y-50156405D01*
X135343705Y-50156417D01*
X131957139Y-50156417D01*
X131957129Y-50156398D01*
X131912287Y-50068390D01*
X131904556Y-50057749D01*
X131791971Y-49902786D01*
X131647213Y-49758028D01*
X131481613Y-49637715D01*
X131481612Y-49637714D01*
X131481610Y-49637713D01*
X131424653Y-49608691D01*
X131299223Y-49544781D01*
X131104534Y-49481522D01*
X130929995Y-49453878D01*
X130902352Y-49449500D01*
X130697648Y-49449500D01*
X130673329Y-49453351D01*
X130495465Y-49481522D01*
X130300776Y-49544781D01*
X130118386Y-49637715D01*
X129952786Y-49758028D01*
X129952782Y-49758032D01*
X129887681Y-49823134D01*
X129826358Y-49856619D01*
X129756666Y-49851635D01*
X129712319Y-49823134D01*
X129647213Y-49758028D01*
X129481613Y-49637715D01*
X129481612Y-49637714D01*
X129481610Y-49637713D01*
X129424653Y-49608691D01*
X129299223Y-49544781D01*
X129104534Y-49481522D01*
X128929995Y-49453878D01*
X128902352Y-49449500D01*
X128697648Y-49449500D01*
X128673329Y-49453351D01*
X128495465Y-49481522D01*
X128300776Y-49544781D01*
X128118386Y-49637715D01*
X127952786Y-49758028D01*
X127952782Y-49758032D01*
X127887681Y-49823134D01*
X127826358Y-49856619D01*
X127756666Y-49851635D01*
X127712319Y-49823134D01*
X127647213Y-49758028D01*
X127481613Y-49637715D01*
X127481612Y-49637714D01*
X127481610Y-49637713D01*
X127424653Y-49608691D01*
X127299223Y-49544781D01*
X127104534Y-49481522D01*
X126929995Y-49453878D01*
X126902352Y-49449500D01*
X126697648Y-49449500D01*
X126673329Y-49453351D01*
X126495465Y-49481522D01*
X126300776Y-49544781D01*
X126118386Y-49637715D01*
X125952786Y-49758028D01*
X125808028Y-49902786D01*
X125687715Y-50068386D01*
X125594781Y-50250776D01*
X125531522Y-50445465D01*
X125499500Y-50647648D01*
X119300500Y-50647648D01*
X119300500Y-44902135D01*
X125499500Y-44902135D01*
X125499500Y-46597870D01*
X125499501Y-46597876D01*
X125505908Y-46657483D01*
X125556202Y-46792328D01*
X125556206Y-46792335D01*
X125642452Y-46907544D01*
X125642455Y-46907547D01*
X125757664Y-46993793D01*
X125757671Y-46993797D01*
X125892517Y-47044091D01*
X125892516Y-47044091D01*
X125899444Y-47044835D01*
X125952127Y-47050500D01*
X127647872Y-47050499D01*
X127707483Y-47044091D01*
X127842331Y-46993796D01*
X127957546Y-46907546D01*
X127957548Y-46907544D01*
X127963924Y-46899026D01*
X128019856Y-46857152D01*
X128089547Y-46852165D01*
X128119489Y-46862847D01*
X128300776Y-46955218D01*
X128300778Y-46955218D01*
X128300781Y-46955220D01*
X128405137Y-46989127D01*
X128495465Y-47018477D01*
X128596557Y-47034488D01*
X128697648Y-47050500D01*
X128697649Y-47050500D01*
X128902351Y-47050500D01*
X128902352Y-47050500D01*
X129104534Y-47018477D01*
X129299219Y-46955220D01*
X129481610Y-46862287D01*
X129577901Y-46792328D01*
X129647213Y-46741971D01*
X129647215Y-46741968D01*
X129647219Y-46741966D01*
X129712319Y-46676866D01*
X129773642Y-46643381D01*
X129843334Y-46648365D01*
X129887681Y-46676866D01*
X129952786Y-46741971D01*
X130104458Y-46852165D01*
X130118390Y-46862287D01*
X130207212Y-46907544D01*
X130300776Y-46955218D01*
X130300778Y-46955218D01*
X130300781Y-46955220D01*
X130405137Y-46989127D01*
X130495465Y-47018477D01*
X130596557Y-47034488D01*
X130697648Y-47050500D01*
X130697649Y-47050500D01*
X130902351Y-47050500D01*
X130902352Y-47050500D01*
X131104534Y-47018477D01*
X131299219Y-46955220D01*
X131481610Y-46862287D01*
X131577901Y-46792328D01*
X131647213Y-46741971D01*
X131647215Y-46741968D01*
X131647219Y-46741966D01*
X131791966Y-46597219D01*
X131791968Y-46597215D01*
X131791971Y-46597213D01*
X131883559Y-46471151D01*
X131912287Y-46431610D01*
X132005220Y-46249219D01*
X132068477Y-46054534D01*
X132100500Y-45852352D01*
X132100500Y-45647648D01*
X132078949Y-45511580D01*
X132068477Y-45445465D01*
X132039127Y-45355137D01*
X132005220Y-45250781D01*
X132005218Y-45250778D01*
X132005218Y-45250776D01*
X131953700Y-45149668D01*
X131912287Y-45068390D01*
X131904556Y-45057749D01*
X131791971Y-44902786D01*
X131647213Y-44758028D01*
X131481613Y-44637715D01*
X131481612Y-44637714D01*
X131481610Y-44637713D01*
X131409516Y-44600979D01*
X131299223Y-44544781D01*
X131104534Y-44481522D01*
X130929995Y-44453878D01*
X130902352Y-44449500D01*
X130697648Y-44449500D01*
X130673329Y-44453351D01*
X130495465Y-44481522D01*
X130300776Y-44544781D01*
X130118386Y-44637715D01*
X129952786Y-44758028D01*
X129952782Y-44758032D01*
X129887681Y-44823134D01*
X129826358Y-44856619D01*
X129756666Y-44851635D01*
X129712319Y-44823134D01*
X129647213Y-44758028D01*
X129481613Y-44637715D01*
X129481612Y-44637714D01*
X129481610Y-44637713D01*
X129409516Y-44600979D01*
X129299223Y-44544781D01*
X129104534Y-44481522D01*
X128929995Y-44453878D01*
X128902352Y-44449500D01*
X128697648Y-44449500D01*
X128673329Y-44453351D01*
X128495465Y-44481522D01*
X128300776Y-44544781D01*
X128119489Y-44637153D01*
X128050820Y-44650049D01*
X127986079Y-44623773D01*
X127963930Y-44600982D01*
X127957546Y-44592454D01*
X127842331Y-44506204D01*
X127842329Y-44506203D01*
X127842328Y-44506202D01*
X127707482Y-44455908D01*
X127707483Y-44455908D01*
X127647883Y-44449501D01*
X127647881Y-44449500D01*
X127647873Y-44449500D01*
X127647864Y-44449500D01*
X125952129Y-44449500D01*
X125952123Y-44449501D01*
X125892516Y-44455908D01*
X125757671Y-44506202D01*
X125757664Y-44506206D01*
X125642455Y-44592452D01*
X125642452Y-44592455D01*
X125556206Y-44707664D01*
X125556202Y-44707671D01*
X125505908Y-44842517D01*
X125499501Y-44902116D01*
X125499500Y-44902135D01*
X119300500Y-44902135D01*
X119300500Y-43281930D01*
X135343705Y-43281930D01*
X135343705Y-43486634D01*
X135345403Y-43497355D01*
X135375727Y-43688816D01*
X135438986Y-43883505D01*
X135487349Y-43978421D01*
X135514186Y-44031092D01*
X135531920Y-44065895D01*
X135652233Y-44231495D01*
X135796991Y-44376253D01*
X135941884Y-44481522D01*
X135962595Y-44496569D01*
X136058019Y-44545190D01*
X136144981Y-44589500D01*
X136144983Y-44589500D01*
X136144986Y-44589502D01*
X136180309Y-44600979D01*
X136339670Y-44652759D01*
X136440762Y-44668770D01*
X136541853Y-44684782D01*
X136541854Y-44684782D01*
X136746556Y-44684782D01*
X136746557Y-44684782D01*
X136948739Y-44652759D01*
X137143424Y-44589502D01*
X137325815Y-44496569D01*
X137418795Y-44429014D01*
X137491418Y-44376253D01*
X137491420Y-44376250D01*
X137491424Y-44376248D01*
X137636171Y-44231501D01*
X137636173Y-44231497D01*
X137636176Y-44231495D01*
X137688937Y-44158872D01*
X137756492Y-44065892D01*
X137849425Y-43883501D01*
X137912682Y-43688816D01*
X137944705Y-43486634D01*
X137944705Y-43281930D01*
X137930007Y-43189132D01*
X137912682Y-43079747D01*
X137849423Y-42885058D01*
X137791875Y-42772115D01*
X137756492Y-42702672D01*
X137748614Y-42691829D01*
X137636176Y-42537068D01*
X137491418Y-42392310D01*
X137325818Y-42271997D01*
X137325817Y-42271996D01*
X137325815Y-42271995D01*
X137268858Y-42242973D01*
X137143428Y-42179063D01*
X136948739Y-42115804D01*
X136774200Y-42088160D01*
X136746557Y-42083782D01*
X136541853Y-42083782D01*
X136517534Y-42087633D01*
X136339670Y-42115804D01*
X136144981Y-42179063D01*
X135962591Y-42271997D01*
X135796991Y-42392310D01*
X135652233Y-42537068D01*
X135531920Y-42702668D01*
X135438986Y-42885058D01*
X135375727Y-43079747D01*
X135347785Y-43256172D01*
X135343705Y-43281930D01*
X119300500Y-43281930D01*
X119300500Y-41289695D01*
X119320185Y-41222656D01*
X119372989Y-41176901D01*
X119442147Y-41166957D01*
X119505703Y-41195982D01*
X119523767Y-41215385D01*
X119554954Y-41257046D01*
X119554955Y-41257047D01*
X119670164Y-41343293D01*
X119670171Y-41343297D01*
X119805017Y-41393591D01*
X119805016Y-41393591D01*
X119811944Y-41394335D01*
X119864627Y-41400000D01*
X122460372Y-41399999D01*
X122519983Y-41393591D01*
X122654831Y-41343296D01*
X122770046Y-41257046D01*
X122856296Y-41141831D01*
X122906591Y-41006983D01*
X122913000Y-40947373D01*
X122912999Y-39575483D01*
X134912000Y-39575483D01*
X134912000Y-40699501D01*
X134912001Y-40699518D01*
X134922500Y-40802296D01*
X134922501Y-40802299D01*
X134970578Y-40947383D01*
X134977686Y-40968834D01*
X135069788Y-41118156D01*
X135193844Y-41242212D01*
X135343166Y-41334314D01*
X135509703Y-41389499D01*
X135612491Y-41400000D01*
X137712508Y-41399999D01*
X137815297Y-41389499D01*
X137981834Y-41334314D01*
X138131156Y-41242212D01*
X138255212Y-41118156D01*
X138347314Y-40968834D01*
X138402499Y-40802297D01*
X138413000Y-40699509D01*
X138412999Y-39575492D01*
X138410505Y-39551082D01*
X138402499Y-39472703D01*
X138402498Y-39472700D01*
X138390363Y-39436079D01*
X138347314Y-39306166D01*
X138255212Y-39156844D01*
X138131156Y-39032788D01*
X137981834Y-38940686D01*
X137815297Y-38885501D01*
X137815295Y-38885500D01*
X137712510Y-38875000D01*
X135612498Y-38875000D01*
X135612481Y-38875001D01*
X135509703Y-38885500D01*
X135509700Y-38885501D01*
X135343168Y-38940685D01*
X135343163Y-38940687D01*
X135193842Y-39032789D01*
X135069789Y-39156842D01*
X134977687Y-39306163D01*
X134977687Y-39306164D01*
X134977686Y-39306166D01*
X134922501Y-39472703D01*
X134922501Y-39472704D01*
X134922500Y-39472704D01*
X134912000Y-39575483D01*
X122912999Y-39575483D01*
X122912999Y-39327628D01*
X122906975Y-39271589D01*
X122906591Y-39268016D01*
X122856297Y-39133171D01*
X122856293Y-39133164D01*
X122770047Y-39017955D01*
X122770044Y-39017952D01*
X122654835Y-38931706D01*
X122654828Y-38931702D01*
X122519982Y-38881408D01*
X122519983Y-38881408D01*
X122460383Y-38875001D01*
X122460381Y-38875000D01*
X122460373Y-38875000D01*
X122460364Y-38875000D01*
X119864629Y-38875000D01*
X119864623Y-38875001D01*
X119805016Y-38881408D01*
X119670171Y-38931702D01*
X119670164Y-38931706D01*
X119554955Y-39017952D01*
X119554952Y-39017955D01*
X119523766Y-39059615D01*
X119467832Y-39101486D01*
X119398141Y-39106470D01*
X119336818Y-39072984D01*
X119303334Y-39011661D01*
X119300500Y-38985304D01*
X119300500Y-31617856D01*
X119320185Y-31550817D01*
X119372989Y-31505062D01*
X119442147Y-31495118D01*
X119505703Y-31524143D01*
X119530039Y-31552759D01*
X119570184Y-31617845D01*
X119694154Y-31741815D01*
X119843375Y-31833856D01*
X119843380Y-31833858D01*
X120009802Y-31889005D01*
X120009809Y-31889006D01*
X120112519Y-31899499D01*
X120912499Y-31899499D01*
X120912500Y-31899498D01*
X120912500Y-31185982D01*
X120930909Y-31196611D01*
X121083509Y-31237500D01*
X121241491Y-31237500D01*
X121394091Y-31196611D01*
X121412500Y-31185982D01*
X121412500Y-31899499D01*
X122212472Y-31899499D01*
X122212486Y-31899498D01*
X122315197Y-31889005D01*
X122481619Y-31833858D01*
X122481624Y-31833856D01*
X122630845Y-31741815D01*
X122754815Y-31617845D01*
X122846856Y-31468624D01*
X122846858Y-31468619D01*
X122902005Y-31302197D01*
X122902006Y-31302190D01*
X122912499Y-31199486D01*
X122912500Y-31199473D01*
X122912500Y-30887500D01*
X121710982Y-30887500D01*
X121721611Y-30869091D01*
X121762500Y-30716491D01*
X121762500Y-30558509D01*
X121721611Y-30405909D01*
X121710982Y-30387500D01*
X122912499Y-30387500D01*
X122912499Y-30075529D01*
X122912498Y-30075513D01*
X134912500Y-30075513D01*
X134912500Y-30387500D01*
X136114018Y-30387500D01*
X136103389Y-30405909D01*
X136062500Y-30558509D01*
X136062500Y-30716491D01*
X136103389Y-30869091D01*
X136114018Y-30887500D01*
X134912501Y-30887500D01*
X134912501Y-31199486D01*
X134922994Y-31302197D01*
X134978141Y-31468619D01*
X134978143Y-31468624D01*
X135070184Y-31617845D01*
X135194154Y-31741815D01*
X135343375Y-31833856D01*
X135343380Y-31833858D01*
X135509802Y-31889005D01*
X135509809Y-31889006D01*
X135612519Y-31899499D01*
X136412499Y-31899499D01*
X136412500Y-31899498D01*
X136412500Y-31185982D01*
X136430909Y-31196611D01*
X136583509Y-31237500D01*
X136741491Y-31237500D01*
X136894091Y-31196611D01*
X136912500Y-31185982D01*
X136912500Y-31899499D01*
X137712472Y-31899499D01*
X137712486Y-31899498D01*
X137815197Y-31889005D01*
X137981619Y-31833858D01*
X137981624Y-31833856D01*
X138130845Y-31741815D01*
X138254815Y-31617845D01*
X138346856Y-31468624D01*
X138346858Y-31468619D01*
X138402005Y-31302197D01*
X138402006Y-31302190D01*
X138412499Y-31199486D01*
X138412500Y-31199473D01*
X138412500Y-30887500D01*
X137210982Y-30887500D01*
X137221611Y-30869091D01*
X137262500Y-30716491D01*
X137262500Y-30558509D01*
X137221611Y-30405909D01*
X137210982Y-30387500D01*
X138412499Y-30387500D01*
X138412499Y-30075528D01*
X138412498Y-30075513D01*
X138402005Y-29972802D01*
X138346858Y-29806380D01*
X138346856Y-29806375D01*
X138254815Y-29657154D01*
X138130845Y-29533184D01*
X137981624Y-29441143D01*
X137981619Y-29441141D01*
X137815197Y-29385994D01*
X137815190Y-29385993D01*
X137712486Y-29375500D01*
X136912500Y-29375500D01*
X136912500Y-30089017D01*
X136894091Y-30078389D01*
X136741491Y-30037500D01*
X136583509Y-30037500D01*
X136430909Y-30078389D01*
X136412500Y-30089017D01*
X136412500Y-29375500D01*
X135612528Y-29375500D01*
X135612512Y-29375501D01*
X135509802Y-29385994D01*
X135343380Y-29441141D01*
X135343375Y-29441143D01*
X135194154Y-29533184D01*
X135070184Y-29657154D01*
X134978143Y-29806375D01*
X134978141Y-29806380D01*
X134922994Y-29972802D01*
X134922993Y-29972809D01*
X134912500Y-30075513D01*
X122912498Y-30075513D01*
X122912498Y-30075512D01*
X122902005Y-29972802D01*
X122846858Y-29806380D01*
X122846856Y-29806375D01*
X122754815Y-29657154D01*
X122630845Y-29533184D01*
X122481624Y-29441143D01*
X122481619Y-29441141D01*
X122315197Y-29385994D01*
X122315190Y-29385993D01*
X122212486Y-29375500D01*
X121412500Y-29375500D01*
X121412500Y-30089017D01*
X121394091Y-30078389D01*
X121241491Y-30037500D01*
X121083509Y-30037500D01*
X120930909Y-30078389D01*
X120912500Y-30089017D01*
X120912500Y-29375500D01*
X120112528Y-29375500D01*
X120112512Y-29375501D01*
X120009802Y-29385994D01*
X119843380Y-29441141D01*
X119843375Y-29441143D01*
X119694154Y-29533184D01*
X119570183Y-29657155D01*
X119570180Y-29657159D01*
X119530038Y-29722240D01*
X119478090Y-29768965D01*
X119409128Y-29780186D01*
X119345046Y-29752343D01*
X119306190Y-29694274D01*
X119300500Y-29657143D01*
X119300500Y-21871075D01*
X130600000Y-21871075D01*
X130600000Y-22093924D01*
X130629085Y-22314854D01*
X130629088Y-22314867D01*
X130686763Y-22530118D01*
X130772045Y-22736002D01*
X130772054Y-22736020D01*
X130883464Y-22928991D01*
X130883473Y-22929004D01*
X130934040Y-22994903D01*
X130934043Y-22994903D01*
X131735387Y-22193559D01*
X131740889Y-22214091D01*
X131819881Y-22350908D01*
X131931592Y-22462619D01*
X132068409Y-22541611D01*
X132088940Y-22547112D01*
X131287595Y-23348455D01*
X131287595Y-23348456D01*
X131353507Y-23399033D01*
X131546485Y-23510449D01*
X131546497Y-23510454D01*
X131752381Y-23595736D01*
X131967632Y-23653411D01*
X131967645Y-23653414D01*
X132188575Y-23682500D01*
X132411425Y-23682500D01*
X132632354Y-23653414D01*
X132632367Y-23653411D01*
X132847618Y-23595736D01*
X133053502Y-23510454D01*
X133053514Y-23510449D01*
X133246498Y-23399030D01*
X133312403Y-23348457D01*
X133312404Y-23348456D01*
X132511059Y-22547112D01*
X132531591Y-22541611D01*
X132668408Y-22462619D01*
X132780119Y-22350908D01*
X132859111Y-22214091D01*
X132864612Y-22193559D01*
X133665956Y-22994904D01*
X133665957Y-22994903D01*
X133716530Y-22928998D01*
X133827949Y-22736014D01*
X133827954Y-22736002D01*
X133860939Y-22656373D01*
X133904780Y-22601969D01*
X133971075Y-22579905D01*
X134038774Y-22597185D01*
X134086384Y-22648322D01*
X134099500Y-22703826D01*
X134099500Y-22982515D01*
X134110000Y-23085295D01*
X134110001Y-23085296D01*
X134165186Y-23251835D01*
X134165187Y-23251837D01*
X134257286Y-23401151D01*
X134257289Y-23401155D01*
X134381344Y-23525210D01*
X134381348Y-23525213D01*
X134530662Y-23617312D01*
X134530664Y-23617313D01*
X134530666Y-23617314D01*
X134697203Y-23672499D01*
X134799992Y-23683000D01*
X134799997Y-23683000D01*
X136800003Y-23683000D01*
X136800008Y-23683000D01*
X136902797Y-23672499D01*
X137069334Y-23617314D01*
X137218655Y-23525211D01*
X137342711Y-23401155D01*
X137434814Y-23251834D01*
X137489999Y-23085297D01*
X137500500Y-22982508D01*
X137500500Y-20982492D01*
X137489999Y-20879703D01*
X137434814Y-20713166D01*
X137342711Y-20563845D01*
X137218655Y-20439789D01*
X137218651Y-20439786D01*
X137069337Y-20347687D01*
X137069335Y-20347686D01*
X136986065Y-20320093D01*
X136902797Y-20292501D01*
X136902795Y-20292500D01*
X136800015Y-20282000D01*
X136800008Y-20282000D01*
X134799992Y-20282000D01*
X134799984Y-20282000D01*
X134697204Y-20292500D01*
X134697203Y-20292501D01*
X134530664Y-20347686D01*
X134530662Y-20347687D01*
X134381348Y-20439786D01*
X134381344Y-20439789D01*
X134257289Y-20563844D01*
X134257286Y-20563848D01*
X134165187Y-20713162D01*
X134165186Y-20713164D01*
X134110001Y-20879703D01*
X134110000Y-20879704D01*
X134099500Y-20982484D01*
X134099500Y-21261173D01*
X134079815Y-21328212D01*
X134027011Y-21373967D01*
X133957853Y-21383911D01*
X133894297Y-21354886D01*
X133860939Y-21308627D01*
X133827952Y-21228992D01*
X133827949Y-21228985D01*
X133716533Y-21036007D01*
X133665956Y-20970095D01*
X133665955Y-20970095D01*
X132864612Y-21771439D01*
X132859111Y-21750909D01*
X132780119Y-21614092D01*
X132668408Y-21502381D01*
X132531591Y-21423389D01*
X132511058Y-21417887D01*
X133312403Y-20616543D01*
X133312403Y-20616540D01*
X133246504Y-20565973D01*
X133246491Y-20565964D01*
X133053520Y-20454554D01*
X133053502Y-20454545D01*
X132847618Y-20369263D01*
X132632367Y-20311588D01*
X132632354Y-20311585D01*
X132411425Y-20282500D01*
X132188575Y-20282500D01*
X131967645Y-20311585D01*
X131967632Y-20311588D01*
X131752381Y-20369263D01*
X131546497Y-20454545D01*
X131546479Y-20454554D01*
X131353511Y-20565962D01*
X131287595Y-20616542D01*
X132088941Y-21417887D01*
X132068409Y-21423389D01*
X131931592Y-21502381D01*
X131819881Y-21614092D01*
X131740889Y-21750909D01*
X131735387Y-21771440D01*
X130934042Y-20970095D01*
X130883462Y-21036011D01*
X130772054Y-21228979D01*
X130772045Y-21228997D01*
X130686763Y-21434881D01*
X130629088Y-21650132D01*
X130629085Y-21650145D01*
X130600000Y-21871075D01*
X119300500Y-21871075D01*
X119300500Y-18374500D01*
X119320185Y-18307461D01*
X119372989Y-18261706D01*
X119424500Y-18250500D01*
X188175500Y-18250500D01*
X188242539Y-18270185D01*
G37*
G04 #@! TD.AperFunction*
G04 #@! TA.AperFunction,Conductor*
G36*
X169520000Y-43369862D02*
G01*
X169561689Y-43361570D01*
X169618047Y-43338226D01*
X169687516Y-43330757D01*
X169749996Y-43362032D01*
X169785648Y-43422121D01*
X169789500Y-43452787D01*
X169789500Y-54547212D01*
X169769815Y-54614251D01*
X169717011Y-54660006D01*
X169647853Y-54669950D01*
X169618048Y-54661773D01*
X169561691Y-54638429D01*
X169561683Y-54638427D01*
X169520000Y-54630135D01*
X169520000Y-55624722D01*
X169443694Y-55580667D01*
X169329244Y-55550000D01*
X169210756Y-55550000D01*
X169096306Y-55580667D01*
X169020000Y-55624722D01*
X169020000Y-54630136D01*
X169019999Y-54630135D01*
X168978316Y-54638427D01*
X168876339Y-54680666D01*
X168806870Y-54688133D01*
X168754578Y-54665372D01*
X168742330Y-54656203D01*
X168742328Y-54656202D01*
X168607482Y-54605908D01*
X168607483Y-54605908D01*
X168547883Y-54599501D01*
X168547881Y-54599500D01*
X168547873Y-54599500D01*
X168547864Y-54599500D01*
X167452129Y-54599500D01*
X167452123Y-54599501D01*
X167392516Y-54605908D01*
X167257671Y-54656202D01*
X167257664Y-54656206D01*
X167142455Y-54742452D01*
X167142452Y-54742455D01*
X167056206Y-54857664D01*
X167056202Y-54857671D01*
X167005908Y-54992517D01*
X166999501Y-55052116D01*
X166999500Y-55052135D01*
X166999500Y-56947870D01*
X166999501Y-56947876D01*
X167005908Y-57007483D01*
X167056202Y-57142328D01*
X167056206Y-57142335D01*
X167142452Y-57257544D01*
X167142455Y-57257547D01*
X167257664Y-57343793D01*
X167257671Y-57343797D01*
X167392517Y-57394091D01*
X167392516Y-57394091D01*
X167399444Y-57394835D01*
X167452127Y-57400500D01*
X168547872Y-57400499D01*
X168607483Y-57394091D01*
X168742331Y-57343796D01*
X168754575Y-57334629D01*
X168820035Y-57310210D01*
X168876339Y-57319333D01*
X168978308Y-57361569D01*
X169020000Y-57369862D01*
X169020000Y-56375277D01*
X169096306Y-56419333D01*
X169210756Y-56450000D01*
X169329244Y-56450000D01*
X169443694Y-56419333D01*
X169520000Y-56375277D01*
X169520000Y-57369862D01*
X169561689Y-57361570D01*
X169618047Y-57338226D01*
X169687516Y-57330757D01*
X169749996Y-57362032D01*
X169785648Y-57422121D01*
X169789500Y-57452787D01*
X169789500Y-69377770D01*
X169769815Y-69444809D01*
X169767202Y-69448712D01*
X169760933Y-69457698D01*
X169757048Y-69461584D01*
X169731046Y-69500500D01*
X169730348Y-69501545D01*
X169674914Y-69584507D01*
X169618343Y-69721082D01*
X169618340Y-69721092D01*
X169589500Y-69866079D01*
X169589500Y-72297212D01*
X169569815Y-72364251D01*
X169517011Y-72410006D01*
X169447853Y-72419950D01*
X169418048Y-72411773D01*
X169361691Y-72388429D01*
X169361683Y-72388427D01*
X169320000Y-72380135D01*
X169320000Y-73374722D01*
X169243694Y-73330667D01*
X169129244Y-73300000D01*
X169010756Y-73300000D01*
X168896306Y-73330667D01*
X168820000Y-73374722D01*
X168820000Y-72380136D01*
X168819999Y-72380135D01*
X168778316Y-72388427D01*
X168676339Y-72430666D01*
X168606870Y-72438133D01*
X168554578Y-72415372D01*
X168542330Y-72406203D01*
X168542328Y-72406202D01*
X168407482Y-72355908D01*
X168407483Y-72355908D01*
X168347883Y-72349501D01*
X168347881Y-72349500D01*
X168347873Y-72349500D01*
X168347864Y-72349500D01*
X167252129Y-72349500D01*
X167252123Y-72349501D01*
X167192516Y-72355908D01*
X167057671Y-72406202D01*
X167057664Y-72406206D01*
X166942455Y-72492452D01*
X166942452Y-72492455D01*
X166856206Y-72607664D01*
X166856202Y-72607671D01*
X166805908Y-72742517D01*
X166799501Y-72802116D01*
X166799500Y-72802135D01*
X166799500Y-74697870D01*
X166799501Y-74697876D01*
X166805908Y-74757483D01*
X166856202Y-74892328D01*
X166856206Y-74892335D01*
X166942452Y-75007544D01*
X166942455Y-75007547D01*
X167057664Y-75093793D01*
X167057671Y-75093797D01*
X167192517Y-75144091D01*
X167192516Y-75144091D01*
X167199444Y-75144835D01*
X167252127Y-75150500D01*
X168347872Y-75150499D01*
X168407483Y-75144091D01*
X168542331Y-75093796D01*
X168554575Y-75084629D01*
X168620035Y-75060210D01*
X168676339Y-75069333D01*
X168778308Y-75111569D01*
X168820000Y-75119862D01*
X168820000Y-74125277D01*
X168896306Y-74169333D01*
X169010756Y-74200000D01*
X169129244Y-74200000D01*
X169243694Y-74169333D01*
X169320000Y-74125277D01*
X169320000Y-75119862D01*
X169361689Y-75111570D01*
X169418047Y-75088226D01*
X169487516Y-75080757D01*
X169549996Y-75112032D01*
X169585648Y-75172121D01*
X169589500Y-75202787D01*
X169589500Y-76347770D01*
X169569815Y-76414809D01*
X169553181Y-76435451D01*
X168275451Y-77713181D01*
X168214128Y-77746666D01*
X168187770Y-77749500D01*
X164421169Y-77749500D01*
X164354130Y-77729815D01*
X164308375Y-77677011D01*
X164297879Y-77612247D01*
X164300500Y-77587873D01*
X164300499Y-75992128D01*
X164294091Y-75932517D01*
X164268505Y-75863918D01*
X164243797Y-75797671D01*
X164243793Y-75797664D01*
X164157547Y-75682455D01*
X164157544Y-75682452D01*
X164042335Y-75596206D01*
X164042328Y-75596202D01*
X163907482Y-75545908D01*
X163907483Y-75545908D01*
X163847883Y-75539501D01*
X163847881Y-75539500D01*
X163847873Y-75539500D01*
X163847865Y-75539500D01*
X163784267Y-75539500D01*
X163717228Y-75519815D01*
X163671473Y-75467011D01*
X163661529Y-75397853D01*
X163690554Y-75334297D01*
X163711381Y-75315182D01*
X163721722Y-75307669D01*
X163864646Y-75203828D01*
X164003828Y-75064646D01*
X164119524Y-74905405D01*
X164208884Y-74730025D01*
X164269709Y-74542826D01*
X164285704Y-74441839D01*
X164300500Y-74348422D01*
X164300500Y-74151577D01*
X164269709Y-73957173D01*
X164208882Y-73769970D01*
X164119523Y-73594594D01*
X164106236Y-73576306D01*
X164003828Y-73435354D01*
X163864646Y-73296172D01*
X163705405Y-73180476D01*
X163530025Y-73091116D01*
X163530024Y-73091115D01*
X163528235Y-73090204D01*
X163477439Y-73042230D01*
X163460644Y-72974409D01*
X163483181Y-72908274D01*
X163528236Y-72869234D01*
X163705141Y-72779097D01*
X163740125Y-72753679D01*
X163740125Y-72753677D01*
X163096448Y-72110000D01*
X163102661Y-72110000D01*
X163204394Y-72082741D01*
X163295606Y-72030080D01*
X163370080Y-71955606D01*
X163422741Y-71864394D01*
X163450000Y-71762661D01*
X163450000Y-71756448D01*
X164093678Y-72400126D01*
X164093678Y-72400125D01*
X164119095Y-72365143D01*
X164208418Y-72189835D01*
X164269221Y-72002705D01*
X164300000Y-71808382D01*
X164300000Y-71611617D01*
X164269221Y-71417294D01*
X164208418Y-71230164D01*
X164119096Y-71054858D01*
X164093678Y-71019873D01*
X164093677Y-71019873D01*
X163450000Y-71663551D01*
X163450000Y-71657339D01*
X163422741Y-71555606D01*
X163370080Y-71464394D01*
X163295606Y-71389920D01*
X163204394Y-71337259D01*
X163102661Y-71310000D01*
X163096447Y-71310000D01*
X163740125Y-70666320D01*
X163740125Y-70666319D01*
X163705145Y-70640905D01*
X163529835Y-70551581D01*
X163342705Y-70490778D01*
X163148382Y-70460000D01*
X162951618Y-70460000D01*
X162757294Y-70490778D01*
X162570161Y-70551582D01*
X162394863Y-70640899D01*
X162394859Y-70640902D01*
X162359873Y-70666320D01*
X162359872Y-70666320D01*
X163003554Y-71310000D01*
X162997339Y-71310000D01*
X162895606Y-71337259D01*
X162804394Y-71389920D01*
X162729920Y-71464394D01*
X162677259Y-71555606D01*
X162650000Y-71657339D01*
X162650000Y-71663552D01*
X162006320Y-71019872D01*
X162006320Y-71019873D01*
X161980902Y-71054859D01*
X161980899Y-71054863D01*
X161891582Y-71230161D01*
X161830778Y-71417294D01*
X161800000Y-71611617D01*
X161800000Y-71808382D01*
X161830778Y-72002705D01*
X161891581Y-72189835D01*
X161980905Y-72365145D01*
X162006319Y-72400125D01*
X162006320Y-72400125D01*
X162650000Y-71756445D01*
X162650000Y-71762661D01*
X162677259Y-71864394D01*
X162729920Y-71955606D01*
X162804394Y-72030080D01*
X162895606Y-72082741D01*
X162997339Y-72110000D01*
X163003553Y-72110000D01*
X162359873Y-72753677D01*
X162359873Y-72753678D01*
X162394858Y-72779096D01*
X162571764Y-72869234D01*
X162622560Y-72917209D01*
X162639355Y-72985030D01*
X162616818Y-73051164D01*
X162571764Y-73090204D01*
X162394594Y-73180476D01*
X162327337Y-73229342D01*
X162235354Y-73296172D01*
X162235352Y-73296174D01*
X162235351Y-73296174D01*
X162096174Y-73435351D01*
X162096174Y-73435352D01*
X162096172Y-73435354D01*
X162068316Y-73473694D01*
X161980476Y-73594594D01*
X161891117Y-73769970D01*
X161830290Y-73957173D01*
X161799500Y-74151577D01*
X161799500Y-74348422D01*
X161830290Y-74542826D01*
X161891117Y-74730029D01*
X161980476Y-74905405D01*
X162096172Y-75064646D01*
X162235354Y-75203828D01*
X162388621Y-75315184D01*
X162431285Y-75370512D01*
X162437264Y-75440125D01*
X162404658Y-75501920D01*
X162343819Y-75536278D01*
X162315736Y-75539500D01*
X162252130Y-75539500D01*
X162252123Y-75539501D01*
X162192516Y-75545908D01*
X162057671Y-75596202D01*
X162057664Y-75596206D01*
X161942455Y-75682452D01*
X161942452Y-75682455D01*
X161856206Y-75797664D01*
X161856202Y-75797671D01*
X161805908Y-75932517D01*
X161799501Y-75992116D01*
X161799501Y-75992123D01*
X161799500Y-75992135D01*
X161799500Y-77587870D01*
X161799501Y-77587876D01*
X161802121Y-77612247D01*
X161789714Y-77681006D01*
X161742103Y-77732143D01*
X161678831Y-77749500D01*
X159412230Y-77749500D01*
X159345191Y-77729815D01*
X159324549Y-77713181D01*
X157126819Y-75515451D01*
X157112115Y-75488523D01*
X157095523Y-75462705D01*
X157094631Y-75456504D01*
X157093334Y-75454128D01*
X157090500Y-75427770D01*
X157090500Y-75203328D01*
X157110185Y-75136289D01*
X157162989Y-75090534D01*
X157232147Y-75080590D01*
X157261950Y-75088766D01*
X157318165Y-75112051D01*
X157318169Y-75112051D01*
X157318170Y-75112052D01*
X157511456Y-75150500D01*
X157511459Y-75150500D01*
X157708543Y-75150500D01*
X157862567Y-75119862D01*
X157901835Y-75112051D01*
X158052848Y-75049500D01*
X158083907Y-75036635D01*
X158083907Y-75036634D01*
X158083914Y-75036632D01*
X158247782Y-74927139D01*
X158387139Y-74787782D01*
X158496632Y-74623914D01*
X158572051Y-74441835D01*
X158600687Y-74297873D01*
X158610500Y-74248543D01*
X158610500Y-73251456D01*
X158572052Y-73058170D01*
X158572051Y-73058169D01*
X158572051Y-73058165D01*
X158548370Y-73000993D01*
X158496635Y-72876092D01*
X158496628Y-72876079D01*
X158383755Y-72707153D01*
X158385278Y-72706135D01*
X158361331Y-72649723D01*
X158360500Y-72635389D01*
X158360500Y-71986079D01*
X158331659Y-71841092D01*
X158331658Y-71841091D01*
X158331658Y-71841087D01*
X158317208Y-71806202D01*
X158275085Y-71704507D01*
X158255798Y-71675642D01*
X158208928Y-71605495D01*
X158192952Y-71581584D01*
X157835443Y-71224075D01*
X157412629Y-70801260D01*
X157278421Y-70667052D01*
X157278414Y-70667046D01*
X157204729Y-70617812D01*
X157204729Y-70617813D01*
X157155491Y-70584913D01*
X157018917Y-70528343D01*
X157018907Y-70528340D01*
X156873920Y-70499500D01*
X156873918Y-70499500D01*
X146412230Y-70499500D01*
X146345191Y-70479815D01*
X146324549Y-70463181D01*
X146024105Y-70162736D01*
X146024084Y-70162717D01*
X145778416Y-69917048D01*
X145655494Y-69834916D01*
X145655492Y-69834915D01*
X145655490Y-69834914D01*
X145518910Y-69778341D01*
X145518906Y-69778340D01*
X145455317Y-69765691D01*
X145432057Y-69758635D01*
X145332748Y-69717500D01*
X145332738Y-69717497D01*
X145207071Y-69692500D01*
X145207069Y-69692500D01*
X142944500Y-69692500D01*
X142877461Y-69672815D01*
X142831706Y-69620011D01*
X142820500Y-69568500D01*
X142820499Y-68567998D01*
X142820498Y-68567981D01*
X142809999Y-68465203D01*
X142809998Y-68465200D01*
X142803458Y-68445465D01*
X142754814Y-68298666D01*
X142662712Y-68149344D01*
X142538656Y-68025288D01*
X142441787Y-67965539D01*
X142395062Y-67913591D01*
X142383839Y-67844629D01*
X142411683Y-67780546D01*
X142441787Y-67754461D01*
X142448209Y-67750500D01*
X142538656Y-67694712D01*
X142662712Y-67570656D01*
X142754814Y-67421334D01*
X142754816Y-67421326D01*
X142757864Y-67414791D01*
X142760120Y-67415843D01*
X142793195Y-67368061D01*
X142857707Y-67341230D01*
X142871140Y-67340500D01*
X143033920Y-67340500D01*
X143131462Y-67321096D01*
X143178913Y-67311658D01*
X143315495Y-67255084D01*
X143369630Y-67218912D01*
X143438416Y-67172952D01*
X144382951Y-66228416D01*
X144414985Y-66180472D01*
X144468597Y-66135667D01*
X144537922Y-66126960D01*
X144600950Y-66157114D01*
X144618405Y-66176477D01*
X144655483Y-66227510D01*
X144822490Y-66394517D01*
X145013567Y-66533343D01*
X145112991Y-66584002D01*
X145224003Y-66640566D01*
X145224005Y-66640566D01*
X145224008Y-66640568D01*
X145344412Y-66679689D01*
X145448631Y-66713553D01*
X145681903Y-66750500D01*
X145681908Y-66750500D01*
X145918097Y-66750500D01*
X146151368Y-66713553D01*
X146375992Y-66640568D01*
X146586433Y-66533343D01*
X146777510Y-66394517D01*
X146944517Y-66227510D01*
X147083343Y-66036433D01*
X147190568Y-65825992D01*
X147263553Y-65601368D01*
X147281938Y-65485289D01*
X147300500Y-65368097D01*
X147300500Y-65131902D01*
X147266488Y-64917165D01*
X147275442Y-64847872D01*
X147301277Y-64810089D01*
X148337820Y-63773546D01*
X148399142Y-63740063D01*
X148468834Y-63745047D01*
X148524767Y-63786919D01*
X148549184Y-63852383D01*
X148549500Y-63861229D01*
X148549500Y-65073918D01*
X148549500Y-65073920D01*
X148549499Y-65073920D01*
X148578340Y-65218907D01*
X148578343Y-65218917D01*
X148634914Y-65355491D01*
X148634916Y-65355495D01*
X148647007Y-65373591D01*
X148660099Y-65393185D01*
X148717049Y-65478418D01*
X148717052Y-65478421D01*
X150648340Y-67409707D01*
X150681825Y-67471030D01*
X150676841Y-67540721D01*
X150634969Y-67596655D01*
X150616954Y-67607873D01*
X150558386Y-67637715D01*
X150392786Y-67758028D01*
X150248028Y-67902786D01*
X150127715Y-68068386D01*
X150034781Y-68250776D01*
X149971522Y-68445465D01*
X149939500Y-68647648D01*
X149939500Y-68852351D01*
X149971522Y-69054534D01*
X150034781Y-69249223D01*
X150098691Y-69374653D01*
X150126450Y-69429132D01*
X150127715Y-69431613D01*
X150248028Y-69597213D01*
X150392786Y-69741971D01*
X150520719Y-69834918D01*
X150558390Y-69862287D01*
X150665864Y-69917048D01*
X150740776Y-69955218D01*
X150740778Y-69955218D01*
X150740781Y-69955220D01*
X150845137Y-69989127D01*
X150935465Y-70018477D01*
X151036557Y-70034488D01*
X151137648Y-70050500D01*
X151137649Y-70050500D01*
X151342351Y-70050500D01*
X151342352Y-70050500D01*
X151544534Y-70018477D01*
X151739219Y-69955220D01*
X151921610Y-69862287D01*
X152014590Y-69794732D01*
X152087213Y-69741971D01*
X152087215Y-69741968D01*
X152087219Y-69741966D01*
X152231966Y-69597219D01*
X152231968Y-69597215D01*
X152231971Y-69597213D01*
X152284732Y-69524590D01*
X152352287Y-69431610D01*
X152445220Y-69249219D01*
X152508477Y-69054534D01*
X152540500Y-68852352D01*
X152540500Y-68647648D01*
X152531682Y-68591972D01*
X152508477Y-68445465D01*
X152445218Y-68250776D01*
X152393534Y-68149342D01*
X152352287Y-68068390D01*
X152286918Y-67978416D01*
X152264373Y-67947385D01*
X152240893Y-67881579D01*
X152256719Y-67813525D01*
X152306825Y-67764830D01*
X152364691Y-67750500D01*
X157735309Y-67750500D01*
X157802348Y-67770185D01*
X157848103Y-67822989D01*
X157858047Y-67892147D01*
X157835627Y-67947385D01*
X157747715Y-68068386D01*
X157654781Y-68250776D01*
X157591522Y-68445465D01*
X157559500Y-68647648D01*
X157559500Y-68852351D01*
X157591522Y-69054534D01*
X157654781Y-69249223D01*
X157718691Y-69374653D01*
X157746450Y-69429132D01*
X157747715Y-69431613D01*
X157868028Y-69597213D01*
X158012786Y-69741971D01*
X158140719Y-69834918D01*
X158178390Y-69862287D01*
X158285864Y-69917048D01*
X158360776Y-69955218D01*
X158360778Y-69955218D01*
X158360781Y-69955220D01*
X158465137Y-69989127D01*
X158555465Y-70018477D01*
X158656557Y-70034488D01*
X158757648Y-70050500D01*
X158757649Y-70050500D01*
X158962351Y-70050500D01*
X158962352Y-70050500D01*
X159164534Y-70018477D01*
X159359219Y-69955220D01*
X159541610Y-69862287D01*
X159634590Y-69794732D01*
X159707213Y-69741971D01*
X159707215Y-69741968D01*
X159707219Y-69741966D01*
X159851966Y-69597219D01*
X159851968Y-69597215D01*
X159851971Y-69597213D01*
X159904732Y-69524590D01*
X159972287Y-69431610D01*
X160065220Y-69249219D01*
X160128477Y-69054534D01*
X160160500Y-68852352D01*
X160160500Y-68647648D01*
X160151682Y-68591972D01*
X160128477Y-68445465D01*
X160065218Y-68250776D01*
X160013534Y-68149342D01*
X159972287Y-68068390D01*
X159906918Y-67978416D01*
X159884373Y-67947385D01*
X159860893Y-67881579D01*
X159876719Y-67813525D01*
X159926825Y-67764830D01*
X159984691Y-67750500D01*
X163877770Y-67750500D01*
X163944809Y-67770185D01*
X163965451Y-67786819D01*
X164663526Y-68484894D01*
X164697011Y-68546217D01*
X164698318Y-68591972D01*
X164689500Y-68647647D01*
X164689500Y-68852351D01*
X164721522Y-69054534D01*
X164784781Y-69249223D01*
X164848691Y-69374653D01*
X164876450Y-69429132D01*
X164877715Y-69431613D01*
X164998028Y-69597213D01*
X165142786Y-69741971D01*
X165270719Y-69834918D01*
X165308390Y-69862287D01*
X165415864Y-69917048D01*
X165490776Y-69955218D01*
X165490778Y-69955218D01*
X165490781Y-69955220D01*
X165595137Y-69989127D01*
X165685465Y-70018477D01*
X165786557Y-70034488D01*
X165887648Y-70050500D01*
X165887649Y-70050500D01*
X166092351Y-70050500D01*
X166092352Y-70050500D01*
X166294534Y-70018477D01*
X166489219Y-69955220D01*
X166671610Y-69862287D01*
X166764590Y-69794732D01*
X166837213Y-69741971D01*
X166837215Y-69741968D01*
X166837219Y-69741966D01*
X166981966Y-69597219D01*
X166981968Y-69597215D01*
X166981971Y-69597213D01*
X167034732Y-69524590D01*
X167102287Y-69431610D01*
X167195220Y-69249219D01*
X167258477Y-69054534D01*
X167290500Y-68852352D01*
X167290500Y-68647648D01*
X167281682Y-68591972D01*
X167258477Y-68445465D01*
X167195218Y-68250776D01*
X167143534Y-68149342D01*
X167102287Y-68068390D01*
X167036918Y-67978416D01*
X166981971Y-67902786D01*
X166837213Y-67758028D01*
X166671613Y-67637715D01*
X166671612Y-67637714D01*
X166671610Y-67637713D01*
X166608373Y-67605492D01*
X166489223Y-67544781D01*
X166294534Y-67481522D01*
X166119995Y-67453878D01*
X166092352Y-67449500D01*
X165887648Y-67449500D01*
X165831972Y-67458318D01*
X165762679Y-67449363D01*
X165724894Y-67423526D01*
X164718421Y-66417052D01*
X164718414Y-66417046D01*
X164644729Y-66367812D01*
X164644729Y-66367813D01*
X164595491Y-66334913D01*
X164458917Y-66278343D01*
X164458907Y-66278340D01*
X164313920Y-66249500D01*
X164313918Y-66249500D01*
X161171905Y-66249500D01*
X161104866Y-66229815D01*
X161059111Y-66177011D01*
X161049167Y-66107853D01*
X161071586Y-66052615D01*
X161083343Y-66036433D01*
X161190568Y-65825992D01*
X161263553Y-65601368D01*
X161281938Y-65485289D01*
X161300500Y-65368097D01*
X161300500Y-65136591D01*
X161300500Y-65131908D01*
X161300499Y-65131902D01*
X164799500Y-65131902D01*
X164799500Y-65368097D01*
X164836446Y-65601368D01*
X164909433Y-65825996D01*
X165012356Y-66027991D01*
X165016657Y-66036433D01*
X165155483Y-66227510D01*
X165322490Y-66394517D01*
X165513567Y-66533343D01*
X165612991Y-66584002D01*
X165724003Y-66640566D01*
X165724005Y-66640566D01*
X165724008Y-66640568D01*
X165844412Y-66679689D01*
X165948631Y-66713553D01*
X166181903Y-66750500D01*
X166181908Y-66750500D01*
X166418097Y-66750500D01*
X166651368Y-66713553D01*
X166875992Y-66640568D01*
X167086433Y-66533343D01*
X167277510Y-66394517D01*
X167444517Y-66227510D01*
X167583343Y-66036433D01*
X167690568Y-65825992D01*
X167763553Y-65601368D01*
X167781938Y-65485289D01*
X167800500Y-65368097D01*
X167800500Y-65131902D01*
X167763553Y-64898631D01*
X167699535Y-64701607D01*
X167690568Y-64674008D01*
X167690566Y-64674005D01*
X167690566Y-64674003D01*
X167583342Y-64463566D01*
X167444517Y-64272490D01*
X167277510Y-64105483D01*
X167086433Y-63966657D01*
X166875996Y-63859433D01*
X166651368Y-63786446D01*
X166418097Y-63749500D01*
X166418092Y-63749500D01*
X166181908Y-63749500D01*
X166181903Y-63749500D01*
X165948631Y-63786446D01*
X165724003Y-63859433D01*
X165513566Y-63966657D01*
X165404550Y-64045862D01*
X165322490Y-64105483D01*
X165322488Y-64105485D01*
X165322487Y-64105485D01*
X165155485Y-64272487D01*
X165155485Y-64272488D01*
X165155483Y-64272490D01*
X165126874Y-64311867D01*
X165016657Y-64463566D01*
X164909433Y-64674003D01*
X164836446Y-64898631D01*
X164799500Y-65131902D01*
X161300499Y-65131902D01*
X161266424Y-64916759D01*
X161270987Y-64882346D01*
X161275442Y-64847872D01*
X161275586Y-64847660D01*
X161275608Y-64847498D01*
X161276072Y-64846949D01*
X161301277Y-64810089D01*
X162882952Y-63228416D01*
X162901941Y-63199997D01*
X162938804Y-63144827D01*
X162938806Y-63144822D01*
X162938812Y-63144814D01*
X162965084Y-63105495D01*
X163021658Y-62968913D01*
X163049252Y-62830194D01*
X163050500Y-62823920D01*
X163050500Y-60631902D01*
X164799500Y-60631902D01*
X164799500Y-60868097D01*
X164836446Y-61101368D01*
X164909433Y-61325996D01*
X164996979Y-61497813D01*
X165016657Y-61536433D01*
X165155483Y-61727510D01*
X165322490Y-61894517D01*
X165513567Y-62033343D01*
X165593200Y-62073918D01*
X165724003Y-62140566D01*
X165724005Y-62140566D01*
X165724008Y-62140568D01*
X165844412Y-62179689D01*
X165948631Y-62213553D01*
X166181903Y-62250500D01*
X166181908Y-62250500D01*
X166418097Y-62250500D01*
X166651368Y-62213553D01*
X166652821Y-62213081D01*
X166875992Y-62140568D01*
X167086433Y-62033343D01*
X167277510Y-61894517D01*
X167444517Y-61727510D01*
X167583343Y-61536433D01*
X167690568Y-61325992D01*
X167763553Y-61101368D01*
X167800500Y-60868097D01*
X167800500Y-60631902D01*
X167763553Y-60398631D01*
X167712227Y-60240668D01*
X167690568Y-60174008D01*
X167690566Y-60174005D01*
X167690566Y-60174003D01*
X167634002Y-60062991D01*
X167583343Y-59963567D01*
X167444517Y-59772490D01*
X167277510Y-59605483D01*
X167086433Y-59466657D01*
X167064935Y-59455703D01*
X166875996Y-59359433D01*
X166651368Y-59286446D01*
X166418097Y-59249500D01*
X166418092Y-59249500D01*
X166181908Y-59249500D01*
X166181903Y-59249500D01*
X165948631Y-59286446D01*
X165724003Y-59359433D01*
X165513566Y-59466657D01*
X165404550Y-59545862D01*
X165322490Y-59605483D01*
X165322488Y-59605485D01*
X165322487Y-59605485D01*
X165155485Y-59772487D01*
X165155485Y-59772488D01*
X165155483Y-59772490D01*
X165095862Y-59854550D01*
X165016657Y-59963566D01*
X164909433Y-60174003D01*
X164836446Y-60398631D01*
X164799500Y-60631902D01*
X163050500Y-60631902D01*
X163050500Y-59582847D01*
X163070185Y-59515808D01*
X163122989Y-59470053D01*
X163192147Y-59460109D01*
X163255703Y-59489134D01*
X163289061Y-59535395D01*
X163296294Y-59552858D01*
X163296295Y-59552860D01*
X163389373Y-59692162D01*
X163507837Y-59810626D01*
X163600494Y-59872537D01*
X163647137Y-59903703D01*
X163801918Y-59967816D01*
X163966228Y-60000499D01*
X163966232Y-60000500D01*
X163966233Y-60000500D01*
X164133768Y-60000500D01*
X164133769Y-60000499D01*
X164298082Y-59967816D01*
X164452863Y-59903703D01*
X164592162Y-59810626D01*
X164710626Y-59692162D01*
X164803703Y-59552863D01*
X164867816Y-59398082D01*
X164900500Y-59233767D01*
X164900500Y-59066233D01*
X164867816Y-58901918D01*
X164809938Y-58762191D01*
X164800500Y-58714739D01*
X164800500Y-52120551D01*
X164820185Y-52053512D01*
X164872989Y-52007757D01*
X164942147Y-51997813D01*
X165005703Y-52026838D01*
X165024815Y-52047662D01*
X165155483Y-52227510D01*
X165322490Y-52394517D01*
X165513567Y-52533343D01*
X165612991Y-52584002D01*
X165724003Y-52640566D01*
X165724005Y-52640566D01*
X165724008Y-52640568D01*
X165844412Y-52679689D01*
X165948631Y-52713553D01*
X166181903Y-52750500D01*
X166181908Y-52750500D01*
X166418097Y-52750500D01*
X166651368Y-52713553D01*
X166875992Y-52640568D01*
X167086433Y-52533343D01*
X167277510Y-52394517D01*
X167444517Y-52227510D01*
X167583343Y-52036433D01*
X167690568Y-51825992D01*
X167763553Y-51601368D01*
X167765962Y-51586161D01*
X167800500Y-51368097D01*
X167800500Y-51131902D01*
X167763553Y-50898631D01*
X167690566Y-50674003D01*
X167602405Y-50500978D01*
X167583343Y-50463567D01*
X167444517Y-50272490D01*
X167277510Y-50105483D01*
X167086433Y-49966657D01*
X167077187Y-49961946D01*
X166875996Y-49859433D01*
X166651368Y-49786446D01*
X166418097Y-49749500D01*
X166418092Y-49749500D01*
X166181908Y-49749500D01*
X166181903Y-49749500D01*
X165948631Y-49786446D01*
X165724003Y-49859433D01*
X165513566Y-49966657D01*
X165404550Y-50045862D01*
X165322490Y-50105483D01*
X165322488Y-50105485D01*
X165322487Y-50105485D01*
X165155485Y-50272487D01*
X165155485Y-50272488D01*
X165155483Y-50272490D01*
X165080642Y-50375500D01*
X165024818Y-50452334D01*
X164969488Y-50494999D01*
X164899874Y-50500978D01*
X164838079Y-50468372D01*
X164803722Y-50407533D01*
X164800500Y-50379448D01*
X164800500Y-47620551D01*
X164820185Y-47553512D01*
X164872989Y-47507757D01*
X164942147Y-47497813D01*
X165005703Y-47526838D01*
X165024815Y-47547662D01*
X165155483Y-47727510D01*
X165322490Y-47894517D01*
X165513567Y-48033343D01*
X165612991Y-48084002D01*
X165724003Y-48140566D01*
X165724005Y-48140566D01*
X165724008Y-48140568D01*
X165844412Y-48179689D01*
X165948631Y-48213553D01*
X166181903Y-48250500D01*
X166181908Y-48250500D01*
X166418097Y-48250500D01*
X166651368Y-48213553D01*
X166689725Y-48201090D01*
X166875992Y-48140568D01*
X167086433Y-48033343D01*
X167277510Y-47894517D01*
X167444517Y-47727510D01*
X167583343Y-47536433D01*
X167690568Y-47325992D01*
X167763553Y-47101368D01*
X167776682Y-47018477D01*
X167800500Y-46868097D01*
X167800500Y-46631902D01*
X167763553Y-46398631D01*
X167715007Y-46249223D01*
X167690568Y-46174008D01*
X167690566Y-46174005D01*
X167690566Y-46174003D01*
X167583342Y-45963566D01*
X167444517Y-45772490D01*
X167277510Y-45605483D01*
X167086433Y-45466657D01*
X166875996Y-45359433D01*
X166651368Y-45286446D01*
X166418097Y-45249500D01*
X166418092Y-45249500D01*
X166181908Y-45249500D01*
X166181903Y-45249500D01*
X165948631Y-45286446D01*
X165724003Y-45359433D01*
X165513566Y-45466657D01*
X165451736Y-45511580D01*
X165322490Y-45605483D01*
X165322488Y-45605485D01*
X165322487Y-45605485D01*
X165155485Y-45772487D01*
X165155485Y-45772488D01*
X165155483Y-45772490D01*
X165097460Y-45852352D01*
X165024818Y-45952334D01*
X164969488Y-45994999D01*
X164899874Y-46000978D01*
X164838079Y-45968372D01*
X164803722Y-45907533D01*
X164800500Y-45879448D01*
X164800500Y-44612229D01*
X164820185Y-44545190D01*
X164836819Y-44524548D01*
X166574548Y-42786819D01*
X166601475Y-42772115D01*
X166627294Y-42755523D01*
X166633494Y-42754631D01*
X166635871Y-42753334D01*
X166662229Y-42750500D01*
X166875501Y-42750500D01*
X166942540Y-42770185D01*
X166988295Y-42822989D01*
X166999501Y-42874500D01*
X166999501Y-42947876D01*
X167005908Y-43007483D01*
X167056202Y-43142328D01*
X167056206Y-43142335D01*
X167142452Y-43257544D01*
X167142455Y-43257547D01*
X167257664Y-43343793D01*
X167257671Y-43343797D01*
X167392517Y-43394091D01*
X167392516Y-43394091D01*
X167399444Y-43394835D01*
X167452127Y-43400500D01*
X168547872Y-43400499D01*
X168607483Y-43394091D01*
X168742331Y-43343796D01*
X168754575Y-43334629D01*
X168820035Y-43310210D01*
X168876339Y-43319333D01*
X168978308Y-43361569D01*
X169020000Y-43369862D01*
X169020000Y-42375277D01*
X169096306Y-42419333D01*
X169210756Y-42450000D01*
X169329244Y-42450000D01*
X169443694Y-42419333D01*
X169520000Y-42375277D01*
X169520000Y-43369862D01*
G37*
G04 #@! TD.AperFunction*
G04 #@! TA.AperFunction,Conductor*
G36*
X119505703Y-62530285D02*
G01*
X119543477Y-62589063D01*
X119547858Y-62611397D01*
X119548000Y-62612796D01*
X119548001Y-62612799D01*
X119603185Y-62779331D01*
X119603187Y-62779336D01*
X119635539Y-62831787D01*
X119695288Y-62928656D01*
X119819344Y-63052712D01*
X119968666Y-63144814D01*
X120135203Y-63199999D01*
X120237991Y-63210500D01*
X121238500Y-63210499D01*
X121305539Y-63230183D01*
X121351294Y-63282987D01*
X121362500Y-63334499D01*
X121362500Y-64049161D01*
X121349385Y-64101521D01*
X121350247Y-64101879D01*
X121291342Y-64244087D01*
X121291340Y-64244093D01*
X121262500Y-64389080D01*
X121262500Y-64389083D01*
X121262500Y-64536917D01*
X121262500Y-64536919D01*
X121262499Y-64536919D01*
X121291340Y-64681906D01*
X121293110Y-64687739D01*
X121291905Y-64688104D01*
X121299500Y-64726271D01*
X121299500Y-67323918D01*
X121299500Y-67323920D01*
X121299499Y-67323920D01*
X121328340Y-67468907D01*
X121328343Y-67468917D01*
X121384914Y-67605492D01*
X121384915Y-67605494D01*
X121384916Y-67605495D01*
X121406443Y-67637713D01*
X121417812Y-67654727D01*
X121417813Y-67654730D01*
X121467046Y-67728414D01*
X121467047Y-67728415D01*
X121467048Y-67728416D01*
X121712717Y-67974084D01*
X121712736Y-67974105D01*
X125093181Y-71354548D01*
X125126666Y-71415871D01*
X125129500Y-71442229D01*
X125129500Y-74998859D01*
X125109815Y-75065898D01*
X125057011Y-75111653D01*
X125052143Y-75113565D01*
X125048663Y-75115187D01*
X124899342Y-75207289D01*
X124775288Y-75331343D01*
X124775285Y-75331347D01*
X124715244Y-75428689D01*
X124663296Y-75475414D01*
X124594334Y-75486635D01*
X124530252Y-75458792D01*
X124504167Y-75428689D01*
X124444315Y-75331654D01*
X124320345Y-75207684D01*
X124171124Y-75115643D01*
X124171119Y-75115641D01*
X124004697Y-75060494D01*
X124004690Y-75060493D01*
X123901986Y-75050000D01*
X123590000Y-75050000D01*
X123590000Y-76201517D01*
X123571591Y-76190889D01*
X123418991Y-76150000D01*
X123261009Y-76150000D01*
X123108409Y-76190889D01*
X123090000Y-76201517D01*
X123090000Y-75050000D01*
X122778028Y-75050000D01*
X122778012Y-75050001D01*
X122675302Y-75060494D01*
X122508880Y-75115641D01*
X122508875Y-75115643D01*
X122359654Y-75207684D01*
X122235683Y-75331655D01*
X122235681Y-75331658D01*
X122231108Y-75339072D01*
X122179158Y-75385795D01*
X122110195Y-75397014D01*
X122046114Y-75369168D01*
X122009390Y-75317304D01*
X122005797Y-75307671D01*
X122005793Y-75307664D01*
X121919547Y-75192455D01*
X121919544Y-75192452D01*
X121804335Y-75106206D01*
X121804328Y-75106202D01*
X121669482Y-75055908D01*
X121669483Y-75055908D01*
X121609883Y-75049501D01*
X121609881Y-75049500D01*
X121609873Y-75049500D01*
X121609864Y-75049500D01*
X119990129Y-75049500D01*
X119990123Y-75049501D01*
X119930516Y-75055908D01*
X119795671Y-75106202D01*
X119795664Y-75106206D01*
X119680455Y-75192452D01*
X119680452Y-75192455D01*
X119594206Y-75307664D01*
X119594202Y-75307671D01*
X119541198Y-75449785D01*
X119538547Y-75448796D01*
X119510597Y-75497873D01*
X119448684Y-75530254D01*
X119379092Y-75524022D01*
X119323918Y-75481156D01*
X119300677Y-75415264D01*
X119300500Y-75408635D01*
X119300500Y-62623998D01*
X119320185Y-62556959D01*
X119372989Y-62511204D01*
X119442147Y-62501260D01*
X119505703Y-62530285D01*
G37*
G04 #@! TD.AperFunction*
G04 #@! TA.AperFunction,Conductor*
G36*
X155732539Y-23770185D02*
G01*
X155778294Y-23822989D01*
X155789500Y-23874500D01*
X155789500Y-26547212D01*
X155769815Y-26614251D01*
X155717011Y-26660006D01*
X155647853Y-26669950D01*
X155618048Y-26661773D01*
X155561691Y-26638429D01*
X155561683Y-26638427D01*
X155520000Y-26630135D01*
X155520000Y-27624722D01*
X155443694Y-27580667D01*
X155329244Y-27550000D01*
X155210756Y-27550000D01*
X155096306Y-27580667D01*
X155020000Y-27624722D01*
X155020000Y-26630136D01*
X155019999Y-26630135D01*
X154978316Y-26638427D01*
X154876339Y-26680666D01*
X154806870Y-26688133D01*
X154754578Y-26665372D01*
X154742330Y-26656203D01*
X154742328Y-26656202D01*
X154607482Y-26605908D01*
X154607483Y-26605908D01*
X154547883Y-26599501D01*
X154547881Y-26599500D01*
X154547873Y-26599500D01*
X154547864Y-26599500D01*
X153452129Y-26599500D01*
X153452123Y-26599501D01*
X153392516Y-26605908D01*
X153257671Y-26656202D01*
X153257664Y-26656206D01*
X153142455Y-26742452D01*
X153142452Y-26742455D01*
X153056206Y-26857664D01*
X153056202Y-26857671D01*
X153005908Y-26992517D01*
X152999501Y-27052116D01*
X152999500Y-27052135D01*
X152999500Y-28947870D01*
X152999501Y-28947876D01*
X153005908Y-29007483D01*
X153056202Y-29142328D01*
X153056206Y-29142335D01*
X153142452Y-29257544D01*
X153142455Y-29257547D01*
X153257664Y-29343793D01*
X153257671Y-29343797D01*
X153392517Y-29394091D01*
X153392516Y-29394091D01*
X153399444Y-29394835D01*
X153452127Y-29400500D01*
X154547872Y-29400499D01*
X154607483Y-29394091D01*
X154742331Y-29343796D01*
X154754575Y-29334629D01*
X154820035Y-29310210D01*
X154876339Y-29319333D01*
X154978308Y-29361569D01*
X155020000Y-29369862D01*
X155020000Y-28375277D01*
X155096306Y-28419333D01*
X155210756Y-28450000D01*
X155329244Y-28450000D01*
X155443694Y-28419333D01*
X155520000Y-28375277D01*
X155520000Y-29369862D01*
X155561689Y-29361570D01*
X155618047Y-29338226D01*
X155687516Y-29330757D01*
X155749996Y-29362032D01*
X155785648Y-29422121D01*
X155789500Y-29452787D01*
X155789500Y-40547212D01*
X155769815Y-40614251D01*
X155717011Y-40660006D01*
X155647853Y-40669950D01*
X155618048Y-40661773D01*
X155561691Y-40638429D01*
X155561683Y-40638427D01*
X155520000Y-40630135D01*
X155520000Y-41624722D01*
X155443694Y-41580667D01*
X155329244Y-41550000D01*
X155210756Y-41550000D01*
X155096306Y-41580667D01*
X155020000Y-41624722D01*
X155020000Y-40630136D01*
X155019999Y-40630135D01*
X154978316Y-40638427D01*
X154876339Y-40680666D01*
X154806870Y-40688133D01*
X154754578Y-40665372D01*
X154742330Y-40656203D01*
X154742328Y-40656202D01*
X154607482Y-40605908D01*
X154607483Y-40605908D01*
X154547883Y-40599501D01*
X154547881Y-40599500D01*
X154547873Y-40599500D01*
X154547864Y-40599500D01*
X153452129Y-40599500D01*
X153452123Y-40599501D01*
X153392516Y-40605908D01*
X153257671Y-40656202D01*
X153257664Y-40656206D01*
X153142455Y-40742452D01*
X153142452Y-40742455D01*
X153056206Y-40857664D01*
X153056202Y-40857671D01*
X153005908Y-40992517D01*
X152999501Y-41052116D01*
X152999500Y-41052135D01*
X152999500Y-42947870D01*
X152999501Y-42947876D01*
X153005908Y-43007483D01*
X153056202Y-43142328D01*
X153056206Y-43142335D01*
X153142452Y-43257544D01*
X153142455Y-43257547D01*
X153257664Y-43343793D01*
X153257671Y-43343797D01*
X153392517Y-43394091D01*
X153392516Y-43394091D01*
X153399444Y-43394835D01*
X153452127Y-43400500D01*
X154547872Y-43400499D01*
X154607483Y-43394091D01*
X154742331Y-43343796D01*
X154754575Y-43334629D01*
X154820035Y-43310210D01*
X154876339Y-43319333D01*
X154978308Y-43361569D01*
X155020000Y-43369862D01*
X155020000Y-42375277D01*
X155096306Y-42419333D01*
X155210756Y-42450000D01*
X155329244Y-42450000D01*
X155443694Y-42419333D01*
X155520000Y-42375277D01*
X155520000Y-43369862D01*
X155561689Y-43361570D01*
X155618047Y-43338226D01*
X155687516Y-43330757D01*
X155749996Y-43362032D01*
X155785648Y-43422121D01*
X155789500Y-43452787D01*
X155789500Y-54547212D01*
X155769815Y-54614251D01*
X155717011Y-54660006D01*
X155647853Y-54669950D01*
X155618048Y-54661773D01*
X155561691Y-54638429D01*
X155561683Y-54638427D01*
X155520000Y-54630135D01*
X155520000Y-55624722D01*
X155443694Y-55580667D01*
X155329244Y-55550000D01*
X155210756Y-55550000D01*
X155096306Y-55580667D01*
X155020000Y-55624722D01*
X155020000Y-54630136D01*
X155019999Y-54630135D01*
X154978316Y-54638427D01*
X154876339Y-54680666D01*
X154806870Y-54688133D01*
X154754578Y-54665372D01*
X154742330Y-54656203D01*
X154742328Y-54656202D01*
X154607482Y-54605908D01*
X154607483Y-54605908D01*
X154547883Y-54599501D01*
X154547881Y-54599500D01*
X154547873Y-54599500D01*
X154547864Y-54599500D01*
X153452129Y-54599500D01*
X153452123Y-54599501D01*
X153392516Y-54605908D01*
X153257671Y-54656202D01*
X153257664Y-54656206D01*
X153142455Y-54742452D01*
X153142452Y-54742455D01*
X153056206Y-54857664D01*
X153056202Y-54857671D01*
X153005908Y-54992517D01*
X152999501Y-55052116D01*
X152999500Y-55052135D01*
X152999500Y-56947870D01*
X152999501Y-56947876D01*
X153005908Y-57007483D01*
X153056202Y-57142328D01*
X153056206Y-57142335D01*
X153142452Y-57257544D01*
X153142455Y-57257547D01*
X153257664Y-57343793D01*
X153257671Y-57343797D01*
X153392517Y-57394091D01*
X153392516Y-57394091D01*
X153399444Y-57394835D01*
X153452127Y-57400500D01*
X154547872Y-57400499D01*
X154607483Y-57394091D01*
X154742331Y-57343796D01*
X154754575Y-57334629D01*
X154820035Y-57310210D01*
X154876339Y-57319333D01*
X154978308Y-57361569D01*
X155020000Y-57369862D01*
X155020000Y-56375277D01*
X155096306Y-56419333D01*
X155210756Y-56450000D01*
X155329244Y-56450000D01*
X155443694Y-56419333D01*
X155520000Y-56375277D01*
X155520000Y-57369862D01*
X155561690Y-57361569D01*
X155561692Y-57361569D01*
X155743673Y-57286191D01*
X155743676Y-57286189D01*
X155835657Y-57224729D01*
X155902334Y-57203850D01*
X155969715Y-57222334D01*
X155973440Y-57224728D01*
X156066079Y-57286628D01*
X156066092Y-57286635D01*
X156247001Y-57361569D01*
X156248165Y-57362051D01*
X156248169Y-57362051D01*
X156248170Y-57362052D01*
X156441456Y-57400500D01*
X156441459Y-57400500D01*
X156638543Y-57400500D01*
X156773880Y-57373579D01*
X156831835Y-57362051D01*
X157013914Y-57286632D01*
X157106109Y-57225029D01*
X157172786Y-57204151D01*
X157240166Y-57222635D01*
X157243891Y-57225029D01*
X157335423Y-57286189D01*
X157336086Y-57286632D01*
X157336088Y-57286633D01*
X157336092Y-57286635D01*
X157517001Y-57361569D01*
X157518165Y-57362051D01*
X157518169Y-57362051D01*
X157518170Y-57362052D01*
X157711456Y-57400500D01*
X157711459Y-57400500D01*
X157908543Y-57400500D01*
X158043880Y-57373579D01*
X158101835Y-57362051D01*
X158283914Y-57286632D01*
X158447782Y-57177139D01*
X158587139Y-57037782D01*
X158696632Y-56873914D01*
X158772051Y-56691835D01*
X158810500Y-56498541D01*
X158810500Y-55501459D01*
X158810500Y-55501456D01*
X158772052Y-55308170D01*
X158772051Y-55308169D01*
X158772051Y-55308165D01*
X158772049Y-55308160D01*
X158696635Y-55126092D01*
X158696628Y-55126079D01*
X158587139Y-54962218D01*
X158587136Y-54962214D01*
X158447785Y-54822863D01*
X158447781Y-54822860D01*
X158283920Y-54713371D01*
X158283907Y-54713364D01*
X158101839Y-54637950D01*
X158101829Y-54637947D01*
X157908543Y-54599500D01*
X157908541Y-54599500D01*
X157711459Y-54599500D01*
X157711457Y-54599500D01*
X157518170Y-54637947D01*
X157518165Y-54637949D01*
X157461951Y-54661233D01*
X157392482Y-54668700D01*
X157330003Y-54637425D01*
X157294351Y-54577335D01*
X157290500Y-54546671D01*
X157290500Y-46631902D01*
X158299500Y-46631902D01*
X158299500Y-46868097D01*
X158336446Y-47101368D01*
X158409433Y-47325996D01*
X158496979Y-47497813D01*
X158516657Y-47536433D01*
X158655483Y-47727510D01*
X158822490Y-47894517D01*
X159013567Y-48033343D01*
X159112991Y-48084002D01*
X159224003Y-48140566D01*
X159224005Y-48140566D01*
X159224008Y-48140568D01*
X159344412Y-48179689D01*
X159448631Y-48213553D01*
X159681903Y-48250500D01*
X159681908Y-48250500D01*
X159918097Y-48250500D01*
X160151368Y-48213553D01*
X160189725Y-48201090D01*
X160375992Y-48140568D01*
X160586433Y-48033343D01*
X160777510Y-47894517D01*
X160944517Y-47727510D01*
X161083343Y-47536433D01*
X161190568Y-47325992D01*
X161263553Y-47101368D01*
X161276682Y-47018477D01*
X161300500Y-46868097D01*
X161300500Y-46631902D01*
X161263553Y-46398631D01*
X161215007Y-46249223D01*
X161190568Y-46174008D01*
X161190566Y-46174005D01*
X161190566Y-46174003D01*
X161083342Y-45963566D01*
X160944517Y-45772490D01*
X160777510Y-45605483D01*
X160586433Y-45466657D01*
X160375996Y-45359433D01*
X160151368Y-45286446D01*
X159918097Y-45249500D01*
X159918092Y-45249500D01*
X159681908Y-45249500D01*
X159681903Y-45249500D01*
X159448631Y-45286446D01*
X159224003Y-45359433D01*
X159013566Y-45466657D01*
X158951736Y-45511580D01*
X158822490Y-45605483D01*
X158822488Y-45605485D01*
X158822487Y-45605485D01*
X158655485Y-45772487D01*
X158655485Y-45772488D01*
X158655483Y-45772490D01*
X158597460Y-45852351D01*
X158516657Y-45963566D01*
X158409433Y-46174003D01*
X158336446Y-46398631D01*
X158299500Y-46631902D01*
X157290500Y-46631902D01*
X157290500Y-43453328D01*
X157310185Y-43386289D01*
X157362989Y-43340534D01*
X157432147Y-43330590D01*
X157461950Y-43338766D01*
X157518165Y-43362051D01*
X157518169Y-43362051D01*
X157518170Y-43362052D01*
X157711456Y-43400500D01*
X157711459Y-43400500D01*
X157908543Y-43400500D01*
X158062567Y-43369862D01*
X158101835Y-43362051D01*
X158283914Y-43286632D01*
X158447782Y-43177139D01*
X158587139Y-43037782D01*
X158696632Y-42873914D01*
X158772051Y-42691835D01*
X158784632Y-42628582D01*
X158810500Y-42498543D01*
X158810500Y-41501456D01*
X158772051Y-41308165D01*
X158772049Y-41308160D01*
X158696635Y-41126092D01*
X158696628Y-41126079D01*
X158587139Y-40962218D01*
X158587136Y-40962214D01*
X158447785Y-40822863D01*
X158447781Y-40822860D01*
X158283920Y-40713371D01*
X158283907Y-40713364D01*
X158101839Y-40637950D01*
X158101829Y-40637947D01*
X157908543Y-40599500D01*
X157908541Y-40599500D01*
X157711459Y-40599500D01*
X157711457Y-40599500D01*
X157518170Y-40637947D01*
X157518165Y-40637949D01*
X157461951Y-40661233D01*
X157392482Y-40668700D01*
X157330003Y-40637425D01*
X157294351Y-40577335D01*
X157290500Y-40546671D01*
X157290500Y-32631902D01*
X158299500Y-32631902D01*
X158299500Y-32868097D01*
X158336446Y-33101368D01*
X158409433Y-33325996D01*
X158516657Y-33536433D01*
X158655483Y-33727510D01*
X158822490Y-33894517D01*
X159013567Y-34033343D01*
X159112991Y-34084002D01*
X159224003Y-34140566D01*
X159224005Y-34140566D01*
X159224008Y-34140568D01*
X159344412Y-34179689D01*
X159448631Y-34213553D01*
X159681903Y-34250500D01*
X159681908Y-34250500D01*
X159918097Y-34250500D01*
X160151368Y-34213553D01*
X160189725Y-34201090D01*
X160375992Y-34140568D01*
X160586433Y-34033343D01*
X160777510Y-33894517D01*
X160944517Y-33727510D01*
X161083343Y-33536433D01*
X161190568Y-33325992D01*
X161263553Y-33101368D01*
X161275720Y-33024548D01*
X161300500Y-32868097D01*
X161300500Y-32631902D01*
X164799500Y-32631902D01*
X164799500Y-32868097D01*
X164836446Y-33101368D01*
X164909433Y-33325996D01*
X165016657Y-33536433D01*
X165155483Y-33727510D01*
X165322490Y-33894517D01*
X165513567Y-34033343D01*
X165612991Y-34084002D01*
X165724003Y-34140566D01*
X165724005Y-34140566D01*
X165724008Y-34140568D01*
X165844412Y-34179689D01*
X165948631Y-34213553D01*
X166181903Y-34250500D01*
X166181908Y-34250500D01*
X166418097Y-34250500D01*
X166651368Y-34213553D01*
X166689725Y-34201090D01*
X166875992Y-34140568D01*
X167086433Y-34033343D01*
X167277510Y-33894517D01*
X167444517Y-33727510D01*
X167583343Y-33536433D01*
X167690568Y-33325992D01*
X167763553Y-33101368D01*
X167775720Y-33024548D01*
X167800500Y-32868097D01*
X167800500Y-32631902D01*
X167763553Y-32398631D01*
X167690566Y-32174003D01*
X167583342Y-31963566D01*
X167564863Y-31938132D01*
X167444517Y-31772490D01*
X167277510Y-31605483D01*
X167086433Y-31466657D01*
X166875996Y-31359433D01*
X166651368Y-31286446D01*
X166418097Y-31249500D01*
X166418092Y-31249500D01*
X166181908Y-31249500D01*
X166181903Y-31249500D01*
X165948631Y-31286446D01*
X165724003Y-31359433D01*
X165513566Y-31466657D01*
X165412358Y-31540190D01*
X165322490Y-31605483D01*
X165322488Y-31605485D01*
X165322487Y-31605485D01*
X165155485Y-31772487D01*
X165155485Y-31772488D01*
X165155483Y-31772490D01*
X165095862Y-31854550D01*
X165016657Y-31963566D01*
X164909433Y-32174003D01*
X164836446Y-32398631D01*
X164799500Y-32631902D01*
X161300500Y-32631902D01*
X161263553Y-32398631D01*
X161190566Y-32174003D01*
X161083342Y-31963566D01*
X161064863Y-31938132D01*
X160944517Y-31772490D01*
X160777510Y-31605483D01*
X160586433Y-31466657D01*
X160375996Y-31359433D01*
X160151368Y-31286446D01*
X159918097Y-31249500D01*
X159918092Y-31249500D01*
X159681908Y-31249500D01*
X159681903Y-31249500D01*
X159448631Y-31286446D01*
X159224003Y-31359433D01*
X159013566Y-31466657D01*
X158912358Y-31540190D01*
X158822490Y-31605483D01*
X158822488Y-31605485D01*
X158822487Y-31605485D01*
X158655485Y-31772487D01*
X158655485Y-31772488D01*
X158655483Y-31772490D01*
X158595862Y-31854550D01*
X158516657Y-31963566D01*
X158409433Y-32174003D01*
X158336446Y-32398631D01*
X158299500Y-32631902D01*
X157290500Y-32631902D01*
X157290500Y-29453328D01*
X157310185Y-29386289D01*
X157362989Y-29340534D01*
X157432147Y-29330590D01*
X157461950Y-29338766D01*
X157518165Y-29362051D01*
X157518169Y-29362051D01*
X157518170Y-29362052D01*
X157711456Y-29400500D01*
X157711459Y-29400500D01*
X157908543Y-29400500D01*
X158062567Y-29369862D01*
X158101835Y-29362051D01*
X158283914Y-29286632D01*
X158447782Y-29177139D01*
X158587139Y-29037782D01*
X158696632Y-28873914D01*
X158772051Y-28691835D01*
X158810500Y-28498541D01*
X158810500Y-27501459D01*
X158810500Y-27501456D01*
X158772052Y-27308170D01*
X158772051Y-27308169D01*
X158772051Y-27308165D01*
X158772049Y-27308160D01*
X158696635Y-27126092D01*
X158696627Y-27126078D01*
X158691028Y-27117698D01*
X158691027Y-27117697D01*
X158587139Y-26962218D01*
X158587136Y-26962214D01*
X158447785Y-26822863D01*
X158447781Y-26822860D01*
X158283920Y-26713371D01*
X158283907Y-26713364D01*
X158101839Y-26637950D01*
X158101829Y-26637947D01*
X157908543Y-26599500D01*
X157908541Y-26599500D01*
X157711459Y-26599500D01*
X157711457Y-26599500D01*
X157518170Y-26637947D01*
X157518165Y-26637949D01*
X157461951Y-26661233D01*
X157392482Y-26668700D01*
X157330003Y-26637425D01*
X157294351Y-26577335D01*
X157290500Y-26546671D01*
X157290500Y-23874500D01*
X157310185Y-23807461D01*
X157362989Y-23761706D01*
X157414500Y-23750500D01*
X169187770Y-23750500D01*
X169254809Y-23770185D01*
X169275451Y-23786819D01*
X169753181Y-24264548D01*
X169786666Y-24325871D01*
X169789500Y-24352229D01*
X169789500Y-26547212D01*
X169769815Y-26614251D01*
X169717011Y-26660006D01*
X169647853Y-26669950D01*
X169618048Y-26661773D01*
X169561691Y-26638429D01*
X169561683Y-26638427D01*
X169520000Y-26630135D01*
X169520000Y-27624722D01*
X169443694Y-27580667D01*
X169329244Y-27550000D01*
X169210756Y-27550000D01*
X169096306Y-27580667D01*
X169020000Y-27624722D01*
X169020000Y-26630136D01*
X169019999Y-26630135D01*
X168978316Y-26638427D01*
X168876339Y-26680666D01*
X168806870Y-26688133D01*
X168754578Y-26665372D01*
X168742330Y-26656203D01*
X168742328Y-26656202D01*
X168607482Y-26605908D01*
X168607483Y-26605908D01*
X168547883Y-26599501D01*
X168547881Y-26599500D01*
X168547873Y-26599500D01*
X168547864Y-26599500D01*
X167452129Y-26599500D01*
X167452123Y-26599501D01*
X167392516Y-26605908D01*
X167257671Y-26656202D01*
X167257664Y-26656206D01*
X167142455Y-26742452D01*
X167142452Y-26742455D01*
X167056206Y-26857664D01*
X167056202Y-26857671D01*
X167005908Y-26992517D01*
X166999501Y-27052116D01*
X166999500Y-27052135D01*
X166999500Y-28947870D01*
X166999501Y-28947876D01*
X167005908Y-29007483D01*
X167056202Y-29142328D01*
X167056206Y-29142335D01*
X167142452Y-29257544D01*
X167142455Y-29257547D01*
X167257664Y-29343793D01*
X167257671Y-29343797D01*
X167392517Y-29394091D01*
X167392516Y-29394091D01*
X167399444Y-29394835D01*
X167452127Y-29400500D01*
X168547872Y-29400499D01*
X168607483Y-29394091D01*
X168742331Y-29343796D01*
X168754575Y-29334629D01*
X168820035Y-29310210D01*
X168876339Y-29319333D01*
X168978308Y-29361569D01*
X169020000Y-29369862D01*
X169020000Y-28375277D01*
X169096306Y-28419333D01*
X169210756Y-28450000D01*
X169329244Y-28450000D01*
X169443694Y-28419333D01*
X169520000Y-28375277D01*
X169520000Y-29369862D01*
X169561689Y-29361570D01*
X169618047Y-29338226D01*
X169687516Y-29330757D01*
X169749996Y-29362032D01*
X169785648Y-29422121D01*
X169789500Y-29452787D01*
X169789500Y-40547212D01*
X169769815Y-40614251D01*
X169717011Y-40660006D01*
X169647853Y-40669950D01*
X169618048Y-40661773D01*
X169561691Y-40638429D01*
X169561683Y-40638427D01*
X169520000Y-40630135D01*
X169520000Y-41624722D01*
X169443694Y-41580667D01*
X169329244Y-41550000D01*
X169210756Y-41550000D01*
X169096306Y-41580667D01*
X169020000Y-41624722D01*
X169020000Y-40630136D01*
X169019999Y-40630135D01*
X168978316Y-40638427D01*
X168876339Y-40680666D01*
X168806870Y-40688133D01*
X168754578Y-40665372D01*
X168742330Y-40656203D01*
X168742328Y-40656202D01*
X168607482Y-40605908D01*
X168607483Y-40605908D01*
X168547883Y-40599501D01*
X168547881Y-40599500D01*
X168547873Y-40599500D01*
X168547864Y-40599500D01*
X167452129Y-40599500D01*
X167452123Y-40599501D01*
X167392516Y-40605908D01*
X167257671Y-40656202D01*
X167257664Y-40656206D01*
X167142455Y-40742452D01*
X167142452Y-40742455D01*
X167056206Y-40857664D01*
X167056202Y-40857671D01*
X167005908Y-40992517D01*
X166999501Y-41052116D01*
X166999500Y-41052135D01*
X166999500Y-41125500D01*
X166979815Y-41192539D01*
X166927011Y-41238294D01*
X166875500Y-41249500D01*
X166226076Y-41249500D01*
X166197242Y-41255234D01*
X166197243Y-41255235D01*
X166081092Y-41278339D01*
X166081086Y-41278341D01*
X166015543Y-41305490D01*
X166015534Y-41305494D01*
X166009088Y-41308165D01*
X165944505Y-41334916D01*
X165862816Y-41389499D01*
X165858508Y-41392376D01*
X165858505Y-41392379D01*
X165821586Y-41417047D01*
X165821582Y-41417050D01*
X163467047Y-43771584D01*
X163467043Y-43771589D01*
X163440826Y-43810828D01*
X163440826Y-43810829D01*
X163384913Y-43894508D01*
X163328343Y-44031082D01*
X163328340Y-44031092D01*
X163299500Y-44176079D01*
X163299500Y-58714739D01*
X163297872Y-58722918D01*
X163298789Y-58727998D01*
X163290060Y-58762195D01*
X163289060Y-58764609D01*
X163245217Y-58819011D01*
X163178922Y-58841074D01*
X163111223Y-58823793D01*
X163063614Y-58772654D01*
X163050500Y-58717153D01*
X163050500Y-39676079D01*
X163021659Y-39531092D01*
X163021658Y-39531091D01*
X163021658Y-39531087D01*
X162997475Y-39472703D01*
X162965086Y-39394509D01*
X162965085Y-39394507D01*
X162932186Y-39345270D01*
X162932185Y-39345268D01*
X162882956Y-39271589D01*
X162882952Y-39271584D01*
X161301280Y-37689912D01*
X161267795Y-37628589D01*
X161266488Y-37582836D01*
X161285374Y-37463592D01*
X161300500Y-37368096D01*
X161300500Y-37131902D01*
X164799500Y-37131902D01*
X164799500Y-37368097D01*
X164836446Y-37601368D01*
X164909433Y-37825996D01*
X165016657Y-38036433D01*
X165155483Y-38227510D01*
X165322490Y-38394517D01*
X165513567Y-38533343D01*
X165593200Y-38573918D01*
X165724003Y-38640566D01*
X165724005Y-38640566D01*
X165724008Y-38640568D01*
X165844412Y-38679689D01*
X165948631Y-38713553D01*
X166181903Y-38750500D01*
X166181908Y-38750500D01*
X166418097Y-38750500D01*
X166651368Y-38713553D01*
X166689725Y-38701090D01*
X166875992Y-38640568D01*
X167086433Y-38533343D01*
X167277510Y-38394517D01*
X167444517Y-38227510D01*
X167583343Y-38036433D01*
X167690568Y-37825992D01*
X167763553Y-37601368D01*
X167769451Y-37564132D01*
X167800500Y-37368097D01*
X167800500Y-37131902D01*
X167763553Y-36898631D01*
X167690566Y-36674003D01*
X167583342Y-36463566D01*
X167444517Y-36272490D01*
X167277510Y-36105483D01*
X167086433Y-35966657D01*
X166875996Y-35859433D01*
X166651368Y-35786446D01*
X166418097Y-35749500D01*
X166418092Y-35749500D01*
X166181908Y-35749500D01*
X166181903Y-35749500D01*
X165948631Y-35786446D01*
X165724003Y-35859433D01*
X165513566Y-35966657D01*
X165404550Y-36045862D01*
X165322490Y-36105483D01*
X165322488Y-36105485D01*
X165322487Y-36105485D01*
X165155485Y-36272487D01*
X165155485Y-36272488D01*
X165155483Y-36272490D01*
X165095862Y-36354550D01*
X165016657Y-36463566D01*
X164909433Y-36674003D01*
X164836446Y-36898631D01*
X164799500Y-37131902D01*
X161300500Y-37131902D01*
X161263553Y-36898631D01*
X161190566Y-36674003D01*
X161083342Y-36463566D01*
X160944517Y-36272490D01*
X160777510Y-36105483D01*
X160586433Y-35966657D01*
X160375996Y-35859433D01*
X160151368Y-35786446D01*
X159918097Y-35749500D01*
X159918092Y-35749500D01*
X159681908Y-35749500D01*
X159681903Y-35749500D01*
X159448631Y-35786446D01*
X159224003Y-35859433D01*
X159013566Y-35966657D01*
X158904550Y-36045862D01*
X158822490Y-36105483D01*
X158822488Y-36105485D01*
X158822487Y-36105485D01*
X158655485Y-36272487D01*
X158655485Y-36272488D01*
X158655483Y-36272490D01*
X158595862Y-36354550D01*
X158516657Y-36463566D01*
X158409433Y-36674003D01*
X158336446Y-36898631D01*
X158299500Y-37131902D01*
X158299500Y-37368097D01*
X158336446Y-37601368D01*
X158409433Y-37825996D01*
X158516657Y-38036433D01*
X158655483Y-38227510D01*
X158822490Y-38394517D01*
X159013567Y-38533343D01*
X159093200Y-38573918D01*
X159224003Y-38640566D01*
X159224005Y-38640566D01*
X159224008Y-38640568D01*
X159344412Y-38679689D01*
X159448631Y-38713553D01*
X159681903Y-38750500D01*
X159681908Y-38750500D01*
X159918096Y-38750500D01*
X160013592Y-38735374D01*
X160132834Y-38716488D01*
X160202126Y-38725442D01*
X160239912Y-38751280D01*
X161513181Y-40024549D01*
X161546666Y-40085872D01*
X161549500Y-40112230D01*
X161549500Y-50375500D01*
X161529815Y-50442539D01*
X161477011Y-50488294D01*
X161425500Y-50499500D01*
X161172631Y-50499500D01*
X161105592Y-50479815D01*
X161072313Y-50448386D01*
X160944517Y-50272490D01*
X160777510Y-50105483D01*
X160586433Y-49966657D01*
X160577187Y-49961946D01*
X160375996Y-49859433D01*
X160151368Y-49786446D01*
X159918097Y-49749500D01*
X159918092Y-49749500D01*
X159681908Y-49749500D01*
X159681903Y-49749500D01*
X159448631Y-49786446D01*
X159224003Y-49859433D01*
X159013566Y-49966657D01*
X158904550Y-50045862D01*
X158822490Y-50105483D01*
X158822488Y-50105485D01*
X158822487Y-50105485D01*
X158655485Y-50272487D01*
X158655485Y-50272488D01*
X158655483Y-50272490D01*
X158595862Y-50354550D01*
X158516657Y-50463566D01*
X158409433Y-50674003D01*
X158336446Y-50898631D01*
X158299500Y-51131902D01*
X158299500Y-51368097D01*
X158336446Y-51601368D01*
X158409433Y-51825996D01*
X158475276Y-51955218D01*
X158516657Y-52036433D01*
X158655483Y-52227510D01*
X158822490Y-52394517D01*
X159013567Y-52533343D01*
X159112991Y-52584002D01*
X159224003Y-52640566D01*
X159224005Y-52640566D01*
X159224008Y-52640568D01*
X159344412Y-52679689D01*
X159448631Y-52713553D01*
X159681903Y-52750500D01*
X159681908Y-52750500D01*
X159918097Y-52750500D01*
X160151368Y-52713553D01*
X160375992Y-52640568D01*
X160586433Y-52533343D01*
X160777510Y-52394517D01*
X160944517Y-52227510D01*
X161072313Y-52051613D01*
X161127643Y-52008949D01*
X161172631Y-52000500D01*
X161425500Y-52000500D01*
X161492539Y-52020185D01*
X161538294Y-52072989D01*
X161549500Y-52124500D01*
X161549500Y-62387769D01*
X161529815Y-62454808D01*
X161513181Y-62475450D01*
X160239911Y-63748719D01*
X160178588Y-63782204D01*
X160132832Y-63783511D01*
X159918097Y-63749500D01*
X159918092Y-63749500D01*
X159681908Y-63749500D01*
X159681903Y-63749500D01*
X159448631Y-63786446D01*
X159224003Y-63859433D01*
X159013566Y-63966657D01*
X158904550Y-64045862D01*
X158822490Y-64105483D01*
X158822488Y-64105485D01*
X158822487Y-64105485D01*
X158655485Y-64272487D01*
X158655485Y-64272488D01*
X158655483Y-64272490D01*
X158626874Y-64311867D01*
X158516657Y-64463566D01*
X158409433Y-64674003D01*
X158336446Y-64898631D01*
X158299500Y-65131902D01*
X158299500Y-65368097D01*
X158336446Y-65601368D01*
X158409433Y-65825996D01*
X158516656Y-66036432D01*
X158528414Y-66052615D01*
X158551893Y-66118422D01*
X158536067Y-66186476D01*
X158485961Y-66235170D01*
X158428095Y-66249500D01*
X153671905Y-66249500D01*
X153604866Y-66229815D01*
X153559111Y-66177011D01*
X153549167Y-66107853D01*
X153571586Y-66052615D01*
X153583343Y-66036433D01*
X153690568Y-65825992D01*
X153763553Y-65601368D01*
X153781938Y-65485289D01*
X153800500Y-65368097D01*
X153800500Y-65131902D01*
X153763553Y-64898631D01*
X153699535Y-64701607D01*
X153690568Y-64674008D01*
X153690566Y-64674005D01*
X153690566Y-64674003D01*
X153583342Y-64463566D01*
X153444517Y-64272490D01*
X153277510Y-64105483D01*
X153086433Y-63966657D01*
X152875996Y-63859433D01*
X152651368Y-63786446D01*
X152418097Y-63749500D01*
X152418092Y-63749500D01*
X152181908Y-63749500D01*
X152181903Y-63749500D01*
X151948631Y-63786446D01*
X151724003Y-63859433D01*
X151513566Y-63966657D01*
X151404550Y-64045862D01*
X151322490Y-64105483D01*
X151322488Y-64105485D01*
X151322487Y-64105485D01*
X151155485Y-64272487D01*
X151155485Y-64272488D01*
X151155483Y-64272490D01*
X151126874Y-64311867D01*
X151016657Y-64463566D01*
X150909433Y-64674003D01*
X150836446Y-64898631D01*
X150799500Y-65131902D01*
X150799500Y-65138770D01*
X150779815Y-65205809D01*
X150727011Y-65251564D01*
X150657853Y-65261508D01*
X150594297Y-65232483D01*
X150587819Y-65226451D01*
X150086819Y-64725451D01*
X150053334Y-64664128D01*
X150050500Y-64637770D01*
X150050500Y-60631902D01*
X150799500Y-60631902D01*
X150799500Y-60868097D01*
X150836446Y-61101368D01*
X150909433Y-61325996D01*
X150996979Y-61497813D01*
X151016657Y-61536433D01*
X151155483Y-61727510D01*
X151322490Y-61894517D01*
X151513567Y-62033343D01*
X151593200Y-62073918D01*
X151724003Y-62140566D01*
X151724005Y-62140566D01*
X151724008Y-62140568D01*
X151844412Y-62179689D01*
X151948631Y-62213553D01*
X152181903Y-62250500D01*
X152181908Y-62250500D01*
X152418097Y-62250500D01*
X152651368Y-62213553D01*
X152652821Y-62213081D01*
X152875992Y-62140568D01*
X153086433Y-62033343D01*
X153277510Y-61894517D01*
X153444517Y-61727510D01*
X153583343Y-61536433D01*
X153690568Y-61325992D01*
X153763553Y-61101368D01*
X153800500Y-60868097D01*
X153800500Y-60631902D01*
X158299500Y-60631902D01*
X158299500Y-60868097D01*
X158336446Y-61101368D01*
X158409433Y-61325996D01*
X158496979Y-61497813D01*
X158516657Y-61536433D01*
X158655483Y-61727510D01*
X158822490Y-61894517D01*
X159013567Y-62033343D01*
X159093200Y-62073918D01*
X159224003Y-62140566D01*
X159224005Y-62140566D01*
X159224008Y-62140568D01*
X159344412Y-62179689D01*
X159448631Y-62213553D01*
X159681903Y-62250500D01*
X159681908Y-62250500D01*
X159918097Y-62250500D01*
X160151368Y-62213553D01*
X160152821Y-62213081D01*
X160375992Y-62140568D01*
X160586433Y-62033343D01*
X160777510Y-61894517D01*
X160944517Y-61727510D01*
X161083343Y-61536433D01*
X161190568Y-61325992D01*
X161263553Y-61101368D01*
X161300500Y-60868097D01*
X161300500Y-60631902D01*
X161263553Y-60398631D01*
X161212227Y-60240668D01*
X161190568Y-60174008D01*
X161190566Y-60174005D01*
X161190566Y-60174003D01*
X161134002Y-60062991D01*
X161083343Y-59963567D01*
X160944517Y-59772490D01*
X160777510Y-59605483D01*
X160586433Y-59466657D01*
X160564935Y-59455703D01*
X160375996Y-59359433D01*
X160151368Y-59286446D01*
X159918097Y-59249500D01*
X159918092Y-59249500D01*
X159681908Y-59249500D01*
X159681903Y-59249500D01*
X159448631Y-59286446D01*
X159224003Y-59359433D01*
X159013566Y-59466657D01*
X158904550Y-59545862D01*
X158822490Y-59605483D01*
X158822488Y-59605485D01*
X158822487Y-59605485D01*
X158655485Y-59772487D01*
X158655485Y-59772488D01*
X158655483Y-59772490D01*
X158595862Y-59854550D01*
X158516657Y-59963566D01*
X158409433Y-60174003D01*
X158336446Y-60398631D01*
X158299500Y-60631902D01*
X153800500Y-60631902D01*
X153763553Y-60398631D01*
X153712227Y-60240668D01*
X153690568Y-60174008D01*
X153690566Y-60174005D01*
X153690566Y-60174003D01*
X153634002Y-60062991D01*
X153583343Y-59963567D01*
X153444517Y-59772490D01*
X153277510Y-59605483D01*
X153086433Y-59466657D01*
X153064935Y-59455703D01*
X152875996Y-59359433D01*
X152651368Y-59286446D01*
X152418097Y-59249500D01*
X152418092Y-59249500D01*
X152181908Y-59249500D01*
X152181903Y-59249500D01*
X151948631Y-59286446D01*
X151724003Y-59359433D01*
X151513566Y-59466657D01*
X151404550Y-59545862D01*
X151322490Y-59605483D01*
X151322488Y-59605485D01*
X151322487Y-59605485D01*
X151155485Y-59772487D01*
X151155485Y-59772488D01*
X151155483Y-59772490D01*
X151095862Y-59854550D01*
X151016657Y-59963566D01*
X150909433Y-60174003D01*
X150836446Y-60398631D01*
X150799500Y-60631902D01*
X150050500Y-60631902D01*
X150050500Y-51131902D01*
X150799500Y-51131902D01*
X150799500Y-51368097D01*
X150836446Y-51601368D01*
X150909433Y-51825996D01*
X150975276Y-51955218D01*
X151016657Y-52036433D01*
X151155483Y-52227510D01*
X151322490Y-52394517D01*
X151513567Y-52533343D01*
X151612991Y-52584002D01*
X151724003Y-52640566D01*
X151724005Y-52640566D01*
X151724008Y-52640568D01*
X151844412Y-52679689D01*
X151948631Y-52713553D01*
X152181903Y-52750500D01*
X152181908Y-52750500D01*
X152418097Y-52750500D01*
X152651368Y-52713553D01*
X152875992Y-52640568D01*
X153086433Y-52533343D01*
X153277510Y-52394517D01*
X153444517Y-52227510D01*
X153583343Y-52036433D01*
X153690568Y-51825992D01*
X153763553Y-51601368D01*
X153765962Y-51586161D01*
X153800500Y-51368097D01*
X153800500Y-51131902D01*
X153763553Y-50898631D01*
X153690566Y-50674003D01*
X153602405Y-50500978D01*
X153583343Y-50463567D01*
X153444517Y-50272490D01*
X153277510Y-50105483D01*
X153086433Y-49966657D01*
X153077187Y-49961946D01*
X152875996Y-49859433D01*
X152651368Y-49786446D01*
X152418097Y-49749500D01*
X152418092Y-49749500D01*
X152181908Y-49749500D01*
X152181903Y-49749500D01*
X151948631Y-49786446D01*
X151724003Y-49859433D01*
X151513566Y-49966657D01*
X151404550Y-50045862D01*
X151322490Y-50105483D01*
X151322488Y-50105485D01*
X151322487Y-50105485D01*
X151155485Y-50272487D01*
X151155485Y-50272488D01*
X151155483Y-50272490D01*
X151095862Y-50354550D01*
X151016657Y-50463566D01*
X150909433Y-50674003D01*
X150836446Y-50898631D01*
X150799500Y-51131902D01*
X150050500Y-51131902D01*
X150050500Y-46631902D01*
X150799500Y-46631902D01*
X150799500Y-46868097D01*
X150836446Y-47101368D01*
X150909433Y-47325996D01*
X150996979Y-47497813D01*
X151016657Y-47536433D01*
X151155483Y-47727510D01*
X151322490Y-47894517D01*
X151513567Y-48033343D01*
X151612991Y-48084002D01*
X151724003Y-48140566D01*
X151724005Y-48140566D01*
X151724008Y-48140568D01*
X151844412Y-48179689D01*
X151948631Y-48213553D01*
X152181903Y-48250500D01*
X152181908Y-48250500D01*
X152418097Y-48250500D01*
X152651368Y-48213553D01*
X152689725Y-48201090D01*
X152875992Y-48140568D01*
X153086433Y-48033343D01*
X153277510Y-47894517D01*
X153444517Y-47727510D01*
X153583343Y-47536433D01*
X153690568Y-47325992D01*
X153763553Y-47101368D01*
X153776682Y-47018477D01*
X153800500Y-46868097D01*
X153800500Y-46631902D01*
X153763553Y-46398631D01*
X153715007Y-46249223D01*
X153690568Y-46174008D01*
X153690566Y-46174005D01*
X153690566Y-46174003D01*
X153583342Y-45963566D01*
X153444517Y-45772490D01*
X153277510Y-45605483D01*
X153086433Y-45466657D01*
X152875996Y-45359433D01*
X152651368Y-45286446D01*
X152418097Y-45249500D01*
X152418092Y-45249500D01*
X152181908Y-45249500D01*
X152181903Y-45249500D01*
X151948631Y-45286446D01*
X151724003Y-45359433D01*
X151513566Y-45466657D01*
X151451736Y-45511580D01*
X151322490Y-45605483D01*
X151322488Y-45605485D01*
X151322487Y-45605485D01*
X151155485Y-45772487D01*
X151155485Y-45772488D01*
X151155483Y-45772490D01*
X151097460Y-45852351D01*
X151016657Y-45963566D01*
X150909433Y-46174003D01*
X150836446Y-46398631D01*
X150799500Y-46631902D01*
X150050500Y-46631902D01*
X150050500Y-45149668D01*
X150070185Y-45082629D01*
X150122989Y-45036874D01*
X150127048Y-45035107D01*
X150202856Y-45003706D01*
X150202856Y-45003705D01*
X150202863Y-45003703D01*
X150342162Y-44910626D01*
X150460626Y-44792162D01*
X150553703Y-44652863D01*
X150617816Y-44498082D01*
X150650500Y-44333767D01*
X150650500Y-44166233D01*
X150617816Y-44001918D01*
X150553703Y-43847137D01*
X150474376Y-43728416D01*
X150460626Y-43707837D01*
X150342162Y-43589373D01*
X150202860Y-43496295D01*
X150048082Y-43432184D01*
X150048074Y-43432182D01*
X149883771Y-43399500D01*
X149883767Y-43399500D01*
X149716233Y-43399500D01*
X149716228Y-43399500D01*
X149551925Y-43432182D01*
X149551917Y-43432184D01*
X149397139Y-43496295D01*
X149257833Y-43589376D01*
X149253161Y-43593211D01*
X149188850Y-43620522D01*
X149119983Y-43608728D01*
X149068425Y-43561574D01*
X149050500Y-43497355D01*
X149050500Y-39676079D01*
X149021659Y-39531092D01*
X149021658Y-39531091D01*
X149021658Y-39531087D01*
X148997475Y-39472703D01*
X148965086Y-39394509D01*
X148965085Y-39394507D01*
X148932186Y-39345270D01*
X148932185Y-39345268D01*
X148882956Y-39271589D01*
X148882952Y-39271584D01*
X147301280Y-37689912D01*
X147267795Y-37628589D01*
X147266488Y-37582836D01*
X147285374Y-37463592D01*
X147300500Y-37368096D01*
X147300500Y-37131902D01*
X150799500Y-37131902D01*
X150799500Y-37368097D01*
X150836446Y-37601368D01*
X150909433Y-37825996D01*
X151016657Y-38036433D01*
X151155483Y-38227510D01*
X151322490Y-38394517D01*
X151513567Y-38533343D01*
X151593200Y-38573918D01*
X151724003Y-38640566D01*
X151724005Y-38640566D01*
X151724008Y-38640568D01*
X151844412Y-38679689D01*
X151948631Y-38713553D01*
X152181903Y-38750500D01*
X152181908Y-38750500D01*
X152418097Y-38750500D01*
X152651368Y-38713553D01*
X152689725Y-38701090D01*
X152875992Y-38640568D01*
X153086433Y-38533343D01*
X153277510Y-38394517D01*
X153444517Y-38227510D01*
X153583343Y-38036433D01*
X153690568Y-37825992D01*
X153763553Y-37601368D01*
X153769451Y-37564132D01*
X153800500Y-37368097D01*
X153800500Y-37131902D01*
X153763553Y-36898631D01*
X153690566Y-36674003D01*
X153583342Y-36463566D01*
X153444517Y-36272490D01*
X153277510Y-36105483D01*
X153086433Y-35966657D01*
X152875996Y-35859433D01*
X152651368Y-35786446D01*
X152418097Y-35749500D01*
X152418092Y-35749500D01*
X152181908Y-35749500D01*
X152181903Y-35749500D01*
X151948631Y-35786446D01*
X151724003Y-35859433D01*
X151513566Y-35966657D01*
X151404550Y-36045862D01*
X151322490Y-36105483D01*
X151322488Y-36105485D01*
X151322487Y-36105485D01*
X151155485Y-36272487D01*
X151155485Y-36272488D01*
X151155483Y-36272490D01*
X151095862Y-36354550D01*
X151016657Y-36463566D01*
X150909433Y-36674003D01*
X150836446Y-36898631D01*
X150799500Y-37131902D01*
X147300500Y-37131902D01*
X147263553Y-36898631D01*
X147190566Y-36674003D01*
X147083342Y-36463566D01*
X146944517Y-36272490D01*
X146777510Y-36105483D01*
X146586433Y-35966657D01*
X146375996Y-35859433D01*
X146151368Y-35786446D01*
X145918097Y-35749500D01*
X145918092Y-35749500D01*
X145681908Y-35749500D01*
X145681903Y-35749500D01*
X145448631Y-35786446D01*
X145224003Y-35859433D01*
X145013566Y-35966657D01*
X144904550Y-36045862D01*
X144822490Y-36105483D01*
X144822488Y-36105485D01*
X144822487Y-36105485D01*
X144655485Y-36272487D01*
X144655485Y-36272488D01*
X144655483Y-36272490D01*
X144577773Y-36379448D01*
X144524818Y-36452334D01*
X144469488Y-36494999D01*
X144399874Y-36500978D01*
X144338079Y-36468372D01*
X144303722Y-36407533D01*
X144300500Y-36379448D01*
X144300500Y-35362228D01*
X144320185Y-35295189D01*
X144336814Y-35274551D01*
X145360087Y-34251278D01*
X145421408Y-34217795D01*
X145467163Y-34216488D01*
X145502789Y-34222130D01*
X145681903Y-34250500D01*
X145681908Y-34250500D01*
X145918097Y-34250500D01*
X146151368Y-34213553D01*
X146189725Y-34201090D01*
X146375992Y-34140568D01*
X146586433Y-34033343D01*
X146777510Y-33894517D01*
X146944517Y-33727510D01*
X147083343Y-33536433D01*
X147190568Y-33325992D01*
X147263553Y-33101368D01*
X147275720Y-33024548D01*
X147300500Y-32868097D01*
X147300500Y-32631902D01*
X150799500Y-32631902D01*
X150799500Y-32868097D01*
X150836446Y-33101368D01*
X150909433Y-33325996D01*
X151016657Y-33536433D01*
X151155483Y-33727510D01*
X151322490Y-33894517D01*
X151513567Y-34033343D01*
X151612991Y-34084002D01*
X151724003Y-34140566D01*
X151724005Y-34140566D01*
X151724008Y-34140568D01*
X151844412Y-34179689D01*
X151948631Y-34213553D01*
X152181903Y-34250500D01*
X152181908Y-34250500D01*
X152418097Y-34250500D01*
X152651368Y-34213553D01*
X152689725Y-34201090D01*
X152875992Y-34140568D01*
X153086433Y-34033343D01*
X153277510Y-33894517D01*
X153444517Y-33727510D01*
X153583343Y-33536433D01*
X153690568Y-33325992D01*
X153763553Y-33101368D01*
X153775720Y-33024548D01*
X153800500Y-32868097D01*
X153800500Y-32631902D01*
X153763553Y-32398631D01*
X153690566Y-32174003D01*
X153583342Y-31963566D01*
X153564863Y-31938132D01*
X153444517Y-31772490D01*
X153277510Y-31605483D01*
X153086433Y-31466657D01*
X152875996Y-31359433D01*
X152651368Y-31286446D01*
X152418097Y-31249500D01*
X152418092Y-31249500D01*
X152181908Y-31249500D01*
X152181903Y-31249500D01*
X151948631Y-31286446D01*
X151724003Y-31359433D01*
X151513566Y-31466657D01*
X151412358Y-31540190D01*
X151322490Y-31605483D01*
X151322488Y-31605485D01*
X151322487Y-31605485D01*
X151155485Y-31772487D01*
X151155485Y-31772488D01*
X151155483Y-31772490D01*
X151095862Y-31854550D01*
X151016657Y-31963566D01*
X150909433Y-32174003D01*
X150836446Y-32398631D01*
X150799500Y-32631902D01*
X147300500Y-32631902D01*
X147263553Y-32398631D01*
X147190566Y-32174003D01*
X147083342Y-31963566D01*
X147064863Y-31938132D01*
X146944517Y-31772490D01*
X146777510Y-31605483D01*
X146586433Y-31466657D01*
X146375996Y-31359433D01*
X146151368Y-31286446D01*
X145918097Y-31249500D01*
X145918092Y-31249500D01*
X145681908Y-31249500D01*
X145681903Y-31249500D01*
X145448630Y-31286447D01*
X145448623Y-31286448D01*
X145386267Y-31306709D01*
X145316426Y-31308704D01*
X145256593Y-31272623D01*
X145225766Y-31209922D01*
X145233731Y-31140508D01*
X145260266Y-31101100D01*
X147132951Y-29228416D01*
X147215084Y-29105495D01*
X147271658Y-28968913D01*
X147290555Y-28873914D01*
X147300500Y-28823920D01*
X147300500Y-24685261D01*
X147309939Y-24637808D01*
X147337667Y-24570867D01*
X147367816Y-24498082D01*
X147400500Y-24333767D01*
X147400500Y-24166233D01*
X147367816Y-24001918D01*
X147334692Y-23921952D01*
X147327224Y-23852484D01*
X147358499Y-23790004D01*
X147418588Y-23754352D01*
X147449254Y-23750500D01*
X155665500Y-23750500D01*
X155732539Y-23770185D01*
G37*
G04 #@! TD.AperFunction*
M02*
