G04 #@! TF.GenerationSoftware,KiCad,Pcbnew,9.0.1*
G04 #@! TF.CreationDate,2025-05-31T12:37:46+02:00*
G04 #@! TF.ProjectId,piskvorky,7069736b-766f-4726-9b79-2e6b69636164,rev?*
G04 #@! TF.SameCoordinates,Original*
G04 #@! TF.FileFunction,Soldermask,Bot*
G04 #@! TF.FilePolarity,Negative*
%FSLAX46Y46*%
G04 Gerber Fmt 4.6, Leading zero omitted, Abs format (unit mm)*
G04 Created by KiCad (PCBNEW 9.0.1) date 2025-05-31 12:37:46*
%MOMM*%
%LPD*%
G01*
G04 APERTURE LIST*
G04 Aperture macros list*
%AMRoundRect*
0 Rectangle with rounded corners*
0 $1 Rounding radius*
0 $2 $3 $4 $5 $6 $7 $8 $9 X,Y pos of 4 corners*
0 Add a 4 corners polygon primitive as box body*
4,1,4,$2,$3,$4,$5,$6,$7,$8,$9,$2,$3,0*
0 Add four circle primitives for the rounded corners*
1,1,$1+$1,$2,$3*
1,1,$1+$1,$4,$5*
1,1,$1+$1,$6,$7*
1,1,$1+$1,$8,$9*
0 Add four rect primitives between the rounded corners*
20,1,$1+$1,$2,$3,$4,$5,0*
20,1,$1+$1,$4,$5,$6,$7,0*
20,1,$1+$1,$6,$7,$8,$9,0*
20,1,$1+$1,$8,$9,$2,$3,0*%
%AMOutline4P*
0 Free polygon, 4 corners , with rotation*
0 The origin of the aperture is its center*
0 number of corners: always 4*
0 $1 to $8 corner X, Y*
0 $9 Rotation angle, in degrees counterclockwise*
0 create outline with 4 corners*
4,1,4,$1,$2,$3,$4,$5,$6,$7,$8,$1,$2,$9*%
G04 Aperture macros list end*
%ADD10C,3.250000*%
%ADD11R,1.000000X1.800000*%
%ADD12O,1.000000X1.800000*%
%ADD13C,2.000000*%
%ADD14R,2.000000X2.000000*%
%ADD15C,1.600000*%
%ADD16O,1.600000X1.600000*%
%ADD17R,1.524000X2.400000*%
%ADD18RoundRect,0.250000X0.512000X-0.950000X0.512000X0.950000X-0.512000X0.950000X-0.512000X-0.950000X0*%
%ADD19RoundRect,0.250000X0.950000X0.512000X-0.950000X0.512000X-0.950000X-0.512000X0.950000X-0.512000X0*%
%ADD20RoundRect,0.250000X-0.512000X0.950000X-0.512000X-0.950000X0.512000X-0.950000X0.512000X0.950000X0*%
%ADD21R,1.500000X1.500000*%
%ADD22C,1.500000*%
%ADD23Outline4P,-1.250000X0.762000X1.250000X0.762000X1.250000X-0.762000X-1.250000X-0.762000X0.000000*%
%ADD24RoundRect,0.250000X-1.000000X-0.512000X1.000000X-0.512000X1.000000X0.512000X-1.000000X0.512000X0*%
%ADD25R,1.600000X1.600000*%
%ADD26RoundRect,0.250001X0.949999X0.949999X-0.949999X0.949999X-0.949999X-0.949999X0.949999X-0.949999X0*%
%ADD27C,2.400000*%
G04 APERTURE END LIST*
D10*
X126425000Y-82750000D02*
G75*
G02*
X123175000Y-82750000I-1625000J0D01*
G01*
X123175000Y-82750000D02*
G75*
G02*
X126425000Y-82750000I1625000J0D01*
G01*
X184425000Y-82750000D02*
G75*
G02*
X181175000Y-82750000I-1625000J0D01*
G01*
X181175000Y-82750000D02*
G75*
G02*
X184425000Y-82750000I1625000J0D01*
G01*
X184425000Y-22750000D02*
G75*
G02*
X181175000Y-22750000I-1625000J0D01*
G01*
X181175000Y-22750000D02*
G75*
G02*
X184425000Y-22750000I1625000J0D01*
G01*
X126425000Y-22750000D02*
G75*
G02*
X123175000Y-22750000I-1625000J0D01*
G01*
X123175000Y-22750000D02*
G75*
G02*
X126425000Y-22750000I1625000J0D01*
G01*
D11*
X153800000Y-73750000D03*
D12*
X155070000Y-73750000D03*
X156340000Y-73750000D03*
X157610000Y-73750000D03*
D13*
X173800000Y-46750000D03*
X180300000Y-46750000D03*
X173800000Y-51250000D03*
X180300000Y-51250000D03*
D14*
X177500000Y-73250000D03*
D13*
X185100000Y-73250000D03*
D11*
X168000000Y-28000000D03*
D12*
X169270000Y-28000000D03*
X170540000Y-28000000D03*
X171810000Y-28000000D03*
D15*
X165990000Y-68750000D03*
D16*
X173610000Y-68750000D03*
D13*
X152800000Y-80250000D03*
X159300000Y-80250000D03*
X152800000Y-84750000D03*
X159300000Y-84750000D03*
X159800000Y-60750000D03*
X166300000Y-60750000D03*
X159800000Y-65250000D03*
X166300000Y-65250000D03*
X145800000Y-60750000D03*
X152300000Y-60750000D03*
X145800000Y-65250000D03*
X152300000Y-65250000D03*
X159800000Y-46750000D03*
X166300000Y-46750000D03*
X159800000Y-51250000D03*
X166300000Y-51250000D03*
D17*
X120800000Y-76750000D03*
D18*
X123340000Y-76750000D03*
X125880000Y-76750000D03*
X128420000Y-76750000D03*
X130960000Y-76750000D03*
X133500000Y-76750000D03*
X136040000Y-76750000D03*
X138580000Y-76750000D03*
X141120000Y-76750000D03*
D19*
X141120000Y-74210000D03*
X141120000Y-71670000D03*
X141120000Y-69130000D03*
X141120000Y-66590000D03*
X141120000Y-64050000D03*
D20*
X141120000Y-61510000D03*
X138580000Y-61510000D03*
X136040000Y-61510000D03*
X133500000Y-61510000D03*
X130960000Y-61510000D03*
X128420000Y-61510000D03*
X125880000Y-61510000D03*
X123340000Y-61510000D03*
X120800000Y-61510000D03*
D15*
X158860000Y-68750000D03*
D16*
X151240000Y-68750000D03*
D11*
X168000000Y-42000000D03*
D12*
X169270000Y-42000000D03*
X170540000Y-42000000D03*
X171810000Y-42000000D03*
D13*
X166800000Y-80250000D03*
X173300000Y-80250000D03*
X166800000Y-84750000D03*
X173300000Y-84750000D03*
D21*
X163050000Y-76790000D03*
D22*
X163050000Y-74250000D03*
X163050000Y-71710000D03*
D11*
X154000000Y-28000000D03*
D12*
X155270000Y-28000000D03*
X156540000Y-28000000D03*
X157810000Y-28000000D03*
D13*
X159800000Y-32750000D03*
X166300000Y-32750000D03*
X159800000Y-37250000D03*
X166300000Y-37250000D03*
D23*
X121162500Y-40137500D03*
D24*
X121162500Y-30637500D03*
X136662500Y-30637500D03*
X136662500Y-40137500D03*
D25*
X136644205Y-51004282D03*
D16*
X136644205Y-43384282D03*
D13*
X145800000Y-32750000D03*
X152300000Y-32750000D03*
X145800000Y-37250000D03*
X152300000Y-37250000D03*
X173800000Y-32750000D03*
X180300000Y-32750000D03*
X173800000Y-37250000D03*
X180300000Y-37250000D03*
D11*
X140000000Y-28000000D03*
D12*
X141270000Y-28000000D03*
X142540000Y-28000000D03*
X143810000Y-28000000D03*
D11*
X154000000Y-42000000D03*
D12*
X155270000Y-42000000D03*
X156540000Y-42000000D03*
X157810000Y-42000000D03*
D25*
X126800000Y-45750000D03*
D15*
X128800000Y-45750000D03*
X130800000Y-45750000D03*
X126800000Y-50750000D03*
X128800000Y-50750000D03*
X130800000Y-50750000D03*
D11*
X140000000Y-42000000D03*
D12*
X141270000Y-42000000D03*
X142540000Y-42000000D03*
X143810000Y-42000000D03*
D13*
X173800000Y-60750000D03*
X180300000Y-60750000D03*
X173800000Y-65250000D03*
X180300000Y-65250000D03*
X145800000Y-46750000D03*
X152300000Y-46750000D03*
X145800000Y-51250000D03*
X152300000Y-51250000D03*
D11*
X154000000Y-56000000D03*
D12*
X155270000Y-56000000D03*
X156540000Y-56000000D03*
X157810000Y-56000000D03*
D26*
X135800000Y-21982500D03*
D27*
X132300000Y-21982500D03*
D11*
X167800000Y-73750000D03*
D12*
X169070000Y-73750000D03*
X170340000Y-73750000D03*
X171610000Y-73750000D03*
D11*
X168000000Y-56000000D03*
D12*
X169270000Y-56000000D03*
X170540000Y-56000000D03*
X171810000Y-56000000D03*
D11*
X140000000Y-56000000D03*
D12*
X141270000Y-56000000D03*
X142540000Y-56000000D03*
X143810000Y-56000000D03*
M02*
