%TF.GenerationSoftware,KiCad,Pcbnew,9.0.1*%
%TF.CreationDate,2025-05-31T12:37:48+02:00*%
%TF.ProjectId,piskvorky,7069736b-766f-4726-9b79-2e6b69636164,rev?*%
%TF.SameCoordinates,Original*%
%TF.FileFunction,Drillmap*%
%TF.FilePolarity,Positive*%
%FSLAX45Y45*%
G04 Gerber Fmt 4.5, Leading zero omitted, Abs format (unit mm)*
G04 Created by KiCad (PCBNEW 9.0.1) date 2025-05-31 12:37:48*
%MOMM*%
%LPD*%
G01*
G04 APERTURE LIST*
%ADD10C,0.050000*%
%ADD11C,0.200000*%
%ADD12C,0.100000*%
%ADD13C,0.110000*%
%ADD14C,0.120000*%
%ADD15C,0.320000*%
G04 APERTURE END LIST*
D10*
X11880000Y-1775000D02*
X18880000Y-1775000D01*
X18880000Y-8775000D01*
X11880000Y-8775000D01*
X11880000Y-1775000D01*
D11*
D12*
X12325000Y-7380000D02*
X12355000Y-7410000D01*
X12355000Y-7380000D02*
X12325000Y-7410000D01*
X13785000Y-5660000D02*
X13815000Y-5690000D01*
X13815000Y-5660000D02*
X13785000Y-5690000D01*
X14640000Y-2410000D02*
X14670000Y-2440000D01*
X14670000Y-2410000D02*
X14640000Y-2440000D01*
X14965000Y-4410000D02*
X14995000Y-4440000D01*
X14995000Y-4410000D02*
X14965000Y-4440000D01*
X15205000Y-5400000D02*
X15235000Y-5430000D01*
X15235000Y-5400000D02*
X15205000Y-5430000D01*
X16390000Y-5900000D02*
X16420000Y-5930000D01*
X16420000Y-5900000D02*
X16390000Y-5930000D01*
X13704420Y-4338428D02*
G75*
G02*
X13624420Y-4338428I-40000J0D01*
G01*
X13624420Y-4338428D02*
G75*
G02*
X13704420Y-4338428I40000J0D01*
G01*
X13704420Y-5100428D02*
G75*
G02*
X13624420Y-5100428I-40000J0D01*
G01*
X13624420Y-5100428D02*
G75*
G02*
X13704420Y-5100428I40000J0D01*
G01*
X15164000Y-6875000D02*
G75*
G02*
X15084000Y-6875000I-40000J0D01*
G01*
X15084000Y-6875000D02*
G75*
G02*
X15164000Y-6875000I40000J0D01*
G01*
X15926000Y-6875000D02*
G75*
G02*
X15846000Y-6875000I-40000J0D01*
G01*
X15846000Y-6875000D02*
G75*
G02*
X15926000Y-6875000I40000J0D01*
G01*
X16345000Y-7171000D02*
G75*
G02*
X16265000Y-7171000I-40000J0D01*
G01*
X16265000Y-7171000D02*
G75*
G02*
X16345000Y-7171000I40000J0D01*
G01*
X16345000Y-7425000D02*
G75*
G02*
X16265000Y-7425000I-40000J0D01*
G01*
X16265000Y-7425000D02*
G75*
G02*
X16345000Y-7425000I40000J0D01*
G01*
X16345000Y-7679000D02*
G75*
G02*
X16265000Y-7679000I-40000J0D01*
G01*
X16265000Y-7679000D02*
G75*
G02*
X16345000Y-7679000I40000J0D01*
G01*
X16639000Y-6875000D02*
G75*
G02*
X16559000Y-6875000I-40000J0D01*
G01*
X16559000Y-6875000D02*
G75*
G02*
X16639000Y-6875000I40000J0D01*
G01*
X17401000Y-6875000D02*
G75*
G02*
X17321000Y-6875000I-40000J0D01*
G01*
X17321000Y-6875000D02*
G75*
G02*
X17401000Y-6875000I40000J0D01*
G01*
X14000000Y-2755000D02*
X14000000Y-2845000D01*
X13955000Y-2800000D02*
X14045000Y-2800000D01*
X14000000Y-4155000D02*
X14000000Y-4245000D01*
X13955000Y-4200000D02*
X14045000Y-4200000D01*
X14000000Y-5555000D02*
X14000000Y-5645000D01*
X13955000Y-5600000D02*
X14045000Y-5600000D01*
X14127000Y-2755000D02*
X14127000Y-2845000D01*
X14082000Y-2800000D02*
X14172000Y-2800000D01*
X14127000Y-4155000D02*
X14127000Y-4245000D01*
X14082000Y-4200000D02*
X14172000Y-4200000D01*
X14127000Y-5555000D02*
X14127000Y-5645000D01*
X14082000Y-5600000D02*
X14172000Y-5600000D01*
X14254000Y-2755000D02*
X14254000Y-2845000D01*
X14209000Y-2800000D02*
X14299000Y-2800000D01*
X14254000Y-4155000D02*
X14254000Y-4245000D01*
X14209000Y-4200000D02*
X14299000Y-4200000D01*
X14254000Y-5555000D02*
X14254000Y-5645000D01*
X14209000Y-5600000D02*
X14299000Y-5600000D01*
X14381000Y-2755000D02*
X14381000Y-2845000D01*
X14336000Y-2800000D02*
X14426000Y-2800000D01*
X14381000Y-4155000D02*
X14381000Y-4245000D01*
X14336000Y-4200000D02*
X14426000Y-4200000D01*
X14381000Y-5555000D02*
X14381000Y-5645000D01*
X14336000Y-5600000D02*
X14426000Y-5600000D01*
X15380000Y-7330000D02*
X15380000Y-7420000D01*
X15335000Y-7375000D02*
X15425000Y-7375000D01*
X15400000Y-2755000D02*
X15400000Y-2845000D01*
X15355000Y-2800000D02*
X15445000Y-2800000D01*
X15400000Y-4155000D02*
X15400000Y-4245000D01*
X15355000Y-4200000D02*
X15445000Y-4200000D01*
X15400000Y-5555000D02*
X15400000Y-5645000D01*
X15355000Y-5600000D02*
X15445000Y-5600000D01*
X15507000Y-7330000D02*
X15507000Y-7420000D01*
X15462000Y-7375000D02*
X15552000Y-7375000D01*
X15527000Y-2755000D02*
X15527000Y-2845000D01*
X15482000Y-2800000D02*
X15572000Y-2800000D01*
X15527000Y-4155000D02*
X15527000Y-4245000D01*
X15482000Y-4200000D02*
X15572000Y-4200000D01*
X15527000Y-5555000D02*
X15527000Y-5645000D01*
X15482000Y-5600000D02*
X15572000Y-5600000D01*
X15634000Y-7330000D02*
X15634000Y-7420000D01*
X15589000Y-7375000D02*
X15679000Y-7375000D01*
X15654000Y-2755000D02*
X15654000Y-2845000D01*
X15609000Y-2800000D02*
X15699000Y-2800000D01*
X15654000Y-4155000D02*
X15654000Y-4245000D01*
X15609000Y-4200000D02*
X15699000Y-4200000D01*
X15654000Y-5555000D02*
X15654000Y-5645000D01*
X15609000Y-5600000D02*
X15699000Y-5600000D01*
X15761000Y-7330000D02*
X15761000Y-7420000D01*
X15716000Y-7375000D02*
X15806000Y-7375000D01*
X15781000Y-2755000D02*
X15781000Y-2845000D01*
X15736000Y-2800000D02*
X15826000Y-2800000D01*
X15781000Y-4155000D02*
X15781000Y-4245000D01*
X15736000Y-4200000D02*
X15826000Y-4200000D01*
X15781000Y-5555000D02*
X15781000Y-5645000D01*
X15736000Y-5600000D02*
X15826000Y-5600000D01*
X16780000Y-7330000D02*
X16780000Y-7420000D01*
X16735000Y-7375000D02*
X16825000Y-7375000D01*
X16800000Y-2755000D02*
X16800000Y-2845000D01*
X16755000Y-2800000D02*
X16845000Y-2800000D01*
X16800000Y-4155000D02*
X16800000Y-4245000D01*
X16755000Y-4200000D02*
X16845000Y-4200000D01*
X16800000Y-5555000D02*
X16800000Y-5645000D01*
X16755000Y-5600000D02*
X16845000Y-5600000D01*
X16907000Y-7330000D02*
X16907000Y-7420000D01*
X16862000Y-7375000D02*
X16952000Y-7375000D01*
X16927000Y-2755000D02*
X16927000Y-2845000D01*
X16882000Y-2800000D02*
X16972000Y-2800000D01*
X16927000Y-4155000D02*
X16927000Y-4245000D01*
X16882000Y-4200000D02*
X16972000Y-4200000D01*
X16927000Y-5555000D02*
X16927000Y-5645000D01*
X16882000Y-5600000D02*
X16972000Y-5600000D01*
X17034000Y-7330000D02*
X17034000Y-7420000D01*
X16989000Y-7375000D02*
X17079000Y-7375000D01*
X17054000Y-2755000D02*
X17054000Y-2845000D01*
X17009000Y-2800000D02*
X17099000Y-2800000D01*
X17054000Y-4155000D02*
X17054000Y-4245000D01*
X17009000Y-4200000D02*
X17099000Y-4200000D01*
X17054000Y-5555000D02*
X17054000Y-5645000D01*
X17009000Y-5600000D02*
X17099000Y-5600000D01*
X17161000Y-7330000D02*
X17161000Y-7420000D01*
X17116000Y-7375000D02*
X17206000Y-7375000D01*
X17181000Y-2755000D02*
X17181000Y-2845000D01*
X17136000Y-2800000D02*
X17226000Y-2800000D01*
X17181000Y-4155000D02*
X17181000Y-4245000D01*
X17136000Y-4200000D02*
X17226000Y-4200000D01*
X17181000Y-5555000D02*
X17181000Y-5645000D01*
X17136000Y-5600000D02*
X17226000Y-5600000D01*
X12715356Y-4610356D02*
X12715356Y-4539644D01*
X12644644Y-4539644D01*
X12644644Y-4610356D01*
X12715356Y-4610356D01*
X12715356Y-5110356D02*
X12715356Y-5039644D01*
X12644644Y-5039644D01*
X12644644Y-5110356D01*
X12715356Y-5110356D01*
X12915356Y-4610356D02*
X12915356Y-4539644D01*
X12844644Y-4539644D01*
X12844644Y-4610356D01*
X12915356Y-4610356D01*
X12915356Y-5110356D02*
X12915356Y-5039644D01*
X12844644Y-5039644D01*
X12844644Y-5110356D01*
X12915356Y-5110356D01*
X13115356Y-4610356D02*
X13115356Y-4539644D01*
X13044644Y-4539644D01*
X13044644Y-4610356D01*
X13115356Y-4610356D01*
X13115356Y-5110356D02*
X13115356Y-5039644D01*
X13044644Y-5039644D01*
X13044644Y-5110356D01*
X13115356Y-5110356D01*
X17785356Y-7360356D02*
X17785356Y-7289644D01*
X17714644Y-7289644D01*
X17714644Y-7360356D01*
X17785356Y-7360356D01*
X18545356Y-7360356D02*
X18545356Y-7289644D01*
X18474644Y-7289644D01*
X18474644Y-7360356D01*
X18545356Y-7360356D01*
D13*
X14580000Y-3330000D02*
X14635000Y-3275000D01*
X14580000Y-3220000D01*
X14525000Y-3275000D01*
X14580000Y-3330000D01*
X14580000Y-3780000D02*
X14635000Y-3725000D01*
X14580000Y-3670000D01*
X14525000Y-3725000D01*
X14580000Y-3780000D01*
X14580000Y-4730000D02*
X14635000Y-4675000D01*
X14580000Y-4620000D01*
X14525000Y-4675000D01*
X14580000Y-4730000D01*
X14580000Y-5180000D02*
X14635000Y-5125000D01*
X14580000Y-5070000D01*
X14525000Y-5125000D01*
X14580000Y-5180000D01*
X14580000Y-6130000D02*
X14635000Y-6075000D01*
X14580000Y-6020000D01*
X14525000Y-6075000D01*
X14580000Y-6130000D01*
X14580000Y-6580000D02*
X14635000Y-6525000D01*
X14580000Y-6470000D01*
X14525000Y-6525000D01*
X14580000Y-6580000D01*
X15230000Y-3330000D02*
X15285000Y-3275000D01*
X15230000Y-3220000D01*
X15175000Y-3275000D01*
X15230000Y-3330000D01*
X15230000Y-3780000D02*
X15285000Y-3725000D01*
X15230000Y-3670000D01*
X15175000Y-3725000D01*
X15230000Y-3780000D01*
X15230000Y-4730000D02*
X15285000Y-4675000D01*
X15230000Y-4620000D01*
X15175000Y-4675000D01*
X15230000Y-4730000D01*
X15230000Y-5180000D02*
X15285000Y-5125000D01*
X15230000Y-5070000D01*
X15175000Y-5125000D01*
X15230000Y-5180000D01*
X15230000Y-6130000D02*
X15285000Y-6075000D01*
X15230000Y-6020000D01*
X15175000Y-6075000D01*
X15230000Y-6130000D01*
X15230000Y-6580000D02*
X15285000Y-6525000D01*
X15230000Y-6470000D01*
X15175000Y-6525000D01*
X15230000Y-6580000D01*
X15280000Y-8080000D02*
X15335000Y-8025000D01*
X15280000Y-7970000D01*
X15225000Y-8025000D01*
X15280000Y-8080000D01*
X15280000Y-8530000D02*
X15335000Y-8475000D01*
X15280000Y-8420000D01*
X15225000Y-8475000D01*
X15280000Y-8530000D01*
X15930000Y-8080000D02*
X15985000Y-8025000D01*
X15930000Y-7970000D01*
X15875000Y-8025000D01*
X15930000Y-8080000D01*
X15930000Y-8530000D02*
X15985000Y-8475000D01*
X15930000Y-8420000D01*
X15875000Y-8475000D01*
X15930000Y-8530000D01*
X15980000Y-3330000D02*
X16035000Y-3275000D01*
X15980000Y-3220000D01*
X15925000Y-3275000D01*
X15980000Y-3330000D01*
X15980000Y-3780000D02*
X16035000Y-3725000D01*
X15980000Y-3670000D01*
X15925000Y-3725000D01*
X15980000Y-3780000D01*
X15980000Y-4730000D02*
X16035000Y-4675000D01*
X15980000Y-4620000D01*
X15925000Y-4675000D01*
X15980000Y-4730000D01*
X15980000Y-5180000D02*
X16035000Y-5125000D01*
X15980000Y-5070000D01*
X15925000Y-5125000D01*
X15980000Y-5180000D01*
X15980000Y-6130000D02*
X16035000Y-6075000D01*
X15980000Y-6020000D01*
X15925000Y-6075000D01*
X15980000Y-6130000D01*
X15980000Y-6580000D02*
X16035000Y-6525000D01*
X15980000Y-6470000D01*
X15925000Y-6525000D01*
X15980000Y-6580000D01*
X16630000Y-3330000D02*
X16685000Y-3275000D01*
X16630000Y-3220000D01*
X16575000Y-3275000D01*
X16630000Y-3330000D01*
X16630000Y-3780000D02*
X16685000Y-3725000D01*
X16630000Y-3670000D01*
X16575000Y-3725000D01*
X16630000Y-3780000D01*
X16630000Y-4730000D02*
X16685000Y-4675000D01*
X16630000Y-4620000D01*
X16575000Y-4675000D01*
X16630000Y-4730000D01*
X16630000Y-5180000D02*
X16685000Y-5125000D01*
X16630000Y-5070000D01*
X16575000Y-5125000D01*
X16630000Y-5180000D01*
X16630000Y-6130000D02*
X16685000Y-6075000D01*
X16630000Y-6020000D01*
X16575000Y-6075000D01*
X16630000Y-6130000D01*
X16630000Y-6580000D02*
X16685000Y-6525000D01*
X16630000Y-6470000D01*
X16575000Y-6525000D01*
X16630000Y-6580000D01*
X16680000Y-8080000D02*
X16735000Y-8025000D01*
X16680000Y-7970000D01*
X16625000Y-8025000D01*
X16680000Y-8080000D01*
X16680000Y-8530000D02*
X16735000Y-8475000D01*
X16680000Y-8420000D01*
X16625000Y-8475000D01*
X16680000Y-8530000D01*
X17330000Y-8080000D02*
X17385000Y-8025000D01*
X17330000Y-7970000D01*
X17275000Y-8025000D01*
X17330000Y-8080000D01*
X17330000Y-8530000D02*
X17385000Y-8475000D01*
X17330000Y-8420000D01*
X17275000Y-8475000D01*
X17330000Y-8530000D01*
X17380000Y-3330000D02*
X17435000Y-3275000D01*
X17380000Y-3220000D01*
X17325000Y-3275000D01*
X17380000Y-3330000D01*
X17380000Y-3780000D02*
X17435000Y-3725000D01*
X17380000Y-3670000D01*
X17325000Y-3725000D01*
X17380000Y-3780000D01*
X17380000Y-4730000D02*
X17435000Y-4675000D01*
X17380000Y-4620000D01*
X17325000Y-4675000D01*
X17380000Y-4730000D01*
X17380000Y-5180000D02*
X17435000Y-5125000D01*
X17380000Y-5070000D01*
X17325000Y-5125000D01*
X17380000Y-5180000D01*
X17380000Y-6130000D02*
X17435000Y-6075000D01*
X17380000Y-6020000D01*
X17325000Y-6075000D01*
X17380000Y-6130000D01*
X17380000Y-6580000D02*
X17435000Y-6525000D01*
X17380000Y-6470000D01*
X17325000Y-6525000D01*
X17380000Y-6580000D01*
X18030000Y-3330000D02*
X18085000Y-3275000D01*
X18030000Y-3220000D01*
X17975000Y-3275000D01*
X18030000Y-3330000D01*
X18030000Y-3780000D02*
X18085000Y-3725000D01*
X18030000Y-3670000D01*
X17975000Y-3725000D01*
X18030000Y-3780000D01*
X18030000Y-4730000D02*
X18085000Y-4675000D01*
X18030000Y-4620000D01*
X17975000Y-4675000D01*
X18030000Y-4730000D01*
X18030000Y-5180000D02*
X18085000Y-5125000D01*
X18030000Y-5070000D01*
X17975000Y-5125000D01*
X18030000Y-5180000D01*
X18030000Y-6130000D02*
X18085000Y-6075000D01*
X18030000Y-6020000D01*
X17975000Y-6075000D01*
X18030000Y-6130000D01*
X18030000Y-6580000D02*
X18085000Y-6525000D01*
X18030000Y-6470000D01*
X17975000Y-6525000D01*
X18030000Y-6580000D01*
D14*
X12020000Y-6091000D02*
X12140000Y-6211000D01*
X12140000Y-6091000D02*
X12020000Y-6211000D01*
X12140000Y-6151000D02*
G75*
G02*
X12020000Y-6151000I-60000J0D01*
G01*
X12020000Y-6151000D02*
G75*
G02*
X12140000Y-6151000I60000J0D01*
G01*
X12020000Y-7615000D02*
X12140000Y-7735000D01*
X12140000Y-7615000D02*
X12020000Y-7735000D01*
X12140000Y-7675000D02*
G75*
G02*
X12020000Y-7675000I-60000J0D01*
G01*
X12020000Y-7675000D02*
G75*
G02*
X12140000Y-7675000I60000J0D01*
G01*
X12056250Y-3003750D02*
X12176250Y-3123750D01*
X12176250Y-3003750D02*
X12056250Y-3123750D01*
X12176250Y-3063750D02*
G75*
G02*
X12056250Y-3063750I-60000J0D01*
G01*
X12056250Y-3063750D02*
G75*
G02*
X12176250Y-3063750I60000J0D01*
G01*
X12056250Y-3953750D02*
X12176250Y-4073750D01*
X12176250Y-3953750D02*
X12056250Y-4073750D01*
X12176250Y-4013750D02*
G75*
G02*
X12056250Y-4013750I-60000J0D01*
G01*
X12056250Y-4013750D02*
G75*
G02*
X12176250Y-4013750I60000J0D01*
G01*
X12274000Y-6091000D02*
X12394000Y-6211000D01*
X12394000Y-6091000D02*
X12274000Y-6211000D01*
X12394000Y-6151000D02*
G75*
G02*
X12274000Y-6151000I-60000J0D01*
G01*
X12274000Y-6151000D02*
G75*
G02*
X12394000Y-6151000I60000J0D01*
G01*
X12274000Y-7615000D02*
X12394000Y-7735000D01*
X12394000Y-7615000D02*
X12274000Y-7735000D01*
X12394000Y-7675000D02*
G75*
G02*
X12274000Y-7675000I-60000J0D01*
G01*
X12274000Y-7675000D02*
G75*
G02*
X12394000Y-7675000I60000J0D01*
G01*
X12528000Y-6091000D02*
X12648000Y-6211000D01*
X12648000Y-6091000D02*
X12528000Y-6211000D01*
X12648000Y-6151000D02*
G75*
G02*
X12528000Y-6151000I-60000J0D01*
G01*
X12528000Y-6151000D02*
G75*
G02*
X12648000Y-6151000I60000J0D01*
G01*
X12528000Y-7615000D02*
X12648000Y-7735000D01*
X12648000Y-7615000D02*
X12528000Y-7735000D01*
X12648000Y-7675000D02*
G75*
G02*
X12528000Y-7675000I-60000J0D01*
G01*
X12528000Y-7675000D02*
G75*
G02*
X12648000Y-7675000I60000J0D01*
G01*
X12782000Y-6091000D02*
X12902000Y-6211000D01*
X12902000Y-6091000D02*
X12782000Y-6211000D01*
X12902000Y-6151000D02*
G75*
G02*
X12782000Y-6151000I-60000J0D01*
G01*
X12782000Y-6151000D02*
G75*
G02*
X12902000Y-6151000I60000J0D01*
G01*
X12782000Y-7615000D02*
X12902000Y-7735000D01*
X12902000Y-7615000D02*
X12782000Y-7735000D01*
X12902000Y-7675000D02*
G75*
G02*
X12782000Y-7675000I-60000J0D01*
G01*
X12782000Y-7675000D02*
G75*
G02*
X12902000Y-7675000I60000J0D01*
G01*
X13036000Y-6091000D02*
X13156000Y-6211000D01*
X13156000Y-6091000D02*
X13036000Y-6211000D01*
X13156000Y-6151000D02*
G75*
G02*
X13036000Y-6151000I-60000J0D01*
G01*
X13036000Y-6151000D02*
G75*
G02*
X13156000Y-6151000I60000J0D01*
G01*
X13036000Y-7615000D02*
X13156000Y-7735000D01*
X13156000Y-7615000D02*
X13036000Y-7735000D01*
X13156000Y-7675000D02*
G75*
G02*
X13036000Y-7675000I-60000J0D01*
G01*
X13036000Y-7675000D02*
G75*
G02*
X13156000Y-7675000I60000J0D01*
G01*
X13170000Y-2138250D02*
X13290000Y-2258250D01*
X13290000Y-2138250D02*
X13170000Y-2258250D01*
X13290000Y-2198250D02*
G75*
G02*
X13170000Y-2198250I-60000J0D01*
G01*
X13170000Y-2198250D02*
G75*
G02*
X13290000Y-2198250I60000J0D01*
G01*
X13290000Y-6091000D02*
X13410000Y-6211000D01*
X13410000Y-6091000D02*
X13290000Y-6211000D01*
X13410000Y-6151000D02*
G75*
G02*
X13290000Y-6151000I-60000J0D01*
G01*
X13290000Y-6151000D02*
G75*
G02*
X13410000Y-6151000I60000J0D01*
G01*
X13290000Y-7615000D02*
X13410000Y-7735000D01*
X13410000Y-7615000D02*
X13290000Y-7735000D01*
X13410000Y-7675000D02*
G75*
G02*
X13290000Y-7675000I-60000J0D01*
G01*
X13290000Y-7675000D02*
G75*
G02*
X13410000Y-7675000I60000J0D01*
G01*
X13520000Y-2138250D02*
X13640000Y-2258250D01*
X13640000Y-2138250D02*
X13520000Y-2258250D01*
X13640000Y-2198250D02*
G75*
G02*
X13520000Y-2198250I-60000J0D01*
G01*
X13520000Y-2198250D02*
G75*
G02*
X13640000Y-2198250I60000J0D01*
G01*
X13544000Y-6091000D02*
X13664000Y-6211000D01*
X13664000Y-6091000D02*
X13544000Y-6211000D01*
X13664000Y-6151000D02*
G75*
G02*
X13544000Y-6151000I-60000J0D01*
G01*
X13544000Y-6151000D02*
G75*
G02*
X13664000Y-6151000I60000J0D01*
G01*
X13544000Y-7615000D02*
X13664000Y-7735000D01*
X13664000Y-7615000D02*
X13544000Y-7735000D01*
X13664000Y-7675000D02*
G75*
G02*
X13544000Y-7675000I-60000J0D01*
G01*
X13544000Y-7675000D02*
G75*
G02*
X13664000Y-7675000I60000J0D01*
G01*
X13606250Y-3003750D02*
X13726250Y-3123750D01*
X13726250Y-3003750D02*
X13606250Y-3123750D01*
X13726250Y-3063750D02*
G75*
G02*
X13606250Y-3063750I-60000J0D01*
G01*
X13606250Y-3063750D02*
G75*
G02*
X13726250Y-3063750I60000J0D01*
G01*
X13606250Y-3953750D02*
X13726250Y-4073750D01*
X13726250Y-3953750D02*
X13606250Y-4073750D01*
X13726250Y-4013750D02*
G75*
G02*
X13606250Y-4013750I-60000J0D01*
G01*
X13606250Y-4013750D02*
G75*
G02*
X13726250Y-4013750I60000J0D01*
G01*
X13798000Y-6091000D02*
X13918000Y-6211000D01*
X13918000Y-6091000D02*
X13798000Y-6211000D01*
X13918000Y-6151000D02*
G75*
G02*
X13798000Y-6151000I-60000J0D01*
G01*
X13798000Y-6151000D02*
G75*
G02*
X13918000Y-6151000I60000J0D01*
G01*
X13798000Y-7615000D02*
X13918000Y-7735000D01*
X13918000Y-7615000D02*
X13798000Y-7735000D01*
X13918000Y-7675000D02*
G75*
G02*
X13798000Y-7675000I-60000J0D01*
G01*
X13798000Y-7675000D02*
G75*
G02*
X13918000Y-7675000I60000J0D01*
G01*
X14052000Y-6091000D02*
X14172000Y-6211000D01*
X14172000Y-6091000D02*
X14052000Y-6211000D01*
X14172000Y-6151000D02*
G75*
G02*
X14052000Y-6151000I-60000J0D01*
G01*
X14052000Y-6151000D02*
G75*
G02*
X14172000Y-6151000I60000J0D01*
G01*
X14052000Y-6345000D02*
X14172000Y-6465000D01*
X14172000Y-6345000D02*
X14052000Y-6465000D01*
X14172000Y-6405000D02*
G75*
G02*
X14052000Y-6405000I-60000J0D01*
G01*
X14052000Y-6405000D02*
G75*
G02*
X14172000Y-6405000I60000J0D01*
G01*
X14052000Y-6599000D02*
X14172000Y-6719000D01*
X14172000Y-6599000D02*
X14052000Y-6719000D01*
X14172000Y-6659000D02*
G75*
G02*
X14052000Y-6659000I-60000J0D01*
G01*
X14052000Y-6659000D02*
G75*
G02*
X14172000Y-6659000I60000J0D01*
G01*
X14052000Y-6853000D02*
X14172000Y-6973000D01*
X14172000Y-6853000D02*
X14052000Y-6973000D01*
X14172000Y-6913000D02*
G75*
G02*
X14052000Y-6913000I-60000J0D01*
G01*
X14052000Y-6913000D02*
G75*
G02*
X14172000Y-6913000I60000J0D01*
G01*
X14052000Y-7107000D02*
X14172000Y-7227000D01*
X14172000Y-7107000D02*
X14052000Y-7227000D01*
X14172000Y-7167000D02*
G75*
G02*
X14052000Y-7167000I-60000J0D01*
G01*
X14052000Y-7167000D02*
G75*
G02*
X14172000Y-7167000I60000J0D01*
G01*
X14052000Y-7361000D02*
X14172000Y-7481000D01*
X14172000Y-7361000D02*
X14052000Y-7481000D01*
X14172000Y-7421000D02*
G75*
G02*
X14052000Y-7421000I-60000J0D01*
G01*
X14052000Y-7421000D02*
G75*
G02*
X14172000Y-7421000I60000J0D01*
G01*
X14052000Y-7615000D02*
X14172000Y-7735000D01*
X14172000Y-7615000D02*
X14052000Y-7735000D01*
X14172000Y-7675000D02*
G75*
G02*
X14052000Y-7675000I-60000J0D01*
G01*
X14052000Y-7675000D02*
G75*
G02*
X14172000Y-7675000I60000J0D01*
G01*
D15*
X12320000Y-2115000D02*
X12640000Y-2435000D01*
X12640000Y-2115000D02*
X12320000Y-2435000D01*
X12480000Y-2115000D02*
X12480000Y-2435000D01*
X12320000Y-2275000D02*
X12640000Y-2275000D01*
X12320000Y-8115000D02*
X12640000Y-8435000D01*
X12640000Y-8115000D02*
X12320000Y-8435000D01*
X12480000Y-8115000D02*
X12480000Y-8435000D01*
X12320000Y-8275000D02*
X12640000Y-8275000D01*
X18120000Y-2115000D02*
X18440000Y-2435000D01*
X18440000Y-2115000D02*
X18120000Y-2435000D01*
X18280000Y-2115000D02*
X18280000Y-2435000D01*
X18120000Y-2275000D02*
X18440000Y-2275000D01*
X18120000Y-8115000D02*
X18440000Y-8435000D01*
X18440000Y-8115000D02*
X18120000Y-8435000D01*
X18280000Y-8115000D02*
X18280000Y-8435000D01*
X18120000Y-8275000D02*
X18440000Y-8275000D01*
D11*
X12138277Y-9088984D02*
X12138277Y-8888984D01*
X12138277Y-8888984D02*
X12185896Y-8888984D01*
X12185896Y-8888984D02*
X12214467Y-8898508D01*
X12214467Y-8898508D02*
X12233515Y-8917555D01*
X12233515Y-8917555D02*
X12243039Y-8936603D01*
X12243039Y-8936603D02*
X12252562Y-8974698D01*
X12252562Y-8974698D02*
X12252562Y-9003270D01*
X12252562Y-9003270D02*
X12243039Y-9041365D01*
X12243039Y-9041365D02*
X12233515Y-9060412D01*
X12233515Y-9060412D02*
X12214467Y-9079460D01*
X12214467Y-9079460D02*
X12185896Y-9088984D01*
X12185896Y-9088984D02*
X12138277Y-9088984D01*
X12338277Y-9088984D02*
X12338277Y-8955650D01*
X12338277Y-8993746D02*
X12347801Y-8974698D01*
X12347801Y-8974698D02*
X12357324Y-8965174D01*
X12357324Y-8965174D02*
X12376372Y-8955650D01*
X12376372Y-8955650D02*
X12395420Y-8955650D01*
X12462086Y-9088984D02*
X12462086Y-8955650D01*
X12462086Y-8888984D02*
X12452562Y-8898508D01*
X12452562Y-8898508D02*
X12462086Y-8908031D01*
X12462086Y-8908031D02*
X12471610Y-8898508D01*
X12471610Y-8898508D02*
X12462086Y-8888984D01*
X12462086Y-8888984D02*
X12462086Y-8908031D01*
X12585896Y-9088984D02*
X12566848Y-9079460D01*
X12566848Y-9079460D02*
X12557324Y-9060412D01*
X12557324Y-9060412D02*
X12557324Y-8888984D01*
X12690658Y-9088984D02*
X12671610Y-9079460D01*
X12671610Y-9079460D02*
X12662086Y-9060412D01*
X12662086Y-9060412D02*
X12662086Y-8888984D01*
X12919229Y-9088984D02*
X12919229Y-8888984D01*
X12919229Y-8888984D02*
X12985896Y-9031841D01*
X12985896Y-9031841D02*
X13052562Y-8888984D01*
X13052562Y-8888984D02*
X13052562Y-9088984D01*
X13233515Y-9088984D02*
X13233515Y-8984222D01*
X13233515Y-8984222D02*
X13223991Y-8965174D01*
X13223991Y-8965174D02*
X13204943Y-8955650D01*
X13204943Y-8955650D02*
X13166848Y-8955650D01*
X13166848Y-8955650D02*
X13147801Y-8965174D01*
X13233515Y-9079460D02*
X13214467Y-9088984D01*
X13214467Y-9088984D02*
X13166848Y-9088984D01*
X13166848Y-9088984D02*
X13147801Y-9079460D01*
X13147801Y-9079460D02*
X13138277Y-9060412D01*
X13138277Y-9060412D02*
X13138277Y-9041365D01*
X13138277Y-9041365D02*
X13147801Y-9022317D01*
X13147801Y-9022317D02*
X13166848Y-9012793D01*
X13166848Y-9012793D02*
X13214467Y-9012793D01*
X13214467Y-9012793D02*
X13233515Y-9003270D01*
X13328753Y-8955650D02*
X13328753Y-9155650D01*
X13328753Y-8965174D02*
X13347801Y-8955650D01*
X13347801Y-8955650D02*
X13385896Y-8955650D01*
X13385896Y-8955650D02*
X13404943Y-8965174D01*
X13404943Y-8965174D02*
X13414467Y-8974698D01*
X13414467Y-8974698D02*
X13423991Y-8993746D01*
X13423991Y-8993746D02*
X13423991Y-9050889D01*
X13423991Y-9050889D02*
X13414467Y-9069936D01*
X13414467Y-9069936D02*
X13404943Y-9079460D01*
X13404943Y-9079460D02*
X13385896Y-9088984D01*
X13385896Y-9088984D02*
X13347801Y-9088984D01*
X13347801Y-9088984D02*
X13328753Y-9079460D01*
X13509705Y-9069936D02*
X13519229Y-9079460D01*
X13519229Y-9079460D02*
X13509705Y-9088984D01*
X13509705Y-9088984D02*
X13500182Y-9079460D01*
X13500182Y-9079460D02*
X13509705Y-9069936D01*
X13509705Y-9069936D02*
X13509705Y-9088984D01*
X13509705Y-8965174D02*
X13519229Y-8974698D01*
X13519229Y-8974698D02*
X13509705Y-8984222D01*
X13509705Y-8984222D02*
X13500182Y-8974698D01*
X13500182Y-8974698D02*
X13509705Y-8965174D01*
X13509705Y-8965174D02*
X13509705Y-8984222D01*
D12*
X11847500Y-9402500D02*
X11877500Y-9432500D01*
X11877500Y-9402500D02*
X11847500Y-9432500D01*
D11*
X12176372Y-9308984D02*
X12195420Y-9308984D01*
X12195420Y-9308984D02*
X12214467Y-9318508D01*
X12214467Y-9318508D02*
X12223991Y-9328031D01*
X12223991Y-9328031D02*
X12233515Y-9347079D01*
X12233515Y-9347079D02*
X12243039Y-9385174D01*
X12243039Y-9385174D02*
X12243039Y-9432793D01*
X12243039Y-9432793D02*
X12233515Y-9470889D01*
X12233515Y-9470889D02*
X12223991Y-9489936D01*
X12223991Y-9489936D02*
X12214467Y-9499460D01*
X12214467Y-9499460D02*
X12195420Y-9508984D01*
X12195420Y-9508984D02*
X12176372Y-9508984D01*
X12176372Y-9508984D02*
X12157324Y-9499460D01*
X12157324Y-9499460D02*
X12147801Y-9489936D01*
X12147801Y-9489936D02*
X12138277Y-9470889D01*
X12138277Y-9470889D02*
X12128753Y-9432793D01*
X12128753Y-9432793D02*
X12128753Y-9385174D01*
X12128753Y-9385174D02*
X12138277Y-9347079D01*
X12138277Y-9347079D02*
X12147801Y-9328031D01*
X12147801Y-9328031D02*
X12157324Y-9318508D01*
X12157324Y-9318508D02*
X12176372Y-9308984D01*
X12328753Y-9489936D02*
X12338277Y-9499460D01*
X12338277Y-9499460D02*
X12328753Y-9508984D01*
X12328753Y-9508984D02*
X12319229Y-9499460D01*
X12319229Y-9499460D02*
X12328753Y-9489936D01*
X12328753Y-9489936D02*
X12328753Y-9508984D01*
X12404943Y-9308984D02*
X12528753Y-9308984D01*
X12528753Y-9308984D02*
X12462086Y-9385174D01*
X12462086Y-9385174D02*
X12490658Y-9385174D01*
X12490658Y-9385174D02*
X12509705Y-9394698D01*
X12509705Y-9394698D02*
X12519229Y-9404222D01*
X12519229Y-9404222D02*
X12528753Y-9423270D01*
X12528753Y-9423270D02*
X12528753Y-9470889D01*
X12528753Y-9470889D02*
X12519229Y-9489936D01*
X12519229Y-9489936D02*
X12509705Y-9499460D01*
X12509705Y-9499460D02*
X12490658Y-9508984D01*
X12490658Y-9508984D02*
X12433515Y-9508984D01*
X12433515Y-9508984D02*
X12414467Y-9499460D01*
X12414467Y-9499460D02*
X12404943Y-9489936D01*
X12652562Y-9308984D02*
X12671610Y-9308984D01*
X12671610Y-9308984D02*
X12690658Y-9318508D01*
X12690658Y-9318508D02*
X12700182Y-9328031D01*
X12700182Y-9328031D02*
X12709705Y-9347079D01*
X12709705Y-9347079D02*
X12719229Y-9385174D01*
X12719229Y-9385174D02*
X12719229Y-9432793D01*
X12719229Y-9432793D02*
X12709705Y-9470889D01*
X12709705Y-9470889D02*
X12700182Y-9489936D01*
X12700182Y-9489936D02*
X12690658Y-9499460D01*
X12690658Y-9499460D02*
X12671610Y-9508984D01*
X12671610Y-9508984D02*
X12652562Y-9508984D01*
X12652562Y-9508984D02*
X12633515Y-9499460D01*
X12633515Y-9499460D02*
X12623991Y-9489936D01*
X12623991Y-9489936D02*
X12614467Y-9470889D01*
X12614467Y-9470889D02*
X12604943Y-9432793D01*
X12604943Y-9432793D02*
X12604943Y-9385174D01*
X12604943Y-9385174D02*
X12614467Y-9347079D01*
X12614467Y-9347079D02*
X12623991Y-9328031D01*
X12623991Y-9328031D02*
X12633515Y-9318508D01*
X12633515Y-9318508D02*
X12652562Y-9308984D01*
X12843039Y-9308984D02*
X12862086Y-9308984D01*
X12862086Y-9308984D02*
X12881134Y-9318508D01*
X12881134Y-9318508D02*
X12890658Y-9328031D01*
X12890658Y-9328031D02*
X12900182Y-9347079D01*
X12900182Y-9347079D02*
X12909705Y-9385174D01*
X12909705Y-9385174D02*
X12909705Y-9432793D01*
X12909705Y-9432793D02*
X12900182Y-9470889D01*
X12900182Y-9470889D02*
X12890658Y-9489936D01*
X12890658Y-9489936D02*
X12881134Y-9499460D01*
X12881134Y-9499460D02*
X12862086Y-9508984D01*
X12862086Y-9508984D02*
X12843039Y-9508984D01*
X12843039Y-9508984D02*
X12823991Y-9499460D01*
X12823991Y-9499460D02*
X12814467Y-9489936D01*
X12814467Y-9489936D02*
X12804943Y-9470889D01*
X12804943Y-9470889D02*
X12795420Y-9432793D01*
X12795420Y-9432793D02*
X12795420Y-9385174D01*
X12795420Y-9385174D02*
X12804943Y-9347079D01*
X12804943Y-9347079D02*
X12814467Y-9328031D01*
X12814467Y-9328031D02*
X12823991Y-9318508D01*
X12823991Y-9318508D02*
X12843039Y-9308984D01*
X12995420Y-9508984D02*
X12995420Y-9375650D01*
X12995420Y-9394698D02*
X13004943Y-9385174D01*
X13004943Y-9385174D02*
X13023991Y-9375650D01*
X13023991Y-9375650D02*
X13052563Y-9375650D01*
X13052563Y-9375650D02*
X13071610Y-9385174D01*
X13071610Y-9385174D02*
X13081134Y-9404222D01*
X13081134Y-9404222D02*
X13081134Y-9508984D01*
X13081134Y-9404222D02*
X13090658Y-9385174D01*
X13090658Y-9385174D02*
X13109705Y-9375650D01*
X13109705Y-9375650D02*
X13138277Y-9375650D01*
X13138277Y-9375650D02*
X13157324Y-9385174D01*
X13157324Y-9385174D02*
X13166848Y-9404222D01*
X13166848Y-9404222D02*
X13166848Y-9508984D01*
X13262086Y-9508984D02*
X13262086Y-9375650D01*
X13262086Y-9394698D02*
X13271610Y-9385174D01*
X13271610Y-9385174D02*
X13290658Y-9375650D01*
X13290658Y-9375650D02*
X13319229Y-9375650D01*
X13319229Y-9375650D02*
X13338277Y-9385174D01*
X13338277Y-9385174D02*
X13347801Y-9404222D01*
X13347801Y-9404222D02*
X13347801Y-9508984D01*
X13347801Y-9404222D02*
X13357324Y-9385174D01*
X13357324Y-9385174D02*
X13376372Y-9375650D01*
X13376372Y-9375650D02*
X13404943Y-9375650D01*
X13404943Y-9375650D02*
X13423991Y-9385174D01*
X13423991Y-9385174D02*
X13433515Y-9404222D01*
X13433515Y-9404222D02*
X13433515Y-9508984D01*
X13823991Y-9299460D02*
X13652563Y-9556603D01*
X14081134Y-9308984D02*
X14100182Y-9308984D01*
X14100182Y-9308984D02*
X14119229Y-9318508D01*
X14119229Y-9318508D02*
X14128753Y-9328031D01*
X14128753Y-9328031D02*
X14138277Y-9347079D01*
X14138277Y-9347079D02*
X14147801Y-9385174D01*
X14147801Y-9385174D02*
X14147801Y-9432793D01*
X14147801Y-9432793D02*
X14138277Y-9470889D01*
X14138277Y-9470889D02*
X14128753Y-9489936D01*
X14128753Y-9489936D02*
X14119229Y-9499460D01*
X14119229Y-9499460D02*
X14100182Y-9508984D01*
X14100182Y-9508984D02*
X14081134Y-9508984D01*
X14081134Y-9508984D02*
X14062086Y-9499460D01*
X14062086Y-9499460D02*
X14052563Y-9489936D01*
X14052563Y-9489936D02*
X14043039Y-9470889D01*
X14043039Y-9470889D02*
X14033515Y-9432793D01*
X14033515Y-9432793D02*
X14033515Y-9385174D01*
X14033515Y-9385174D02*
X14043039Y-9347079D01*
X14043039Y-9347079D02*
X14052563Y-9328031D01*
X14052563Y-9328031D02*
X14062086Y-9318508D01*
X14062086Y-9318508D02*
X14081134Y-9308984D01*
X14233515Y-9489936D02*
X14243039Y-9499460D01*
X14243039Y-9499460D02*
X14233515Y-9508984D01*
X14233515Y-9508984D02*
X14223991Y-9499460D01*
X14223991Y-9499460D02*
X14233515Y-9489936D01*
X14233515Y-9489936D02*
X14233515Y-9508984D01*
X14366848Y-9308984D02*
X14385896Y-9308984D01*
X14385896Y-9308984D02*
X14404944Y-9318508D01*
X14404944Y-9318508D02*
X14414467Y-9328031D01*
X14414467Y-9328031D02*
X14423991Y-9347079D01*
X14423991Y-9347079D02*
X14433515Y-9385174D01*
X14433515Y-9385174D02*
X14433515Y-9432793D01*
X14433515Y-9432793D02*
X14423991Y-9470889D01*
X14423991Y-9470889D02*
X14414467Y-9489936D01*
X14414467Y-9489936D02*
X14404944Y-9499460D01*
X14404944Y-9499460D02*
X14385896Y-9508984D01*
X14385896Y-9508984D02*
X14366848Y-9508984D01*
X14366848Y-9508984D02*
X14347801Y-9499460D01*
X14347801Y-9499460D02*
X14338277Y-9489936D01*
X14338277Y-9489936D02*
X14328753Y-9470889D01*
X14328753Y-9470889D02*
X14319229Y-9432793D01*
X14319229Y-9432793D02*
X14319229Y-9385174D01*
X14319229Y-9385174D02*
X14328753Y-9347079D01*
X14328753Y-9347079D02*
X14338277Y-9328031D01*
X14338277Y-9328031D02*
X14347801Y-9318508D01*
X14347801Y-9318508D02*
X14366848Y-9308984D01*
X14623991Y-9508984D02*
X14509706Y-9508984D01*
X14566848Y-9508984D02*
X14566848Y-9308984D01*
X14566848Y-9308984D02*
X14547801Y-9337555D01*
X14547801Y-9337555D02*
X14528753Y-9356603D01*
X14528753Y-9356603D02*
X14509706Y-9366127D01*
X14814467Y-9508984D02*
X14700182Y-9508984D01*
X14757325Y-9508984D02*
X14757325Y-9308984D01*
X14757325Y-9308984D02*
X14738277Y-9337555D01*
X14738277Y-9337555D02*
X14719229Y-9356603D01*
X14719229Y-9356603D02*
X14700182Y-9366127D01*
X14928753Y-9394698D02*
X14909706Y-9385174D01*
X14909706Y-9385174D02*
X14900182Y-9375650D01*
X14900182Y-9375650D02*
X14890658Y-9356603D01*
X14890658Y-9356603D02*
X14890658Y-9347079D01*
X14890658Y-9347079D02*
X14900182Y-9328031D01*
X14900182Y-9328031D02*
X14909706Y-9318508D01*
X14909706Y-9318508D02*
X14928753Y-9308984D01*
X14928753Y-9308984D02*
X14966848Y-9308984D01*
X14966848Y-9308984D02*
X14985896Y-9318508D01*
X14985896Y-9318508D02*
X14995420Y-9328031D01*
X14995420Y-9328031D02*
X15004944Y-9347079D01*
X15004944Y-9347079D02*
X15004944Y-9356603D01*
X15004944Y-9356603D02*
X14995420Y-9375650D01*
X14995420Y-9375650D02*
X14985896Y-9385174D01*
X14985896Y-9385174D02*
X14966848Y-9394698D01*
X14966848Y-9394698D02*
X14928753Y-9394698D01*
X14928753Y-9394698D02*
X14909706Y-9404222D01*
X14909706Y-9404222D02*
X14900182Y-9413746D01*
X14900182Y-9413746D02*
X14890658Y-9432793D01*
X14890658Y-9432793D02*
X14890658Y-9470889D01*
X14890658Y-9470889D02*
X14900182Y-9489936D01*
X14900182Y-9489936D02*
X14909706Y-9499460D01*
X14909706Y-9499460D02*
X14928753Y-9508984D01*
X14928753Y-9508984D02*
X14966848Y-9508984D01*
X14966848Y-9508984D02*
X14985896Y-9499460D01*
X14985896Y-9499460D02*
X14995420Y-9489936D01*
X14995420Y-9489936D02*
X15004944Y-9470889D01*
X15004944Y-9470889D02*
X15004944Y-9432793D01*
X15004944Y-9432793D02*
X14995420Y-9413746D01*
X14995420Y-9413746D02*
X14985896Y-9404222D01*
X14985896Y-9404222D02*
X14966848Y-9394698D01*
X15081134Y-9308984D02*
X15081134Y-9347079D01*
X15157325Y-9308984D02*
X15157325Y-9347079D01*
X15452563Y-9585174D02*
X15443039Y-9575650D01*
X15443039Y-9575650D02*
X15423991Y-9547079D01*
X15423991Y-9547079D02*
X15414468Y-9528031D01*
X15414468Y-9528031D02*
X15404944Y-9499460D01*
X15404944Y-9499460D02*
X15395420Y-9451841D01*
X15395420Y-9451841D02*
X15395420Y-9413746D01*
X15395420Y-9413746D02*
X15404944Y-9366127D01*
X15404944Y-9366127D02*
X15414468Y-9337555D01*
X15414468Y-9337555D02*
X15423991Y-9318508D01*
X15423991Y-9318508D02*
X15443039Y-9289936D01*
X15443039Y-9289936D02*
X15452563Y-9280412D01*
X15614468Y-9308984D02*
X15576372Y-9308984D01*
X15576372Y-9308984D02*
X15557325Y-9318508D01*
X15557325Y-9318508D02*
X15547801Y-9328031D01*
X15547801Y-9328031D02*
X15528753Y-9356603D01*
X15528753Y-9356603D02*
X15519229Y-9394698D01*
X15519229Y-9394698D02*
X15519229Y-9470889D01*
X15519229Y-9470889D02*
X15528753Y-9489936D01*
X15528753Y-9489936D02*
X15538277Y-9499460D01*
X15538277Y-9499460D02*
X15557325Y-9508984D01*
X15557325Y-9508984D02*
X15595420Y-9508984D01*
X15595420Y-9508984D02*
X15614468Y-9499460D01*
X15614468Y-9499460D02*
X15623991Y-9489936D01*
X15623991Y-9489936D02*
X15633515Y-9470889D01*
X15633515Y-9470889D02*
X15633515Y-9423270D01*
X15633515Y-9423270D02*
X15623991Y-9404222D01*
X15623991Y-9404222D02*
X15614468Y-9394698D01*
X15614468Y-9394698D02*
X15595420Y-9385174D01*
X15595420Y-9385174D02*
X15557325Y-9385174D01*
X15557325Y-9385174D02*
X15538277Y-9394698D01*
X15538277Y-9394698D02*
X15528753Y-9404222D01*
X15528753Y-9404222D02*
X15519229Y-9423270D01*
X15871610Y-9508984D02*
X15871610Y-9308984D01*
X15957325Y-9508984D02*
X15957325Y-9404222D01*
X15957325Y-9404222D02*
X15947801Y-9385174D01*
X15947801Y-9385174D02*
X15928753Y-9375650D01*
X15928753Y-9375650D02*
X15900182Y-9375650D01*
X15900182Y-9375650D02*
X15881134Y-9385174D01*
X15881134Y-9385174D02*
X15871610Y-9394698D01*
X16081134Y-9508984D02*
X16062087Y-9499460D01*
X16062087Y-9499460D02*
X16052563Y-9489936D01*
X16052563Y-9489936D02*
X16043039Y-9470889D01*
X16043039Y-9470889D02*
X16043039Y-9413746D01*
X16043039Y-9413746D02*
X16052563Y-9394698D01*
X16052563Y-9394698D02*
X16062087Y-9385174D01*
X16062087Y-9385174D02*
X16081134Y-9375650D01*
X16081134Y-9375650D02*
X16109706Y-9375650D01*
X16109706Y-9375650D02*
X16128753Y-9385174D01*
X16128753Y-9385174D02*
X16138277Y-9394698D01*
X16138277Y-9394698D02*
X16147801Y-9413746D01*
X16147801Y-9413746D02*
X16147801Y-9470889D01*
X16147801Y-9470889D02*
X16138277Y-9489936D01*
X16138277Y-9489936D02*
X16128753Y-9499460D01*
X16128753Y-9499460D02*
X16109706Y-9508984D01*
X16109706Y-9508984D02*
X16081134Y-9508984D01*
X16262087Y-9508984D02*
X16243039Y-9499460D01*
X16243039Y-9499460D02*
X16233515Y-9480412D01*
X16233515Y-9480412D02*
X16233515Y-9308984D01*
X16414468Y-9499460D02*
X16395420Y-9508984D01*
X16395420Y-9508984D02*
X16357325Y-9508984D01*
X16357325Y-9508984D02*
X16338277Y-9499460D01*
X16338277Y-9499460D02*
X16328753Y-9480412D01*
X16328753Y-9480412D02*
X16328753Y-9404222D01*
X16328753Y-9404222D02*
X16338277Y-9385174D01*
X16338277Y-9385174D02*
X16357325Y-9375650D01*
X16357325Y-9375650D02*
X16395420Y-9375650D01*
X16395420Y-9375650D02*
X16414468Y-9385174D01*
X16414468Y-9385174D02*
X16423991Y-9404222D01*
X16423991Y-9404222D02*
X16423991Y-9423270D01*
X16423991Y-9423270D02*
X16328753Y-9442317D01*
X16500182Y-9499460D02*
X16519230Y-9508984D01*
X16519230Y-9508984D02*
X16557325Y-9508984D01*
X16557325Y-9508984D02*
X16576372Y-9499460D01*
X16576372Y-9499460D02*
X16585896Y-9480412D01*
X16585896Y-9480412D02*
X16585896Y-9470889D01*
X16585896Y-9470889D02*
X16576372Y-9451841D01*
X16576372Y-9451841D02*
X16557325Y-9442317D01*
X16557325Y-9442317D02*
X16528753Y-9442317D01*
X16528753Y-9442317D02*
X16509706Y-9432793D01*
X16509706Y-9432793D02*
X16500182Y-9413746D01*
X16500182Y-9413746D02*
X16500182Y-9404222D01*
X16500182Y-9404222D02*
X16509706Y-9385174D01*
X16509706Y-9385174D02*
X16528753Y-9375650D01*
X16528753Y-9375650D02*
X16557325Y-9375650D01*
X16557325Y-9375650D02*
X16576372Y-9385174D01*
X16652563Y-9585174D02*
X16662087Y-9575650D01*
X16662087Y-9575650D02*
X16681134Y-9547079D01*
X16681134Y-9547079D02*
X16690658Y-9528031D01*
X16690658Y-9528031D02*
X16700182Y-9499460D01*
X16700182Y-9499460D02*
X16709706Y-9451841D01*
X16709706Y-9451841D02*
X16709706Y-9413746D01*
X16709706Y-9413746D02*
X16700182Y-9366127D01*
X16700182Y-9366127D02*
X16690658Y-9337555D01*
X16690658Y-9337555D02*
X16681134Y-9318508D01*
X16681134Y-9318508D02*
X16662087Y-9289936D01*
X16662087Y-9289936D02*
X16652563Y-9280412D01*
D12*
X11877500Y-9681500D02*
G75*
G02*
X11797500Y-9681500I-40000J0D01*
G01*
X11797500Y-9681500D02*
G75*
G02*
X11877500Y-9681500I40000J0D01*
G01*
D11*
X12176372Y-9572984D02*
X12195420Y-9572984D01*
X12195420Y-9572984D02*
X12214467Y-9582508D01*
X12214467Y-9582508D02*
X12223991Y-9592031D01*
X12223991Y-9592031D02*
X12233515Y-9611079D01*
X12233515Y-9611079D02*
X12243039Y-9649174D01*
X12243039Y-9649174D02*
X12243039Y-9696793D01*
X12243039Y-9696793D02*
X12233515Y-9734889D01*
X12233515Y-9734889D02*
X12223991Y-9753936D01*
X12223991Y-9753936D02*
X12214467Y-9763460D01*
X12214467Y-9763460D02*
X12195420Y-9772984D01*
X12195420Y-9772984D02*
X12176372Y-9772984D01*
X12176372Y-9772984D02*
X12157324Y-9763460D01*
X12157324Y-9763460D02*
X12147801Y-9753936D01*
X12147801Y-9753936D02*
X12138277Y-9734889D01*
X12138277Y-9734889D02*
X12128753Y-9696793D01*
X12128753Y-9696793D02*
X12128753Y-9649174D01*
X12128753Y-9649174D02*
X12138277Y-9611079D01*
X12138277Y-9611079D02*
X12147801Y-9592031D01*
X12147801Y-9592031D02*
X12157324Y-9582508D01*
X12157324Y-9582508D02*
X12176372Y-9572984D01*
X12328753Y-9753936D02*
X12338277Y-9763460D01*
X12338277Y-9763460D02*
X12328753Y-9772984D01*
X12328753Y-9772984D02*
X12319229Y-9763460D01*
X12319229Y-9763460D02*
X12328753Y-9753936D01*
X12328753Y-9753936D02*
X12328753Y-9772984D01*
X12452562Y-9658698D02*
X12433515Y-9649174D01*
X12433515Y-9649174D02*
X12423991Y-9639650D01*
X12423991Y-9639650D02*
X12414467Y-9620603D01*
X12414467Y-9620603D02*
X12414467Y-9611079D01*
X12414467Y-9611079D02*
X12423991Y-9592031D01*
X12423991Y-9592031D02*
X12433515Y-9582508D01*
X12433515Y-9582508D02*
X12452562Y-9572984D01*
X12452562Y-9572984D02*
X12490658Y-9572984D01*
X12490658Y-9572984D02*
X12509705Y-9582508D01*
X12509705Y-9582508D02*
X12519229Y-9592031D01*
X12519229Y-9592031D02*
X12528753Y-9611079D01*
X12528753Y-9611079D02*
X12528753Y-9620603D01*
X12528753Y-9620603D02*
X12519229Y-9639650D01*
X12519229Y-9639650D02*
X12509705Y-9649174D01*
X12509705Y-9649174D02*
X12490658Y-9658698D01*
X12490658Y-9658698D02*
X12452562Y-9658698D01*
X12452562Y-9658698D02*
X12433515Y-9668222D01*
X12433515Y-9668222D02*
X12423991Y-9677746D01*
X12423991Y-9677746D02*
X12414467Y-9696793D01*
X12414467Y-9696793D02*
X12414467Y-9734889D01*
X12414467Y-9734889D02*
X12423991Y-9753936D01*
X12423991Y-9753936D02*
X12433515Y-9763460D01*
X12433515Y-9763460D02*
X12452562Y-9772984D01*
X12452562Y-9772984D02*
X12490658Y-9772984D01*
X12490658Y-9772984D02*
X12509705Y-9763460D01*
X12509705Y-9763460D02*
X12519229Y-9753936D01*
X12519229Y-9753936D02*
X12528753Y-9734889D01*
X12528753Y-9734889D02*
X12528753Y-9696793D01*
X12528753Y-9696793D02*
X12519229Y-9677746D01*
X12519229Y-9677746D02*
X12509705Y-9668222D01*
X12509705Y-9668222D02*
X12490658Y-9658698D01*
X12652562Y-9572984D02*
X12671610Y-9572984D01*
X12671610Y-9572984D02*
X12690658Y-9582508D01*
X12690658Y-9582508D02*
X12700182Y-9592031D01*
X12700182Y-9592031D02*
X12709705Y-9611079D01*
X12709705Y-9611079D02*
X12719229Y-9649174D01*
X12719229Y-9649174D02*
X12719229Y-9696793D01*
X12719229Y-9696793D02*
X12709705Y-9734889D01*
X12709705Y-9734889D02*
X12700182Y-9753936D01*
X12700182Y-9753936D02*
X12690658Y-9763460D01*
X12690658Y-9763460D02*
X12671610Y-9772984D01*
X12671610Y-9772984D02*
X12652562Y-9772984D01*
X12652562Y-9772984D02*
X12633515Y-9763460D01*
X12633515Y-9763460D02*
X12623991Y-9753936D01*
X12623991Y-9753936D02*
X12614467Y-9734889D01*
X12614467Y-9734889D02*
X12604943Y-9696793D01*
X12604943Y-9696793D02*
X12604943Y-9649174D01*
X12604943Y-9649174D02*
X12614467Y-9611079D01*
X12614467Y-9611079D02*
X12623991Y-9592031D01*
X12623991Y-9592031D02*
X12633515Y-9582508D01*
X12633515Y-9582508D02*
X12652562Y-9572984D01*
X12843039Y-9572984D02*
X12862086Y-9572984D01*
X12862086Y-9572984D02*
X12881134Y-9582508D01*
X12881134Y-9582508D02*
X12890658Y-9592031D01*
X12890658Y-9592031D02*
X12900182Y-9611079D01*
X12900182Y-9611079D02*
X12909705Y-9649174D01*
X12909705Y-9649174D02*
X12909705Y-9696793D01*
X12909705Y-9696793D02*
X12900182Y-9734889D01*
X12900182Y-9734889D02*
X12890658Y-9753936D01*
X12890658Y-9753936D02*
X12881134Y-9763460D01*
X12881134Y-9763460D02*
X12862086Y-9772984D01*
X12862086Y-9772984D02*
X12843039Y-9772984D01*
X12843039Y-9772984D02*
X12823991Y-9763460D01*
X12823991Y-9763460D02*
X12814467Y-9753936D01*
X12814467Y-9753936D02*
X12804943Y-9734889D01*
X12804943Y-9734889D02*
X12795420Y-9696793D01*
X12795420Y-9696793D02*
X12795420Y-9649174D01*
X12795420Y-9649174D02*
X12804943Y-9611079D01*
X12804943Y-9611079D02*
X12814467Y-9592031D01*
X12814467Y-9592031D02*
X12823991Y-9582508D01*
X12823991Y-9582508D02*
X12843039Y-9572984D01*
X12995420Y-9772984D02*
X12995420Y-9639650D01*
X12995420Y-9658698D02*
X13004943Y-9649174D01*
X13004943Y-9649174D02*
X13023991Y-9639650D01*
X13023991Y-9639650D02*
X13052563Y-9639650D01*
X13052563Y-9639650D02*
X13071610Y-9649174D01*
X13071610Y-9649174D02*
X13081134Y-9668222D01*
X13081134Y-9668222D02*
X13081134Y-9772984D01*
X13081134Y-9668222D02*
X13090658Y-9649174D01*
X13090658Y-9649174D02*
X13109705Y-9639650D01*
X13109705Y-9639650D02*
X13138277Y-9639650D01*
X13138277Y-9639650D02*
X13157324Y-9649174D01*
X13157324Y-9649174D02*
X13166848Y-9668222D01*
X13166848Y-9668222D02*
X13166848Y-9772984D01*
X13262086Y-9772984D02*
X13262086Y-9639650D01*
X13262086Y-9658698D02*
X13271610Y-9649174D01*
X13271610Y-9649174D02*
X13290658Y-9639650D01*
X13290658Y-9639650D02*
X13319229Y-9639650D01*
X13319229Y-9639650D02*
X13338277Y-9649174D01*
X13338277Y-9649174D02*
X13347801Y-9668222D01*
X13347801Y-9668222D02*
X13347801Y-9772984D01*
X13347801Y-9668222D02*
X13357324Y-9649174D01*
X13357324Y-9649174D02*
X13376372Y-9639650D01*
X13376372Y-9639650D02*
X13404943Y-9639650D01*
X13404943Y-9639650D02*
X13423991Y-9649174D01*
X13423991Y-9649174D02*
X13433515Y-9668222D01*
X13433515Y-9668222D02*
X13433515Y-9772984D01*
X13823991Y-9563460D02*
X13652563Y-9820603D01*
X14081134Y-9572984D02*
X14100182Y-9572984D01*
X14100182Y-9572984D02*
X14119229Y-9582508D01*
X14119229Y-9582508D02*
X14128753Y-9592031D01*
X14128753Y-9592031D02*
X14138277Y-9611079D01*
X14138277Y-9611079D02*
X14147801Y-9649174D01*
X14147801Y-9649174D02*
X14147801Y-9696793D01*
X14147801Y-9696793D02*
X14138277Y-9734889D01*
X14138277Y-9734889D02*
X14128753Y-9753936D01*
X14128753Y-9753936D02*
X14119229Y-9763460D01*
X14119229Y-9763460D02*
X14100182Y-9772984D01*
X14100182Y-9772984D02*
X14081134Y-9772984D01*
X14081134Y-9772984D02*
X14062086Y-9763460D01*
X14062086Y-9763460D02*
X14052563Y-9753936D01*
X14052563Y-9753936D02*
X14043039Y-9734889D01*
X14043039Y-9734889D02*
X14033515Y-9696793D01*
X14033515Y-9696793D02*
X14033515Y-9649174D01*
X14033515Y-9649174D02*
X14043039Y-9611079D01*
X14043039Y-9611079D02*
X14052563Y-9592031D01*
X14052563Y-9592031D02*
X14062086Y-9582508D01*
X14062086Y-9582508D02*
X14081134Y-9572984D01*
X14233515Y-9753936D02*
X14243039Y-9763460D01*
X14243039Y-9763460D02*
X14233515Y-9772984D01*
X14233515Y-9772984D02*
X14223991Y-9763460D01*
X14223991Y-9763460D02*
X14233515Y-9753936D01*
X14233515Y-9753936D02*
X14233515Y-9772984D01*
X14366848Y-9572984D02*
X14385896Y-9572984D01*
X14385896Y-9572984D02*
X14404944Y-9582508D01*
X14404944Y-9582508D02*
X14414467Y-9592031D01*
X14414467Y-9592031D02*
X14423991Y-9611079D01*
X14423991Y-9611079D02*
X14433515Y-9649174D01*
X14433515Y-9649174D02*
X14433515Y-9696793D01*
X14433515Y-9696793D02*
X14423991Y-9734889D01*
X14423991Y-9734889D02*
X14414467Y-9753936D01*
X14414467Y-9753936D02*
X14404944Y-9763460D01*
X14404944Y-9763460D02*
X14385896Y-9772984D01*
X14385896Y-9772984D02*
X14366848Y-9772984D01*
X14366848Y-9772984D02*
X14347801Y-9763460D01*
X14347801Y-9763460D02*
X14338277Y-9753936D01*
X14338277Y-9753936D02*
X14328753Y-9734889D01*
X14328753Y-9734889D02*
X14319229Y-9696793D01*
X14319229Y-9696793D02*
X14319229Y-9649174D01*
X14319229Y-9649174D02*
X14328753Y-9611079D01*
X14328753Y-9611079D02*
X14338277Y-9592031D01*
X14338277Y-9592031D02*
X14347801Y-9582508D01*
X14347801Y-9582508D02*
X14366848Y-9572984D01*
X14500182Y-9572984D02*
X14623991Y-9572984D01*
X14623991Y-9572984D02*
X14557325Y-9649174D01*
X14557325Y-9649174D02*
X14585896Y-9649174D01*
X14585896Y-9649174D02*
X14604944Y-9658698D01*
X14604944Y-9658698D02*
X14614467Y-9668222D01*
X14614467Y-9668222D02*
X14623991Y-9687270D01*
X14623991Y-9687270D02*
X14623991Y-9734889D01*
X14623991Y-9734889D02*
X14614467Y-9753936D01*
X14614467Y-9753936D02*
X14604944Y-9763460D01*
X14604944Y-9763460D02*
X14585896Y-9772984D01*
X14585896Y-9772984D02*
X14528753Y-9772984D01*
X14528753Y-9772984D02*
X14509706Y-9763460D01*
X14509706Y-9763460D02*
X14500182Y-9753936D01*
X14814467Y-9772984D02*
X14700182Y-9772984D01*
X14757325Y-9772984D02*
X14757325Y-9572984D01*
X14757325Y-9572984D02*
X14738277Y-9601555D01*
X14738277Y-9601555D02*
X14719229Y-9620603D01*
X14719229Y-9620603D02*
X14700182Y-9630127D01*
X14995420Y-9572984D02*
X14900182Y-9572984D01*
X14900182Y-9572984D02*
X14890658Y-9668222D01*
X14890658Y-9668222D02*
X14900182Y-9658698D01*
X14900182Y-9658698D02*
X14919229Y-9649174D01*
X14919229Y-9649174D02*
X14966848Y-9649174D01*
X14966848Y-9649174D02*
X14985896Y-9658698D01*
X14985896Y-9658698D02*
X14995420Y-9668222D01*
X14995420Y-9668222D02*
X15004944Y-9687270D01*
X15004944Y-9687270D02*
X15004944Y-9734889D01*
X15004944Y-9734889D02*
X14995420Y-9753936D01*
X14995420Y-9753936D02*
X14985896Y-9763460D01*
X14985896Y-9763460D02*
X14966848Y-9772984D01*
X14966848Y-9772984D02*
X14919229Y-9772984D01*
X14919229Y-9772984D02*
X14900182Y-9763460D01*
X14900182Y-9763460D02*
X14890658Y-9753936D01*
X15081134Y-9572984D02*
X15081134Y-9611079D01*
X15157325Y-9572984D02*
X15157325Y-9611079D01*
X15452563Y-9849174D02*
X15443039Y-9839650D01*
X15443039Y-9839650D02*
X15423991Y-9811079D01*
X15423991Y-9811079D02*
X15414468Y-9792031D01*
X15414468Y-9792031D02*
X15404944Y-9763460D01*
X15404944Y-9763460D02*
X15395420Y-9715841D01*
X15395420Y-9715841D02*
X15395420Y-9677746D01*
X15395420Y-9677746D02*
X15404944Y-9630127D01*
X15404944Y-9630127D02*
X15414468Y-9601555D01*
X15414468Y-9601555D02*
X15423991Y-9582508D01*
X15423991Y-9582508D02*
X15443039Y-9553936D01*
X15443039Y-9553936D02*
X15452563Y-9544412D01*
X15538277Y-9772984D02*
X15576372Y-9772984D01*
X15576372Y-9772984D02*
X15595420Y-9763460D01*
X15595420Y-9763460D02*
X15604944Y-9753936D01*
X15604944Y-9753936D02*
X15623991Y-9725365D01*
X15623991Y-9725365D02*
X15633515Y-9687270D01*
X15633515Y-9687270D02*
X15633515Y-9611079D01*
X15633515Y-9611079D02*
X15623991Y-9592031D01*
X15623991Y-9592031D02*
X15614468Y-9582508D01*
X15614468Y-9582508D02*
X15595420Y-9572984D01*
X15595420Y-9572984D02*
X15557325Y-9572984D01*
X15557325Y-9572984D02*
X15538277Y-9582508D01*
X15538277Y-9582508D02*
X15528753Y-9592031D01*
X15528753Y-9592031D02*
X15519229Y-9611079D01*
X15519229Y-9611079D02*
X15519229Y-9658698D01*
X15519229Y-9658698D02*
X15528753Y-9677746D01*
X15528753Y-9677746D02*
X15538277Y-9687270D01*
X15538277Y-9687270D02*
X15557325Y-9696793D01*
X15557325Y-9696793D02*
X15595420Y-9696793D01*
X15595420Y-9696793D02*
X15614468Y-9687270D01*
X15614468Y-9687270D02*
X15623991Y-9677746D01*
X15623991Y-9677746D02*
X15633515Y-9658698D01*
X15871610Y-9772984D02*
X15871610Y-9572984D01*
X15957325Y-9772984D02*
X15957325Y-9668222D01*
X15957325Y-9668222D02*
X15947801Y-9649174D01*
X15947801Y-9649174D02*
X15928753Y-9639650D01*
X15928753Y-9639650D02*
X15900182Y-9639650D01*
X15900182Y-9639650D02*
X15881134Y-9649174D01*
X15881134Y-9649174D02*
X15871610Y-9658698D01*
X16081134Y-9772984D02*
X16062087Y-9763460D01*
X16062087Y-9763460D02*
X16052563Y-9753936D01*
X16052563Y-9753936D02*
X16043039Y-9734889D01*
X16043039Y-9734889D02*
X16043039Y-9677746D01*
X16043039Y-9677746D02*
X16052563Y-9658698D01*
X16052563Y-9658698D02*
X16062087Y-9649174D01*
X16062087Y-9649174D02*
X16081134Y-9639650D01*
X16081134Y-9639650D02*
X16109706Y-9639650D01*
X16109706Y-9639650D02*
X16128753Y-9649174D01*
X16128753Y-9649174D02*
X16138277Y-9658698D01*
X16138277Y-9658698D02*
X16147801Y-9677746D01*
X16147801Y-9677746D02*
X16147801Y-9734889D01*
X16147801Y-9734889D02*
X16138277Y-9753936D01*
X16138277Y-9753936D02*
X16128753Y-9763460D01*
X16128753Y-9763460D02*
X16109706Y-9772984D01*
X16109706Y-9772984D02*
X16081134Y-9772984D01*
X16262087Y-9772984D02*
X16243039Y-9763460D01*
X16243039Y-9763460D02*
X16233515Y-9744412D01*
X16233515Y-9744412D02*
X16233515Y-9572984D01*
X16414468Y-9763460D02*
X16395420Y-9772984D01*
X16395420Y-9772984D02*
X16357325Y-9772984D01*
X16357325Y-9772984D02*
X16338277Y-9763460D01*
X16338277Y-9763460D02*
X16328753Y-9744412D01*
X16328753Y-9744412D02*
X16328753Y-9668222D01*
X16328753Y-9668222D02*
X16338277Y-9649174D01*
X16338277Y-9649174D02*
X16357325Y-9639650D01*
X16357325Y-9639650D02*
X16395420Y-9639650D01*
X16395420Y-9639650D02*
X16414468Y-9649174D01*
X16414468Y-9649174D02*
X16423991Y-9668222D01*
X16423991Y-9668222D02*
X16423991Y-9687270D01*
X16423991Y-9687270D02*
X16328753Y-9706317D01*
X16500182Y-9763460D02*
X16519230Y-9772984D01*
X16519230Y-9772984D02*
X16557325Y-9772984D01*
X16557325Y-9772984D02*
X16576372Y-9763460D01*
X16576372Y-9763460D02*
X16585896Y-9744412D01*
X16585896Y-9744412D02*
X16585896Y-9734889D01*
X16585896Y-9734889D02*
X16576372Y-9715841D01*
X16576372Y-9715841D02*
X16557325Y-9706317D01*
X16557325Y-9706317D02*
X16528753Y-9706317D01*
X16528753Y-9706317D02*
X16509706Y-9696793D01*
X16509706Y-9696793D02*
X16500182Y-9677746D01*
X16500182Y-9677746D02*
X16500182Y-9668222D01*
X16500182Y-9668222D02*
X16509706Y-9649174D01*
X16509706Y-9649174D02*
X16528753Y-9639650D01*
X16528753Y-9639650D02*
X16557325Y-9639650D01*
X16557325Y-9639650D02*
X16576372Y-9649174D01*
X16652563Y-9849174D02*
X16662087Y-9839650D01*
X16662087Y-9839650D02*
X16681134Y-9811079D01*
X16681134Y-9811079D02*
X16690658Y-9792031D01*
X16690658Y-9792031D02*
X16700182Y-9763460D01*
X16700182Y-9763460D02*
X16709706Y-9715841D01*
X16709706Y-9715841D02*
X16709706Y-9677746D01*
X16709706Y-9677746D02*
X16700182Y-9630127D01*
X16700182Y-9630127D02*
X16690658Y-9601555D01*
X16690658Y-9601555D02*
X16681134Y-9582508D01*
X16681134Y-9582508D02*
X16662087Y-9553936D01*
X16662087Y-9553936D02*
X16652563Y-9544412D01*
D12*
X11832500Y-9900500D02*
X11832500Y-9990500D01*
X11787500Y-9945500D02*
X11877500Y-9945500D01*
D11*
X12176372Y-9836984D02*
X12195420Y-9836984D01*
X12195420Y-9836984D02*
X12214467Y-9846508D01*
X12214467Y-9846508D02*
X12223991Y-9856031D01*
X12223991Y-9856031D02*
X12233515Y-9875079D01*
X12233515Y-9875079D02*
X12243039Y-9913174D01*
X12243039Y-9913174D02*
X12243039Y-9960793D01*
X12243039Y-9960793D02*
X12233515Y-9998889D01*
X12233515Y-9998889D02*
X12223991Y-10017936D01*
X12223991Y-10017936D02*
X12214467Y-10027460D01*
X12214467Y-10027460D02*
X12195420Y-10036984D01*
X12195420Y-10036984D02*
X12176372Y-10036984D01*
X12176372Y-10036984D02*
X12157324Y-10027460D01*
X12157324Y-10027460D02*
X12147801Y-10017936D01*
X12147801Y-10017936D02*
X12138277Y-9998889D01*
X12138277Y-9998889D02*
X12128753Y-9960793D01*
X12128753Y-9960793D02*
X12128753Y-9913174D01*
X12128753Y-9913174D02*
X12138277Y-9875079D01*
X12138277Y-9875079D02*
X12147801Y-9856031D01*
X12147801Y-9856031D02*
X12157324Y-9846508D01*
X12157324Y-9846508D02*
X12176372Y-9836984D01*
X12328753Y-10017936D02*
X12338277Y-10027460D01*
X12338277Y-10027460D02*
X12328753Y-10036984D01*
X12328753Y-10036984D02*
X12319229Y-10027460D01*
X12319229Y-10027460D02*
X12328753Y-10017936D01*
X12328753Y-10017936D02*
X12328753Y-10036984D01*
X12433515Y-10036984D02*
X12471610Y-10036984D01*
X12471610Y-10036984D02*
X12490658Y-10027460D01*
X12490658Y-10027460D02*
X12500182Y-10017936D01*
X12500182Y-10017936D02*
X12519229Y-9989365D01*
X12519229Y-9989365D02*
X12528753Y-9951270D01*
X12528753Y-9951270D02*
X12528753Y-9875079D01*
X12528753Y-9875079D02*
X12519229Y-9856031D01*
X12519229Y-9856031D02*
X12509705Y-9846508D01*
X12509705Y-9846508D02*
X12490658Y-9836984D01*
X12490658Y-9836984D02*
X12452562Y-9836984D01*
X12452562Y-9836984D02*
X12433515Y-9846508D01*
X12433515Y-9846508D02*
X12423991Y-9856031D01*
X12423991Y-9856031D02*
X12414467Y-9875079D01*
X12414467Y-9875079D02*
X12414467Y-9922698D01*
X12414467Y-9922698D02*
X12423991Y-9941746D01*
X12423991Y-9941746D02*
X12433515Y-9951270D01*
X12433515Y-9951270D02*
X12452562Y-9960793D01*
X12452562Y-9960793D02*
X12490658Y-9960793D01*
X12490658Y-9960793D02*
X12509705Y-9951270D01*
X12509705Y-9951270D02*
X12519229Y-9941746D01*
X12519229Y-9941746D02*
X12528753Y-9922698D01*
X12652562Y-9836984D02*
X12671610Y-9836984D01*
X12671610Y-9836984D02*
X12690658Y-9846508D01*
X12690658Y-9846508D02*
X12700182Y-9856031D01*
X12700182Y-9856031D02*
X12709705Y-9875079D01*
X12709705Y-9875079D02*
X12719229Y-9913174D01*
X12719229Y-9913174D02*
X12719229Y-9960793D01*
X12719229Y-9960793D02*
X12709705Y-9998889D01*
X12709705Y-9998889D02*
X12700182Y-10017936D01*
X12700182Y-10017936D02*
X12690658Y-10027460D01*
X12690658Y-10027460D02*
X12671610Y-10036984D01*
X12671610Y-10036984D02*
X12652562Y-10036984D01*
X12652562Y-10036984D02*
X12633515Y-10027460D01*
X12633515Y-10027460D02*
X12623991Y-10017936D01*
X12623991Y-10017936D02*
X12614467Y-9998889D01*
X12614467Y-9998889D02*
X12604943Y-9960793D01*
X12604943Y-9960793D02*
X12604943Y-9913174D01*
X12604943Y-9913174D02*
X12614467Y-9875079D01*
X12614467Y-9875079D02*
X12623991Y-9856031D01*
X12623991Y-9856031D02*
X12633515Y-9846508D01*
X12633515Y-9846508D02*
X12652562Y-9836984D01*
X12843039Y-9836984D02*
X12862086Y-9836984D01*
X12862086Y-9836984D02*
X12881134Y-9846508D01*
X12881134Y-9846508D02*
X12890658Y-9856031D01*
X12890658Y-9856031D02*
X12900182Y-9875079D01*
X12900182Y-9875079D02*
X12909705Y-9913174D01*
X12909705Y-9913174D02*
X12909705Y-9960793D01*
X12909705Y-9960793D02*
X12900182Y-9998889D01*
X12900182Y-9998889D02*
X12890658Y-10017936D01*
X12890658Y-10017936D02*
X12881134Y-10027460D01*
X12881134Y-10027460D02*
X12862086Y-10036984D01*
X12862086Y-10036984D02*
X12843039Y-10036984D01*
X12843039Y-10036984D02*
X12823991Y-10027460D01*
X12823991Y-10027460D02*
X12814467Y-10017936D01*
X12814467Y-10017936D02*
X12804943Y-9998889D01*
X12804943Y-9998889D02*
X12795420Y-9960793D01*
X12795420Y-9960793D02*
X12795420Y-9913174D01*
X12795420Y-9913174D02*
X12804943Y-9875079D01*
X12804943Y-9875079D02*
X12814467Y-9856031D01*
X12814467Y-9856031D02*
X12823991Y-9846508D01*
X12823991Y-9846508D02*
X12843039Y-9836984D01*
X12995420Y-10036984D02*
X12995420Y-9903650D01*
X12995420Y-9922698D02*
X13004943Y-9913174D01*
X13004943Y-9913174D02*
X13023991Y-9903650D01*
X13023991Y-9903650D02*
X13052563Y-9903650D01*
X13052563Y-9903650D02*
X13071610Y-9913174D01*
X13071610Y-9913174D02*
X13081134Y-9932222D01*
X13081134Y-9932222D02*
X13081134Y-10036984D01*
X13081134Y-9932222D02*
X13090658Y-9913174D01*
X13090658Y-9913174D02*
X13109705Y-9903650D01*
X13109705Y-9903650D02*
X13138277Y-9903650D01*
X13138277Y-9903650D02*
X13157324Y-9913174D01*
X13157324Y-9913174D02*
X13166848Y-9932222D01*
X13166848Y-9932222D02*
X13166848Y-10036984D01*
X13262086Y-10036984D02*
X13262086Y-9903650D01*
X13262086Y-9922698D02*
X13271610Y-9913174D01*
X13271610Y-9913174D02*
X13290658Y-9903650D01*
X13290658Y-9903650D02*
X13319229Y-9903650D01*
X13319229Y-9903650D02*
X13338277Y-9913174D01*
X13338277Y-9913174D02*
X13347801Y-9932222D01*
X13347801Y-9932222D02*
X13347801Y-10036984D01*
X13347801Y-9932222D02*
X13357324Y-9913174D01*
X13357324Y-9913174D02*
X13376372Y-9903650D01*
X13376372Y-9903650D02*
X13404943Y-9903650D01*
X13404943Y-9903650D02*
X13423991Y-9913174D01*
X13423991Y-9913174D02*
X13433515Y-9932222D01*
X13433515Y-9932222D02*
X13433515Y-10036984D01*
X13823991Y-9827460D02*
X13652563Y-10084603D01*
X14081134Y-9836984D02*
X14100182Y-9836984D01*
X14100182Y-9836984D02*
X14119229Y-9846508D01*
X14119229Y-9846508D02*
X14128753Y-9856031D01*
X14128753Y-9856031D02*
X14138277Y-9875079D01*
X14138277Y-9875079D02*
X14147801Y-9913174D01*
X14147801Y-9913174D02*
X14147801Y-9960793D01*
X14147801Y-9960793D02*
X14138277Y-9998889D01*
X14138277Y-9998889D02*
X14128753Y-10017936D01*
X14128753Y-10017936D02*
X14119229Y-10027460D01*
X14119229Y-10027460D02*
X14100182Y-10036984D01*
X14100182Y-10036984D02*
X14081134Y-10036984D01*
X14081134Y-10036984D02*
X14062086Y-10027460D01*
X14062086Y-10027460D02*
X14052563Y-10017936D01*
X14052563Y-10017936D02*
X14043039Y-9998889D01*
X14043039Y-9998889D02*
X14033515Y-9960793D01*
X14033515Y-9960793D02*
X14033515Y-9913174D01*
X14033515Y-9913174D02*
X14043039Y-9875079D01*
X14043039Y-9875079D02*
X14052563Y-9856031D01*
X14052563Y-9856031D02*
X14062086Y-9846508D01*
X14062086Y-9846508D02*
X14081134Y-9836984D01*
X14233515Y-10017936D02*
X14243039Y-10027460D01*
X14243039Y-10027460D02*
X14233515Y-10036984D01*
X14233515Y-10036984D02*
X14223991Y-10027460D01*
X14223991Y-10027460D02*
X14233515Y-10017936D01*
X14233515Y-10017936D02*
X14233515Y-10036984D01*
X14366848Y-9836984D02*
X14385896Y-9836984D01*
X14385896Y-9836984D02*
X14404944Y-9846508D01*
X14404944Y-9846508D02*
X14414467Y-9856031D01*
X14414467Y-9856031D02*
X14423991Y-9875079D01*
X14423991Y-9875079D02*
X14433515Y-9913174D01*
X14433515Y-9913174D02*
X14433515Y-9960793D01*
X14433515Y-9960793D02*
X14423991Y-9998889D01*
X14423991Y-9998889D02*
X14414467Y-10017936D01*
X14414467Y-10017936D02*
X14404944Y-10027460D01*
X14404944Y-10027460D02*
X14385896Y-10036984D01*
X14385896Y-10036984D02*
X14366848Y-10036984D01*
X14366848Y-10036984D02*
X14347801Y-10027460D01*
X14347801Y-10027460D02*
X14338277Y-10017936D01*
X14338277Y-10017936D02*
X14328753Y-9998889D01*
X14328753Y-9998889D02*
X14319229Y-9960793D01*
X14319229Y-9960793D02*
X14319229Y-9913174D01*
X14319229Y-9913174D02*
X14328753Y-9875079D01*
X14328753Y-9875079D02*
X14338277Y-9856031D01*
X14338277Y-9856031D02*
X14347801Y-9846508D01*
X14347801Y-9846508D02*
X14366848Y-9836984D01*
X14500182Y-9836984D02*
X14623991Y-9836984D01*
X14623991Y-9836984D02*
X14557325Y-9913174D01*
X14557325Y-9913174D02*
X14585896Y-9913174D01*
X14585896Y-9913174D02*
X14604944Y-9922698D01*
X14604944Y-9922698D02*
X14614467Y-9932222D01*
X14614467Y-9932222D02*
X14623991Y-9951270D01*
X14623991Y-9951270D02*
X14623991Y-9998889D01*
X14623991Y-9998889D02*
X14614467Y-10017936D01*
X14614467Y-10017936D02*
X14604944Y-10027460D01*
X14604944Y-10027460D02*
X14585896Y-10036984D01*
X14585896Y-10036984D02*
X14528753Y-10036984D01*
X14528753Y-10036984D02*
X14509706Y-10027460D01*
X14509706Y-10027460D02*
X14500182Y-10017936D01*
X14804944Y-9836984D02*
X14709706Y-9836984D01*
X14709706Y-9836984D02*
X14700182Y-9932222D01*
X14700182Y-9932222D02*
X14709706Y-9922698D01*
X14709706Y-9922698D02*
X14728753Y-9913174D01*
X14728753Y-9913174D02*
X14776372Y-9913174D01*
X14776372Y-9913174D02*
X14795420Y-9922698D01*
X14795420Y-9922698D02*
X14804944Y-9932222D01*
X14804944Y-9932222D02*
X14814467Y-9951270D01*
X14814467Y-9951270D02*
X14814467Y-9998889D01*
X14814467Y-9998889D02*
X14804944Y-10017936D01*
X14804944Y-10017936D02*
X14795420Y-10027460D01*
X14795420Y-10027460D02*
X14776372Y-10036984D01*
X14776372Y-10036984D02*
X14728753Y-10036984D01*
X14728753Y-10036984D02*
X14709706Y-10027460D01*
X14709706Y-10027460D02*
X14700182Y-10017936D01*
X14985896Y-9903650D02*
X14985896Y-10036984D01*
X14938277Y-9827460D02*
X14890658Y-9970317D01*
X14890658Y-9970317D02*
X15014467Y-9970317D01*
X15081134Y-9836984D02*
X15081134Y-9875079D01*
X15157325Y-9836984D02*
X15157325Y-9875079D01*
X15452563Y-10113174D02*
X15443039Y-10103650D01*
X15443039Y-10103650D02*
X15423991Y-10075079D01*
X15423991Y-10075079D02*
X15414468Y-10056031D01*
X15414468Y-10056031D02*
X15404944Y-10027460D01*
X15404944Y-10027460D02*
X15395420Y-9979841D01*
X15395420Y-9979841D02*
X15395420Y-9941746D01*
X15395420Y-9941746D02*
X15404944Y-9894127D01*
X15404944Y-9894127D02*
X15414468Y-9865555D01*
X15414468Y-9865555D02*
X15423991Y-9846508D01*
X15423991Y-9846508D02*
X15443039Y-9817936D01*
X15443039Y-9817936D02*
X15452563Y-9808412D01*
X15614468Y-9903650D02*
X15614468Y-10036984D01*
X15566848Y-9827460D02*
X15519229Y-9970317D01*
X15519229Y-9970317D02*
X15643039Y-9970317D01*
X15804944Y-9903650D02*
X15804944Y-10036984D01*
X15757325Y-9827460D02*
X15709706Y-9970317D01*
X15709706Y-9970317D02*
X15833515Y-9970317D01*
X16062087Y-10036984D02*
X16062087Y-9836984D01*
X16147801Y-10036984D02*
X16147801Y-9932222D01*
X16147801Y-9932222D02*
X16138277Y-9913174D01*
X16138277Y-9913174D02*
X16119230Y-9903650D01*
X16119230Y-9903650D02*
X16090658Y-9903650D01*
X16090658Y-9903650D02*
X16071610Y-9913174D01*
X16071610Y-9913174D02*
X16062087Y-9922698D01*
X16271610Y-10036984D02*
X16252563Y-10027460D01*
X16252563Y-10027460D02*
X16243039Y-10017936D01*
X16243039Y-10017936D02*
X16233515Y-9998889D01*
X16233515Y-9998889D02*
X16233515Y-9941746D01*
X16233515Y-9941746D02*
X16243039Y-9922698D01*
X16243039Y-9922698D02*
X16252563Y-9913174D01*
X16252563Y-9913174D02*
X16271610Y-9903650D01*
X16271610Y-9903650D02*
X16300182Y-9903650D01*
X16300182Y-9903650D02*
X16319230Y-9913174D01*
X16319230Y-9913174D02*
X16328753Y-9922698D01*
X16328753Y-9922698D02*
X16338277Y-9941746D01*
X16338277Y-9941746D02*
X16338277Y-9998889D01*
X16338277Y-9998889D02*
X16328753Y-10017936D01*
X16328753Y-10017936D02*
X16319230Y-10027460D01*
X16319230Y-10027460D02*
X16300182Y-10036984D01*
X16300182Y-10036984D02*
X16271610Y-10036984D01*
X16452563Y-10036984D02*
X16433515Y-10027460D01*
X16433515Y-10027460D02*
X16423991Y-10008412D01*
X16423991Y-10008412D02*
X16423991Y-9836984D01*
X16604944Y-10027460D02*
X16585896Y-10036984D01*
X16585896Y-10036984D02*
X16547801Y-10036984D01*
X16547801Y-10036984D02*
X16528753Y-10027460D01*
X16528753Y-10027460D02*
X16519230Y-10008412D01*
X16519230Y-10008412D02*
X16519230Y-9932222D01*
X16519230Y-9932222D02*
X16528753Y-9913174D01*
X16528753Y-9913174D02*
X16547801Y-9903650D01*
X16547801Y-9903650D02*
X16585896Y-9903650D01*
X16585896Y-9903650D02*
X16604944Y-9913174D01*
X16604944Y-9913174D02*
X16614468Y-9932222D01*
X16614468Y-9932222D02*
X16614468Y-9951270D01*
X16614468Y-9951270D02*
X16519230Y-9970317D01*
X16690658Y-10027460D02*
X16709706Y-10036984D01*
X16709706Y-10036984D02*
X16747801Y-10036984D01*
X16747801Y-10036984D02*
X16766849Y-10027460D01*
X16766849Y-10027460D02*
X16776372Y-10008412D01*
X16776372Y-10008412D02*
X16776372Y-9998889D01*
X16776372Y-9998889D02*
X16766849Y-9979841D01*
X16766849Y-9979841D02*
X16747801Y-9970317D01*
X16747801Y-9970317D02*
X16719230Y-9970317D01*
X16719230Y-9970317D02*
X16700182Y-9960793D01*
X16700182Y-9960793D02*
X16690658Y-9941746D01*
X16690658Y-9941746D02*
X16690658Y-9932222D01*
X16690658Y-9932222D02*
X16700182Y-9913174D01*
X16700182Y-9913174D02*
X16719230Y-9903650D01*
X16719230Y-9903650D02*
X16747801Y-9903650D01*
X16747801Y-9903650D02*
X16766849Y-9913174D01*
X16843039Y-10113174D02*
X16852563Y-10103650D01*
X16852563Y-10103650D02*
X16871611Y-10075079D01*
X16871611Y-10075079D02*
X16881134Y-10056031D01*
X16881134Y-10056031D02*
X16890658Y-10027460D01*
X16890658Y-10027460D02*
X16900182Y-9979841D01*
X16900182Y-9979841D02*
X16900182Y-9941746D01*
X16900182Y-9941746D02*
X16890658Y-9894127D01*
X16890658Y-9894127D02*
X16881134Y-9865555D01*
X16881134Y-9865555D02*
X16871611Y-9846508D01*
X16871611Y-9846508D02*
X16852563Y-9817936D01*
X16852563Y-9817936D02*
X16843039Y-9808412D01*
D12*
X11862856Y-10244856D02*
X11862856Y-10174144D01*
X11792144Y-10174144D01*
X11792144Y-10244856D01*
X11862856Y-10244856D01*
D11*
X12243039Y-10300984D02*
X12128753Y-10300984D01*
X12185896Y-10300984D02*
X12185896Y-10100984D01*
X12185896Y-10100984D02*
X12166848Y-10129555D01*
X12166848Y-10129555D02*
X12147801Y-10148603D01*
X12147801Y-10148603D02*
X12128753Y-10158127D01*
X12328753Y-10281936D02*
X12338277Y-10291460D01*
X12338277Y-10291460D02*
X12328753Y-10300984D01*
X12328753Y-10300984D02*
X12319229Y-10291460D01*
X12319229Y-10291460D02*
X12328753Y-10281936D01*
X12328753Y-10281936D02*
X12328753Y-10300984D01*
X12462086Y-10100984D02*
X12481134Y-10100984D01*
X12481134Y-10100984D02*
X12500182Y-10110508D01*
X12500182Y-10110508D02*
X12509705Y-10120031D01*
X12509705Y-10120031D02*
X12519229Y-10139079D01*
X12519229Y-10139079D02*
X12528753Y-10177174D01*
X12528753Y-10177174D02*
X12528753Y-10224793D01*
X12528753Y-10224793D02*
X12519229Y-10262889D01*
X12519229Y-10262889D02*
X12509705Y-10281936D01*
X12509705Y-10281936D02*
X12500182Y-10291460D01*
X12500182Y-10291460D02*
X12481134Y-10300984D01*
X12481134Y-10300984D02*
X12462086Y-10300984D01*
X12462086Y-10300984D02*
X12443039Y-10291460D01*
X12443039Y-10291460D02*
X12433515Y-10281936D01*
X12433515Y-10281936D02*
X12423991Y-10262889D01*
X12423991Y-10262889D02*
X12414467Y-10224793D01*
X12414467Y-10224793D02*
X12414467Y-10177174D01*
X12414467Y-10177174D02*
X12423991Y-10139079D01*
X12423991Y-10139079D02*
X12433515Y-10120031D01*
X12433515Y-10120031D02*
X12443039Y-10110508D01*
X12443039Y-10110508D02*
X12462086Y-10100984D01*
X12652562Y-10100984D02*
X12671610Y-10100984D01*
X12671610Y-10100984D02*
X12690658Y-10110508D01*
X12690658Y-10110508D02*
X12700182Y-10120031D01*
X12700182Y-10120031D02*
X12709705Y-10139079D01*
X12709705Y-10139079D02*
X12719229Y-10177174D01*
X12719229Y-10177174D02*
X12719229Y-10224793D01*
X12719229Y-10224793D02*
X12709705Y-10262889D01*
X12709705Y-10262889D02*
X12700182Y-10281936D01*
X12700182Y-10281936D02*
X12690658Y-10291460D01*
X12690658Y-10291460D02*
X12671610Y-10300984D01*
X12671610Y-10300984D02*
X12652562Y-10300984D01*
X12652562Y-10300984D02*
X12633515Y-10291460D01*
X12633515Y-10291460D02*
X12623991Y-10281936D01*
X12623991Y-10281936D02*
X12614467Y-10262889D01*
X12614467Y-10262889D02*
X12604943Y-10224793D01*
X12604943Y-10224793D02*
X12604943Y-10177174D01*
X12604943Y-10177174D02*
X12614467Y-10139079D01*
X12614467Y-10139079D02*
X12623991Y-10120031D01*
X12623991Y-10120031D02*
X12633515Y-10110508D01*
X12633515Y-10110508D02*
X12652562Y-10100984D01*
X12843039Y-10100984D02*
X12862086Y-10100984D01*
X12862086Y-10100984D02*
X12881134Y-10110508D01*
X12881134Y-10110508D02*
X12890658Y-10120031D01*
X12890658Y-10120031D02*
X12900182Y-10139079D01*
X12900182Y-10139079D02*
X12909705Y-10177174D01*
X12909705Y-10177174D02*
X12909705Y-10224793D01*
X12909705Y-10224793D02*
X12900182Y-10262889D01*
X12900182Y-10262889D02*
X12890658Y-10281936D01*
X12890658Y-10281936D02*
X12881134Y-10291460D01*
X12881134Y-10291460D02*
X12862086Y-10300984D01*
X12862086Y-10300984D02*
X12843039Y-10300984D01*
X12843039Y-10300984D02*
X12823991Y-10291460D01*
X12823991Y-10291460D02*
X12814467Y-10281936D01*
X12814467Y-10281936D02*
X12804943Y-10262889D01*
X12804943Y-10262889D02*
X12795420Y-10224793D01*
X12795420Y-10224793D02*
X12795420Y-10177174D01*
X12795420Y-10177174D02*
X12804943Y-10139079D01*
X12804943Y-10139079D02*
X12814467Y-10120031D01*
X12814467Y-10120031D02*
X12823991Y-10110508D01*
X12823991Y-10110508D02*
X12843039Y-10100984D01*
X12995420Y-10300984D02*
X12995420Y-10167650D01*
X12995420Y-10186698D02*
X13004943Y-10177174D01*
X13004943Y-10177174D02*
X13023991Y-10167650D01*
X13023991Y-10167650D02*
X13052563Y-10167650D01*
X13052563Y-10167650D02*
X13071610Y-10177174D01*
X13071610Y-10177174D02*
X13081134Y-10196222D01*
X13081134Y-10196222D02*
X13081134Y-10300984D01*
X13081134Y-10196222D02*
X13090658Y-10177174D01*
X13090658Y-10177174D02*
X13109705Y-10167650D01*
X13109705Y-10167650D02*
X13138277Y-10167650D01*
X13138277Y-10167650D02*
X13157324Y-10177174D01*
X13157324Y-10177174D02*
X13166848Y-10196222D01*
X13166848Y-10196222D02*
X13166848Y-10300984D01*
X13262086Y-10300984D02*
X13262086Y-10167650D01*
X13262086Y-10186698D02*
X13271610Y-10177174D01*
X13271610Y-10177174D02*
X13290658Y-10167650D01*
X13290658Y-10167650D02*
X13319229Y-10167650D01*
X13319229Y-10167650D02*
X13338277Y-10177174D01*
X13338277Y-10177174D02*
X13347801Y-10196222D01*
X13347801Y-10196222D02*
X13347801Y-10300984D01*
X13347801Y-10196222D02*
X13357324Y-10177174D01*
X13357324Y-10177174D02*
X13376372Y-10167650D01*
X13376372Y-10167650D02*
X13404943Y-10167650D01*
X13404943Y-10167650D02*
X13423991Y-10177174D01*
X13423991Y-10177174D02*
X13433515Y-10196222D01*
X13433515Y-10196222D02*
X13433515Y-10300984D01*
X13823991Y-10091460D02*
X13652563Y-10348603D01*
X14081134Y-10100984D02*
X14100182Y-10100984D01*
X14100182Y-10100984D02*
X14119229Y-10110508D01*
X14119229Y-10110508D02*
X14128753Y-10120031D01*
X14128753Y-10120031D02*
X14138277Y-10139079D01*
X14138277Y-10139079D02*
X14147801Y-10177174D01*
X14147801Y-10177174D02*
X14147801Y-10224793D01*
X14147801Y-10224793D02*
X14138277Y-10262889D01*
X14138277Y-10262889D02*
X14128753Y-10281936D01*
X14128753Y-10281936D02*
X14119229Y-10291460D01*
X14119229Y-10291460D02*
X14100182Y-10300984D01*
X14100182Y-10300984D02*
X14081134Y-10300984D01*
X14081134Y-10300984D02*
X14062086Y-10291460D01*
X14062086Y-10291460D02*
X14052563Y-10281936D01*
X14052563Y-10281936D02*
X14043039Y-10262889D01*
X14043039Y-10262889D02*
X14033515Y-10224793D01*
X14033515Y-10224793D02*
X14033515Y-10177174D01*
X14033515Y-10177174D02*
X14043039Y-10139079D01*
X14043039Y-10139079D02*
X14052563Y-10120031D01*
X14052563Y-10120031D02*
X14062086Y-10110508D01*
X14062086Y-10110508D02*
X14081134Y-10100984D01*
X14233515Y-10281936D02*
X14243039Y-10291460D01*
X14243039Y-10291460D02*
X14233515Y-10300984D01*
X14233515Y-10300984D02*
X14223991Y-10291460D01*
X14223991Y-10291460D02*
X14233515Y-10281936D01*
X14233515Y-10281936D02*
X14233515Y-10300984D01*
X14366848Y-10100984D02*
X14385896Y-10100984D01*
X14385896Y-10100984D02*
X14404944Y-10110508D01*
X14404944Y-10110508D02*
X14414467Y-10120031D01*
X14414467Y-10120031D02*
X14423991Y-10139079D01*
X14423991Y-10139079D02*
X14433515Y-10177174D01*
X14433515Y-10177174D02*
X14433515Y-10224793D01*
X14433515Y-10224793D02*
X14423991Y-10262889D01*
X14423991Y-10262889D02*
X14414467Y-10281936D01*
X14414467Y-10281936D02*
X14404944Y-10291460D01*
X14404944Y-10291460D02*
X14385896Y-10300984D01*
X14385896Y-10300984D02*
X14366848Y-10300984D01*
X14366848Y-10300984D02*
X14347801Y-10291460D01*
X14347801Y-10291460D02*
X14338277Y-10281936D01*
X14338277Y-10281936D02*
X14328753Y-10262889D01*
X14328753Y-10262889D02*
X14319229Y-10224793D01*
X14319229Y-10224793D02*
X14319229Y-10177174D01*
X14319229Y-10177174D02*
X14328753Y-10139079D01*
X14328753Y-10139079D02*
X14338277Y-10120031D01*
X14338277Y-10120031D02*
X14347801Y-10110508D01*
X14347801Y-10110508D02*
X14366848Y-10100984D01*
X14500182Y-10100984D02*
X14623991Y-10100984D01*
X14623991Y-10100984D02*
X14557325Y-10177174D01*
X14557325Y-10177174D02*
X14585896Y-10177174D01*
X14585896Y-10177174D02*
X14604944Y-10186698D01*
X14604944Y-10186698D02*
X14614467Y-10196222D01*
X14614467Y-10196222D02*
X14623991Y-10215270D01*
X14623991Y-10215270D02*
X14623991Y-10262889D01*
X14623991Y-10262889D02*
X14614467Y-10281936D01*
X14614467Y-10281936D02*
X14604944Y-10291460D01*
X14604944Y-10291460D02*
X14585896Y-10300984D01*
X14585896Y-10300984D02*
X14528753Y-10300984D01*
X14528753Y-10300984D02*
X14509706Y-10291460D01*
X14509706Y-10291460D02*
X14500182Y-10281936D01*
X14719229Y-10300984D02*
X14757325Y-10300984D01*
X14757325Y-10300984D02*
X14776372Y-10291460D01*
X14776372Y-10291460D02*
X14785896Y-10281936D01*
X14785896Y-10281936D02*
X14804944Y-10253365D01*
X14804944Y-10253365D02*
X14814467Y-10215270D01*
X14814467Y-10215270D02*
X14814467Y-10139079D01*
X14814467Y-10139079D02*
X14804944Y-10120031D01*
X14804944Y-10120031D02*
X14795420Y-10110508D01*
X14795420Y-10110508D02*
X14776372Y-10100984D01*
X14776372Y-10100984D02*
X14738277Y-10100984D01*
X14738277Y-10100984D02*
X14719229Y-10110508D01*
X14719229Y-10110508D02*
X14709706Y-10120031D01*
X14709706Y-10120031D02*
X14700182Y-10139079D01*
X14700182Y-10139079D02*
X14700182Y-10186698D01*
X14700182Y-10186698D02*
X14709706Y-10205746D01*
X14709706Y-10205746D02*
X14719229Y-10215270D01*
X14719229Y-10215270D02*
X14738277Y-10224793D01*
X14738277Y-10224793D02*
X14776372Y-10224793D01*
X14776372Y-10224793D02*
X14795420Y-10215270D01*
X14795420Y-10215270D02*
X14804944Y-10205746D01*
X14804944Y-10205746D02*
X14814467Y-10186698D01*
X14985896Y-10167650D02*
X14985896Y-10300984D01*
X14938277Y-10091460D02*
X14890658Y-10234317D01*
X14890658Y-10234317D02*
X15014467Y-10234317D01*
X15081134Y-10100984D02*
X15081134Y-10139079D01*
X15157325Y-10100984D02*
X15157325Y-10139079D01*
X15452563Y-10377174D02*
X15443039Y-10367650D01*
X15443039Y-10367650D02*
X15423991Y-10339079D01*
X15423991Y-10339079D02*
X15414468Y-10320031D01*
X15414468Y-10320031D02*
X15404944Y-10291460D01*
X15404944Y-10291460D02*
X15395420Y-10243841D01*
X15395420Y-10243841D02*
X15395420Y-10205746D01*
X15395420Y-10205746D02*
X15404944Y-10158127D01*
X15404944Y-10158127D02*
X15414468Y-10129555D01*
X15414468Y-10129555D02*
X15423991Y-10110508D01*
X15423991Y-10110508D02*
X15443039Y-10081936D01*
X15443039Y-10081936D02*
X15452563Y-10072412D01*
X15557325Y-10186698D02*
X15538277Y-10177174D01*
X15538277Y-10177174D02*
X15528753Y-10167650D01*
X15528753Y-10167650D02*
X15519229Y-10148603D01*
X15519229Y-10148603D02*
X15519229Y-10139079D01*
X15519229Y-10139079D02*
X15528753Y-10120031D01*
X15528753Y-10120031D02*
X15538277Y-10110508D01*
X15538277Y-10110508D02*
X15557325Y-10100984D01*
X15557325Y-10100984D02*
X15595420Y-10100984D01*
X15595420Y-10100984D02*
X15614468Y-10110508D01*
X15614468Y-10110508D02*
X15623991Y-10120031D01*
X15623991Y-10120031D02*
X15633515Y-10139079D01*
X15633515Y-10139079D02*
X15633515Y-10148603D01*
X15633515Y-10148603D02*
X15623991Y-10167650D01*
X15623991Y-10167650D02*
X15614468Y-10177174D01*
X15614468Y-10177174D02*
X15595420Y-10186698D01*
X15595420Y-10186698D02*
X15557325Y-10186698D01*
X15557325Y-10186698D02*
X15538277Y-10196222D01*
X15538277Y-10196222D02*
X15528753Y-10205746D01*
X15528753Y-10205746D02*
X15519229Y-10224793D01*
X15519229Y-10224793D02*
X15519229Y-10262889D01*
X15519229Y-10262889D02*
X15528753Y-10281936D01*
X15528753Y-10281936D02*
X15538277Y-10291460D01*
X15538277Y-10291460D02*
X15557325Y-10300984D01*
X15557325Y-10300984D02*
X15595420Y-10300984D01*
X15595420Y-10300984D02*
X15614468Y-10291460D01*
X15614468Y-10291460D02*
X15623991Y-10281936D01*
X15623991Y-10281936D02*
X15633515Y-10262889D01*
X15633515Y-10262889D02*
X15633515Y-10224793D01*
X15633515Y-10224793D02*
X15623991Y-10205746D01*
X15623991Y-10205746D02*
X15614468Y-10196222D01*
X15614468Y-10196222D02*
X15595420Y-10186698D01*
X15871610Y-10300984D02*
X15871610Y-10100984D01*
X15957325Y-10300984D02*
X15957325Y-10196222D01*
X15957325Y-10196222D02*
X15947801Y-10177174D01*
X15947801Y-10177174D02*
X15928753Y-10167650D01*
X15928753Y-10167650D02*
X15900182Y-10167650D01*
X15900182Y-10167650D02*
X15881134Y-10177174D01*
X15881134Y-10177174D02*
X15871610Y-10186698D01*
X16081134Y-10300984D02*
X16062087Y-10291460D01*
X16062087Y-10291460D02*
X16052563Y-10281936D01*
X16052563Y-10281936D02*
X16043039Y-10262889D01*
X16043039Y-10262889D02*
X16043039Y-10205746D01*
X16043039Y-10205746D02*
X16052563Y-10186698D01*
X16052563Y-10186698D02*
X16062087Y-10177174D01*
X16062087Y-10177174D02*
X16081134Y-10167650D01*
X16081134Y-10167650D02*
X16109706Y-10167650D01*
X16109706Y-10167650D02*
X16128753Y-10177174D01*
X16128753Y-10177174D02*
X16138277Y-10186698D01*
X16138277Y-10186698D02*
X16147801Y-10205746D01*
X16147801Y-10205746D02*
X16147801Y-10262889D01*
X16147801Y-10262889D02*
X16138277Y-10281936D01*
X16138277Y-10281936D02*
X16128753Y-10291460D01*
X16128753Y-10291460D02*
X16109706Y-10300984D01*
X16109706Y-10300984D02*
X16081134Y-10300984D01*
X16262087Y-10300984D02*
X16243039Y-10291460D01*
X16243039Y-10291460D02*
X16233515Y-10272412D01*
X16233515Y-10272412D02*
X16233515Y-10100984D01*
X16414468Y-10291460D02*
X16395420Y-10300984D01*
X16395420Y-10300984D02*
X16357325Y-10300984D01*
X16357325Y-10300984D02*
X16338277Y-10291460D01*
X16338277Y-10291460D02*
X16328753Y-10272412D01*
X16328753Y-10272412D02*
X16328753Y-10196222D01*
X16328753Y-10196222D02*
X16338277Y-10177174D01*
X16338277Y-10177174D02*
X16357325Y-10167650D01*
X16357325Y-10167650D02*
X16395420Y-10167650D01*
X16395420Y-10167650D02*
X16414468Y-10177174D01*
X16414468Y-10177174D02*
X16423991Y-10196222D01*
X16423991Y-10196222D02*
X16423991Y-10215270D01*
X16423991Y-10215270D02*
X16328753Y-10234317D01*
X16500182Y-10291460D02*
X16519230Y-10300984D01*
X16519230Y-10300984D02*
X16557325Y-10300984D01*
X16557325Y-10300984D02*
X16576372Y-10291460D01*
X16576372Y-10291460D02*
X16585896Y-10272412D01*
X16585896Y-10272412D02*
X16585896Y-10262889D01*
X16585896Y-10262889D02*
X16576372Y-10243841D01*
X16576372Y-10243841D02*
X16557325Y-10234317D01*
X16557325Y-10234317D02*
X16528753Y-10234317D01*
X16528753Y-10234317D02*
X16509706Y-10224793D01*
X16509706Y-10224793D02*
X16500182Y-10205746D01*
X16500182Y-10205746D02*
X16500182Y-10196222D01*
X16500182Y-10196222D02*
X16509706Y-10177174D01*
X16509706Y-10177174D02*
X16528753Y-10167650D01*
X16528753Y-10167650D02*
X16557325Y-10167650D01*
X16557325Y-10167650D02*
X16576372Y-10177174D01*
X16652563Y-10377174D02*
X16662087Y-10367650D01*
X16662087Y-10367650D02*
X16681134Y-10339079D01*
X16681134Y-10339079D02*
X16690658Y-10320031D01*
X16690658Y-10320031D02*
X16700182Y-10291460D01*
X16700182Y-10291460D02*
X16709706Y-10243841D01*
X16709706Y-10243841D02*
X16709706Y-10205746D01*
X16709706Y-10205746D02*
X16700182Y-10158127D01*
X16700182Y-10158127D02*
X16690658Y-10129555D01*
X16690658Y-10129555D02*
X16681134Y-10110508D01*
X16681134Y-10110508D02*
X16662087Y-10081936D01*
X16662087Y-10081936D02*
X16652563Y-10072412D01*
D13*
X11822500Y-10528500D02*
X11877500Y-10473500D01*
X11822500Y-10418500D01*
X11767500Y-10473500D01*
X11822500Y-10528500D01*
D11*
X12243039Y-10564984D02*
X12128753Y-10564984D01*
X12185896Y-10564984D02*
X12185896Y-10364984D01*
X12185896Y-10364984D02*
X12166848Y-10393555D01*
X12166848Y-10393555D02*
X12147801Y-10412603D01*
X12147801Y-10412603D02*
X12128753Y-10422127D01*
X12328753Y-10545936D02*
X12338277Y-10555460D01*
X12338277Y-10555460D02*
X12328753Y-10564984D01*
X12328753Y-10564984D02*
X12319229Y-10555460D01*
X12319229Y-10555460D02*
X12328753Y-10545936D01*
X12328753Y-10545936D02*
X12328753Y-10564984D01*
X12528753Y-10564984D02*
X12414467Y-10564984D01*
X12471610Y-10564984D02*
X12471610Y-10364984D01*
X12471610Y-10364984D02*
X12452562Y-10393555D01*
X12452562Y-10393555D02*
X12433515Y-10412603D01*
X12433515Y-10412603D02*
X12414467Y-10422127D01*
X12652562Y-10364984D02*
X12671610Y-10364984D01*
X12671610Y-10364984D02*
X12690658Y-10374508D01*
X12690658Y-10374508D02*
X12700182Y-10384031D01*
X12700182Y-10384031D02*
X12709705Y-10403079D01*
X12709705Y-10403079D02*
X12719229Y-10441174D01*
X12719229Y-10441174D02*
X12719229Y-10488793D01*
X12719229Y-10488793D02*
X12709705Y-10526889D01*
X12709705Y-10526889D02*
X12700182Y-10545936D01*
X12700182Y-10545936D02*
X12690658Y-10555460D01*
X12690658Y-10555460D02*
X12671610Y-10564984D01*
X12671610Y-10564984D02*
X12652562Y-10564984D01*
X12652562Y-10564984D02*
X12633515Y-10555460D01*
X12633515Y-10555460D02*
X12623991Y-10545936D01*
X12623991Y-10545936D02*
X12614467Y-10526889D01*
X12614467Y-10526889D02*
X12604943Y-10488793D01*
X12604943Y-10488793D02*
X12604943Y-10441174D01*
X12604943Y-10441174D02*
X12614467Y-10403079D01*
X12614467Y-10403079D02*
X12623991Y-10384031D01*
X12623991Y-10384031D02*
X12633515Y-10374508D01*
X12633515Y-10374508D02*
X12652562Y-10364984D01*
X12843039Y-10364984D02*
X12862086Y-10364984D01*
X12862086Y-10364984D02*
X12881134Y-10374508D01*
X12881134Y-10374508D02*
X12890658Y-10384031D01*
X12890658Y-10384031D02*
X12900182Y-10403079D01*
X12900182Y-10403079D02*
X12909705Y-10441174D01*
X12909705Y-10441174D02*
X12909705Y-10488793D01*
X12909705Y-10488793D02*
X12900182Y-10526889D01*
X12900182Y-10526889D02*
X12890658Y-10545936D01*
X12890658Y-10545936D02*
X12881134Y-10555460D01*
X12881134Y-10555460D02*
X12862086Y-10564984D01*
X12862086Y-10564984D02*
X12843039Y-10564984D01*
X12843039Y-10564984D02*
X12823991Y-10555460D01*
X12823991Y-10555460D02*
X12814467Y-10545936D01*
X12814467Y-10545936D02*
X12804943Y-10526889D01*
X12804943Y-10526889D02*
X12795420Y-10488793D01*
X12795420Y-10488793D02*
X12795420Y-10441174D01*
X12795420Y-10441174D02*
X12804943Y-10403079D01*
X12804943Y-10403079D02*
X12814467Y-10384031D01*
X12814467Y-10384031D02*
X12823991Y-10374508D01*
X12823991Y-10374508D02*
X12843039Y-10364984D01*
X12995420Y-10564984D02*
X12995420Y-10431650D01*
X12995420Y-10450698D02*
X13004943Y-10441174D01*
X13004943Y-10441174D02*
X13023991Y-10431650D01*
X13023991Y-10431650D02*
X13052563Y-10431650D01*
X13052563Y-10431650D02*
X13071610Y-10441174D01*
X13071610Y-10441174D02*
X13081134Y-10460222D01*
X13081134Y-10460222D02*
X13081134Y-10564984D01*
X13081134Y-10460222D02*
X13090658Y-10441174D01*
X13090658Y-10441174D02*
X13109705Y-10431650D01*
X13109705Y-10431650D02*
X13138277Y-10431650D01*
X13138277Y-10431650D02*
X13157324Y-10441174D01*
X13157324Y-10441174D02*
X13166848Y-10460222D01*
X13166848Y-10460222D02*
X13166848Y-10564984D01*
X13262086Y-10564984D02*
X13262086Y-10431650D01*
X13262086Y-10450698D02*
X13271610Y-10441174D01*
X13271610Y-10441174D02*
X13290658Y-10431650D01*
X13290658Y-10431650D02*
X13319229Y-10431650D01*
X13319229Y-10431650D02*
X13338277Y-10441174D01*
X13338277Y-10441174D02*
X13347801Y-10460222D01*
X13347801Y-10460222D02*
X13347801Y-10564984D01*
X13347801Y-10460222D02*
X13357324Y-10441174D01*
X13357324Y-10441174D02*
X13376372Y-10431650D01*
X13376372Y-10431650D02*
X13404943Y-10431650D01*
X13404943Y-10431650D02*
X13423991Y-10441174D01*
X13423991Y-10441174D02*
X13433515Y-10460222D01*
X13433515Y-10460222D02*
X13433515Y-10564984D01*
X13823991Y-10355460D02*
X13652563Y-10612603D01*
X14081134Y-10364984D02*
X14100182Y-10364984D01*
X14100182Y-10364984D02*
X14119229Y-10374508D01*
X14119229Y-10374508D02*
X14128753Y-10384031D01*
X14128753Y-10384031D02*
X14138277Y-10403079D01*
X14138277Y-10403079D02*
X14147801Y-10441174D01*
X14147801Y-10441174D02*
X14147801Y-10488793D01*
X14147801Y-10488793D02*
X14138277Y-10526889D01*
X14138277Y-10526889D02*
X14128753Y-10545936D01*
X14128753Y-10545936D02*
X14119229Y-10555460D01*
X14119229Y-10555460D02*
X14100182Y-10564984D01*
X14100182Y-10564984D02*
X14081134Y-10564984D01*
X14081134Y-10564984D02*
X14062086Y-10555460D01*
X14062086Y-10555460D02*
X14052563Y-10545936D01*
X14052563Y-10545936D02*
X14043039Y-10526889D01*
X14043039Y-10526889D02*
X14033515Y-10488793D01*
X14033515Y-10488793D02*
X14033515Y-10441174D01*
X14033515Y-10441174D02*
X14043039Y-10403079D01*
X14043039Y-10403079D02*
X14052563Y-10384031D01*
X14052563Y-10384031D02*
X14062086Y-10374508D01*
X14062086Y-10374508D02*
X14081134Y-10364984D01*
X14233515Y-10545936D02*
X14243039Y-10555460D01*
X14243039Y-10555460D02*
X14233515Y-10564984D01*
X14233515Y-10564984D02*
X14223991Y-10555460D01*
X14223991Y-10555460D02*
X14233515Y-10545936D01*
X14233515Y-10545936D02*
X14233515Y-10564984D01*
X14366848Y-10364984D02*
X14385896Y-10364984D01*
X14385896Y-10364984D02*
X14404944Y-10374508D01*
X14404944Y-10374508D02*
X14414467Y-10384031D01*
X14414467Y-10384031D02*
X14423991Y-10403079D01*
X14423991Y-10403079D02*
X14433515Y-10441174D01*
X14433515Y-10441174D02*
X14433515Y-10488793D01*
X14433515Y-10488793D02*
X14423991Y-10526889D01*
X14423991Y-10526889D02*
X14414467Y-10545936D01*
X14414467Y-10545936D02*
X14404944Y-10555460D01*
X14404944Y-10555460D02*
X14385896Y-10564984D01*
X14385896Y-10564984D02*
X14366848Y-10564984D01*
X14366848Y-10564984D02*
X14347801Y-10555460D01*
X14347801Y-10555460D02*
X14338277Y-10545936D01*
X14338277Y-10545936D02*
X14328753Y-10526889D01*
X14328753Y-10526889D02*
X14319229Y-10488793D01*
X14319229Y-10488793D02*
X14319229Y-10441174D01*
X14319229Y-10441174D02*
X14328753Y-10403079D01*
X14328753Y-10403079D02*
X14338277Y-10384031D01*
X14338277Y-10384031D02*
X14347801Y-10374508D01*
X14347801Y-10374508D02*
X14366848Y-10364984D01*
X14604944Y-10431650D02*
X14604944Y-10564984D01*
X14557325Y-10355460D02*
X14509706Y-10498317D01*
X14509706Y-10498317D02*
X14633515Y-10498317D01*
X14690658Y-10364984D02*
X14814467Y-10364984D01*
X14814467Y-10364984D02*
X14747801Y-10441174D01*
X14747801Y-10441174D02*
X14776372Y-10441174D01*
X14776372Y-10441174D02*
X14795420Y-10450698D01*
X14795420Y-10450698D02*
X14804944Y-10460222D01*
X14804944Y-10460222D02*
X14814467Y-10479270D01*
X14814467Y-10479270D02*
X14814467Y-10526889D01*
X14814467Y-10526889D02*
X14804944Y-10545936D01*
X14804944Y-10545936D02*
X14795420Y-10555460D01*
X14795420Y-10555460D02*
X14776372Y-10564984D01*
X14776372Y-10564984D02*
X14719229Y-10564984D01*
X14719229Y-10564984D02*
X14700182Y-10555460D01*
X14700182Y-10555460D02*
X14690658Y-10545936D01*
X14881134Y-10364984D02*
X15004944Y-10364984D01*
X15004944Y-10364984D02*
X14938277Y-10441174D01*
X14938277Y-10441174D02*
X14966848Y-10441174D01*
X14966848Y-10441174D02*
X14985896Y-10450698D01*
X14985896Y-10450698D02*
X14995420Y-10460222D01*
X14995420Y-10460222D02*
X15004944Y-10479270D01*
X15004944Y-10479270D02*
X15004944Y-10526889D01*
X15004944Y-10526889D02*
X14995420Y-10545936D01*
X14995420Y-10545936D02*
X14985896Y-10555460D01*
X14985896Y-10555460D02*
X14966848Y-10564984D01*
X14966848Y-10564984D02*
X14909706Y-10564984D01*
X14909706Y-10564984D02*
X14890658Y-10555460D01*
X14890658Y-10555460D02*
X14881134Y-10545936D01*
X15081134Y-10364984D02*
X15081134Y-10403079D01*
X15157325Y-10364984D02*
X15157325Y-10403079D01*
X15452563Y-10641174D02*
X15443039Y-10631650D01*
X15443039Y-10631650D02*
X15423991Y-10603079D01*
X15423991Y-10603079D02*
X15414468Y-10584031D01*
X15414468Y-10584031D02*
X15404944Y-10555460D01*
X15404944Y-10555460D02*
X15395420Y-10507841D01*
X15395420Y-10507841D02*
X15395420Y-10469746D01*
X15395420Y-10469746D02*
X15404944Y-10422127D01*
X15404944Y-10422127D02*
X15414468Y-10393555D01*
X15414468Y-10393555D02*
X15423991Y-10374508D01*
X15423991Y-10374508D02*
X15443039Y-10345936D01*
X15443039Y-10345936D02*
X15452563Y-10336412D01*
X15614468Y-10431650D02*
X15614468Y-10564984D01*
X15566848Y-10355460D02*
X15519229Y-10498317D01*
X15519229Y-10498317D02*
X15643039Y-10498317D01*
X15804944Y-10431650D02*
X15804944Y-10564984D01*
X15757325Y-10355460D02*
X15709706Y-10498317D01*
X15709706Y-10498317D02*
X15833515Y-10498317D01*
X16062087Y-10564984D02*
X16062087Y-10364984D01*
X16147801Y-10564984D02*
X16147801Y-10460222D01*
X16147801Y-10460222D02*
X16138277Y-10441174D01*
X16138277Y-10441174D02*
X16119230Y-10431650D01*
X16119230Y-10431650D02*
X16090658Y-10431650D01*
X16090658Y-10431650D02*
X16071610Y-10441174D01*
X16071610Y-10441174D02*
X16062087Y-10450698D01*
X16271610Y-10564984D02*
X16252563Y-10555460D01*
X16252563Y-10555460D02*
X16243039Y-10545936D01*
X16243039Y-10545936D02*
X16233515Y-10526889D01*
X16233515Y-10526889D02*
X16233515Y-10469746D01*
X16233515Y-10469746D02*
X16243039Y-10450698D01*
X16243039Y-10450698D02*
X16252563Y-10441174D01*
X16252563Y-10441174D02*
X16271610Y-10431650D01*
X16271610Y-10431650D02*
X16300182Y-10431650D01*
X16300182Y-10431650D02*
X16319230Y-10441174D01*
X16319230Y-10441174D02*
X16328753Y-10450698D01*
X16328753Y-10450698D02*
X16338277Y-10469746D01*
X16338277Y-10469746D02*
X16338277Y-10526889D01*
X16338277Y-10526889D02*
X16328753Y-10545936D01*
X16328753Y-10545936D02*
X16319230Y-10555460D01*
X16319230Y-10555460D02*
X16300182Y-10564984D01*
X16300182Y-10564984D02*
X16271610Y-10564984D01*
X16452563Y-10564984D02*
X16433515Y-10555460D01*
X16433515Y-10555460D02*
X16423991Y-10536412D01*
X16423991Y-10536412D02*
X16423991Y-10364984D01*
X16604944Y-10555460D02*
X16585896Y-10564984D01*
X16585896Y-10564984D02*
X16547801Y-10564984D01*
X16547801Y-10564984D02*
X16528753Y-10555460D01*
X16528753Y-10555460D02*
X16519230Y-10536412D01*
X16519230Y-10536412D02*
X16519230Y-10460222D01*
X16519230Y-10460222D02*
X16528753Y-10441174D01*
X16528753Y-10441174D02*
X16547801Y-10431650D01*
X16547801Y-10431650D02*
X16585896Y-10431650D01*
X16585896Y-10431650D02*
X16604944Y-10441174D01*
X16604944Y-10441174D02*
X16614468Y-10460222D01*
X16614468Y-10460222D02*
X16614468Y-10479270D01*
X16614468Y-10479270D02*
X16519230Y-10498317D01*
X16690658Y-10555460D02*
X16709706Y-10564984D01*
X16709706Y-10564984D02*
X16747801Y-10564984D01*
X16747801Y-10564984D02*
X16766849Y-10555460D01*
X16766849Y-10555460D02*
X16776372Y-10536412D01*
X16776372Y-10536412D02*
X16776372Y-10526889D01*
X16776372Y-10526889D02*
X16766849Y-10507841D01*
X16766849Y-10507841D02*
X16747801Y-10498317D01*
X16747801Y-10498317D02*
X16719230Y-10498317D01*
X16719230Y-10498317D02*
X16700182Y-10488793D01*
X16700182Y-10488793D02*
X16690658Y-10469746D01*
X16690658Y-10469746D02*
X16690658Y-10460222D01*
X16690658Y-10460222D02*
X16700182Y-10441174D01*
X16700182Y-10441174D02*
X16719230Y-10431650D01*
X16719230Y-10431650D02*
X16747801Y-10431650D01*
X16747801Y-10431650D02*
X16766849Y-10441174D01*
X16843039Y-10641174D02*
X16852563Y-10631650D01*
X16852563Y-10631650D02*
X16871611Y-10603079D01*
X16871611Y-10603079D02*
X16881134Y-10584031D01*
X16881134Y-10584031D02*
X16890658Y-10555460D01*
X16890658Y-10555460D02*
X16900182Y-10507841D01*
X16900182Y-10507841D02*
X16900182Y-10469746D01*
X16900182Y-10469746D02*
X16890658Y-10422127D01*
X16890658Y-10422127D02*
X16881134Y-10393555D01*
X16881134Y-10393555D02*
X16871611Y-10374508D01*
X16871611Y-10374508D02*
X16852563Y-10345936D01*
X16852563Y-10345936D02*
X16843039Y-10336412D01*
D14*
X11757500Y-10677500D02*
X11877500Y-10797500D01*
X11877500Y-10677500D02*
X11757500Y-10797500D01*
X11877500Y-10737500D02*
G75*
G02*
X11757500Y-10737500I-60000J0D01*
G01*
X11757500Y-10737500D02*
G75*
G02*
X11877500Y-10737500I60000J0D01*
G01*
D11*
X12243039Y-10828984D02*
X12128753Y-10828984D01*
X12185896Y-10828984D02*
X12185896Y-10628984D01*
X12185896Y-10628984D02*
X12166848Y-10657555D01*
X12166848Y-10657555D02*
X12147801Y-10676603D01*
X12147801Y-10676603D02*
X12128753Y-10686127D01*
X12328753Y-10809936D02*
X12338277Y-10819460D01*
X12338277Y-10819460D02*
X12328753Y-10828984D01*
X12328753Y-10828984D02*
X12319229Y-10819460D01*
X12319229Y-10819460D02*
X12328753Y-10809936D01*
X12328753Y-10809936D02*
X12328753Y-10828984D01*
X12414467Y-10648031D02*
X12423991Y-10638508D01*
X12423991Y-10638508D02*
X12443039Y-10628984D01*
X12443039Y-10628984D02*
X12490658Y-10628984D01*
X12490658Y-10628984D02*
X12509705Y-10638508D01*
X12509705Y-10638508D02*
X12519229Y-10648031D01*
X12519229Y-10648031D02*
X12528753Y-10667079D01*
X12528753Y-10667079D02*
X12528753Y-10686127D01*
X12528753Y-10686127D02*
X12519229Y-10714698D01*
X12519229Y-10714698D02*
X12404943Y-10828984D01*
X12404943Y-10828984D02*
X12528753Y-10828984D01*
X12652562Y-10628984D02*
X12671610Y-10628984D01*
X12671610Y-10628984D02*
X12690658Y-10638508D01*
X12690658Y-10638508D02*
X12700182Y-10648031D01*
X12700182Y-10648031D02*
X12709705Y-10667079D01*
X12709705Y-10667079D02*
X12719229Y-10705174D01*
X12719229Y-10705174D02*
X12719229Y-10752793D01*
X12719229Y-10752793D02*
X12709705Y-10790889D01*
X12709705Y-10790889D02*
X12700182Y-10809936D01*
X12700182Y-10809936D02*
X12690658Y-10819460D01*
X12690658Y-10819460D02*
X12671610Y-10828984D01*
X12671610Y-10828984D02*
X12652562Y-10828984D01*
X12652562Y-10828984D02*
X12633515Y-10819460D01*
X12633515Y-10819460D02*
X12623991Y-10809936D01*
X12623991Y-10809936D02*
X12614467Y-10790889D01*
X12614467Y-10790889D02*
X12604943Y-10752793D01*
X12604943Y-10752793D02*
X12604943Y-10705174D01*
X12604943Y-10705174D02*
X12614467Y-10667079D01*
X12614467Y-10667079D02*
X12623991Y-10648031D01*
X12623991Y-10648031D02*
X12633515Y-10638508D01*
X12633515Y-10638508D02*
X12652562Y-10628984D01*
X12843039Y-10628984D02*
X12862086Y-10628984D01*
X12862086Y-10628984D02*
X12881134Y-10638508D01*
X12881134Y-10638508D02*
X12890658Y-10648031D01*
X12890658Y-10648031D02*
X12900182Y-10667079D01*
X12900182Y-10667079D02*
X12909705Y-10705174D01*
X12909705Y-10705174D02*
X12909705Y-10752793D01*
X12909705Y-10752793D02*
X12900182Y-10790889D01*
X12900182Y-10790889D02*
X12890658Y-10809936D01*
X12890658Y-10809936D02*
X12881134Y-10819460D01*
X12881134Y-10819460D02*
X12862086Y-10828984D01*
X12862086Y-10828984D02*
X12843039Y-10828984D01*
X12843039Y-10828984D02*
X12823991Y-10819460D01*
X12823991Y-10819460D02*
X12814467Y-10809936D01*
X12814467Y-10809936D02*
X12804943Y-10790889D01*
X12804943Y-10790889D02*
X12795420Y-10752793D01*
X12795420Y-10752793D02*
X12795420Y-10705174D01*
X12795420Y-10705174D02*
X12804943Y-10667079D01*
X12804943Y-10667079D02*
X12814467Y-10648031D01*
X12814467Y-10648031D02*
X12823991Y-10638508D01*
X12823991Y-10638508D02*
X12843039Y-10628984D01*
X12995420Y-10828984D02*
X12995420Y-10695650D01*
X12995420Y-10714698D02*
X13004943Y-10705174D01*
X13004943Y-10705174D02*
X13023991Y-10695650D01*
X13023991Y-10695650D02*
X13052563Y-10695650D01*
X13052563Y-10695650D02*
X13071610Y-10705174D01*
X13071610Y-10705174D02*
X13081134Y-10724222D01*
X13081134Y-10724222D02*
X13081134Y-10828984D01*
X13081134Y-10724222D02*
X13090658Y-10705174D01*
X13090658Y-10705174D02*
X13109705Y-10695650D01*
X13109705Y-10695650D02*
X13138277Y-10695650D01*
X13138277Y-10695650D02*
X13157324Y-10705174D01*
X13157324Y-10705174D02*
X13166848Y-10724222D01*
X13166848Y-10724222D02*
X13166848Y-10828984D01*
X13262086Y-10828984D02*
X13262086Y-10695650D01*
X13262086Y-10714698D02*
X13271610Y-10705174D01*
X13271610Y-10705174D02*
X13290658Y-10695650D01*
X13290658Y-10695650D02*
X13319229Y-10695650D01*
X13319229Y-10695650D02*
X13338277Y-10705174D01*
X13338277Y-10705174D02*
X13347801Y-10724222D01*
X13347801Y-10724222D02*
X13347801Y-10828984D01*
X13347801Y-10724222D02*
X13357324Y-10705174D01*
X13357324Y-10705174D02*
X13376372Y-10695650D01*
X13376372Y-10695650D02*
X13404943Y-10695650D01*
X13404943Y-10695650D02*
X13423991Y-10705174D01*
X13423991Y-10705174D02*
X13433515Y-10724222D01*
X13433515Y-10724222D02*
X13433515Y-10828984D01*
X13823991Y-10619460D02*
X13652563Y-10876603D01*
X14081134Y-10628984D02*
X14100182Y-10628984D01*
X14100182Y-10628984D02*
X14119229Y-10638508D01*
X14119229Y-10638508D02*
X14128753Y-10648031D01*
X14128753Y-10648031D02*
X14138277Y-10667079D01*
X14138277Y-10667079D02*
X14147801Y-10705174D01*
X14147801Y-10705174D02*
X14147801Y-10752793D01*
X14147801Y-10752793D02*
X14138277Y-10790889D01*
X14138277Y-10790889D02*
X14128753Y-10809936D01*
X14128753Y-10809936D02*
X14119229Y-10819460D01*
X14119229Y-10819460D02*
X14100182Y-10828984D01*
X14100182Y-10828984D02*
X14081134Y-10828984D01*
X14081134Y-10828984D02*
X14062086Y-10819460D01*
X14062086Y-10819460D02*
X14052563Y-10809936D01*
X14052563Y-10809936D02*
X14043039Y-10790889D01*
X14043039Y-10790889D02*
X14033515Y-10752793D01*
X14033515Y-10752793D02*
X14033515Y-10705174D01*
X14033515Y-10705174D02*
X14043039Y-10667079D01*
X14043039Y-10667079D02*
X14052563Y-10648031D01*
X14052563Y-10648031D02*
X14062086Y-10638508D01*
X14062086Y-10638508D02*
X14081134Y-10628984D01*
X14233515Y-10809936D02*
X14243039Y-10819460D01*
X14243039Y-10819460D02*
X14233515Y-10828984D01*
X14233515Y-10828984D02*
X14223991Y-10819460D01*
X14223991Y-10819460D02*
X14233515Y-10809936D01*
X14233515Y-10809936D02*
X14233515Y-10828984D01*
X14366848Y-10628984D02*
X14385896Y-10628984D01*
X14385896Y-10628984D02*
X14404944Y-10638508D01*
X14404944Y-10638508D02*
X14414467Y-10648031D01*
X14414467Y-10648031D02*
X14423991Y-10667079D01*
X14423991Y-10667079D02*
X14433515Y-10705174D01*
X14433515Y-10705174D02*
X14433515Y-10752793D01*
X14433515Y-10752793D02*
X14423991Y-10790889D01*
X14423991Y-10790889D02*
X14414467Y-10809936D01*
X14414467Y-10809936D02*
X14404944Y-10819460D01*
X14404944Y-10819460D02*
X14385896Y-10828984D01*
X14385896Y-10828984D02*
X14366848Y-10828984D01*
X14366848Y-10828984D02*
X14347801Y-10819460D01*
X14347801Y-10819460D02*
X14338277Y-10809936D01*
X14338277Y-10809936D02*
X14328753Y-10790889D01*
X14328753Y-10790889D02*
X14319229Y-10752793D01*
X14319229Y-10752793D02*
X14319229Y-10705174D01*
X14319229Y-10705174D02*
X14328753Y-10667079D01*
X14328753Y-10667079D02*
X14338277Y-10648031D01*
X14338277Y-10648031D02*
X14347801Y-10638508D01*
X14347801Y-10638508D02*
X14366848Y-10628984D01*
X14604944Y-10695650D02*
X14604944Y-10828984D01*
X14557325Y-10619460D02*
X14509706Y-10762317D01*
X14509706Y-10762317D02*
X14633515Y-10762317D01*
X14690658Y-10628984D02*
X14823991Y-10628984D01*
X14823991Y-10628984D02*
X14738277Y-10828984D01*
X14890658Y-10648031D02*
X14900182Y-10638508D01*
X14900182Y-10638508D02*
X14919229Y-10628984D01*
X14919229Y-10628984D02*
X14966848Y-10628984D01*
X14966848Y-10628984D02*
X14985896Y-10638508D01*
X14985896Y-10638508D02*
X14995420Y-10648031D01*
X14995420Y-10648031D02*
X15004944Y-10667079D01*
X15004944Y-10667079D02*
X15004944Y-10686127D01*
X15004944Y-10686127D02*
X14995420Y-10714698D01*
X14995420Y-10714698D02*
X14881134Y-10828984D01*
X14881134Y-10828984D02*
X15004944Y-10828984D01*
X15081134Y-10628984D02*
X15081134Y-10667079D01*
X15157325Y-10628984D02*
X15157325Y-10667079D01*
X15452563Y-10905174D02*
X15443039Y-10895650D01*
X15443039Y-10895650D02*
X15423991Y-10867079D01*
X15423991Y-10867079D02*
X15414468Y-10848031D01*
X15414468Y-10848031D02*
X15404944Y-10819460D01*
X15404944Y-10819460D02*
X15395420Y-10771841D01*
X15395420Y-10771841D02*
X15395420Y-10733746D01*
X15395420Y-10733746D02*
X15404944Y-10686127D01*
X15404944Y-10686127D02*
X15414468Y-10657555D01*
X15414468Y-10657555D02*
X15423991Y-10638508D01*
X15423991Y-10638508D02*
X15443039Y-10609936D01*
X15443039Y-10609936D02*
X15452563Y-10600412D01*
X15519229Y-10648031D02*
X15528753Y-10638508D01*
X15528753Y-10638508D02*
X15547801Y-10628984D01*
X15547801Y-10628984D02*
X15595420Y-10628984D01*
X15595420Y-10628984D02*
X15614468Y-10638508D01*
X15614468Y-10638508D02*
X15623991Y-10648031D01*
X15623991Y-10648031D02*
X15633515Y-10667079D01*
X15633515Y-10667079D02*
X15633515Y-10686127D01*
X15633515Y-10686127D02*
X15623991Y-10714698D01*
X15623991Y-10714698D02*
X15509706Y-10828984D01*
X15509706Y-10828984D02*
X15633515Y-10828984D01*
X15728753Y-10828984D02*
X15766848Y-10828984D01*
X15766848Y-10828984D02*
X15785896Y-10819460D01*
X15785896Y-10819460D02*
X15795420Y-10809936D01*
X15795420Y-10809936D02*
X15814468Y-10781365D01*
X15814468Y-10781365D02*
X15823991Y-10743270D01*
X15823991Y-10743270D02*
X15823991Y-10667079D01*
X15823991Y-10667079D02*
X15814468Y-10648031D01*
X15814468Y-10648031D02*
X15804944Y-10638508D01*
X15804944Y-10638508D02*
X15785896Y-10628984D01*
X15785896Y-10628984D02*
X15747801Y-10628984D01*
X15747801Y-10628984D02*
X15728753Y-10638508D01*
X15728753Y-10638508D02*
X15719229Y-10648031D01*
X15719229Y-10648031D02*
X15709706Y-10667079D01*
X15709706Y-10667079D02*
X15709706Y-10714698D01*
X15709706Y-10714698D02*
X15719229Y-10733746D01*
X15719229Y-10733746D02*
X15728753Y-10743270D01*
X15728753Y-10743270D02*
X15747801Y-10752793D01*
X15747801Y-10752793D02*
X15785896Y-10752793D01*
X15785896Y-10752793D02*
X15804944Y-10743270D01*
X15804944Y-10743270D02*
X15814468Y-10733746D01*
X15814468Y-10733746D02*
X15823991Y-10714698D01*
X16062087Y-10828984D02*
X16062087Y-10628984D01*
X16147801Y-10828984D02*
X16147801Y-10724222D01*
X16147801Y-10724222D02*
X16138277Y-10705174D01*
X16138277Y-10705174D02*
X16119230Y-10695650D01*
X16119230Y-10695650D02*
X16090658Y-10695650D01*
X16090658Y-10695650D02*
X16071610Y-10705174D01*
X16071610Y-10705174D02*
X16062087Y-10714698D01*
X16271610Y-10828984D02*
X16252563Y-10819460D01*
X16252563Y-10819460D02*
X16243039Y-10809936D01*
X16243039Y-10809936D02*
X16233515Y-10790889D01*
X16233515Y-10790889D02*
X16233515Y-10733746D01*
X16233515Y-10733746D02*
X16243039Y-10714698D01*
X16243039Y-10714698D02*
X16252563Y-10705174D01*
X16252563Y-10705174D02*
X16271610Y-10695650D01*
X16271610Y-10695650D02*
X16300182Y-10695650D01*
X16300182Y-10695650D02*
X16319230Y-10705174D01*
X16319230Y-10705174D02*
X16328753Y-10714698D01*
X16328753Y-10714698D02*
X16338277Y-10733746D01*
X16338277Y-10733746D02*
X16338277Y-10790889D01*
X16338277Y-10790889D02*
X16328753Y-10809936D01*
X16328753Y-10809936D02*
X16319230Y-10819460D01*
X16319230Y-10819460D02*
X16300182Y-10828984D01*
X16300182Y-10828984D02*
X16271610Y-10828984D01*
X16452563Y-10828984D02*
X16433515Y-10819460D01*
X16433515Y-10819460D02*
X16423991Y-10800412D01*
X16423991Y-10800412D02*
X16423991Y-10628984D01*
X16604944Y-10819460D02*
X16585896Y-10828984D01*
X16585896Y-10828984D02*
X16547801Y-10828984D01*
X16547801Y-10828984D02*
X16528753Y-10819460D01*
X16528753Y-10819460D02*
X16519230Y-10800412D01*
X16519230Y-10800412D02*
X16519230Y-10724222D01*
X16519230Y-10724222D02*
X16528753Y-10705174D01*
X16528753Y-10705174D02*
X16547801Y-10695650D01*
X16547801Y-10695650D02*
X16585896Y-10695650D01*
X16585896Y-10695650D02*
X16604944Y-10705174D01*
X16604944Y-10705174D02*
X16614468Y-10724222D01*
X16614468Y-10724222D02*
X16614468Y-10743270D01*
X16614468Y-10743270D02*
X16519230Y-10762317D01*
X16690658Y-10819460D02*
X16709706Y-10828984D01*
X16709706Y-10828984D02*
X16747801Y-10828984D01*
X16747801Y-10828984D02*
X16766849Y-10819460D01*
X16766849Y-10819460D02*
X16776372Y-10800412D01*
X16776372Y-10800412D02*
X16776372Y-10790889D01*
X16776372Y-10790889D02*
X16766849Y-10771841D01*
X16766849Y-10771841D02*
X16747801Y-10762317D01*
X16747801Y-10762317D02*
X16719230Y-10762317D01*
X16719230Y-10762317D02*
X16700182Y-10752793D01*
X16700182Y-10752793D02*
X16690658Y-10733746D01*
X16690658Y-10733746D02*
X16690658Y-10724222D01*
X16690658Y-10724222D02*
X16700182Y-10705174D01*
X16700182Y-10705174D02*
X16719230Y-10695650D01*
X16719230Y-10695650D02*
X16747801Y-10695650D01*
X16747801Y-10695650D02*
X16766849Y-10705174D01*
X16843039Y-10905174D02*
X16852563Y-10895650D01*
X16852563Y-10895650D02*
X16871611Y-10867079D01*
X16871611Y-10867079D02*
X16881134Y-10848031D01*
X16881134Y-10848031D02*
X16890658Y-10819460D01*
X16890658Y-10819460D02*
X16900182Y-10771841D01*
X16900182Y-10771841D02*
X16900182Y-10733746D01*
X16900182Y-10733746D02*
X16890658Y-10686127D01*
X16890658Y-10686127D02*
X16881134Y-10657555D01*
X16881134Y-10657555D02*
X16871611Y-10638508D01*
X16871611Y-10638508D02*
X16852563Y-10609936D01*
X16852563Y-10609936D02*
X16843039Y-10600412D01*
X11677500Y-10901500D02*
X11877500Y-11101500D01*
X11877500Y-10901500D02*
X11677500Y-11101500D01*
X11777500Y-10901500D02*
X11777500Y-11101500D01*
X11677500Y-11001500D02*
X11877500Y-11001500D01*
X12119229Y-10892984D02*
X12243039Y-10892984D01*
X12243039Y-10892984D02*
X12176372Y-10969174D01*
X12176372Y-10969174D02*
X12204943Y-10969174D01*
X12204943Y-10969174D02*
X12223991Y-10978698D01*
X12223991Y-10978698D02*
X12233515Y-10988222D01*
X12233515Y-10988222D02*
X12243039Y-11007270D01*
X12243039Y-11007270D02*
X12243039Y-11054889D01*
X12243039Y-11054889D02*
X12233515Y-11073936D01*
X12233515Y-11073936D02*
X12223991Y-11083460D01*
X12223991Y-11083460D02*
X12204943Y-11092984D01*
X12204943Y-11092984D02*
X12147801Y-11092984D01*
X12147801Y-11092984D02*
X12128753Y-11083460D01*
X12128753Y-11083460D02*
X12119229Y-11073936D01*
X12328753Y-11073936D02*
X12338277Y-11083460D01*
X12338277Y-11083460D02*
X12328753Y-11092984D01*
X12328753Y-11092984D02*
X12319229Y-11083460D01*
X12319229Y-11083460D02*
X12328753Y-11073936D01*
X12328753Y-11073936D02*
X12328753Y-11092984D01*
X12414467Y-10912031D02*
X12423991Y-10902508D01*
X12423991Y-10902508D02*
X12443039Y-10892984D01*
X12443039Y-10892984D02*
X12490658Y-10892984D01*
X12490658Y-10892984D02*
X12509705Y-10902508D01*
X12509705Y-10902508D02*
X12519229Y-10912031D01*
X12519229Y-10912031D02*
X12528753Y-10931079D01*
X12528753Y-10931079D02*
X12528753Y-10950127D01*
X12528753Y-10950127D02*
X12519229Y-10978698D01*
X12519229Y-10978698D02*
X12404943Y-11092984D01*
X12404943Y-11092984D02*
X12528753Y-11092984D01*
X12652562Y-10892984D02*
X12671610Y-10892984D01*
X12671610Y-10892984D02*
X12690658Y-10902508D01*
X12690658Y-10902508D02*
X12700182Y-10912031D01*
X12700182Y-10912031D02*
X12709705Y-10931079D01*
X12709705Y-10931079D02*
X12719229Y-10969174D01*
X12719229Y-10969174D02*
X12719229Y-11016793D01*
X12719229Y-11016793D02*
X12709705Y-11054889D01*
X12709705Y-11054889D02*
X12700182Y-11073936D01*
X12700182Y-11073936D02*
X12690658Y-11083460D01*
X12690658Y-11083460D02*
X12671610Y-11092984D01*
X12671610Y-11092984D02*
X12652562Y-11092984D01*
X12652562Y-11092984D02*
X12633515Y-11083460D01*
X12633515Y-11083460D02*
X12623991Y-11073936D01*
X12623991Y-11073936D02*
X12614467Y-11054889D01*
X12614467Y-11054889D02*
X12604943Y-11016793D01*
X12604943Y-11016793D02*
X12604943Y-10969174D01*
X12604943Y-10969174D02*
X12614467Y-10931079D01*
X12614467Y-10931079D02*
X12623991Y-10912031D01*
X12623991Y-10912031D02*
X12633515Y-10902508D01*
X12633515Y-10902508D02*
X12652562Y-10892984D01*
X12843039Y-10892984D02*
X12862086Y-10892984D01*
X12862086Y-10892984D02*
X12881134Y-10902508D01*
X12881134Y-10902508D02*
X12890658Y-10912031D01*
X12890658Y-10912031D02*
X12900182Y-10931079D01*
X12900182Y-10931079D02*
X12909705Y-10969174D01*
X12909705Y-10969174D02*
X12909705Y-11016793D01*
X12909705Y-11016793D02*
X12900182Y-11054889D01*
X12900182Y-11054889D02*
X12890658Y-11073936D01*
X12890658Y-11073936D02*
X12881134Y-11083460D01*
X12881134Y-11083460D02*
X12862086Y-11092984D01*
X12862086Y-11092984D02*
X12843039Y-11092984D01*
X12843039Y-11092984D02*
X12823991Y-11083460D01*
X12823991Y-11083460D02*
X12814467Y-11073936D01*
X12814467Y-11073936D02*
X12804943Y-11054889D01*
X12804943Y-11054889D02*
X12795420Y-11016793D01*
X12795420Y-11016793D02*
X12795420Y-10969174D01*
X12795420Y-10969174D02*
X12804943Y-10931079D01*
X12804943Y-10931079D02*
X12814467Y-10912031D01*
X12814467Y-10912031D02*
X12823991Y-10902508D01*
X12823991Y-10902508D02*
X12843039Y-10892984D01*
X12995420Y-11092984D02*
X12995420Y-10959650D01*
X12995420Y-10978698D02*
X13004943Y-10969174D01*
X13004943Y-10969174D02*
X13023991Y-10959650D01*
X13023991Y-10959650D02*
X13052563Y-10959650D01*
X13052563Y-10959650D02*
X13071610Y-10969174D01*
X13071610Y-10969174D02*
X13081134Y-10988222D01*
X13081134Y-10988222D02*
X13081134Y-11092984D01*
X13081134Y-10988222D02*
X13090658Y-10969174D01*
X13090658Y-10969174D02*
X13109705Y-10959650D01*
X13109705Y-10959650D02*
X13138277Y-10959650D01*
X13138277Y-10959650D02*
X13157324Y-10969174D01*
X13157324Y-10969174D02*
X13166848Y-10988222D01*
X13166848Y-10988222D02*
X13166848Y-11092984D01*
X13262086Y-11092984D02*
X13262086Y-10959650D01*
X13262086Y-10978698D02*
X13271610Y-10969174D01*
X13271610Y-10969174D02*
X13290658Y-10959650D01*
X13290658Y-10959650D02*
X13319229Y-10959650D01*
X13319229Y-10959650D02*
X13338277Y-10969174D01*
X13338277Y-10969174D02*
X13347801Y-10988222D01*
X13347801Y-10988222D02*
X13347801Y-11092984D01*
X13347801Y-10988222D02*
X13357324Y-10969174D01*
X13357324Y-10969174D02*
X13376372Y-10959650D01*
X13376372Y-10959650D02*
X13404943Y-10959650D01*
X13404943Y-10959650D02*
X13423991Y-10969174D01*
X13423991Y-10969174D02*
X13433515Y-10988222D01*
X13433515Y-10988222D02*
X13433515Y-11092984D01*
X13823991Y-10883460D02*
X13652563Y-11140603D01*
X14081134Y-10892984D02*
X14100182Y-10892984D01*
X14100182Y-10892984D02*
X14119229Y-10902508D01*
X14119229Y-10902508D02*
X14128753Y-10912031D01*
X14128753Y-10912031D02*
X14138277Y-10931079D01*
X14138277Y-10931079D02*
X14147801Y-10969174D01*
X14147801Y-10969174D02*
X14147801Y-11016793D01*
X14147801Y-11016793D02*
X14138277Y-11054889D01*
X14138277Y-11054889D02*
X14128753Y-11073936D01*
X14128753Y-11073936D02*
X14119229Y-11083460D01*
X14119229Y-11083460D02*
X14100182Y-11092984D01*
X14100182Y-11092984D02*
X14081134Y-11092984D01*
X14081134Y-11092984D02*
X14062086Y-11083460D01*
X14062086Y-11083460D02*
X14052563Y-11073936D01*
X14052563Y-11073936D02*
X14043039Y-11054889D01*
X14043039Y-11054889D02*
X14033515Y-11016793D01*
X14033515Y-11016793D02*
X14033515Y-10969174D01*
X14033515Y-10969174D02*
X14043039Y-10931079D01*
X14043039Y-10931079D02*
X14052563Y-10912031D01*
X14052563Y-10912031D02*
X14062086Y-10902508D01*
X14062086Y-10902508D02*
X14081134Y-10892984D01*
X14233515Y-11073936D02*
X14243039Y-11083460D01*
X14243039Y-11083460D02*
X14233515Y-11092984D01*
X14233515Y-11092984D02*
X14223991Y-11083460D01*
X14223991Y-11083460D02*
X14233515Y-11073936D01*
X14233515Y-11073936D02*
X14233515Y-11092984D01*
X14433515Y-11092984D02*
X14319229Y-11092984D01*
X14376372Y-11092984D02*
X14376372Y-10892984D01*
X14376372Y-10892984D02*
X14357325Y-10921555D01*
X14357325Y-10921555D02*
X14338277Y-10940603D01*
X14338277Y-10940603D02*
X14319229Y-10950127D01*
X14509706Y-10912031D02*
X14519229Y-10902508D01*
X14519229Y-10902508D02*
X14538277Y-10892984D01*
X14538277Y-10892984D02*
X14585896Y-10892984D01*
X14585896Y-10892984D02*
X14604944Y-10902508D01*
X14604944Y-10902508D02*
X14614467Y-10912031D01*
X14614467Y-10912031D02*
X14623991Y-10931079D01*
X14623991Y-10931079D02*
X14623991Y-10950127D01*
X14623991Y-10950127D02*
X14614467Y-10978698D01*
X14614467Y-10978698D02*
X14500182Y-11092984D01*
X14500182Y-11092984D02*
X14623991Y-11092984D01*
X14795420Y-10892984D02*
X14757325Y-10892984D01*
X14757325Y-10892984D02*
X14738277Y-10902508D01*
X14738277Y-10902508D02*
X14728753Y-10912031D01*
X14728753Y-10912031D02*
X14709706Y-10940603D01*
X14709706Y-10940603D02*
X14700182Y-10978698D01*
X14700182Y-10978698D02*
X14700182Y-11054889D01*
X14700182Y-11054889D02*
X14709706Y-11073936D01*
X14709706Y-11073936D02*
X14719229Y-11083460D01*
X14719229Y-11083460D02*
X14738277Y-11092984D01*
X14738277Y-11092984D02*
X14776372Y-11092984D01*
X14776372Y-11092984D02*
X14795420Y-11083460D01*
X14795420Y-11083460D02*
X14804944Y-11073936D01*
X14804944Y-11073936D02*
X14814467Y-11054889D01*
X14814467Y-11054889D02*
X14814467Y-11007270D01*
X14814467Y-11007270D02*
X14804944Y-10988222D01*
X14804944Y-10988222D02*
X14795420Y-10978698D01*
X14795420Y-10978698D02*
X14776372Y-10969174D01*
X14776372Y-10969174D02*
X14738277Y-10969174D01*
X14738277Y-10969174D02*
X14719229Y-10978698D01*
X14719229Y-10978698D02*
X14709706Y-10988222D01*
X14709706Y-10988222D02*
X14700182Y-11007270D01*
X14938277Y-10892984D02*
X14957325Y-10892984D01*
X14957325Y-10892984D02*
X14976372Y-10902508D01*
X14976372Y-10902508D02*
X14985896Y-10912031D01*
X14985896Y-10912031D02*
X14995420Y-10931079D01*
X14995420Y-10931079D02*
X15004944Y-10969174D01*
X15004944Y-10969174D02*
X15004944Y-11016793D01*
X15004944Y-11016793D02*
X14995420Y-11054889D01*
X14995420Y-11054889D02*
X14985896Y-11073936D01*
X14985896Y-11073936D02*
X14976372Y-11083460D01*
X14976372Y-11083460D02*
X14957325Y-11092984D01*
X14957325Y-11092984D02*
X14938277Y-11092984D01*
X14938277Y-11092984D02*
X14919229Y-11083460D01*
X14919229Y-11083460D02*
X14909706Y-11073936D01*
X14909706Y-11073936D02*
X14900182Y-11054889D01*
X14900182Y-11054889D02*
X14890658Y-11016793D01*
X14890658Y-11016793D02*
X14890658Y-10969174D01*
X14890658Y-10969174D02*
X14900182Y-10931079D01*
X14900182Y-10931079D02*
X14909706Y-10912031D01*
X14909706Y-10912031D02*
X14919229Y-10902508D01*
X14919229Y-10902508D02*
X14938277Y-10892984D01*
X15081134Y-10892984D02*
X15081134Y-10931079D01*
X15157325Y-10892984D02*
X15157325Y-10931079D01*
X15452563Y-11169174D02*
X15443039Y-11159650D01*
X15443039Y-11159650D02*
X15423991Y-11131079D01*
X15423991Y-11131079D02*
X15414468Y-11112031D01*
X15414468Y-11112031D02*
X15404944Y-11083460D01*
X15404944Y-11083460D02*
X15395420Y-11035841D01*
X15395420Y-11035841D02*
X15395420Y-10997746D01*
X15395420Y-10997746D02*
X15404944Y-10950127D01*
X15404944Y-10950127D02*
X15414468Y-10921555D01*
X15414468Y-10921555D02*
X15423991Y-10902508D01*
X15423991Y-10902508D02*
X15443039Y-10873936D01*
X15443039Y-10873936D02*
X15452563Y-10864412D01*
X15614468Y-10959650D02*
X15614468Y-11092984D01*
X15566848Y-10883460D02*
X15519229Y-11026317D01*
X15519229Y-11026317D02*
X15643039Y-11026317D01*
X15871610Y-11092984D02*
X15871610Y-10892984D01*
X15957325Y-11092984D02*
X15957325Y-10988222D01*
X15957325Y-10988222D02*
X15947801Y-10969174D01*
X15947801Y-10969174D02*
X15928753Y-10959650D01*
X15928753Y-10959650D02*
X15900182Y-10959650D01*
X15900182Y-10959650D02*
X15881134Y-10969174D01*
X15881134Y-10969174D02*
X15871610Y-10978698D01*
X16081134Y-11092984D02*
X16062087Y-11083460D01*
X16062087Y-11083460D02*
X16052563Y-11073936D01*
X16052563Y-11073936D02*
X16043039Y-11054889D01*
X16043039Y-11054889D02*
X16043039Y-10997746D01*
X16043039Y-10997746D02*
X16052563Y-10978698D01*
X16052563Y-10978698D02*
X16062087Y-10969174D01*
X16062087Y-10969174D02*
X16081134Y-10959650D01*
X16081134Y-10959650D02*
X16109706Y-10959650D01*
X16109706Y-10959650D02*
X16128753Y-10969174D01*
X16128753Y-10969174D02*
X16138277Y-10978698D01*
X16138277Y-10978698D02*
X16147801Y-10997746D01*
X16147801Y-10997746D02*
X16147801Y-11054889D01*
X16147801Y-11054889D02*
X16138277Y-11073936D01*
X16138277Y-11073936D02*
X16128753Y-11083460D01*
X16128753Y-11083460D02*
X16109706Y-11092984D01*
X16109706Y-11092984D02*
X16081134Y-11092984D01*
X16262087Y-11092984D02*
X16243039Y-11083460D01*
X16243039Y-11083460D02*
X16233515Y-11064412D01*
X16233515Y-11064412D02*
X16233515Y-10892984D01*
X16414468Y-11083460D02*
X16395420Y-11092984D01*
X16395420Y-11092984D02*
X16357325Y-11092984D01*
X16357325Y-11092984D02*
X16338277Y-11083460D01*
X16338277Y-11083460D02*
X16328753Y-11064412D01*
X16328753Y-11064412D02*
X16328753Y-10988222D01*
X16328753Y-10988222D02*
X16338277Y-10969174D01*
X16338277Y-10969174D02*
X16357325Y-10959650D01*
X16357325Y-10959650D02*
X16395420Y-10959650D01*
X16395420Y-10959650D02*
X16414468Y-10969174D01*
X16414468Y-10969174D02*
X16423991Y-10988222D01*
X16423991Y-10988222D02*
X16423991Y-11007270D01*
X16423991Y-11007270D02*
X16328753Y-11026317D01*
X16500182Y-11083460D02*
X16519230Y-11092984D01*
X16519230Y-11092984D02*
X16557325Y-11092984D01*
X16557325Y-11092984D02*
X16576372Y-11083460D01*
X16576372Y-11083460D02*
X16585896Y-11064412D01*
X16585896Y-11064412D02*
X16585896Y-11054889D01*
X16585896Y-11054889D02*
X16576372Y-11035841D01*
X16576372Y-11035841D02*
X16557325Y-11026317D01*
X16557325Y-11026317D02*
X16528753Y-11026317D01*
X16528753Y-11026317D02*
X16509706Y-11016793D01*
X16509706Y-11016793D02*
X16500182Y-10997746D01*
X16500182Y-10997746D02*
X16500182Y-10988222D01*
X16500182Y-10988222D02*
X16509706Y-10969174D01*
X16509706Y-10969174D02*
X16528753Y-10959650D01*
X16528753Y-10959650D02*
X16557325Y-10959650D01*
X16557325Y-10959650D02*
X16576372Y-10969174D01*
X16652563Y-11169174D02*
X16662087Y-11159650D01*
X16662087Y-11159650D02*
X16681134Y-11131079D01*
X16681134Y-11131079D02*
X16690658Y-11112031D01*
X16690658Y-11112031D02*
X16700182Y-11083460D01*
X16700182Y-11083460D02*
X16709706Y-11035841D01*
X16709706Y-11035841D02*
X16709706Y-10997746D01*
X16709706Y-10997746D02*
X16700182Y-10950127D01*
X16700182Y-10950127D02*
X16690658Y-10921555D01*
X16690658Y-10921555D02*
X16681134Y-10902508D01*
X16681134Y-10902508D02*
X16662087Y-10873936D01*
X16662087Y-10873936D02*
X16652563Y-10864412D01*
M02*
