G04 #@! TF.GenerationSoftware,KiCad,Pcbnew,9.0.1*
G04 #@! TF.CreationDate,2025-06-15T19:26:54+02:00*
G04 #@! TF.ProjectId,piskvorky,7069736b-766f-4726-9b79-2e6b69636164,rev?*
G04 #@! TF.SameCoordinates,Original*
G04 #@! TF.FileFunction,Legend,Top*
G04 #@! TF.FilePolarity,Positive*
%FSLAX46Y46*%
G04 Gerber Fmt 4.6, Leading zero omitted, Abs format (unit mm)*
G04 Created by KiCad (PCBNEW 9.0.1) date 2025-06-15 19:26:54*
%MOMM*%
%LPD*%
G01*
G04 APERTURE LIST*
G04 Aperture macros list*
%AMRoundRect*
0 Rectangle with rounded corners*
0 $1 Rounding radius*
0 $2 $3 $4 $5 $6 $7 $8 $9 X,Y pos of 4 corners*
0 Add a 4 corners polygon primitive as box body*
4,1,4,$2,$3,$4,$5,$6,$7,$8,$9,$2,$3,0*
0 Add four circle primitives for the rounded corners*
1,1,$1+$1,$2,$3*
1,1,$1+$1,$4,$5*
1,1,$1+$1,$6,$7*
1,1,$1+$1,$8,$9*
0 Add four rect primitives between the rounded corners*
20,1,$1+$1,$2,$3,$4,$5,0*
20,1,$1+$1,$4,$5,$6,$7,0*
20,1,$1+$1,$6,$7,$8,$9,0*
20,1,$1+$1,$8,$9,$2,$3,0*%
%AMOutline4P*
0 Free polygon, 4 corners , with rotation*
0 The origin of the aperture is its center*
0 number of corners: always 4*
0 $1 to $8 corner X, Y*
0 $9 Rotation angle, in degrees counterclockwise*
0 create outline with 4 corners*
4,1,4,$1,$2,$3,$4,$5,$6,$7,$8,$1,$2,$9*%
G04 Aperture macros list end*
%ADD10C,0.300000*%
%ADD11C,0.260000*%
%ADD12C,0.150000*%
%ADD13C,0.100000*%
%ADD14C,0.120000*%
%ADD15C,3.250000*%
%ADD16R,1.000000X1.800000*%
%ADD17O,1.000000X1.800000*%
%ADD18C,2.000000*%
%ADD19R,2.000000X2.000000*%
%ADD20C,1.600000*%
%ADD21O,1.600000X1.600000*%
%ADD22R,1.524000X2.400000*%
%ADD23RoundRect,0.250000X0.512000X-0.950000X0.512000X0.950000X-0.512000X0.950000X-0.512000X-0.950000X0*%
%ADD24RoundRect,0.250000X0.950000X0.512000X-0.950000X0.512000X-0.950000X-0.512000X0.950000X-0.512000X0*%
%ADD25RoundRect,0.250000X-0.512000X0.950000X-0.512000X-0.950000X0.512000X-0.950000X0.512000X0.950000X0*%
%ADD26R,1.500000X1.500000*%
%ADD27C,1.500000*%
%ADD28Outline4P,-1.250000X0.762000X1.250000X0.762000X1.250000X-0.762000X-1.250000X-0.762000X0.000000*%
%ADD29RoundRect,0.250000X-1.000000X-0.512000X1.000000X-0.512000X1.000000X0.512000X-1.000000X0.512000X0*%
%ADD30R,1.600000X1.600000*%
%ADD31RoundRect,0.250001X0.949999X0.949999X-0.949999X0.949999X-0.949999X-0.949999X0.949999X-0.949999X0*%
%ADD32C,2.400000*%
G04 APERTURE END LIST*
D10*
X128354510Y-19779400D02*
X129497368Y-19779400D01*
X138754510Y-19779400D02*
X139897368Y-19779400D01*
X139325939Y-20350828D02*
X139325939Y-19207971D01*
D11*
X144456766Y-19958384D02*
X144837718Y-21291718D01*
X144837718Y-21291718D02*
X145218671Y-20339337D01*
X145218671Y-20339337D02*
X145599623Y-21291718D01*
X145599623Y-21291718D02*
X145980575Y-19958384D01*
X146552004Y-19958384D02*
X146932956Y-21291718D01*
X146932956Y-21291718D02*
X147313909Y-20339337D01*
X147313909Y-20339337D02*
X147694861Y-21291718D01*
X147694861Y-21291718D02*
X148075813Y-19958384D01*
X148647242Y-19958384D02*
X149028194Y-21291718D01*
X149028194Y-21291718D02*
X149409147Y-20339337D01*
X149409147Y-20339337D02*
X149790099Y-21291718D01*
X149790099Y-21291718D02*
X150171051Y-19958384D01*
X150932956Y-21101241D02*
X151028194Y-21196480D01*
X151028194Y-21196480D02*
X150932956Y-21291718D01*
X150932956Y-21291718D02*
X150837718Y-21196480D01*
X150837718Y-21196480D02*
X150932956Y-21101241D01*
X150932956Y-21101241D02*
X150932956Y-21291718D01*
X152647242Y-21196480D02*
X152456766Y-21291718D01*
X152456766Y-21291718D02*
X152075813Y-21291718D01*
X152075813Y-21291718D02*
X151885337Y-21196480D01*
X151885337Y-21196480D02*
X151790099Y-21006003D01*
X151790099Y-21006003D02*
X151790099Y-20244099D01*
X151790099Y-20244099D02*
X151885337Y-20053622D01*
X151885337Y-20053622D02*
X152075813Y-19958384D01*
X152075813Y-19958384D02*
X152456766Y-19958384D01*
X152456766Y-19958384D02*
X152647242Y-20053622D01*
X152647242Y-20053622D02*
X152742480Y-20244099D01*
X152742480Y-20244099D02*
X152742480Y-20434575D01*
X152742480Y-20434575D02*
X151790099Y-20625051D01*
X153885337Y-21291718D02*
X153694861Y-21196480D01*
X153694861Y-21196480D02*
X153599623Y-21006003D01*
X153599623Y-21006003D02*
X153599623Y-19291718D01*
X155409147Y-21196480D02*
X155218671Y-21291718D01*
X155218671Y-21291718D02*
X154837718Y-21291718D01*
X154837718Y-21291718D02*
X154647242Y-21196480D01*
X154647242Y-21196480D02*
X154552004Y-21006003D01*
X154552004Y-21006003D02*
X154552004Y-20244099D01*
X154552004Y-20244099D02*
X154647242Y-20053622D01*
X154647242Y-20053622D02*
X154837718Y-19958384D01*
X154837718Y-19958384D02*
X155218671Y-19958384D01*
X155218671Y-19958384D02*
X155409147Y-20053622D01*
X155409147Y-20053622D02*
X155504385Y-20244099D01*
X155504385Y-20244099D02*
X155504385Y-20434575D01*
X155504385Y-20434575D02*
X154552004Y-20625051D01*
X156361528Y-21291718D02*
X156361528Y-19291718D01*
X156552004Y-20529813D02*
X157123433Y-21291718D01*
X157123433Y-19958384D02*
X156361528Y-20720289D01*
X157694862Y-19958384D02*
X158456766Y-19958384D01*
X157980576Y-19291718D02*
X157980576Y-21006003D01*
X157980576Y-21006003D02*
X158075814Y-21196480D01*
X158075814Y-21196480D02*
X158266290Y-21291718D01*
X158266290Y-21291718D02*
X158456766Y-21291718D01*
X159123433Y-21291718D02*
X159123433Y-19958384D01*
X159123433Y-20339337D02*
X159218671Y-20148860D01*
X159218671Y-20148860D02*
X159313909Y-20053622D01*
X159313909Y-20053622D02*
X159504385Y-19958384D01*
X159504385Y-19958384D02*
X159694862Y-19958384D01*
X160647242Y-21291718D02*
X160456766Y-21196480D01*
X160456766Y-21196480D02*
X160361528Y-21101241D01*
X160361528Y-21101241D02*
X160266290Y-20910765D01*
X160266290Y-20910765D02*
X160266290Y-20339337D01*
X160266290Y-20339337D02*
X160361528Y-20148860D01*
X160361528Y-20148860D02*
X160456766Y-20053622D01*
X160456766Y-20053622D02*
X160647242Y-19958384D01*
X160647242Y-19958384D02*
X160932957Y-19958384D01*
X160932957Y-19958384D02*
X161123433Y-20053622D01*
X161123433Y-20053622D02*
X161218671Y-20148860D01*
X161218671Y-20148860D02*
X161313909Y-20339337D01*
X161313909Y-20339337D02*
X161313909Y-20910765D01*
X161313909Y-20910765D02*
X161218671Y-21101241D01*
X161218671Y-21101241D02*
X161123433Y-21196480D01*
X161123433Y-21196480D02*
X160932957Y-21291718D01*
X160932957Y-21291718D02*
X160647242Y-21291718D01*
X162171052Y-21291718D02*
X162171052Y-19291718D01*
X162361528Y-20529813D02*
X162932957Y-21291718D01*
X162932957Y-19958384D02*
X162171052Y-20720289D01*
X163790100Y-21291718D02*
X163790100Y-19958384D01*
X163790100Y-20339337D02*
X163885338Y-20148860D01*
X163885338Y-20148860D02*
X163980576Y-20053622D01*
X163980576Y-20053622D02*
X164171052Y-19958384D01*
X164171052Y-19958384D02*
X164361529Y-19958384D01*
X165313909Y-21291718D02*
X165123433Y-21196480D01*
X165123433Y-21196480D02*
X165028195Y-21101241D01*
X165028195Y-21101241D02*
X164932957Y-20910765D01*
X164932957Y-20910765D02*
X164932957Y-20339337D01*
X164932957Y-20339337D02*
X165028195Y-20148860D01*
X165028195Y-20148860D02*
X165123433Y-20053622D01*
X165123433Y-20053622D02*
X165313909Y-19958384D01*
X165313909Y-19958384D02*
X165599624Y-19958384D01*
X165599624Y-19958384D02*
X165790100Y-20053622D01*
X165790100Y-20053622D02*
X165885338Y-20148860D01*
X165885338Y-20148860D02*
X165980576Y-20339337D01*
X165980576Y-20339337D02*
X165980576Y-20910765D01*
X165980576Y-20910765D02*
X165885338Y-21101241D01*
X165885338Y-21101241D02*
X165790100Y-21196480D01*
X165790100Y-21196480D02*
X165599624Y-21291718D01*
X165599624Y-21291718D02*
X165313909Y-21291718D01*
X167694862Y-19958384D02*
X167694862Y-21291718D01*
X166837719Y-19958384D02*
X166837719Y-21006003D01*
X166837719Y-21006003D02*
X166932957Y-21196480D01*
X166932957Y-21196480D02*
X167123433Y-21291718D01*
X167123433Y-21291718D02*
X167409148Y-21291718D01*
X167409148Y-21291718D02*
X167599624Y-21196480D01*
X167599624Y-21196480D02*
X167694862Y-21101241D01*
X168456767Y-19958384D02*
X169504386Y-19958384D01*
X169504386Y-19958384D02*
X168456767Y-21291718D01*
X168456767Y-21291718D02*
X169504386Y-21291718D01*
X171028196Y-21196480D02*
X170837720Y-21291718D01*
X170837720Y-21291718D02*
X170456767Y-21291718D01*
X170456767Y-21291718D02*
X170266291Y-21196480D01*
X170266291Y-21196480D02*
X170171053Y-21006003D01*
X170171053Y-21006003D02*
X170171053Y-20244099D01*
X170171053Y-20244099D02*
X170266291Y-20053622D01*
X170266291Y-20053622D02*
X170456767Y-19958384D01*
X170456767Y-19958384D02*
X170837720Y-19958384D01*
X170837720Y-19958384D02*
X171028196Y-20053622D01*
X171028196Y-20053622D02*
X171123434Y-20244099D01*
X171123434Y-20244099D02*
X171123434Y-20434575D01*
X171123434Y-20434575D02*
X170171053Y-20625051D01*
X171980577Y-21291718D02*
X171980577Y-19291718D01*
X172171053Y-20529813D02*
X172742482Y-21291718D01*
X172742482Y-19958384D02*
X171980577Y-20720289D01*
X173599625Y-21101241D02*
X173694863Y-21196480D01*
X173694863Y-21196480D02*
X173599625Y-21291718D01*
X173599625Y-21291718D02*
X173504387Y-21196480D01*
X173504387Y-21196480D02*
X173599625Y-21101241D01*
X173599625Y-21101241D02*
X173599625Y-21291718D01*
X175409149Y-21196480D02*
X175218673Y-21291718D01*
X175218673Y-21291718D02*
X174837720Y-21291718D01*
X174837720Y-21291718D02*
X174647244Y-21196480D01*
X174647244Y-21196480D02*
X174552006Y-21101241D01*
X174552006Y-21101241D02*
X174456768Y-20910765D01*
X174456768Y-20910765D02*
X174456768Y-20339337D01*
X174456768Y-20339337D02*
X174552006Y-20148860D01*
X174552006Y-20148860D02*
X174647244Y-20053622D01*
X174647244Y-20053622D02*
X174837720Y-19958384D01*
X174837720Y-19958384D02*
X175218673Y-19958384D01*
X175218673Y-19958384D02*
X175409149Y-20053622D01*
X176075816Y-19958384D02*
X177123435Y-19958384D01*
X177123435Y-19958384D02*
X176075816Y-21291718D01*
X176075816Y-21291718D02*
X177123435Y-21291718D01*
D12*
X150335714Y-73204819D02*
X150335714Y-72204819D01*
X150335714Y-72204819D02*
X150573809Y-72204819D01*
X150573809Y-72204819D02*
X150716666Y-72252438D01*
X150716666Y-72252438D02*
X150811904Y-72347676D01*
X150811904Y-72347676D02*
X150859523Y-72442914D01*
X150859523Y-72442914D02*
X150907142Y-72633390D01*
X150907142Y-72633390D02*
X150907142Y-72776247D01*
X150907142Y-72776247D02*
X150859523Y-72966723D01*
X150859523Y-72966723D02*
X150811904Y-73061961D01*
X150811904Y-73061961D02*
X150716666Y-73157200D01*
X150716666Y-73157200D02*
X150573809Y-73204819D01*
X150573809Y-73204819D02*
X150335714Y-73204819D01*
X151859523Y-73204819D02*
X151288095Y-73204819D01*
X151573809Y-73204819D02*
X151573809Y-72204819D01*
X151573809Y-72204819D02*
X151478571Y-72347676D01*
X151478571Y-72347676D02*
X151383333Y-72442914D01*
X151383333Y-72442914D02*
X151288095Y-72490533D01*
X152478571Y-72204819D02*
X152573809Y-72204819D01*
X152573809Y-72204819D02*
X152669047Y-72252438D01*
X152669047Y-72252438D02*
X152716666Y-72300057D01*
X152716666Y-72300057D02*
X152764285Y-72395295D01*
X152764285Y-72395295D02*
X152811904Y-72585771D01*
X152811904Y-72585771D02*
X152811904Y-72823866D01*
X152811904Y-72823866D02*
X152764285Y-73014342D01*
X152764285Y-73014342D02*
X152716666Y-73109580D01*
X152716666Y-73109580D02*
X152669047Y-73157200D01*
X152669047Y-73157200D02*
X152573809Y-73204819D01*
X152573809Y-73204819D02*
X152478571Y-73204819D01*
X152478571Y-73204819D02*
X152383333Y-73157200D01*
X152383333Y-73157200D02*
X152335714Y-73109580D01*
X152335714Y-73109580D02*
X152288095Y-73014342D01*
X152288095Y-73014342D02*
X152240476Y-72823866D01*
X152240476Y-72823866D02*
X152240476Y-72585771D01*
X152240476Y-72585771D02*
X152288095Y-72395295D01*
X152288095Y-72395295D02*
X152335714Y-72300057D01*
X152335714Y-72300057D02*
X152383333Y-72252438D01*
X152383333Y-72252438D02*
X152478571Y-72204819D01*
X175716667Y-45157200D02*
X175859524Y-45204819D01*
X175859524Y-45204819D02*
X176097619Y-45204819D01*
X176097619Y-45204819D02*
X176192857Y-45157200D01*
X176192857Y-45157200D02*
X176240476Y-45109580D01*
X176240476Y-45109580D02*
X176288095Y-45014342D01*
X176288095Y-45014342D02*
X176288095Y-44919104D01*
X176288095Y-44919104D02*
X176240476Y-44823866D01*
X176240476Y-44823866D02*
X176192857Y-44776247D01*
X176192857Y-44776247D02*
X176097619Y-44728628D01*
X176097619Y-44728628D02*
X175907143Y-44681009D01*
X175907143Y-44681009D02*
X175811905Y-44633390D01*
X175811905Y-44633390D02*
X175764286Y-44585771D01*
X175764286Y-44585771D02*
X175716667Y-44490533D01*
X175716667Y-44490533D02*
X175716667Y-44395295D01*
X175716667Y-44395295D02*
X175764286Y-44300057D01*
X175764286Y-44300057D02*
X175811905Y-44252438D01*
X175811905Y-44252438D02*
X175907143Y-44204819D01*
X175907143Y-44204819D02*
X176145238Y-44204819D01*
X176145238Y-44204819D02*
X176288095Y-44252438D01*
X176621429Y-44204819D02*
X176859524Y-45204819D01*
X176859524Y-45204819D02*
X177050000Y-44490533D01*
X177050000Y-44490533D02*
X177240476Y-45204819D01*
X177240476Y-45204819D02*
X177478572Y-44204819D01*
X178288095Y-44204819D02*
X178097619Y-44204819D01*
X178097619Y-44204819D02*
X178002381Y-44252438D01*
X178002381Y-44252438D02*
X177954762Y-44300057D01*
X177954762Y-44300057D02*
X177859524Y-44442914D01*
X177859524Y-44442914D02*
X177811905Y-44633390D01*
X177811905Y-44633390D02*
X177811905Y-45014342D01*
X177811905Y-45014342D02*
X177859524Y-45109580D01*
X177859524Y-45109580D02*
X177907143Y-45157200D01*
X177907143Y-45157200D02*
X178002381Y-45204819D01*
X178002381Y-45204819D02*
X178192857Y-45204819D01*
X178192857Y-45204819D02*
X178288095Y-45157200D01*
X178288095Y-45157200D02*
X178335714Y-45109580D01*
X178335714Y-45109580D02*
X178383333Y-45014342D01*
X178383333Y-45014342D02*
X178383333Y-44776247D01*
X178383333Y-44776247D02*
X178335714Y-44681009D01*
X178335714Y-44681009D02*
X178288095Y-44633390D01*
X178288095Y-44633390D02*
X178192857Y-44585771D01*
X178192857Y-44585771D02*
X178002381Y-44585771D01*
X178002381Y-44585771D02*
X177907143Y-44633390D01*
X177907143Y-44633390D02*
X177859524Y-44681009D01*
X177859524Y-44681009D02*
X177811905Y-44776247D01*
X183669047Y-66431009D02*
X183811904Y-66478628D01*
X183811904Y-66478628D02*
X183859523Y-66526247D01*
X183859523Y-66526247D02*
X183907142Y-66621485D01*
X183907142Y-66621485D02*
X183907142Y-66764342D01*
X183907142Y-66764342D02*
X183859523Y-66859580D01*
X183859523Y-66859580D02*
X183811904Y-66907200D01*
X183811904Y-66907200D02*
X183716666Y-66954819D01*
X183716666Y-66954819D02*
X183335714Y-66954819D01*
X183335714Y-66954819D02*
X183335714Y-65954819D01*
X183335714Y-65954819D02*
X183669047Y-65954819D01*
X183669047Y-65954819D02*
X183764285Y-66002438D01*
X183764285Y-66002438D02*
X183811904Y-66050057D01*
X183811904Y-66050057D02*
X183859523Y-66145295D01*
X183859523Y-66145295D02*
X183859523Y-66240533D01*
X183859523Y-66240533D02*
X183811904Y-66335771D01*
X183811904Y-66335771D02*
X183764285Y-66383390D01*
X183764285Y-66383390D02*
X183669047Y-66431009D01*
X183669047Y-66431009D02*
X183335714Y-66431009D01*
X184240476Y-65954819D02*
X184907142Y-65954819D01*
X184907142Y-65954819D02*
X184240476Y-66954819D01*
X184240476Y-66954819D02*
X184907142Y-66954819D01*
X185811904Y-66954819D02*
X185240476Y-66954819D01*
X185526190Y-66954819D02*
X185526190Y-65954819D01*
X185526190Y-65954819D02*
X185430952Y-66097676D01*
X185430952Y-66097676D02*
X185335714Y-66192914D01*
X185335714Y-66192914D02*
X185240476Y-66240533D01*
X177109048Y-70783866D02*
X177870953Y-70783866D01*
X177490000Y-71164819D02*
X177490000Y-70402914D01*
X169166905Y-24494819D02*
X169166905Y-23494819D01*
X169166905Y-23494819D02*
X169405000Y-23494819D01*
X169405000Y-23494819D02*
X169547857Y-23542438D01*
X169547857Y-23542438D02*
X169643095Y-23637676D01*
X169643095Y-23637676D02*
X169690714Y-23732914D01*
X169690714Y-23732914D02*
X169738333Y-23923390D01*
X169738333Y-23923390D02*
X169738333Y-24066247D01*
X169738333Y-24066247D02*
X169690714Y-24256723D01*
X169690714Y-24256723D02*
X169643095Y-24351961D01*
X169643095Y-24351961D02*
X169547857Y-24447200D01*
X169547857Y-24447200D02*
X169405000Y-24494819D01*
X169405000Y-24494819D02*
X169166905Y-24494819D01*
X170071667Y-23494819D02*
X170690714Y-23494819D01*
X170690714Y-23494819D02*
X170357381Y-23875771D01*
X170357381Y-23875771D02*
X170500238Y-23875771D01*
X170500238Y-23875771D02*
X170595476Y-23923390D01*
X170595476Y-23923390D02*
X170643095Y-23971009D01*
X170643095Y-23971009D02*
X170690714Y-24066247D01*
X170690714Y-24066247D02*
X170690714Y-24304342D01*
X170690714Y-24304342D02*
X170643095Y-24399580D01*
X170643095Y-24399580D02*
X170595476Y-24447200D01*
X170595476Y-24447200D02*
X170500238Y-24494819D01*
X170500238Y-24494819D02*
X170214524Y-24494819D01*
X170214524Y-24494819D02*
X170119286Y-24447200D01*
X170119286Y-24447200D02*
X170071667Y-24399580D01*
X169633333Y-66834819D02*
X169300000Y-66358628D01*
X169061905Y-66834819D02*
X169061905Y-65834819D01*
X169061905Y-65834819D02*
X169442857Y-65834819D01*
X169442857Y-65834819D02*
X169538095Y-65882438D01*
X169538095Y-65882438D02*
X169585714Y-65930057D01*
X169585714Y-65930057D02*
X169633333Y-66025295D01*
X169633333Y-66025295D02*
X169633333Y-66168152D01*
X169633333Y-66168152D02*
X169585714Y-66263390D01*
X169585714Y-66263390D02*
X169538095Y-66311009D01*
X169538095Y-66311009D02*
X169442857Y-66358628D01*
X169442857Y-66358628D02*
X169061905Y-66358628D01*
X170585714Y-66834819D02*
X170014286Y-66834819D01*
X170300000Y-66834819D02*
X170300000Y-65834819D01*
X170300000Y-65834819D02*
X170204762Y-65977676D01*
X170204762Y-65977676D02*
X170109524Y-66072914D01*
X170109524Y-66072914D02*
X170014286Y-66120533D01*
X154240476Y-78657200D02*
X154383333Y-78704819D01*
X154383333Y-78704819D02*
X154621428Y-78704819D01*
X154621428Y-78704819D02*
X154716666Y-78657200D01*
X154716666Y-78657200D02*
X154764285Y-78609580D01*
X154764285Y-78609580D02*
X154811904Y-78514342D01*
X154811904Y-78514342D02*
X154811904Y-78419104D01*
X154811904Y-78419104D02*
X154764285Y-78323866D01*
X154764285Y-78323866D02*
X154716666Y-78276247D01*
X154716666Y-78276247D02*
X154621428Y-78228628D01*
X154621428Y-78228628D02*
X154430952Y-78181009D01*
X154430952Y-78181009D02*
X154335714Y-78133390D01*
X154335714Y-78133390D02*
X154288095Y-78085771D01*
X154288095Y-78085771D02*
X154240476Y-77990533D01*
X154240476Y-77990533D02*
X154240476Y-77895295D01*
X154240476Y-77895295D02*
X154288095Y-77800057D01*
X154288095Y-77800057D02*
X154335714Y-77752438D01*
X154335714Y-77752438D02*
X154430952Y-77704819D01*
X154430952Y-77704819D02*
X154669047Y-77704819D01*
X154669047Y-77704819D02*
X154811904Y-77752438D01*
X155145238Y-77704819D02*
X155383333Y-78704819D01*
X155383333Y-78704819D02*
X155573809Y-77990533D01*
X155573809Y-77990533D02*
X155764285Y-78704819D01*
X155764285Y-78704819D02*
X156002381Y-77704819D01*
X156907142Y-78704819D02*
X156335714Y-78704819D01*
X156621428Y-78704819D02*
X156621428Y-77704819D01*
X156621428Y-77704819D02*
X156526190Y-77847676D01*
X156526190Y-77847676D02*
X156430952Y-77942914D01*
X156430952Y-77942914D02*
X156335714Y-77990533D01*
X157526190Y-77704819D02*
X157621428Y-77704819D01*
X157621428Y-77704819D02*
X157716666Y-77752438D01*
X157716666Y-77752438D02*
X157764285Y-77800057D01*
X157764285Y-77800057D02*
X157811904Y-77895295D01*
X157811904Y-77895295D02*
X157859523Y-78085771D01*
X157859523Y-78085771D02*
X157859523Y-78323866D01*
X157859523Y-78323866D02*
X157811904Y-78514342D01*
X157811904Y-78514342D02*
X157764285Y-78609580D01*
X157764285Y-78609580D02*
X157716666Y-78657200D01*
X157716666Y-78657200D02*
X157621428Y-78704819D01*
X157621428Y-78704819D02*
X157526190Y-78704819D01*
X157526190Y-78704819D02*
X157430952Y-78657200D01*
X157430952Y-78657200D02*
X157383333Y-78609580D01*
X157383333Y-78609580D02*
X157335714Y-78514342D01*
X157335714Y-78514342D02*
X157288095Y-78323866D01*
X157288095Y-78323866D02*
X157288095Y-78085771D01*
X157288095Y-78085771D02*
X157335714Y-77895295D01*
X157335714Y-77895295D02*
X157383333Y-77800057D01*
X157383333Y-77800057D02*
X157430952Y-77752438D01*
X157430952Y-77752438D02*
X157526190Y-77704819D01*
X161716667Y-59157200D02*
X161859524Y-59204819D01*
X161859524Y-59204819D02*
X162097619Y-59204819D01*
X162097619Y-59204819D02*
X162192857Y-59157200D01*
X162192857Y-59157200D02*
X162240476Y-59109580D01*
X162240476Y-59109580D02*
X162288095Y-59014342D01*
X162288095Y-59014342D02*
X162288095Y-58919104D01*
X162288095Y-58919104D02*
X162240476Y-58823866D01*
X162240476Y-58823866D02*
X162192857Y-58776247D01*
X162192857Y-58776247D02*
X162097619Y-58728628D01*
X162097619Y-58728628D02*
X161907143Y-58681009D01*
X161907143Y-58681009D02*
X161811905Y-58633390D01*
X161811905Y-58633390D02*
X161764286Y-58585771D01*
X161764286Y-58585771D02*
X161716667Y-58490533D01*
X161716667Y-58490533D02*
X161716667Y-58395295D01*
X161716667Y-58395295D02*
X161764286Y-58300057D01*
X161764286Y-58300057D02*
X161811905Y-58252438D01*
X161811905Y-58252438D02*
X161907143Y-58204819D01*
X161907143Y-58204819D02*
X162145238Y-58204819D01*
X162145238Y-58204819D02*
X162288095Y-58252438D01*
X162621429Y-58204819D02*
X162859524Y-59204819D01*
X162859524Y-59204819D02*
X163050000Y-58490533D01*
X163050000Y-58490533D02*
X163240476Y-59204819D01*
X163240476Y-59204819D02*
X163478572Y-58204819D01*
X164002381Y-58633390D02*
X163907143Y-58585771D01*
X163907143Y-58585771D02*
X163859524Y-58538152D01*
X163859524Y-58538152D02*
X163811905Y-58442914D01*
X163811905Y-58442914D02*
X163811905Y-58395295D01*
X163811905Y-58395295D02*
X163859524Y-58300057D01*
X163859524Y-58300057D02*
X163907143Y-58252438D01*
X163907143Y-58252438D02*
X164002381Y-58204819D01*
X164002381Y-58204819D02*
X164192857Y-58204819D01*
X164192857Y-58204819D02*
X164288095Y-58252438D01*
X164288095Y-58252438D02*
X164335714Y-58300057D01*
X164335714Y-58300057D02*
X164383333Y-58395295D01*
X164383333Y-58395295D02*
X164383333Y-58442914D01*
X164383333Y-58442914D02*
X164335714Y-58538152D01*
X164335714Y-58538152D02*
X164288095Y-58585771D01*
X164288095Y-58585771D02*
X164192857Y-58633390D01*
X164192857Y-58633390D02*
X164002381Y-58633390D01*
X164002381Y-58633390D02*
X163907143Y-58681009D01*
X163907143Y-58681009D02*
X163859524Y-58728628D01*
X163859524Y-58728628D02*
X163811905Y-58823866D01*
X163811905Y-58823866D02*
X163811905Y-59014342D01*
X163811905Y-59014342D02*
X163859524Y-59109580D01*
X163859524Y-59109580D02*
X163907143Y-59157200D01*
X163907143Y-59157200D02*
X164002381Y-59204819D01*
X164002381Y-59204819D02*
X164192857Y-59204819D01*
X164192857Y-59204819D02*
X164288095Y-59157200D01*
X164288095Y-59157200D02*
X164335714Y-59109580D01*
X164335714Y-59109580D02*
X164383333Y-59014342D01*
X164383333Y-59014342D02*
X164383333Y-58823866D01*
X164383333Y-58823866D02*
X164335714Y-58728628D01*
X164335714Y-58728628D02*
X164288095Y-58681009D01*
X164288095Y-58681009D02*
X164192857Y-58633390D01*
X147716667Y-59157200D02*
X147859524Y-59204819D01*
X147859524Y-59204819D02*
X148097619Y-59204819D01*
X148097619Y-59204819D02*
X148192857Y-59157200D01*
X148192857Y-59157200D02*
X148240476Y-59109580D01*
X148240476Y-59109580D02*
X148288095Y-59014342D01*
X148288095Y-59014342D02*
X148288095Y-58919104D01*
X148288095Y-58919104D02*
X148240476Y-58823866D01*
X148240476Y-58823866D02*
X148192857Y-58776247D01*
X148192857Y-58776247D02*
X148097619Y-58728628D01*
X148097619Y-58728628D02*
X147907143Y-58681009D01*
X147907143Y-58681009D02*
X147811905Y-58633390D01*
X147811905Y-58633390D02*
X147764286Y-58585771D01*
X147764286Y-58585771D02*
X147716667Y-58490533D01*
X147716667Y-58490533D02*
X147716667Y-58395295D01*
X147716667Y-58395295D02*
X147764286Y-58300057D01*
X147764286Y-58300057D02*
X147811905Y-58252438D01*
X147811905Y-58252438D02*
X147907143Y-58204819D01*
X147907143Y-58204819D02*
X148145238Y-58204819D01*
X148145238Y-58204819D02*
X148288095Y-58252438D01*
X148621429Y-58204819D02*
X148859524Y-59204819D01*
X148859524Y-59204819D02*
X149050000Y-58490533D01*
X149050000Y-58490533D02*
X149240476Y-59204819D01*
X149240476Y-59204819D02*
X149478572Y-58204819D01*
X149764286Y-58204819D02*
X150430952Y-58204819D01*
X150430952Y-58204819D02*
X150002381Y-59204819D01*
X161716667Y-45157200D02*
X161859524Y-45204819D01*
X161859524Y-45204819D02*
X162097619Y-45204819D01*
X162097619Y-45204819D02*
X162192857Y-45157200D01*
X162192857Y-45157200D02*
X162240476Y-45109580D01*
X162240476Y-45109580D02*
X162288095Y-45014342D01*
X162288095Y-45014342D02*
X162288095Y-44919104D01*
X162288095Y-44919104D02*
X162240476Y-44823866D01*
X162240476Y-44823866D02*
X162192857Y-44776247D01*
X162192857Y-44776247D02*
X162097619Y-44728628D01*
X162097619Y-44728628D02*
X161907143Y-44681009D01*
X161907143Y-44681009D02*
X161811905Y-44633390D01*
X161811905Y-44633390D02*
X161764286Y-44585771D01*
X161764286Y-44585771D02*
X161716667Y-44490533D01*
X161716667Y-44490533D02*
X161716667Y-44395295D01*
X161716667Y-44395295D02*
X161764286Y-44300057D01*
X161764286Y-44300057D02*
X161811905Y-44252438D01*
X161811905Y-44252438D02*
X161907143Y-44204819D01*
X161907143Y-44204819D02*
X162145238Y-44204819D01*
X162145238Y-44204819D02*
X162288095Y-44252438D01*
X162621429Y-44204819D02*
X162859524Y-45204819D01*
X162859524Y-45204819D02*
X163050000Y-44490533D01*
X163050000Y-44490533D02*
X163240476Y-45204819D01*
X163240476Y-45204819D02*
X163478572Y-44204819D01*
X164335714Y-44204819D02*
X163859524Y-44204819D01*
X163859524Y-44204819D02*
X163811905Y-44681009D01*
X163811905Y-44681009D02*
X163859524Y-44633390D01*
X163859524Y-44633390D02*
X163954762Y-44585771D01*
X163954762Y-44585771D02*
X164192857Y-44585771D01*
X164192857Y-44585771D02*
X164288095Y-44633390D01*
X164288095Y-44633390D02*
X164335714Y-44681009D01*
X164335714Y-44681009D02*
X164383333Y-44776247D01*
X164383333Y-44776247D02*
X164383333Y-45014342D01*
X164383333Y-45014342D02*
X164335714Y-45109580D01*
X164335714Y-45109580D02*
X164288095Y-45157200D01*
X164288095Y-45157200D02*
X164192857Y-45204819D01*
X164192857Y-45204819D02*
X163954762Y-45204819D01*
X163954762Y-45204819D02*
X163859524Y-45157200D01*
X163859524Y-45157200D02*
X163811905Y-45109580D01*
D13*
X142948095Y-76207419D02*
X142948095Y-77016942D01*
X142948095Y-77016942D02*
X142995714Y-77112180D01*
X142995714Y-77112180D02*
X143043333Y-77159800D01*
X143043333Y-77159800D02*
X143138571Y-77207419D01*
X143138571Y-77207419D02*
X143329047Y-77207419D01*
X143329047Y-77207419D02*
X143424285Y-77159800D01*
X143424285Y-77159800D02*
X143471904Y-77112180D01*
X143471904Y-77112180D02*
X143519523Y-77016942D01*
X143519523Y-77016942D02*
X143519523Y-76207419D01*
X144519523Y-77207419D02*
X143948095Y-77207419D01*
X144233809Y-77207419D02*
X144233809Y-76207419D01*
X144233809Y-76207419D02*
X144138571Y-76350276D01*
X144138571Y-76350276D02*
X144043333Y-76445514D01*
X144043333Y-76445514D02*
X143948095Y-76493133D01*
D12*
X155633333Y-66704819D02*
X155300000Y-66228628D01*
X155061905Y-66704819D02*
X155061905Y-65704819D01*
X155061905Y-65704819D02*
X155442857Y-65704819D01*
X155442857Y-65704819D02*
X155538095Y-65752438D01*
X155538095Y-65752438D02*
X155585714Y-65800057D01*
X155585714Y-65800057D02*
X155633333Y-65895295D01*
X155633333Y-65895295D02*
X155633333Y-66038152D01*
X155633333Y-66038152D02*
X155585714Y-66133390D01*
X155585714Y-66133390D02*
X155538095Y-66181009D01*
X155538095Y-66181009D02*
X155442857Y-66228628D01*
X155442857Y-66228628D02*
X155061905Y-66228628D01*
X156014286Y-65800057D02*
X156061905Y-65752438D01*
X156061905Y-65752438D02*
X156157143Y-65704819D01*
X156157143Y-65704819D02*
X156395238Y-65704819D01*
X156395238Y-65704819D02*
X156490476Y-65752438D01*
X156490476Y-65752438D02*
X156538095Y-65800057D01*
X156538095Y-65800057D02*
X156585714Y-65895295D01*
X156585714Y-65895295D02*
X156585714Y-65990533D01*
X156585714Y-65990533D02*
X156538095Y-66133390D01*
X156538095Y-66133390D02*
X155966667Y-66704819D01*
X155966667Y-66704819D02*
X156585714Y-66704819D01*
X169166905Y-38494819D02*
X169166905Y-37494819D01*
X169166905Y-37494819D02*
X169405000Y-37494819D01*
X169405000Y-37494819D02*
X169547857Y-37542438D01*
X169547857Y-37542438D02*
X169643095Y-37637676D01*
X169643095Y-37637676D02*
X169690714Y-37732914D01*
X169690714Y-37732914D02*
X169738333Y-37923390D01*
X169738333Y-37923390D02*
X169738333Y-38066247D01*
X169738333Y-38066247D02*
X169690714Y-38256723D01*
X169690714Y-38256723D02*
X169643095Y-38351961D01*
X169643095Y-38351961D02*
X169547857Y-38447200D01*
X169547857Y-38447200D02*
X169405000Y-38494819D01*
X169405000Y-38494819D02*
X169166905Y-38494819D01*
X170595476Y-37494819D02*
X170405000Y-37494819D01*
X170405000Y-37494819D02*
X170309762Y-37542438D01*
X170309762Y-37542438D02*
X170262143Y-37590057D01*
X170262143Y-37590057D02*
X170166905Y-37732914D01*
X170166905Y-37732914D02*
X170119286Y-37923390D01*
X170119286Y-37923390D02*
X170119286Y-38304342D01*
X170119286Y-38304342D02*
X170166905Y-38399580D01*
X170166905Y-38399580D02*
X170214524Y-38447200D01*
X170214524Y-38447200D02*
X170309762Y-38494819D01*
X170309762Y-38494819D02*
X170500238Y-38494819D01*
X170500238Y-38494819D02*
X170595476Y-38447200D01*
X170595476Y-38447200D02*
X170643095Y-38399580D01*
X170643095Y-38399580D02*
X170690714Y-38304342D01*
X170690714Y-38304342D02*
X170690714Y-38066247D01*
X170690714Y-38066247D02*
X170643095Y-37971009D01*
X170643095Y-37971009D02*
X170595476Y-37923390D01*
X170595476Y-37923390D02*
X170500238Y-37875771D01*
X170500238Y-37875771D02*
X170309762Y-37875771D01*
X170309762Y-37875771D02*
X170214524Y-37923390D01*
X170214524Y-37923390D02*
X170166905Y-37971009D01*
X170166905Y-37971009D02*
X170119286Y-38066247D01*
X168240476Y-78657200D02*
X168383333Y-78704819D01*
X168383333Y-78704819D02*
X168621428Y-78704819D01*
X168621428Y-78704819D02*
X168716666Y-78657200D01*
X168716666Y-78657200D02*
X168764285Y-78609580D01*
X168764285Y-78609580D02*
X168811904Y-78514342D01*
X168811904Y-78514342D02*
X168811904Y-78419104D01*
X168811904Y-78419104D02*
X168764285Y-78323866D01*
X168764285Y-78323866D02*
X168716666Y-78276247D01*
X168716666Y-78276247D02*
X168621428Y-78228628D01*
X168621428Y-78228628D02*
X168430952Y-78181009D01*
X168430952Y-78181009D02*
X168335714Y-78133390D01*
X168335714Y-78133390D02*
X168288095Y-78085771D01*
X168288095Y-78085771D02*
X168240476Y-77990533D01*
X168240476Y-77990533D02*
X168240476Y-77895295D01*
X168240476Y-77895295D02*
X168288095Y-77800057D01*
X168288095Y-77800057D02*
X168335714Y-77752438D01*
X168335714Y-77752438D02*
X168430952Y-77704819D01*
X168430952Y-77704819D02*
X168669047Y-77704819D01*
X168669047Y-77704819D02*
X168811904Y-77752438D01*
X169145238Y-77704819D02*
X169383333Y-78704819D01*
X169383333Y-78704819D02*
X169573809Y-77990533D01*
X169573809Y-77990533D02*
X169764285Y-78704819D01*
X169764285Y-78704819D02*
X170002381Y-77704819D01*
X170907142Y-78704819D02*
X170335714Y-78704819D01*
X170621428Y-78704819D02*
X170621428Y-77704819D01*
X170621428Y-77704819D02*
X170526190Y-77847676D01*
X170526190Y-77847676D02*
X170430952Y-77942914D01*
X170430952Y-77942914D02*
X170335714Y-77990533D01*
X171859523Y-78704819D02*
X171288095Y-78704819D01*
X171573809Y-78704819D02*
X171573809Y-77704819D01*
X171573809Y-77704819D02*
X171478571Y-77847676D01*
X171478571Y-77847676D02*
X171383333Y-77942914D01*
X171383333Y-77942914D02*
X171288095Y-77990533D01*
X159954761Y-72050057D02*
X159859523Y-72002438D01*
X159859523Y-72002438D02*
X159764285Y-71907200D01*
X159764285Y-71907200D02*
X159621428Y-71764342D01*
X159621428Y-71764342D02*
X159526190Y-71716723D01*
X159526190Y-71716723D02*
X159430952Y-71716723D01*
X159478571Y-71954819D02*
X159383333Y-71907200D01*
X159383333Y-71907200D02*
X159288095Y-71811961D01*
X159288095Y-71811961D02*
X159240476Y-71621485D01*
X159240476Y-71621485D02*
X159240476Y-71288152D01*
X159240476Y-71288152D02*
X159288095Y-71097676D01*
X159288095Y-71097676D02*
X159383333Y-71002438D01*
X159383333Y-71002438D02*
X159478571Y-70954819D01*
X159478571Y-70954819D02*
X159669047Y-70954819D01*
X159669047Y-70954819D02*
X159764285Y-71002438D01*
X159764285Y-71002438D02*
X159859523Y-71097676D01*
X159859523Y-71097676D02*
X159907142Y-71288152D01*
X159907142Y-71288152D02*
X159907142Y-71621485D01*
X159907142Y-71621485D02*
X159859523Y-71811961D01*
X159859523Y-71811961D02*
X159764285Y-71907200D01*
X159764285Y-71907200D02*
X159669047Y-71954819D01*
X159669047Y-71954819D02*
X159478571Y-71954819D01*
X160859523Y-71954819D02*
X160288095Y-71954819D01*
X160573809Y-71954819D02*
X160573809Y-70954819D01*
X160573809Y-70954819D02*
X160478571Y-71097676D01*
X160478571Y-71097676D02*
X160383333Y-71192914D01*
X160383333Y-71192914D02*
X160288095Y-71240533D01*
X155166905Y-24494819D02*
X155166905Y-23494819D01*
X155166905Y-23494819D02*
X155405000Y-23494819D01*
X155405000Y-23494819D02*
X155547857Y-23542438D01*
X155547857Y-23542438D02*
X155643095Y-23637676D01*
X155643095Y-23637676D02*
X155690714Y-23732914D01*
X155690714Y-23732914D02*
X155738333Y-23923390D01*
X155738333Y-23923390D02*
X155738333Y-24066247D01*
X155738333Y-24066247D02*
X155690714Y-24256723D01*
X155690714Y-24256723D02*
X155643095Y-24351961D01*
X155643095Y-24351961D02*
X155547857Y-24447200D01*
X155547857Y-24447200D02*
X155405000Y-24494819D01*
X155405000Y-24494819D02*
X155166905Y-24494819D01*
X156119286Y-23590057D02*
X156166905Y-23542438D01*
X156166905Y-23542438D02*
X156262143Y-23494819D01*
X156262143Y-23494819D02*
X156500238Y-23494819D01*
X156500238Y-23494819D02*
X156595476Y-23542438D01*
X156595476Y-23542438D02*
X156643095Y-23590057D01*
X156643095Y-23590057D02*
X156690714Y-23685295D01*
X156690714Y-23685295D02*
X156690714Y-23780533D01*
X156690714Y-23780533D02*
X156643095Y-23923390D01*
X156643095Y-23923390D02*
X156071667Y-24494819D01*
X156071667Y-24494819D02*
X156690714Y-24494819D01*
X161716667Y-31157200D02*
X161859524Y-31204819D01*
X161859524Y-31204819D02*
X162097619Y-31204819D01*
X162097619Y-31204819D02*
X162192857Y-31157200D01*
X162192857Y-31157200D02*
X162240476Y-31109580D01*
X162240476Y-31109580D02*
X162288095Y-31014342D01*
X162288095Y-31014342D02*
X162288095Y-30919104D01*
X162288095Y-30919104D02*
X162240476Y-30823866D01*
X162240476Y-30823866D02*
X162192857Y-30776247D01*
X162192857Y-30776247D02*
X162097619Y-30728628D01*
X162097619Y-30728628D02*
X161907143Y-30681009D01*
X161907143Y-30681009D02*
X161811905Y-30633390D01*
X161811905Y-30633390D02*
X161764286Y-30585771D01*
X161764286Y-30585771D02*
X161716667Y-30490533D01*
X161716667Y-30490533D02*
X161716667Y-30395295D01*
X161716667Y-30395295D02*
X161764286Y-30300057D01*
X161764286Y-30300057D02*
X161811905Y-30252438D01*
X161811905Y-30252438D02*
X161907143Y-30204819D01*
X161907143Y-30204819D02*
X162145238Y-30204819D01*
X162145238Y-30204819D02*
X162288095Y-30252438D01*
X162621429Y-30204819D02*
X162859524Y-31204819D01*
X162859524Y-31204819D02*
X163050000Y-30490533D01*
X163050000Y-30490533D02*
X163240476Y-31204819D01*
X163240476Y-31204819D02*
X163478572Y-30204819D01*
X163811905Y-30300057D02*
X163859524Y-30252438D01*
X163859524Y-30252438D02*
X163954762Y-30204819D01*
X163954762Y-30204819D02*
X164192857Y-30204819D01*
X164192857Y-30204819D02*
X164288095Y-30252438D01*
X164288095Y-30252438D02*
X164335714Y-30300057D01*
X164335714Y-30300057D02*
X164383333Y-30395295D01*
X164383333Y-30395295D02*
X164383333Y-30490533D01*
X164383333Y-30490533D02*
X164335714Y-30633390D01*
X164335714Y-30633390D02*
X163764286Y-31204819D01*
X163764286Y-31204819D02*
X164383333Y-31204819D01*
D13*
X121150595Y-41844919D02*
X121150595Y-42654442D01*
X121150595Y-42654442D02*
X121198214Y-42749680D01*
X121198214Y-42749680D02*
X121245833Y-42797300D01*
X121245833Y-42797300D02*
X121341071Y-42844919D01*
X121341071Y-42844919D02*
X121531547Y-42844919D01*
X121531547Y-42844919D02*
X121626785Y-42797300D01*
X121626785Y-42797300D02*
X121674404Y-42749680D01*
X121674404Y-42749680D02*
X121722023Y-42654442D01*
X121722023Y-42654442D02*
X121722023Y-41844919D01*
X122150595Y-41940157D02*
X122198214Y-41892538D01*
X122198214Y-41892538D02*
X122293452Y-41844919D01*
X122293452Y-41844919D02*
X122531547Y-41844919D01*
X122531547Y-41844919D02*
X122626785Y-41892538D01*
X122626785Y-41892538D02*
X122674404Y-41940157D01*
X122674404Y-41940157D02*
X122722023Y-42035395D01*
X122722023Y-42035395D02*
X122722023Y-42130633D01*
X122722023Y-42130633D02*
X122674404Y-42273490D01*
X122674404Y-42273490D02*
X122102976Y-42844919D01*
X122102976Y-42844919D02*
X122722023Y-42844919D01*
D12*
X134979024Y-48408567D02*
X133979024Y-48408567D01*
X133979024Y-48408567D02*
X133979024Y-48170472D01*
X133979024Y-48170472D02*
X134026643Y-48027615D01*
X134026643Y-48027615D02*
X134121881Y-47932377D01*
X134121881Y-47932377D02*
X134217119Y-47884758D01*
X134217119Y-47884758D02*
X134407595Y-47837139D01*
X134407595Y-47837139D02*
X134550452Y-47837139D01*
X134550452Y-47837139D02*
X134740928Y-47884758D01*
X134740928Y-47884758D02*
X134836166Y-47932377D01*
X134836166Y-47932377D02*
X134931405Y-48027615D01*
X134931405Y-48027615D02*
X134979024Y-48170472D01*
X134979024Y-48170472D02*
X134979024Y-48408567D01*
X134979024Y-46884758D02*
X134979024Y-47456186D01*
X134979024Y-47170472D02*
X133979024Y-47170472D01*
X133979024Y-47170472D02*
X134121881Y-47265710D01*
X134121881Y-47265710D02*
X134217119Y-47360948D01*
X134217119Y-47360948D02*
X134264738Y-47456186D01*
X134074262Y-46503805D02*
X134026643Y-46456186D01*
X134026643Y-46456186D02*
X133979024Y-46360948D01*
X133979024Y-46360948D02*
X133979024Y-46122853D01*
X133979024Y-46122853D02*
X134026643Y-46027615D01*
X134026643Y-46027615D02*
X134074262Y-45979996D01*
X134074262Y-45979996D02*
X134169500Y-45932377D01*
X134169500Y-45932377D02*
X134264738Y-45932377D01*
X134264738Y-45932377D02*
X134407595Y-45979996D01*
X134407595Y-45979996D02*
X134979024Y-46551424D01*
X134979024Y-46551424D02*
X134979024Y-45932377D01*
X135299024Y-51266186D02*
X134299024Y-51266186D01*
X135299024Y-50694758D02*
X134727595Y-51123329D01*
X134299024Y-50694758D02*
X134870452Y-51266186D01*
X147716667Y-31157200D02*
X147859524Y-31204819D01*
X147859524Y-31204819D02*
X148097619Y-31204819D01*
X148097619Y-31204819D02*
X148192857Y-31157200D01*
X148192857Y-31157200D02*
X148240476Y-31109580D01*
X148240476Y-31109580D02*
X148288095Y-31014342D01*
X148288095Y-31014342D02*
X148288095Y-30919104D01*
X148288095Y-30919104D02*
X148240476Y-30823866D01*
X148240476Y-30823866D02*
X148192857Y-30776247D01*
X148192857Y-30776247D02*
X148097619Y-30728628D01*
X148097619Y-30728628D02*
X147907143Y-30681009D01*
X147907143Y-30681009D02*
X147811905Y-30633390D01*
X147811905Y-30633390D02*
X147764286Y-30585771D01*
X147764286Y-30585771D02*
X147716667Y-30490533D01*
X147716667Y-30490533D02*
X147716667Y-30395295D01*
X147716667Y-30395295D02*
X147764286Y-30300057D01*
X147764286Y-30300057D02*
X147811905Y-30252438D01*
X147811905Y-30252438D02*
X147907143Y-30204819D01*
X147907143Y-30204819D02*
X148145238Y-30204819D01*
X148145238Y-30204819D02*
X148288095Y-30252438D01*
X148621429Y-30204819D02*
X148859524Y-31204819D01*
X148859524Y-31204819D02*
X149050000Y-30490533D01*
X149050000Y-30490533D02*
X149240476Y-31204819D01*
X149240476Y-31204819D02*
X149478572Y-30204819D01*
X150383333Y-31204819D02*
X149811905Y-31204819D01*
X150097619Y-31204819D02*
X150097619Y-30204819D01*
X150097619Y-30204819D02*
X150002381Y-30347676D01*
X150002381Y-30347676D02*
X149907143Y-30442914D01*
X149907143Y-30442914D02*
X149811905Y-30490533D01*
X175716667Y-31157200D02*
X175859524Y-31204819D01*
X175859524Y-31204819D02*
X176097619Y-31204819D01*
X176097619Y-31204819D02*
X176192857Y-31157200D01*
X176192857Y-31157200D02*
X176240476Y-31109580D01*
X176240476Y-31109580D02*
X176288095Y-31014342D01*
X176288095Y-31014342D02*
X176288095Y-30919104D01*
X176288095Y-30919104D02*
X176240476Y-30823866D01*
X176240476Y-30823866D02*
X176192857Y-30776247D01*
X176192857Y-30776247D02*
X176097619Y-30728628D01*
X176097619Y-30728628D02*
X175907143Y-30681009D01*
X175907143Y-30681009D02*
X175811905Y-30633390D01*
X175811905Y-30633390D02*
X175764286Y-30585771D01*
X175764286Y-30585771D02*
X175716667Y-30490533D01*
X175716667Y-30490533D02*
X175716667Y-30395295D01*
X175716667Y-30395295D02*
X175764286Y-30300057D01*
X175764286Y-30300057D02*
X175811905Y-30252438D01*
X175811905Y-30252438D02*
X175907143Y-30204819D01*
X175907143Y-30204819D02*
X176145238Y-30204819D01*
X176145238Y-30204819D02*
X176288095Y-30252438D01*
X176621429Y-30204819D02*
X176859524Y-31204819D01*
X176859524Y-31204819D02*
X177050000Y-30490533D01*
X177050000Y-30490533D02*
X177240476Y-31204819D01*
X177240476Y-31204819D02*
X177478572Y-30204819D01*
X177764286Y-30204819D02*
X178383333Y-30204819D01*
X178383333Y-30204819D02*
X178050000Y-30585771D01*
X178050000Y-30585771D02*
X178192857Y-30585771D01*
X178192857Y-30585771D02*
X178288095Y-30633390D01*
X178288095Y-30633390D02*
X178335714Y-30681009D01*
X178335714Y-30681009D02*
X178383333Y-30776247D01*
X178383333Y-30776247D02*
X178383333Y-31014342D01*
X178383333Y-31014342D02*
X178335714Y-31109580D01*
X178335714Y-31109580D02*
X178288095Y-31157200D01*
X178288095Y-31157200D02*
X178192857Y-31204819D01*
X178192857Y-31204819D02*
X177907143Y-31204819D01*
X177907143Y-31204819D02*
X177811905Y-31157200D01*
X177811905Y-31157200D02*
X177764286Y-31109580D01*
X141166905Y-24494819D02*
X141166905Y-23494819D01*
X141166905Y-23494819D02*
X141405000Y-23494819D01*
X141405000Y-23494819D02*
X141547857Y-23542438D01*
X141547857Y-23542438D02*
X141643095Y-23637676D01*
X141643095Y-23637676D02*
X141690714Y-23732914D01*
X141690714Y-23732914D02*
X141738333Y-23923390D01*
X141738333Y-23923390D02*
X141738333Y-24066247D01*
X141738333Y-24066247D02*
X141690714Y-24256723D01*
X141690714Y-24256723D02*
X141643095Y-24351961D01*
X141643095Y-24351961D02*
X141547857Y-24447200D01*
X141547857Y-24447200D02*
X141405000Y-24494819D01*
X141405000Y-24494819D02*
X141166905Y-24494819D01*
X142690714Y-24494819D02*
X142119286Y-24494819D01*
X142405000Y-24494819D02*
X142405000Y-23494819D01*
X142405000Y-23494819D02*
X142309762Y-23637676D01*
X142309762Y-23637676D02*
X142214524Y-23732914D01*
X142214524Y-23732914D02*
X142119286Y-23780533D01*
X155166905Y-38494819D02*
X155166905Y-37494819D01*
X155166905Y-37494819D02*
X155405000Y-37494819D01*
X155405000Y-37494819D02*
X155547857Y-37542438D01*
X155547857Y-37542438D02*
X155643095Y-37637676D01*
X155643095Y-37637676D02*
X155690714Y-37732914D01*
X155690714Y-37732914D02*
X155738333Y-37923390D01*
X155738333Y-37923390D02*
X155738333Y-38066247D01*
X155738333Y-38066247D02*
X155690714Y-38256723D01*
X155690714Y-38256723D02*
X155643095Y-38351961D01*
X155643095Y-38351961D02*
X155547857Y-38447200D01*
X155547857Y-38447200D02*
X155405000Y-38494819D01*
X155405000Y-38494819D02*
X155166905Y-38494819D01*
X156643095Y-37494819D02*
X156166905Y-37494819D01*
X156166905Y-37494819D02*
X156119286Y-37971009D01*
X156119286Y-37971009D02*
X156166905Y-37923390D01*
X156166905Y-37923390D02*
X156262143Y-37875771D01*
X156262143Y-37875771D02*
X156500238Y-37875771D01*
X156500238Y-37875771D02*
X156595476Y-37923390D01*
X156595476Y-37923390D02*
X156643095Y-37971009D01*
X156643095Y-37971009D02*
X156690714Y-38066247D01*
X156690714Y-38066247D02*
X156690714Y-38304342D01*
X156690714Y-38304342D02*
X156643095Y-38399580D01*
X156643095Y-38399580D02*
X156595476Y-38447200D01*
X156595476Y-38447200D02*
X156500238Y-38494819D01*
X156500238Y-38494819D02*
X156262143Y-38494819D01*
X156262143Y-38494819D02*
X156166905Y-38447200D01*
X156166905Y-38447200D02*
X156119286Y-38399580D01*
D13*
X126990476Y-44159800D02*
X127133333Y-44207419D01*
X127133333Y-44207419D02*
X127371428Y-44207419D01*
X127371428Y-44207419D02*
X127466666Y-44159800D01*
X127466666Y-44159800D02*
X127514285Y-44112180D01*
X127514285Y-44112180D02*
X127561904Y-44016942D01*
X127561904Y-44016942D02*
X127561904Y-43921704D01*
X127561904Y-43921704D02*
X127514285Y-43826466D01*
X127514285Y-43826466D02*
X127466666Y-43778847D01*
X127466666Y-43778847D02*
X127371428Y-43731228D01*
X127371428Y-43731228D02*
X127180952Y-43683609D01*
X127180952Y-43683609D02*
X127085714Y-43635990D01*
X127085714Y-43635990D02*
X127038095Y-43588371D01*
X127038095Y-43588371D02*
X126990476Y-43493133D01*
X126990476Y-43493133D02*
X126990476Y-43397895D01*
X126990476Y-43397895D02*
X127038095Y-43302657D01*
X127038095Y-43302657D02*
X127085714Y-43255038D01*
X127085714Y-43255038D02*
X127180952Y-43207419D01*
X127180952Y-43207419D02*
X127419047Y-43207419D01*
X127419047Y-43207419D02*
X127561904Y-43255038D01*
X127895238Y-43207419D02*
X128133333Y-44207419D01*
X128133333Y-44207419D02*
X128323809Y-43493133D01*
X128323809Y-43493133D02*
X128514285Y-44207419D01*
X128514285Y-44207419D02*
X128752381Y-43207419D01*
X129657142Y-44207419D02*
X129085714Y-44207419D01*
X129371428Y-44207419D02*
X129371428Y-43207419D01*
X129371428Y-43207419D02*
X129276190Y-43350276D01*
X129276190Y-43350276D02*
X129180952Y-43445514D01*
X129180952Y-43445514D02*
X129085714Y-43493133D01*
X130038095Y-43302657D02*
X130085714Y-43255038D01*
X130085714Y-43255038D02*
X130180952Y-43207419D01*
X130180952Y-43207419D02*
X130419047Y-43207419D01*
X130419047Y-43207419D02*
X130514285Y-43255038D01*
X130514285Y-43255038D02*
X130561904Y-43302657D01*
X130561904Y-43302657D02*
X130609523Y-43397895D01*
X130609523Y-43397895D02*
X130609523Y-43493133D01*
X130609523Y-43493133D02*
X130561904Y-43635990D01*
X130561904Y-43635990D02*
X129990476Y-44207419D01*
X129990476Y-44207419D02*
X130609523Y-44207419D01*
D12*
X141166905Y-38494819D02*
X141166905Y-37494819D01*
X141166905Y-37494819D02*
X141405000Y-37494819D01*
X141405000Y-37494819D02*
X141547857Y-37542438D01*
X141547857Y-37542438D02*
X141643095Y-37637676D01*
X141643095Y-37637676D02*
X141690714Y-37732914D01*
X141690714Y-37732914D02*
X141738333Y-37923390D01*
X141738333Y-37923390D02*
X141738333Y-38066247D01*
X141738333Y-38066247D02*
X141690714Y-38256723D01*
X141690714Y-38256723D02*
X141643095Y-38351961D01*
X141643095Y-38351961D02*
X141547857Y-38447200D01*
X141547857Y-38447200D02*
X141405000Y-38494819D01*
X141405000Y-38494819D02*
X141166905Y-38494819D01*
X142595476Y-37828152D02*
X142595476Y-38494819D01*
X142357381Y-37447200D02*
X142119286Y-38161485D01*
X142119286Y-38161485D02*
X142738333Y-38161485D01*
X175716667Y-59157200D02*
X175859524Y-59204819D01*
X175859524Y-59204819D02*
X176097619Y-59204819D01*
X176097619Y-59204819D02*
X176192857Y-59157200D01*
X176192857Y-59157200D02*
X176240476Y-59109580D01*
X176240476Y-59109580D02*
X176288095Y-59014342D01*
X176288095Y-59014342D02*
X176288095Y-58919104D01*
X176288095Y-58919104D02*
X176240476Y-58823866D01*
X176240476Y-58823866D02*
X176192857Y-58776247D01*
X176192857Y-58776247D02*
X176097619Y-58728628D01*
X176097619Y-58728628D02*
X175907143Y-58681009D01*
X175907143Y-58681009D02*
X175811905Y-58633390D01*
X175811905Y-58633390D02*
X175764286Y-58585771D01*
X175764286Y-58585771D02*
X175716667Y-58490533D01*
X175716667Y-58490533D02*
X175716667Y-58395295D01*
X175716667Y-58395295D02*
X175764286Y-58300057D01*
X175764286Y-58300057D02*
X175811905Y-58252438D01*
X175811905Y-58252438D02*
X175907143Y-58204819D01*
X175907143Y-58204819D02*
X176145238Y-58204819D01*
X176145238Y-58204819D02*
X176288095Y-58252438D01*
X176621429Y-58204819D02*
X176859524Y-59204819D01*
X176859524Y-59204819D02*
X177050000Y-58490533D01*
X177050000Y-58490533D02*
X177240476Y-59204819D01*
X177240476Y-59204819D02*
X177478572Y-58204819D01*
X177907143Y-59204819D02*
X178097619Y-59204819D01*
X178097619Y-59204819D02*
X178192857Y-59157200D01*
X178192857Y-59157200D02*
X178240476Y-59109580D01*
X178240476Y-59109580D02*
X178335714Y-58966723D01*
X178335714Y-58966723D02*
X178383333Y-58776247D01*
X178383333Y-58776247D02*
X178383333Y-58395295D01*
X178383333Y-58395295D02*
X178335714Y-58300057D01*
X178335714Y-58300057D02*
X178288095Y-58252438D01*
X178288095Y-58252438D02*
X178192857Y-58204819D01*
X178192857Y-58204819D02*
X178002381Y-58204819D01*
X178002381Y-58204819D02*
X177907143Y-58252438D01*
X177907143Y-58252438D02*
X177859524Y-58300057D01*
X177859524Y-58300057D02*
X177811905Y-58395295D01*
X177811905Y-58395295D02*
X177811905Y-58633390D01*
X177811905Y-58633390D02*
X177859524Y-58728628D01*
X177859524Y-58728628D02*
X177907143Y-58776247D01*
X177907143Y-58776247D02*
X178002381Y-58823866D01*
X178002381Y-58823866D02*
X178192857Y-58823866D01*
X178192857Y-58823866D02*
X178288095Y-58776247D01*
X178288095Y-58776247D02*
X178335714Y-58728628D01*
X178335714Y-58728628D02*
X178383333Y-58633390D01*
X147716667Y-45157200D02*
X147859524Y-45204819D01*
X147859524Y-45204819D02*
X148097619Y-45204819D01*
X148097619Y-45204819D02*
X148192857Y-45157200D01*
X148192857Y-45157200D02*
X148240476Y-45109580D01*
X148240476Y-45109580D02*
X148288095Y-45014342D01*
X148288095Y-45014342D02*
X148288095Y-44919104D01*
X148288095Y-44919104D02*
X148240476Y-44823866D01*
X148240476Y-44823866D02*
X148192857Y-44776247D01*
X148192857Y-44776247D02*
X148097619Y-44728628D01*
X148097619Y-44728628D02*
X147907143Y-44681009D01*
X147907143Y-44681009D02*
X147811905Y-44633390D01*
X147811905Y-44633390D02*
X147764286Y-44585771D01*
X147764286Y-44585771D02*
X147716667Y-44490533D01*
X147716667Y-44490533D02*
X147716667Y-44395295D01*
X147716667Y-44395295D02*
X147764286Y-44300057D01*
X147764286Y-44300057D02*
X147811905Y-44252438D01*
X147811905Y-44252438D02*
X147907143Y-44204819D01*
X147907143Y-44204819D02*
X148145238Y-44204819D01*
X148145238Y-44204819D02*
X148288095Y-44252438D01*
X148621429Y-44204819D02*
X148859524Y-45204819D01*
X148859524Y-45204819D02*
X149050000Y-44490533D01*
X149050000Y-44490533D02*
X149240476Y-45204819D01*
X149240476Y-45204819D02*
X149478572Y-44204819D01*
X150288095Y-44538152D02*
X150288095Y-45204819D01*
X150050000Y-44157200D02*
X149811905Y-44871485D01*
X149811905Y-44871485D02*
X150430952Y-44871485D01*
X155166905Y-52494819D02*
X155166905Y-51494819D01*
X155166905Y-51494819D02*
X155405000Y-51494819D01*
X155405000Y-51494819D02*
X155547857Y-51542438D01*
X155547857Y-51542438D02*
X155643095Y-51637676D01*
X155643095Y-51637676D02*
X155690714Y-51732914D01*
X155690714Y-51732914D02*
X155738333Y-51923390D01*
X155738333Y-51923390D02*
X155738333Y-52066247D01*
X155738333Y-52066247D02*
X155690714Y-52256723D01*
X155690714Y-52256723D02*
X155643095Y-52351961D01*
X155643095Y-52351961D02*
X155547857Y-52447200D01*
X155547857Y-52447200D02*
X155405000Y-52494819D01*
X155405000Y-52494819D02*
X155166905Y-52494819D01*
X156309762Y-51923390D02*
X156214524Y-51875771D01*
X156214524Y-51875771D02*
X156166905Y-51828152D01*
X156166905Y-51828152D02*
X156119286Y-51732914D01*
X156119286Y-51732914D02*
X156119286Y-51685295D01*
X156119286Y-51685295D02*
X156166905Y-51590057D01*
X156166905Y-51590057D02*
X156214524Y-51542438D01*
X156214524Y-51542438D02*
X156309762Y-51494819D01*
X156309762Y-51494819D02*
X156500238Y-51494819D01*
X156500238Y-51494819D02*
X156595476Y-51542438D01*
X156595476Y-51542438D02*
X156643095Y-51590057D01*
X156643095Y-51590057D02*
X156690714Y-51685295D01*
X156690714Y-51685295D02*
X156690714Y-51732914D01*
X156690714Y-51732914D02*
X156643095Y-51828152D01*
X156643095Y-51828152D02*
X156595476Y-51875771D01*
X156595476Y-51875771D02*
X156500238Y-51923390D01*
X156500238Y-51923390D02*
X156309762Y-51923390D01*
X156309762Y-51923390D02*
X156214524Y-51971009D01*
X156214524Y-51971009D02*
X156166905Y-52018628D01*
X156166905Y-52018628D02*
X156119286Y-52113866D01*
X156119286Y-52113866D02*
X156119286Y-52304342D01*
X156119286Y-52304342D02*
X156166905Y-52399580D01*
X156166905Y-52399580D02*
X156214524Y-52447200D01*
X156214524Y-52447200D02*
X156309762Y-52494819D01*
X156309762Y-52494819D02*
X156500238Y-52494819D01*
X156500238Y-52494819D02*
X156595476Y-52447200D01*
X156595476Y-52447200D02*
X156643095Y-52399580D01*
X156643095Y-52399580D02*
X156690714Y-52304342D01*
X156690714Y-52304342D02*
X156690714Y-52113866D01*
X156690714Y-52113866D02*
X156643095Y-52018628D01*
X156643095Y-52018628D02*
X156595476Y-51971009D01*
X156595476Y-51971009D02*
X156500238Y-51923390D01*
X133716666Y-25954819D02*
X133716666Y-26669104D01*
X133716666Y-26669104D02*
X133669047Y-26811961D01*
X133669047Y-26811961D02*
X133573809Y-26907200D01*
X133573809Y-26907200D02*
X133430952Y-26954819D01*
X133430952Y-26954819D02*
X133335714Y-26954819D01*
X134716666Y-26954819D02*
X134145238Y-26954819D01*
X134430952Y-26954819D02*
X134430952Y-25954819D01*
X134430952Y-25954819D02*
X134335714Y-26097676D01*
X134335714Y-26097676D02*
X134240476Y-26192914D01*
X134240476Y-26192914D02*
X134145238Y-26240533D01*
X172835714Y-76204819D02*
X172835714Y-75204819D01*
X172835714Y-75204819D02*
X173073809Y-75204819D01*
X173073809Y-75204819D02*
X173216666Y-75252438D01*
X173216666Y-75252438D02*
X173311904Y-75347676D01*
X173311904Y-75347676D02*
X173359523Y-75442914D01*
X173359523Y-75442914D02*
X173407142Y-75633390D01*
X173407142Y-75633390D02*
X173407142Y-75776247D01*
X173407142Y-75776247D02*
X173359523Y-75966723D01*
X173359523Y-75966723D02*
X173311904Y-76061961D01*
X173311904Y-76061961D02*
X173216666Y-76157200D01*
X173216666Y-76157200D02*
X173073809Y-76204819D01*
X173073809Y-76204819D02*
X172835714Y-76204819D01*
X174359523Y-76204819D02*
X173788095Y-76204819D01*
X174073809Y-76204819D02*
X174073809Y-75204819D01*
X174073809Y-75204819D02*
X173978571Y-75347676D01*
X173978571Y-75347676D02*
X173883333Y-75442914D01*
X173883333Y-75442914D02*
X173788095Y-75490533D01*
X175311904Y-76204819D02*
X174740476Y-76204819D01*
X175026190Y-76204819D02*
X175026190Y-75204819D01*
X175026190Y-75204819D02*
X174930952Y-75347676D01*
X174930952Y-75347676D02*
X174835714Y-75442914D01*
X174835714Y-75442914D02*
X174740476Y-75490533D01*
X169166905Y-52494819D02*
X169166905Y-51494819D01*
X169166905Y-51494819D02*
X169405000Y-51494819D01*
X169405000Y-51494819D02*
X169547857Y-51542438D01*
X169547857Y-51542438D02*
X169643095Y-51637676D01*
X169643095Y-51637676D02*
X169690714Y-51732914D01*
X169690714Y-51732914D02*
X169738333Y-51923390D01*
X169738333Y-51923390D02*
X169738333Y-52066247D01*
X169738333Y-52066247D02*
X169690714Y-52256723D01*
X169690714Y-52256723D02*
X169643095Y-52351961D01*
X169643095Y-52351961D02*
X169547857Y-52447200D01*
X169547857Y-52447200D02*
X169405000Y-52494819D01*
X169405000Y-52494819D02*
X169166905Y-52494819D01*
X170214524Y-52494819D02*
X170405000Y-52494819D01*
X170405000Y-52494819D02*
X170500238Y-52447200D01*
X170500238Y-52447200D02*
X170547857Y-52399580D01*
X170547857Y-52399580D02*
X170643095Y-52256723D01*
X170643095Y-52256723D02*
X170690714Y-52066247D01*
X170690714Y-52066247D02*
X170690714Y-51685295D01*
X170690714Y-51685295D02*
X170643095Y-51590057D01*
X170643095Y-51590057D02*
X170595476Y-51542438D01*
X170595476Y-51542438D02*
X170500238Y-51494819D01*
X170500238Y-51494819D02*
X170309762Y-51494819D01*
X170309762Y-51494819D02*
X170214524Y-51542438D01*
X170214524Y-51542438D02*
X170166905Y-51590057D01*
X170166905Y-51590057D02*
X170119286Y-51685295D01*
X170119286Y-51685295D02*
X170119286Y-51923390D01*
X170119286Y-51923390D02*
X170166905Y-52018628D01*
X170166905Y-52018628D02*
X170214524Y-52066247D01*
X170214524Y-52066247D02*
X170309762Y-52113866D01*
X170309762Y-52113866D02*
X170500238Y-52113866D01*
X170500238Y-52113866D02*
X170595476Y-52066247D01*
X170595476Y-52066247D02*
X170643095Y-52018628D01*
X170643095Y-52018628D02*
X170690714Y-51923390D01*
X141166905Y-52494819D02*
X141166905Y-51494819D01*
X141166905Y-51494819D02*
X141405000Y-51494819D01*
X141405000Y-51494819D02*
X141547857Y-51542438D01*
X141547857Y-51542438D02*
X141643095Y-51637676D01*
X141643095Y-51637676D02*
X141690714Y-51732914D01*
X141690714Y-51732914D02*
X141738333Y-51923390D01*
X141738333Y-51923390D02*
X141738333Y-52066247D01*
X141738333Y-52066247D02*
X141690714Y-52256723D01*
X141690714Y-52256723D02*
X141643095Y-52351961D01*
X141643095Y-52351961D02*
X141547857Y-52447200D01*
X141547857Y-52447200D02*
X141405000Y-52494819D01*
X141405000Y-52494819D02*
X141166905Y-52494819D01*
X142071667Y-51494819D02*
X142738333Y-51494819D01*
X142738333Y-51494819D02*
X142309762Y-52494819D01*
D14*
X153145000Y-72205000D02*
X153145000Y-72670000D01*
X153145000Y-74830000D02*
X153145000Y-75295000D01*
X153145000Y-72205170D02*
G75*
G02*
X158493107Y-72669925I2560000J-1544830D01*
G01*
X153450316Y-72670000D02*
G75*
G02*
X157959656Y-72669941I2254684J-1080000D01*
G01*
X157959656Y-74830059D02*
G75*
G02*
X153450316Y-74830000I-2254656J1080059D01*
G01*
X158493107Y-74830075D02*
G75*
G02*
X153145000Y-75294830I-2788107J1080075D01*
G01*
X173550000Y-48250000D02*
X173550000Y-49750000D01*
X174800000Y-52250000D02*
X179300000Y-52250000D01*
X179300000Y-45750000D02*
X174800000Y-45750000D01*
X180550000Y-49750000D02*
X180550000Y-48250000D01*
X187400000Y-73250000D02*
G75*
G02*
X175200000Y-73250000I-6100000J0D01*
G01*
X175200000Y-73250000D02*
G75*
G02*
X187400000Y-73250000I6100000J0D01*
G01*
X167345000Y-26455000D02*
X167345000Y-26920000D01*
X167345000Y-29080000D02*
X167345000Y-29545000D01*
X167345000Y-26455170D02*
G75*
G02*
X172693107Y-26919925I2560000J-1544830D01*
G01*
X167650316Y-26920000D02*
G75*
G02*
X172159656Y-26919941I2254684J-1080000D01*
G01*
X172159656Y-29080059D02*
G75*
G02*
X167650316Y-29080000I-2254656J1080059D01*
G01*
X172693107Y-29080075D02*
G75*
G02*
X167345000Y-29544830I-2788107J1080075D01*
G01*
X166530000Y-67380000D02*
X173070000Y-67380000D01*
X166530000Y-67710000D02*
X166530000Y-67380000D01*
X166530000Y-69790000D02*
X166530000Y-70120000D01*
X166530000Y-70120000D02*
X173070000Y-70120000D01*
X173070000Y-67380000D02*
X173070000Y-67710000D01*
X173070000Y-70120000D02*
X173070000Y-69790000D01*
X152550000Y-81750000D02*
X152550000Y-83250000D01*
X153800000Y-85750000D02*
X158300000Y-85750000D01*
X158300000Y-79250000D02*
X153800000Y-79250000D01*
X159550000Y-83250000D02*
X159550000Y-81750000D01*
X159550000Y-62250000D02*
X159550000Y-63750000D01*
X160800000Y-66250000D02*
X165300000Y-66250000D01*
X165300000Y-59750000D02*
X160800000Y-59750000D01*
X166550000Y-63750000D02*
X166550000Y-62250000D01*
X145550000Y-62250000D02*
X145550000Y-63750000D01*
X146800000Y-66250000D02*
X151300000Y-66250000D01*
X151300000Y-59750000D02*
X146800000Y-59750000D01*
X152550000Y-63750000D02*
X152550000Y-62250000D01*
X159550000Y-48250000D02*
X159550000Y-49750000D01*
X160800000Y-52250000D02*
X165300000Y-52250000D01*
X165300000Y-45750000D02*
X160800000Y-45750000D01*
X166550000Y-49750000D02*
X166550000Y-48250000D01*
X151780000Y-67380000D02*
X151780000Y-67710000D01*
X151780000Y-70120000D02*
X151780000Y-69790000D01*
X158320000Y-67380000D02*
X151780000Y-67380000D01*
X158320000Y-67710000D02*
X158320000Y-67380000D01*
X158320000Y-69790000D02*
X158320000Y-70120000D01*
X158320000Y-70120000D02*
X151780000Y-70120000D01*
X167345000Y-40455000D02*
X167345000Y-40920000D01*
X167345000Y-43080000D02*
X167345000Y-43545000D01*
X167345000Y-40455170D02*
G75*
G02*
X172693107Y-40919925I2560000J-1544830D01*
G01*
X167650316Y-40920000D02*
G75*
G02*
X172159656Y-40919941I2254684J-1080000D01*
G01*
X172159656Y-43080059D02*
G75*
G02*
X167650316Y-43080000I-2254656J1080059D01*
G01*
X172693107Y-43080075D02*
G75*
G02*
X167345000Y-43544830I-2788107J1080075D01*
G01*
X166550000Y-81750000D02*
X166550000Y-83250000D01*
X167800000Y-85750000D02*
X172300000Y-85750000D01*
X172300000Y-79250000D02*
X167800000Y-79250000D01*
X173550000Y-83250000D02*
X173550000Y-81750000D01*
X164900000Y-76050000D02*
X164900000Y-72450000D01*
X160450000Y-74250000D02*
G75*
G02*
X161951193Y-71893600I2600000J0D01*
G01*
X161951193Y-76606400D02*
G75*
G02*
X160450000Y-74250000I1098807J2356400D01*
G01*
X164172795Y-71925816D02*
G75*
G02*
X164900000Y-72450000I-1122795J-2324184D01*
G01*
X164900000Y-76050000D02*
G75*
G02*
X164172795Y-76574184I-1850000J1800000D01*
G01*
X153345000Y-26455000D02*
X153345000Y-26920000D01*
X153345000Y-29080000D02*
X153345000Y-29545000D01*
X153345000Y-26455170D02*
G75*
G02*
X158693107Y-26919925I2560000J-1544830D01*
G01*
X153650316Y-26920000D02*
G75*
G02*
X158159656Y-26919941I2254684J-1080000D01*
G01*
X158159656Y-29080059D02*
G75*
G02*
X153650316Y-29080000I-2254656J1080059D01*
G01*
X158693107Y-29080075D02*
G75*
G02*
X153345000Y-29544830I-2788107J1080075D01*
G01*
X159550000Y-34250000D02*
X159550000Y-35750000D01*
X160800000Y-38250000D02*
X165300000Y-38250000D01*
X165300000Y-31750000D02*
X160800000Y-31750000D01*
X166550000Y-35750000D02*
X166550000Y-34250000D01*
X135524205Y-45074282D02*
X135524205Y-49314282D01*
X135524205Y-48474282D02*
X137764205Y-48474282D01*
X135524205Y-48594282D02*
X137764205Y-48594282D01*
X135524205Y-48714282D02*
X137764205Y-48714282D01*
X135524205Y-49314282D02*
X137764205Y-49314282D01*
X136644205Y-44424282D02*
X136644205Y-45074282D01*
X136644205Y-49964282D02*
X136644205Y-49314282D01*
X137764205Y-45074282D02*
X135524205Y-45074282D01*
X137764205Y-49314282D02*
X137764205Y-45074282D01*
X145550000Y-34250000D02*
X145550000Y-35750000D01*
X146800000Y-38250000D02*
X151300000Y-38250000D01*
X151300000Y-31750000D02*
X146800000Y-31750000D01*
X152550000Y-35750000D02*
X152550000Y-34250000D01*
X173550000Y-34250000D02*
X173550000Y-35750000D01*
X174800000Y-38250000D02*
X179300000Y-38250000D01*
X179300000Y-31750000D02*
X174800000Y-31750000D01*
X180550000Y-35750000D02*
X180550000Y-34250000D01*
X139345000Y-26455000D02*
X139345000Y-26920000D01*
X139345000Y-29080000D02*
X139345000Y-29545000D01*
X139345000Y-26455170D02*
G75*
G02*
X144693107Y-26919925I2560000J-1544830D01*
G01*
X139650316Y-26920000D02*
G75*
G02*
X144159656Y-26919941I2254684J-1080000D01*
G01*
X144159656Y-29080059D02*
G75*
G02*
X139650316Y-29080000I-2254656J1080059D01*
G01*
X144693107Y-29080075D02*
G75*
G02*
X139345000Y-29544830I-2788107J1080075D01*
G01*
X153345000Y-40455000D02*
X153345000Y-40920000D01*
X153345000Y-43080000D02*
X153345000Y-43545000D01*
X153345000Y-40455170D02*
G75*
G02*
X158693107Y-40919925I2560000J-1544830D01*
G01*
X153650316Y-40920000D02*
G75*
G02*
X158159656Y-40919941I2254684J-1080000D01*
G01*
X158159656Y-43080059D02*
G75*
G02*
X153650316Y-43080000I-2254656J1080059D01*
G01*
X158693107Y-43080075D02*
G75*
G02*
X153345000Y-43544830I-2788107J1080075D01*
G01*
D13*
X125300000Y-45250000D02*
X125300000Y-51750000D01*
X125300000Y-45250000D02*
X125800000Y-44750000D01*
X125300000Y-51750000D02*
X132300000Y-51750000D01*
X127800000Y-47250000D02*
X127800000Y-49250000D01*
X127800000Y-49250000D02*
X129800000Y-49250000D01*
X129800000Y-47250000D02*
X127800000Y-47250000D01*
X129800000Y-49250000D02*
X129800000Y-47250000D01*
X132300000Y-44750000D02*
X125800000Y-44750000D01*
X132300000Y-51750000D02*
X132300000Y-44750000D01*
D14*
X139345000Y-40455000D02*
X139345000Y-40920000D01*
X139345000Y-43080000D02*
X139345000Y-43545000D01*
X139345000Y-40455170D02*
G75*
G02*
X144693107Y-40919925I2560000J-1544830D01*
G01*
X139650316Y-40920000D02*
G75*
G02*
X144159656Y-40919941I2254684J-1080000D01*
G01*
X144159656Y-43080059D02*
G75*
G02*
X139650316Y-43080000I-2254656J1080059D01*
G01*
X144693107Y-43080075D02*
G75*
G02*
X139345000Y-43544830I-2788107J1080075D01*
G01*
X173550000Y-62250000D02*
X173550000Y-63750000D01*
X174800000Y-66250000D02*
X179300000Y-66250000D01*
X179300000Y-59750000D02*
X174800000Y-59750000D01*
X180550000Y-63750000D02*
X180550000Y-62250000D01*
X145550000Y-48250000D02*
X145550000Y-49750000D01*
X146800000Y-52250000D02*
X151300000Y-52250000D01*
X151300000Y-45750000D02*
X146800000Y-45750000D01*
X152550000Y-49750000D02*
X152550000Y-48250000D01*
X153345000Y-54455000D02*
X153345000Y-54920000D01*
X153345000Y-57080000D02*
X153345000Y-57545000D01*
X153345000Y-54455170D02*
G75*
G02*
X158693107Y-54919925I2560000J-1544830D01*
G01*
X153650316Y-54920000D02*
G75*
G02*
X158159656Y-54919941I2254684J-1080000D01*
G01*
X158159656Y-57080059D02*
G75*
G02*
X153650316Y-57080000I-2254656J1080059D01*
G01*
X158693107Y-57080075D02*
G75*
G02*
X153345000Y-57544830I-2788107J1080075D01*
G01*
X130080000Y-25502500D02*
X130080000Y-18262500D01*
X135500000Y-18262500D02*
X130080000Y-18262500D01*
X138020000Y-18262500D02*
X136100000Y-18262500D01*
X138020000Y-19882500D02*
X130080000Y-19882500D01*
X138020000Y-25502500D02*
X130080000Y-25502500D01*
X138020000Y-25502500D02*
X138020000Y-18262500D01*
X135800000Y-18262500D02*
X135360000Y-17652500D01*
X136240000Y-17652500D01*
X135800000Y-18262500D01*
G36*
X135800000Y-18262500D02*
G01*
X135360000Y-17652500D01*
X136240000Y-17652500D01*
X135800000Y-18262500D01*
G37*
X167145000Y-72205000D02*
X167145000Y-72670000D01*
X167145000Y-74830000D02*
X167145000Y-75295000D01*
X167145000Y-72205170D02*
G75*
G02*
X172493107Y-72669925I2560000J-1544830D01*
G01*
X167450316Y-72670000D02*
G75*
G02*
X171959656Y-72669941I2254684J-1080000D01*
G01*
X171959656Y-74830059D02*
G75*
G02*
X167450316Y-74830000I-2254656J1080059D01*
G01*
X172493107Y-74830075D02*
G75*
G02*
X167145000Y-75294830I-2788107J1080075D01*
G01*
X167345000Y-54455000D02*
X167345000Y-54920000D01*
X167345000Y-57080000D02*
X167345000Y-57545000D01*
X167345000Y-54455170D02*
G75*
G02*
X172693107Y-54919925I2560000J-1544830D01*
G01*
X167650316Y-54920000D02*
G75*
G02*
X172159656Y-54919941I2254684J-1080000D01*
G01*
X172159656Y-57080059D02*
G75*
G02*
X167650316Y-57080000I-2254656J1080059D01*
G01*
X172693107Y-57080075D02*
G75*
G02*
X167345000Y-57544830I-2788107J1080075D01*
G01*
X139345000Y-54455000D02*
X139345000Y-54920000D01*
X139345000Y-57080000D02*
X139345000Y-57545000D01*
X139345000Y-54455170D02*
G75*
G02*
X144693107Y-54919925I2560000J-1544830D01*
G01*
X139650316Y-54920000D02*
G75*
G02*
X144159656Y-54919941I2254684J-1080000D01*
G01*
X144159656Y-57080059D02*
G75*
G02*
X139650316Y-57080000I-2254656J1080059D01*
G01*
X144693107Y-57080075D02*
G75*
G02*
X139345000Y-57544830I-2788107J1080075D01*
G01*
%LPC*%
D15*
X184425000Y-82750000D02*
G75*
G02*
X181175000Y-82750000I-1625000J0D01*
G01*
X181175000Y-82750000D02*
G75*
G02*
X184425000Y-82750000I1625000J0D01*
G01*
X126425000Y-82750000D02*
G75*
G02*
X123175000Y-82750000I-1625000J0D01*
G01*
X123175000Y-82750000D02*
G75*
G02*
X126425000Y-82750000I1625000J0D01*
G01*
X126425000Y-22750000D02*
G75*
G02*
X123175000Y-22750000I-1625000J0D01*
G01*
X123175000Y-22750000D02*
G75*
G02*
X126425000Y-22750000I1625000J0D01*
G01*
X184425000Y-22750000D02*
G75*
G02*
X181175000Y-22750000I-1625000J0D01*
G01*
X181175000Y-22750000D02*
G75*
G02*
X184425000Y-22750000I1625000J0D01*
G01*
D16*
X153800000Y-73750000D03*
D17*
X155070000Y-73750000D03*
X156340000Y-73750000D03*
X157610000Y-73750000D03*
D18*
X173800000Y-46750000D03*
X180300000Y-46750000D03*
X173800000Y-51250000D03*
X180300000Y-51250000D03*
D19*
X177500000Y-73250000D03*
D18*
X185100000Y-73250000D03*
D16*
X168000000Y-28000000D03*
D17*
X169270000Y-28000000D03*
X170540000Y-28000000D03*
X171810000Y-28000000D03*
D20*
X165990000Y-68750000D03*
D21*
X173610000Y-68750000D03*
D18*
X152800000Y-80250000D03*
X159300000Y-80250000D03*
X152800000Y-84750000D03*
X159300000Y-84750000D03*
X159800000Y-60750000D03*
X166300000Y-60750000D03*
X159800000Y-65250000D03*
X166300000Y-65250000D03*
X145800000Y-60750000D03*
X152300000Y-60750000D03*
X145800000Y-65250000D03*
X152300000Y-65250000D03*
X159800000Y-46750000D03*
X166300000Y-46750000D03*
X159800000Y-51250000D03*
X166300000Y-51250000D03*
D22*
X120800000Y-76750000D03*
D23*
X123340000Y-76750000D03*
X125880000Y-76750000D03*
X128420000Y-76750000D03*
X130960000Y-76750000D03*
X133500000Y-76750000D03*
X136040000Y-76750000D03*
X138580000Y-76750000D03*
X141120000Y-76750000D03*
D24*
X141120000Y-74210000D03*
X141120000Y-71670000D03*
X141120000Y-69130000D03*
X141120000Y-66590000D03*
X141120000Y-64050000D03*
D25*
X141120000Y-61510000D03*
X138580000Y-61510000D03*
X136040000Y-61510000D03*
X133500000Y-61510000D03*
X130960000Y-61510000D03*
X128420000Y-61510000D03*
X125880000Y-61510000D03*
X123340000Y-61510000D03*
X120800000Y-61510000D03*
D20*
X158860000Y-68750000D03*
D21*
X151240000Y-68750000D03*
D16*
X168000000Y-42000000D03*
D17*
X169270000Y-42000000D03*
X170540000Y-42000000D03*
X171810000Y-42000000D03*
D18*
X166800000Y-80250000D03*
X173300000Y-80250000D03*
X166800000Y-84750000D03*
X173300000Y-84750000D03*
D26*
X163050000Y-76790000D03*
D27*
X163050000Y-74250000D03*
X163050000Y-71710000D03*
D16*
X154000000Y-28000000D03*
D17*
X155270000Y-28000000D03*
X156540000Y-28000000D03*
X157810000Y-28000000D03*
D18*
X159800000Y-32750000D03*
X166300000Y-32750000D03*
X159800000Y-37250000D03*
X166300000Y-37250000D03*
D28*
X121162500Y-40137500D03*
D29*
X121162500Y-30637500D03*
X136662500Y-30637500D03*
X136662500Y-40137500D03*
D30*
X136644205Y-51004282D03*
D21*
X136644205Y-43384282D03*
D18*
X145800000Y-32750000D03*
X152300000Y-32750000D03*
X145800000Y-37250000D03*
X152300000Y-37250000D03*
X173800000Y-32750000D03*
X180300000Y-32750000D03*
X173800000Y-37250000D03*
X180300000Y-37250000D03*
D16*
X140000000Y-28000000D03*
D17*
X141270000Y-28000000D03*
X142540000Y-28000000D03*
X143810000Y-28000000D03*
D16*
X154000000Y-42000000D03*
D17*
X155270000Y-42000000D03*
X156540000Y-42000000D03*
X157810000Y-42000000D03*
D30*
X126800000Y-45750000D03*
D20*
X128800000Y-45750000D03*
X130800000Y-45750000D03*
X126800000Y-50750000D03*
X128800000Y-50750000D03*
X130800000Y-50750000D03*
D16*
X140000000Y-42000000D03*
D17*
X141270000Y-42000000D03*
X142540000Y-42000000D03*
X143810000Y-42000000D03*
D18*
X173800000Y-60750000D03*
X180300000Y-60750000D03*
X173800000Y-65250000D03*
X180300000Y-65250000D03*
X145800000Y-46750000D03*
X152300000Y-46750000D03*
X145800000Y-51250000D03*
X152300000Y-51250000D03*
D16*
X154000000Y-56000000D03*
D17*
X155270000Y-56000000D03*
X156540000Y-56000000D03*
X157810000Y-56000000D03*
D31*
X135800000Y-21982500D03*
D32*
X132300000Y-21982500D03*
D16*
X167800000Y-73750000D03*
D17*
X169070000Y-73750000D03*
X170340000Y-73750000D03*
X171610000Y-73750000D03*
D16*
X168000000Y-56000000D03*
D17*
X169270000Y-56000000D03*
X170540000Y-56000000D03*
X171810000Y-56000000D03*
D16*
X140000000Y-56000000D03*
D17*
X141270000Y-56000000D03*
X142540000Y-56000000D03*
X143810000Y-56000000D03*
%LPD*%
M02*
