M48
; DRILL file {KiCad 9.0.1} date 2025-05-31T12:37:48+0200
; FORMAT={-:-/ absolute / metric / decimal}
; #@! TF.CreationDate,2025-05-31T12:37:48+02:00
; #@! TF.GenerationSoftware,Kicad,Pcbnew,9.0.1
; #@! TF.FileFunction,Plated,1,2,PTH
FMAT,2
METRIC
; #@! TA.AperFunction,Plated,PTH,ViaDrill
T1C0.300
; #@! TA.AperFunction,Plated,PTH,ComponentDrill
T2C0.800
; #@! TA.AperFunction,Plated,PTH,ComponentDrill
T3C0.900
; #@! TA.AperFunction,Plated,PTH,ComponentDrill
T4C1.000
; #@! TA.AperFunction,Plated,PTH,ComponentDrill
T5C1.100
; #@! TA.AperFunction,Plated,PTH,ComponentDrill
T6C1.200
; #@! TA.AperFunction,Plated,PTH,ViaDrill
T7C3.200
%
G90
G05
T1
X123.4Y-73.95
X138.0Y-56.75
X146.55Y-24.25
X149.8Y-44.25
X152.2Y-54.15
X164.05Y-59.15
T2
X136.644Y-43.384
X136.644Y-51.004
X151.24Y-68.75
X158.86Y-68.75
X163.05Y-71.71
X163.05Y-74.25
X163.05Y-76.79
X165.99Y-68.75
X173.61Y-68.75
T3
X140.0Y-28.0
X140.0Y-42.0
X140.0Y-56.0
X141.27Y-28.0
X141.27Y-42.0
X141.27Y-56.0
X142.54Y-28.0
X142.54Y-42.0
X142.54Y-56.0
X143.81Y-28.0
X143.81Y-42.0
X143.81Y-56.0
X153.8Y-73.75
X154.0Y-28.0
X154.0Y-42.0
X154.0Y-56.0
X155.07Y-73.75
X155.27Y-28.0
X155.27Y-42.0
X155.27Y-56.0
X156.34Y-73.75
X156.54Y-28.0
X156.54Y-42.0
X156.54Y-56.0
X157.61Y-73.75
X157.81Y-28.0
X157.81Y-42.0
X157.81Y-56.0
X167.8Y-73.75
X168.0Y-28.0
X168.0Y-42.0
X168.0Y-56.0
X169.07Y-73.75
X169.27Y-28.0
X169.27Y-42.0
X169.27Y-56.0
X170.34Y-73.75
X170.54Y-28.0
X170.54Y-42.0
X170.54Y-56.0
X171.61Y-73.75
X171.81Y-28.0
X171.81Y-42.0
X171.81Y-56.0
T4
X126.8Y-45.75
X126.8Y-50.75
X128.8Y-45.75
X128.8Y-50.75
X130.8Y-45.75
X130.8Y-50.75
X177.5Y-73.25
X185.1Y-73.25
T5
X145.8Y-32.75
X145.8Y-37.25
X145.8Y-46.75
X145.8Y-51.25
X145.8Y-60.75
X145.8Y-65.25
X152.3Y-32.75
X152.3Y-37.25
X152.3Y-46.75
X152.3Y-51.25
X152.3Y-60.75
X152.3Y-65.25
X152.8Y-80.25
X152.8Y-84.75
X159.3Y-80.25
X159.3Y-84.75
X159.8Y-32.75
X159.8Y-37.25
X159.8Y-46.75
X159.8Y-51.25
X159.8Y-60.75
X159.8Y-65.25
X166.3Y-32.75
X166.3Y-37.25
X166.3Y-46.75
X166.3Y-51.25
X166.3Y-60.75
X166.3Y-65.25
X166.8Y-80.25
X166.8Y-84.75
X173.3Y-80.25
X173.3Y-84.75
X173.8Y-32.75
X173.8Y-37.25
X173.8Y-46.75
X173.8Y-51.25
X173.8Y-60.75
X173.8Y-65.25
X180.3Y-32.75
X180.3Y-37.25
X180.3Y-46.75
X180.3Y-51.25
X180.3Y-60.75
X180.3Y-65.25
T6
X120.8Y-61.51
X120.8Y-76.75
X121.162Y-30.637
X121.162Y-40.137
X123.34Y-61.51
X123.34Y-76.75
X125.88Y-61.51
X125.88Y-76.75
X128.42Y-61.51
X128.42Y-76.75
X130.96Y-61.51
X130.96Y-76.75
X132.3Y-21.982
X133.5Y-61.51
X133.5Y-76.75
X135.8Y-21.982
X136.04Y-61.51
X136.04Y-76.75
X136.662Y-30.637
X136.662Y-40.137
X138.58Y-61.51
X138.58Y-76.75
X141.12Y-61.51
X141.12Y-64.05
X141.12Y-66.59
X141.12Y-69.13
X141.12Y-71.67
X141.12Y-74.21
X141.12Y-76.75
T7
X124.8Y-22.75
X124.8Y-82.75
X182.8Y-22.75
X182.8Y-82.75
M30
