G04 #@! TF.GenerationSoftware,KiCad,Pcbnew,9.0.1*
G04 #@! TF.CreationDate,2025-06-15T19:26:54+02:00*
G04 #@! TF.ProjectId,piskvorky,7069736b-766f-4726-9b79-2e6b69636164,rev?*
G04 #@! TF.SameCoordinates,Original*
G04 #@! TF.FileFunction,Copper,L1,Top*
G04 #@! TF.FilePolarity,Positive*
%FSLAX46Y46*%
G04 Gerber Fmt 4.6, Leading zero omitted, Abs format (unit mm)*
G04 Created by KiCad (PCBNEW 9.0.1) date 2025-06-15 19:26:54*
%MOMM*%
%LPD*%
G01*
G04 APERTURE LIST*
G04 Aperture macros list*
%AMRoundRect*
0 Rectangle with rounded corners*
0 $1 Rounding radius*
0 $2 $3 $4 $5 $6 $7 $8 $9 X,Y pos of 4 corners*
0 Add a 4 corners polygon primitive as box body*
4,1,4,$2,$3,$4,$5,$6,$7,$8,$9,$2,$3,0*
0 Add four circle primitives for the rounded corners*
1,1,$1+$1,$2,$3*
1,1,$1+$1,$4,$5*
1,1,$1+$1,$6,$7*
1,1,$1+$1,$8,$9*
0 Add four rect primitives between the rounded corners*
20,1,$1+$1,$2,$3,$4,$5,0*
20,1,$1+$1,$4,$5,$6,$7,0*
20,1,$1+$1,$6,$7,$8,$9,0*
20,1,$1+$1,$8,$9,$2,$3,0*%
%AMOutline4P*
0 Free polygon, 4 corners , with rotation*
0 The origin of the aperture is its center*
0 number of corners: always 4*
0 $1 to $8 corner X, Y*
0 $9 Rotation angle, in degrees counterclockwise*
0 create outline with 4 corners*
4,1,4,$1,$2,$3,$4,$5,$6,$7,$8,$1,$2,$9*%
G04 Aperture macros list end*
G04 #@! TA.AperFunction,ComponentPad*
%ADD10R,1.000000X1.800000*%
G04 #@! TD*
G04 #@! TA.AperFunction,ComponentPad*
%ADD11O,1.000000X1.800000*%
G04 #@! TD*
G04 #@! TA.AperFunction,ComponentPad*
%ADD12C,2.000000*%
G04 #@! TD*
G04 #@! TA.AperFunction,ComponentPad*
%ADD13R,2.000000X2.000000*%
G04 #@! TD*
G04 #@! TA.AperFunction,ComponentPad*
%ADD14C,1.600000*%
G04 #@! TD*
G04 #@! TA.AperFunction,ComponentPad*
%ADD15O,1.600000X1.600000*%
G04 #@! TD*
G04 #@! TA.AperFunction,ComponentPad*
%ADD16R,1.524000X2.400000*%
G04 #@! TD*
G04 #@! TA.AperFunction,ComponentPad*
%ADD17RoundRect,0.250000X0.512000X-0.950000X0.512000X0.950000X-0.512000X0.950000X-0.512000X-0.950000X0*%
G04 #@! TD*
G04 #@! TA.AperFunction,ComponentPad*
%ADD18RoundRect,0.250000X0.950000X0.512000X-0.950000X0.512000X-0.950000X-0.512000X0.950000X-0.512000X0*%
G04 #@! TD*
G04 #@! TA.AperFunction,ComponentPad*
%ADD19RoundRect,0.250000X-0.512000X0.950000X-0.512000X-0.950000X0.512000X-0.950000X0.512000X0.950000X0*%
G04 #@! TD*
G04 #@! TA.AperFunction,ComponentPad*
%ADD20R,1.500000X1.500000*%
G04 #@! TD*
G04 #@! TA.AperFunction,ComponentPad*
%ADD21C,1.500000*%
G04 #@! TD*
G04 #@! TA.AperFunction,ComponentPad*
%ADD22Outline4P,-1.250000X0.762000X1.250000X0.762000X1.250000X-0.762000X-1.250000X-0.762000X0.000000*%
G04 #@! TD*
G04 #@! TA.AperFunction,ComponentPad*
%ADD23RoundRect,0.250000X-1.000000X-0.512000X1.000000X-0.512000X1.000000X0.512000X-1.000000X0.512000X0*%
G04 #@! TD*
G04 #@! TA.AperFunction,ComponentPad*
%ADD24R,1.600000X1.600000*%
G04 #@! TD*
G04 #@! TA.AperFunction,ComponentPad*
%ADD25RoundRect,0.250001X0.949999X0.949999X-0.949999X0.949999X-0.949999X-0.949999X0.949999X-0.949999X0*%
G04 #@! TD*
G04 #@! TA.AperFunction,ComponentPad*
%ADD26C,2.400000*%
G04 #@! TD*
G04 #@! TA.AperFunction,ViaPad*
%ADD27C,0.700000*%
G04 #@! TD*
G04 #@! TA.AperFunction,ViaPad*
%ADD28C,6.300000*%
G04 #@! TD*
G04 #@! TA.AperFunction,Conductor*
%ADD29C,0.500000*%
G04 #@! TD*
G04 #@! TA.AperFunction,Conductor*
%ADD30C,0.300000*%
G04 #@! TD*
G04 APERTURE END LIST*
D10*
X153800000Y-73750000D03*
D11*
X155070000Y-73750000D03*
X156340000Y-73750000D03*
X157610000Y-73750000D03*
D12*
X173800000Y-46750000D03*
X180300000Y-46750000D03*
X173800000Y-51250000D03*
X180300000Y-51250000D03*
D13*
X177500000Y-73250000D03*
D12*
X185100000Y-73250000D03*
D10*
X168000000Y-28000000D03*
D11*
X169270000Y-28000000D03*
X170540000Y-28000000D03*
X171810000Y-28000000D03*
D14*
X165990000Y-68750000D03*
D15*
X173610000Y-68750000D03*
D12*
X152800000Y-80250000D03*
X159300000Y-80250000D03*
X152800000Y-84750000D03*
X159300000Y-84750000D03*
X159800000Y-60750000D03*
X166300000Y-60750000D03*
X159800000Y-65250000D03*
X166300000Y-65250000D03*
X145800000Y-60750000D03*
X152300000Y-60750000D03*
X145800000Y-65250000D03*
X152300000Y-65250000D03*
X159800000Y-46750000D03*
X166300000Y-46750000D03*
X159800000Y-51250000D03*
X166300000Y-51250000D03*
D16*
X120800000Y-76750000D03*
D17*
X123340000Y-76750000D03*
X125880000Y-76750000D03*
X128420000Y-76750000D03*
X130960000Y-76750000D03*
X133500000Y-76750000D03*
X136040000Y-76750000D03*
X138580000Y-76750000D03*
X141120000Y-76750000D03*
D18*
X141120000Y-74210000D03*
X141120000Y-71670000D03*
X141120000Y-69130000D03*
X141120000Y-66590000D03*
X141120000Y-64050000D03*
D19*
X141120000Y-61510000D03*
X138580000Y-61510000D03*
X136040000Y-61510000D03*
X133500000Y-61510000D03*
X130960000Y-61510000D03*
X128420000Y-61510000D03*
X125880000Y-61510000D03*
X123340000Y-61510000D03*
X120800000Y-61510000D03*
D14*
X158860000Y-68750000D03*
D15*
X151240000Y-68750000D03*
D10*
X168000000Y-42000000D03*
D11*
X169270000Y-42000000D03*
X170540000Y-42000000D03*
X171810000Y-42000000D03*
D12*
X166800000Y-80250000D03*
X173300000Y-80250000D03*
X166800000Y-84750000D03*
X173300000Y-84750000D03*
D20*
X163050000Y-76790000D03*
D21*
X163050000Y-74250000D03*
X163050000Y-71710000D03*
D10*
X154000000Y-28000000D03*
D11*
X155270000Y-28000000D03*
X156540000Y-28000000D03*
X157810000Y-28000000D03*
D12*
X159800000Y-32750000D03*
X166300000Y-32750000D03*
X159800000Y-37250000D03*
X166300000Y-37250000D03*
D22*
X121162500Y-40137500D03*
D23*
X121162500Y-30637500D03*
X136662500Y-30637500D03*
X136662500Y-40137500D03*
D24*
X136644205Y-51004282D03*
D15*
X136644205Y-43384282D03*
D12*
X145800000Y-32750000D03*
X152300000Y-32750000D03*
X145800000Y-37250000D03*
X152300000Y-37250000D03*
X173800000Y-32750000D03*
X180300000Y-32750000D03*
X173800000Y-37250000D03*
X180300000Y-37250000D03*
D10*
X140000000Y-28000000D03*
D11*
X141270000Y-28000000D03*
X142540000Y-28000000D03*
X143810000Y-28000000D03*
D10*
X154000000Y-42000000D03*
D11*
X155270000Y-42000000D03*
X156540000Y-42000000D03*
X157810000Y-42000000D03*
D24*
X126800000Y-45750000D03*
D14*
X128800000Y-45750000D03*
X130800000Y-45750000D03*
X126800000Y-50750000D03*
X128800000Y-50750000D03*
X130800000Y-50750000D03*
D10*
X140000000Y-42000000D03*
D11*
X141270000Y-42000000D03*
X142540000Y-42000000D03*
X143810000Y-42000000D03*
D12*
X173800000Y-60750000D03*
X180300000Y-60750000D03*
X173800000Y-65250000D03*
X180300000Y-65250000D03*
X145800000Y-46750000D03*
X152300000Y-46750000D03*
X145800000Y-51250000D03*
X152300000Y-51250000D03*
D10*
X154000000Y-56000000D03*
D11*
X155270000Y-56000000D03*
X156540000Y-56000000D03*
X157810000Y-56000000D03*
D25*
X135800000Y-21982500D03*
D26*
X132300000Y-21982500D03*
D10*
X167800000Y-73750000D03*
D11*
X169070000Y-73750000D03*
X170340000Y-73750000D03*
X171610000Y-73750000D03*
D10*
X168000000Y-56000000D03*
D11*
X169270000Y-56000000D03*
X170540000Y-56000000D03*
X171810000Y-56000000D03*
D10*
X140000000Y-56000000D03*
D11*
X141270000Y-56000000D03*
X142540000Y-56000000D03*
X143810000Y-56000000D03*
D27*
X149800000Y-44250000D03*
D28*
X124800000Y-82750000D03*
D27*
X138000000Y-56750000D03*
X123400000Y-73950000D03*
D28*
X182800000Y-22750000D03*
X182800000Y-82750000D03*
D27*
X152200000Y-54150000D03*
D28*
X124800000Y-22750000D03*
D27*
X146550000Y-24250000D03*
X164050000Y-59150000D03*
D29*
X185100000Y-71300000D02*
X185100000Y-73250000D01*
X185100000Y-73250000D02*
X185100000Y-74950000D01*
X182550000Y-68750000D02*
X185100000Y-71300000D01*
X173610000Y-68750000D02*
X182550000Y-68750000D01*
X183260000Y-76790000D02*
X163050000Y-76790000D01*
X185100000Y-74950000D02*
X183260000Y-76790000D01*
X149800000Y-44250000D02*
X141800000Y-44250000D01*
X133050000Y-56500000D02*
X130300000Y-56500000D01*
X170550000Y-68750000D02*
X165990000Y-68750000D01*
X120800000Y-76750000D02*
X120800000Y-72750000D01*
X136644205Y-52250000D02*
X136644205Y-52905795D01*
X141800000Y-44250000D02*
X136644205Y-49405795D01*
X120800000Y-72750000D02*
X120800000Y-71500000D01*
X136644205Y-51004282D02*
X136644205Y-52250000D01*
X177500000Y-73250000D02*
X175050000Y-73250000D01*
D30*
X122050000Y-64250000D02*
X122050000Y-60000000D01*
D29*
X175050000Y-73250000D02*
X170550000Y-68750000D01*
X120800000Y-65500000D02*
X122050000Y-64250000D01*
X125550000Y-56500000D02*
X130300000Y-56500000D01*
X136644205Y-49405795D02*
X136644205Y-52250000D01*
X136644205Y-52905795D02*
X133050000Y-56500000D01*
X120800000Y-71500000D02*
X120800000Y-65500000D01*
X122050000Y-60000000D02*
X125550000Y-56500000D01*
X140000000Y-28000000D02*
X140000000Y-26050000D01*
X140000000Y-26050000D02*
X140800000Y-25250000D01*
X156560000Y-25250000D02*
X157810000Y-26500000D01*
X140800000Y-25250000D02*
X156560000Y-25250000D01*
X157810000Y-26500000D02*
X157810000Y-28000000D01*
X139200000Y-57950000D02*
X138000000Y-56750000D01*
X141000000Y-57950000D02*
X139200000Y-57950000D01*
X123340000Y-74010000D02*
X123400000Y-73950000D01*
X141270000Y-57680000D02*
X141000000Y-57950000D01*
X154800000Y-54150000D02*
X152200000Y-54150000D01*
X155270000Y-54620000D02*
X154800000Y-54150000D01*
X155270000Y-56000000D02*
X155270000Y-54620000D01*
X141270000Y-56000000D02*
X141270000Y-57680000D01*
X123340000Y-76750000D02*
X123340000Y-74010000D01*
X133800000Y-36250000D02*
X137550000Y-32500000D01*
X133800000Y-53750000D02*
X133800000Y-36250000D01*
X137550000Y-32500000D02*
X141800000Y-32500000D01*
X120800000Y-57250000D02*
X123050000Y-55000000D01*
X141800000Y-32500000D02*
X143810000Y-30490000D01*
X132550000Y-55000000D02*
X133800000Y-53750000D01*
X120800000Y-61510000D02*
X120800000Y-57250000D01*
X123050000Y-55000000D02*
X132550000Y-55000000D01*
X143810000Y-30490000D02*
X143810000Y-28000000D01*
X154000000Y-29450000D02*
X155550000Y-31000000D01*
X170550000Y-31000000D02*
X171810000Y-29740000D01*
X154000000Y-28000000D02*
X154000000Y-29450000D01*
X171810000Y-29740000D02*
X171810000Y-28000000D01*
X155550000Y-31000000D02*
X170550000Y-31000000D01*
X166000000Y-24250000D02*
X168000000Y-26250000D01*
X168000000Y-26250000D02*
X168000000Y-28000000D01*
X146550000Y-24250000D02*
X166000000Y-24250000D01*
X157050000Y-39500000D02*
X157810000Y-40260000D01*
X140550000Y-39500000D02*
X157050000Y-39500000D01*
X157810000Y-40260000D02*
X157810000Y-42000000D01*
X140000000Y-42000000D02*
X140000000Y-40050000D01*
X140000000Y-40050000D02*
X140550000Y-39500000D01*
X171810000Y-43490000D02*
X171810000Y-42000000D01*
X154000000Y-42000000D02*
X154000000Y-44200000D01*
X154000000Y-44200000D02*
X154800000Y-45000000D01*
X170300000Y-45000000D02*
X171810000Y-43490000D01*
X154800000Y-45000000D02*
X170300000Y-45000000D01*
X164050000Y-59150000D02*
X152700000Y-59150000D01*
X152700000Y-59150000D02*
X149550000Y-56000000D01*
X149550000Y-56000000D02*
X143810000Y-56000000D01*
X140000000Y-54300000D02*
X141550000Y-52750000D01*
X157810000Y-54510000D02*
X157810000Y-56000000D01*
X140000000Y-56000000D02*
X140000000Y-54300000D01*
X141550000Y-52750000D02*
X156050000Y-52750000D01*
X156050000Y-52750000D02*
X157810000Y-54510000D01*
X163718214Y-58349000D02*
X164381786Y-58349000D01*
X164851000Y-58818214D02*
X164851000Y-59000000D01*
X154000000Y-56000000D02*
X154000000Y-57950000D01*
X164381786Y-58349000D02*
X164851000Y-58818214D01*
X154000000Y-57950000D02*
X154499000Y-58449000D01*
X154499000Y-58449000D02*
X163618214Y-58449000D01*
X170050000Y-59000000D02*
X171810000Y-57240000D01*
X171810000Y-57240000D02*
X171810000Y-56000000D01*
X164851000Y-59000000D02*
X170050000Y-59000000D01*
X163618214Y-58449000D02*
X163718214Y-58349000D01*
X153800000Y-69000000D02*
X153800000Y-73750000D01*
X165550000Y-71250000D02*
X161550000Y-67250000D01*
X171610000Y-72310000D02*
X170550000Y-71250000D01*
X155550000Y-67250000D02*
X153800000Y-69000000D01*
X170550000Y-71250000D02*
X165550000Y-71250000D01*
X171610000Y-73750000D02*
X171610000Y-72310000D01*
X161550000Y-67250000D02*
X155550000Y-67250000D01*
X136662500Y-40137500D02*
X136662500Y-43365987D01*
X136662500Y-43365987D02*
X136644205Y-43384282D01*
X135800000Y-21982500D02*
X135800000Y-25750000D01*
X128800000Y-32750000D02*
X128800000Y-45750000D01*
X135800000Y-25750000D02*
X128800000Y-32750000D01*
D30*
X164300000Y-74250000D02*
X163050000Y-74250000D01*
X164800000Y-71750000D02*
X164800000Y-73750000D01*
X158860000Y-68750000D02*
X161800000Y-68750000D01*
X164800000Y-73750000D02*
X164300000Y-74250000D01*
X161800000Y-68750000D02*
X164800000Y-71750000D01*
D29*
X138580000Y-79000000D02*
X138580000Y-76750000D01*
X148800000Y-68750000D02*
X147050000Y-70500000D01*
X147050000Y-70500000D02*
X147050000Y-77000000D01*
X144050000Y-80000000D02*
X139580000Y-80000000D01*
X151240000Y-68750000D02*
X148800000Y-68750000D01*
X139580000Y-80000000D02*
X138580000Y-79000000D01*
X147050000Y-77000000D02*
X144050000Y-80000000D01*
X145800000Y-32750000D02*
X180300000Y-32750000D01*
X130960000Y-62910000D02*
X133300000Y-65250000D01*
X145800000Y-65250000D02*
X152300000Y-65250000D01*
X145800000Y-51250000D02*
X152300000Y-51250000D01*
D30*
X138800000Y-65250000D02*
X138813000Y-65263000D01*
X138813000Y-65263000D02*
X145787000Y-65263000D01*
D29*
X130960000Y-61510000D02*
X130960000Y-62910000D01*
X145800000Y-37250000D02*
X152300000Y-37250000D01*
D30*
X145787000Y-65263000D02*
X145800000Y-65250000D01*
D29*
X133300000Y-65250000D02*
X138800000Y-65250000D01*
X159800000Y-65250000D02*
X166300000Y-65250000D01*
X157550000Y-49000000D02*
X143050000Y-49000000D01*
X159800000Y-51250000D02*
X166300000Y-51250000D01*
X133500000Y-58550000D02*
X133500000Y-61510000D01*
X143050000Y-49000000D02*
X133500000Y-58550000D01*
X159800000Y-51250000D02*
X157550000Y-49000000D01*
X159800000Y-37250000D02*
X166300000Y-37250000D01*
X183550000Y-38500000D02*
X183550000Y-51250000D01*
X173800000Y-65250000D02*
X171550000Y-63000000D01*
X180300000Y-51250000D02*
X183550000Y-51250000D01*
X143300000Y-61750000D02*
X143300000Y-60000000D01*
X142550000Y-59250000D02*
X139050000Y-59250000D01*
X182300000Y-37250000D02*
X183550000Y-38500000D01*
X143300000Y-60000000D02*
X142550000Y-59250000D01*
X173800000Y-51250000D02*
X180300000Y-51250000D01*
X136300000Y-59250000D02*
X136040000Y-59510000D01*
X183550000Y-64250000D02*
X182550000Y-65250000D01*
X139050000Y-59250000D02*
X136300000Y-59250000D01*
X180300000Y-37250000D02*
X182300000Y-37250000D01*
X182550000Y-65250000D02*
X180300000Y-65250000D01*
X173800000Y-37250000D02*
X180300000Y-37250000D01*
X173800000Y-65250000D02*
X180300000Y-65250000D01*
X136040000Y-59510000D02*
X136040000Y-61510000D01*
X171550000Y-63000000D02*
X144550000Y-63000000D01*
X183550000Y-51250000D02*
X183550000Y-64250000D01*
X144550000Y-63000000D02*
X143300000Y-61750000D01*
X145800000Y-46750000D02*
X180300000Y-46750000D01*
X145800000Y-60750000D02*
X180300000Y-60750000D01*
X147550000Y-83250000D02*
X132300000Y-83250000D01*
X152800000Y-80250000D02*
X159300000Y-80250000D01*
X129747000Y-69697000D02*
X125880000Y-65830000D01*
D30*
X129747000Y-80697000D02*
X129800000Y-80750000D01*
D29*
X132300000Y-83250000D02*
X129800000Y-80750000D01*
X152550000Y-80000000D02*
X150800000Y-80000000D01*
X125880000Y-65830000D02*
X125880000Y-61510000D01*
X150800000Y-80000000D02*
X147550000Y-83250000D01*
D30*
X129747000Y-74000000D02*
X129747000Y-80697000D01*
D29*
X129747000Y-74000000D02*
X129747000Y-69697000D01*
X152800000Y-80250000D02*
X152550000Y-80000000D01*
X150050000Y-78000000D02*
X146249000Y-81801000D01*
X132173000Y-74123000D02*
X132173000Y-69123000D01*
X128420000Y-65370000D02*
X128420000Y-61510000D01*
X160300000Y-78000000D02*
X150050000Y-78000000D01*
X133351000Y-81801000D02*
X132173000Y-80623000D01*
X162550000Y-80250000D02*
X160300000Y-78000000D01*
X166800000Y-80250000D02*
X162550000Y-80250000D01*
X132173000Y-69123000D02*
X128420000Y-65370000D01*
X146249000Y-81801000D02*
X133351000Y-81801000D01*
X166800000Y-80250000D02*
X173300000Y-80250000D01*
D30*
X132173000Y-80623000D02*
X132173000Y-74000000D01*
D29*
X130300000Y-47750000D02*
X123300000Y-47750000D01*
X121162500Y-45612500D02*
X121162500Y-40137500D01*
X130800000Y-47250000D02*
X130300000Y-47750000D01*
X130800000Y-45750000D02*
X130800000Y-47250000D01*
X123300000Y-47750000D02*
X121162500Y-45612500D01*
G04 #@! TA.AperFunction,Conductor*
G36*
X188242539Y-18270185D02*
G01*
X188288294Y-18322989D01*
X188299500Y-18374500D01*
X188299500Y-87125500D01*
X188279815Y-87192539D01*
X188227011Y-87238294D01*
X188175500Y-87249500D01*
X119424500Y-87249500D01*
X119357461Y-87229815D01*
X119311706Y-87177011D01*
X119300500Y-87125500D01*
X119300500Y-84631947D01*
X151300000Y-84631947D01*
X151300000Y-84868052D01*
X151336934Y-85101247D01*
X151409897Y-85325802D01*
X151517087Y-85536174D01*
X151577338Y-85619104D01*
X151577340Y-85619105D01*
X152276212Y-84920233D01*
X152287482Y-84962292D01*
X152359890Y-85087708D01*
X152462292Y-85190110D01*
X152587708Y-85262518D01*
X152629765Y-85273787D01*
X151930893Y-85972658D01*
X152013828Y-86032914D01*
X152224197Y-86140102D01*
X152448752Y-86213065D01*
X152448751Y-86213065D01*
X152681948Y-86250000D01*
X152918052Y-86250000D01*
X153151247Y-86213065D01*
X153375802Y-86140102D01*
X153586163Y-86032918D01*
X153586169Y-86032914D01*
X153669104Y-85972658D01*
X153669105Y-85972658D01*
X152970233Y-85273787D01*
X153012292Y-85262518D01*
X153137708Y-85190110D01*
X153240110Y-85087708D01*
X153312518Y-84962292D01*
X153323787Y-84920234D01*
X154022658Y-85619105D01*
X154022658Y-85619104D01*
X154082914Y-85536169D01*
X154082918Y-85536163D01*
X154190102Y-85325802D01*
X154263065Y-85101247D01*
X154300000Y-84868052D01*
X154300000Y-84631947D01*
X157800000Y-84631947D01*
X157800000Y-84868052D01*
X157836934Y-85101247D01*
X157909897Y-85325802D01*
X158017087Y-85536174D01*
X158077338Y-85619104D01*
X158077340Y-85619105D01*
X158776212Y-84920233D01*
X158787482Y-84962292D01*
X158859890Y-85087708D01*
X158962292Y-85190110D01*
X159087708Y-85262518D01*
X159129765Y-85273787D01*
X158430893Y-85972658D01*
X158513828Y-86032914D01*
X158724197Y-86140102D01*
X158948752Y-86213065D01*
X158948751Y-86213065D01*
X159181948Y-86250000D01*
X159418052Y-86250000D01*
X159651247Y-86213065D01*
X159875802Y-86140102D01*
X160086163Y-86032918D01*
X160086169Y-86032914D01*
X160169104Y-85972658D01*
X160169105Y-85972658D01*
X159470233Y-85273787D01*
X159512292Y-85262518D01*
X159637708Y-85190110D01*
X159740110Y-85087708D01*
X159812518Y-84962292D01*
X159823787Y-84920234D01*
X160522658Y-85619105D01*
X160522658Y-85619104D01*
X160582914Y-85536169D01*
X160582918Y-85536163D01*
X160690102Y-85325802D01*
X160763065Y-85101247D01*
X160800000Y-84868052D01*
X160800000Y-84631947D01*
X165300000Y-84631947D01*
X165300000Y-84868052D01*
X165336934Y-85101247D01*
X165409897Y-85325802D01*
X165517087Y-85536174D01*
X165577338Y-85619104D01*
X165577340Y-85619105D01*
X166276212Y-84920233D01*
X166287482Y-84962292D01*
X166359890Y-85087708D01*
X166462292Y-85190110D01*
X166587708Y-85262518D01*
X166629765Y-85273787D01*
X165930893Y-85972658D01*
X166013828Y-86032914D01*
X166224197Y-86140102D01*
X166448752Y-86213065D01*
X166448751Y-86213065D01*
X166681948Y-86250000D01*
X166918052Y-86250000D01*
X167151247Y-86213065D01*
X167375802Y-86140102D01*
X167586163Y-86032918D01*
X167586169Y-86032914D01*
X167669104Y-85972658D01*
X167669105Y-85972658D01*
X166970233Y-85273787D01*
X167012292Y-85262518D01*
X167137708Y-85190110D01*
X167240110Y-85087708D01*
X167312518Y-84962292D01*
X167323787Y-84920234D01*
X168022658Y-85619105D01*
X168022658Y-85619104D01*
X168082914Y-85536169D01*
X168082918Y-85536163D01*
X168190102Y-85325802D01*
X168263065Y-85101247D01*
X168300000Y-84868052D01*
X168300000Y-84631947D01*
X171800000Y-84631947D01*
X171800000Y-84868052D01*
X171836934Y-85101247D01*
X171909897Y-85325802D01*
X172017087Y-85536174D01*
X172077338Y-85619104D01*
X172077340Y-85619105D01*
X172776212Y-84920233D01*
X172787482Y-84962292D01*
X172859890Y-85087708D01*
X172962292Y-85190110D01*
X173087708Y-85262518D01*
X173129765Y-85273787D01*
X172430893Y-85972658D01*
X172513828Y-86032914D01*
X172724197Y-86140102D01*
X172948752Y-86213065D01*
X172948751Y-86213065D01*
X173181948Y-86250000D01*
X173418052Y-86250000D01*
X173651247Y-86213065D01*
X173875802Y-86140102D01*
X174086163Y-86032918D01*
X174086169Y-86032914D01*
X174169104Y-85972658D01*
X174169105Y-85972658D01*
X173470233Y-85273787D01*
X173512292Y-85262518D01*
X173637708Y-85190110D01*
X173740110Y-85087708D01*
X173812518Y-84962292D01*
X173823787Y-84920233D01*
X174522658Y-85619105D01*
X174522658Y-85619104D01*
X174582914Y-85536169D01*
X174582918Y-85536163D01*
X174690102Y-85325802D01*
X174763065Y-85101247D01*
X174800000Y-84868052D01*
X174800000Y-84631947D01*
X174763065Y-84398752D01*
X174690102Y-84174197D01*
X174582914Y-83963828D01*
X174522658Y-83880894D01*
X174522658Y-83880893D01*
X173823787Y-84579765D01*
X173812518Y-84537708D01*
X173740110Y-84412292D01*
X173637708Y-84309890D01*
X173512292Y-84237482D01*
X173470234Y-84226212D01*
X174169105Y-83527340D01*
X174169104Y-83527338D01*
X174086174Y-83467087D01*
X173875802Y-83359897D01*
X173651247Y-83286934D01*
X173651248Y-83286934D01*
X173418052Y-83250000D01*
X173181948Y-83250000D01*
X172948752Y-83286934D01*
X172724197Y-83359897D01*
X172513830Y-83467084D01*
X172430894Y-83527340D01*
X173129766Y-84226212D01*
X173087708Y-84237482D01*
X172962292Y-84309890D01*
X172859890Y-84412292D01*
X172787482Y-84537708D01*
X172776212Y-84579765D01*
X172077340Y-83880894D01*
X172017084Y-83963830D01*
X171909897Y-84174197D01*
X171836934Y-84398752D01*
X171800000Y-84631947D01*
X168300000Y-84631947D01*
X168263065Y-84398752D01*
X168190102Y-84174197D01*
X168082914Y-83963828D01*
X168022658Y-83880894D01*
X168022658Y-83880893D01*
X167323787Y-84579765D01*
X167312518Y-84537708D01*
X167240110Y-84412292D01*
X167137708Y-84309890D01*
X167012292Y-84237482D01*
X166970234Y-84226212D01*
X167669105Y-83527340D01*
X167669104Y-83527339D01*
X167586174Y-83467087D01*
X167375802Y-83359897D01*
X167151247Y-83286934D01*
X167151248Y-83286934D01*
X166918052Y-83250000D01*
X166681948Y-83250000D01*
X166448752Y-83286934D01*
X166224197Y-83359897D01*
X166013830Y-83467084D01*
X165930894Y-83527340D01*
X166629766Y-84226212D01*
X166587708Y-84237482D01*
X166462292Y-84309890D01*
X166359890Y-84412292D01*
X166287482Y-84537708D01*
X166276212Y-84579766D01*
X165577340Y-83880894D01*
X165517084Y-83963830D01*
X165409897Y-84174197D01*
X165336934Y-84398752D01*
X165300000Y-84631947D01*
X160800000Y-84631947D01*
X160763065Y-84398752D01*
X160690102Y-84174197D01*
X160582914Y-83963828D01*
X160522658Y-83880894D01*
X160522658Y-83880893D01*
X159823787Y-84579765D01*
X159812518Y-84537708D01*
X159740110Y-84412292D01*
X159637708Y-84309890D01*
X159512292Y-84237482D01*
X159470234Y-84226212D01*
X160169105Y-83527340D01*
X160169104Y-83527339D01*
X160086174Y-83467087D01*
X159875802Y-83359897D01*
X159651247Y-83286934D01*
X159651248Y-83286934D01*
X159418052Y-83250000D01*
X159181948Y-83250000D01*
X158948752Y-83286934D01*
X158724197Y-83359897D01*
X158513830Y-83467084D01*
X158430894Y-83527340D01*
X159129766Y-84226212D01*
X159087708Y-84237482D01*
X158962292Y-84309890D01*
X158859890Y-84412292D01*
X158787482Y-84537708D01*
X158776212Y-84579766D01*
X158077340Y-83880894D01*
X158017084Y-83963830D01*
X157909897Y-84174197D01*
X157836934Y-84398752D01*
X157800000Y-84631947D01*
X154300000Y-84631947D01*
X154263065Y-84398752D01*
X154190102Y-84174197D01*
X154082914Y-83963828D01*
X154022658Y-83880894D01*
X154022658Y-83880893D01*
X153323787Y-84579765D01*
X153312518Y-84537708D01*
X153240110Y-84412292D01*
X153137708Y-84309890D01*
X153012292Y-84237482D01*
X152970234Y-84226212D01*
X153669105Y-83527340D01*
X153669104Y-83527339D01*
X153586174Y-83467087D01*
X153375802Y-83359897D01*
X153151247Y-83286934D01*
X153151248Y-83286934D01*
X152918052Y-83250000D01*
X152681948Y-83250000D01*
X152448752Y-83286934D01*
X152224197Y-83359897D01*
X152013830Y-83467084D01*
X151930894Y-83527340D01*
X152629766Y-84226212D01*
X152587708Y-84237482D01*
X152462292Y-84309890D01*
X152359890Y-84412292D01*
X152287482Y-84537708D01*
X152276212Y-84579765D01*
X151577340Y-83880894D01*
X151517084Y-83963830D01*
X151409897Y-84174197D01*
X151336934Y-84398752D01*
X151300000Y-84631947D01*
X119300500Y-84631947D01*
X119300500Y-78091364D01*
X119320185Y-78024325D01*
X119372989Y-77978570D01*
X119442147Y-77968626D01*
X119505703Y-77997651D01*
X119539815Y-78050730D01*
X119541198Y-78050215D01*
X119594202Y-78192328D01*
X119594206Y-78192335D01*
X119680452Y-78307544D01*
X119680455Y-78307547D01*
X119795664Y-78393793D01*
X119795671Y-78393797D01*
X119930517Y-78444091D01*
X119930516Y-78444091D01*
X119937444Y-78444835D01*
X119990127Y-78450500D01*
X121609872Y-78450499D01*
X121669483Y-78444091D01*
X121804331Y-78393796D01*
X121919546Y-78307546D01*
X122005796Y-78192331D01*
X122009389Y-78182696D01*
X122051259Y-78126763D01*
X122116723Y-78102344D01*
X122184996Y-78117194D01*
X122231110Y-78160931D01*
X122235680Y-78168340D01*
X122235683Y-78168344D01*
X122359654Y-78292315D01*
X122508875Y-78384356D01*
X122508880Y-78384358D01*
X122675302Y-78439505D01*
X122675309Y-78439506D01*
X122778019Y-78449999D01*
X123089999Y-78449999D01*
X123090000Y-78449998D01*
X123090000Y-77298482D01*
X123108409Y-77309111D01*
X123261009Y-77350000D01*
X123418991Y-77350000D01*
X123571591Y-77309111D01*
X123590000Y-77298482D01*
X123590000Y-78449999D01*
X123901972Y-78449999D01*
X123901986Y-78449998D01*
X124004697Y-78439505D01*
X124171119Y-78384358D01*
X124171124Y-78384356D01*
X124320345Y-78292315D01*
X124444317Y-78168343D01*
X124504167Y-78071311D01*
X124556115Y-78024586D01*
X124625077Y-78013363D01*
X124689160Y-78041206D01*
X124715244Y-78071309D01*
X124775288Y-78168656D01*
X124899344Y-78292712D01*
X125048666Y-78384814D01*
X125215203Y-78439999D01*
X125317991Y-78450500D01*
X126442008Y-78450499D01*
X126442498Y-78450449D01*
X126459895Y-78448671D01*
X126544797Y-78439999D01*
X126711334Y-78384814D01*
X126860656Y-78292712D01*
X126984712Y-78168656D01*
X127044461Y-78071787D01*
X127096409Y-78025062D01*
X127165371Y-78013839D01*
X127229454Y-78041683D01*
X127255539Y-78071787D01*
X127315288Y-78168656D01*
X127439344Y-78292712D01*
X127588666Y-78384814D01*
X127755203Y-78439999D01*
X127857991Y-78450500D01*
X128972500Y-78450499D01*
X129039539Y-78470184D01*
X129085294Y-78522987D01*
X129096500Y-78574499D01*
X129096500Y-80462586D01*
X129087062Y-80510034D01*
X129078342Y-80531088D01*
X129078341Y-80531091D01*
X129078340Y-80531094D01*
X129049500Y-80676080D01*
X129049500Y-80676083D01*
X129049500Y-80823917D01*
X129049500Y-80823919D01*
X129049499Y-80823919D01*
X129078340Y-80968906D01*
X129078342Y-80968912D01*
X129134916Y-81105494D01*
X129217048Y-81228416D01*
X129217052Y-81228420D01*
X129217052Y-81228421D01*
X131821584Y-83832952D01*
X131821586Y-83832954D01*
X131851058Y-83852645D01*
X131895270Y-83882186D01*
X131944505Y-83915084D01*
X131944506Y-83915084D01*
X131944507Y-83915085D01*
X131944509Y-83915086D01*
X132062188Y-83963830D01*
X132081087Y-83971658D01*
X132081091Y-83971658D01*
X132081092Y-83971659D01*
X132226079Y-84000500D01*
X132226082Y-84000500D01*
X147623920Y-84000500D01*
X147721462Y-83981096D01*
X147768913Y-83971658D01*
X147905495Y-83915084D01*
X147954729Y-83882186D01*
X147954734Y-83882183D01*
X147979071Y-83865921D01*
X148028416Y-83832952D01*
X151074549Y-80786819D01*
X151101476Y-80772115D01*
X151127295Y-80755523D01*
X151133495Y-80754631D01*
X151135872Y-80753334D01*
X151162230Y-80750500D01*
X151295308Y-80750500D01*
X151362347Y-80770185D01*
X151407027Y-80821749D01*
X151407220Y-80821651D01*
X151407615Y-80822428D01*
X151408102Y-80822989D01*
X151409279Y-80825693D01*
X151487137Y-80978497D01*
X151516657Y-81036433D01*
X151655483Y-81227510D01*
X151822490Y-81394517D01*
X152013567Y-81533343D01*
X152112991Y-81584002D01*
X152224003Y-81640566D01*
X152224005Y-81640566D01*
X152224008Y-81640568D01*
X152344412Y-81679689D01*
X152448631Y-81713553D01*
X152681903Y-81750500D01*
X152681908Y-81750500D01*
X152918097Y-81750500D01*
X153151368Y-81713553D01*
X153375992Y-81640568D01*
X153586433Y-81533343D01*
X153777510Y-81394517D01*
X153944517Y-81227510D01*
X154072313Y-81051613D01*
X154127643Y-81008949D01*
X154172631Y-81000500D01*
X157927369Y-81000500D01*
X157994408Y-81020185D01*
X158027685Y-81051613D01*
X158155483Y-81227510D01*
X158322490Y-81394517D01*
X158513567Y-81533343D01*
X158612991Y-81584002D01*
X158724003Y-81640566D01*
X158724005Y-81640566D01*
X158724008Y-81640568D01*
X158844412Y-81679689D01*
X158948631Y-81713553D01*
X159181903Y-81750500D01*
X159181908Y-81750500D01*
X159418097Y-81750500D01*
X159651368Y-81713553D01*
X159875992Y-81640568D01*
X160086433Y-81533343D01*
X160277510Y-81394517D01*
X160444517Y-81227510D01*
X160583343Y-81036433D01*
X160690568Y-80825992D01*
X160763553Y-80601368D01*
X160766469Y-80582956D01*
X160800500Y-80368097D01*
X160800500Y-80131902D01*
X160763553Y-79898631D01*
X160743290Y-79836269D01*
X160741295Y-79766428D01*
X160777375Y-79706595D01*
X160840076Y-79675766D01*
X160909490Y-79683730D01*
X160948900Y-79710267D01*
X161967048Y-80728415D01*
X161967049Y-80728416D01*
X162071584Y-80832951D01*
X162071587Y-80832953D01*
X162071588Y-80832954D01*
X162194503Y-80915083D01*
X162194506Y-80915085D01*
X162244665Y-80935861D01*
X162251080Y-80938518D01*
X162331088Y-80971659D01*
X162447241Y-80994763D01*
X162470380Y-80999365D01*
X162476081Y-81000500D01*
X162476082Y-81000500D01*
X162476083Y-81000500D01*
X162623918Y-81000500D01*
X165427369Y-81000500D01*
X165494408Y-81020185D01*
X165527685Y-81051613D01*
X165655483Y-81227510D01*
X165822490Y-81394517D01*
X166013567Y-81533343D01*
X166112991Y-81584002D01*
X166224003Y-81640566D01*
X166224005Y-81640566D01*
X166224008Y-81640568D01*
X166344412Y-81679689D01*
X166448631Y-81713553D01*
X166681903Y-81750500D01*
X166681908Y-81750500D01*
X166918097Y-81750500D01*
X167151368Y-81713553D01*
X167375992Y-81640568D01*
X167586433Y-81533343D01*
X167777510Y-81394517D01*
X167944517Y-81227510D01*
X168072313Y-81051613D01*
X168127643Y-81008949D01*
X168172631Y-81000500D01*
X171927369Y-81000500D01*
X171994408Y-81020185D01*
X172027685Y-81051613D01*
X172155483Y-81227510D01*
X172322490Y-81394517D01*
X172513567Y-81533343D01*
X172612991Y-81584002D01*
X172724003Y-81640566D01*
X172724005Y-81640566D01*
X172724008Y-81640568D01*
X172844412Y-81679689D01*
X172948631Y-81713553D01*
X173181903Y-81750500D01*
X173181908Y-81750500D01*
X173418097Y-81750500D01*
X173651368Y-81713553D01*
X173875992Y-81640568D01*
X174086433Y-81533343D01*
X174277510Y-81394517D01*
X174444517Y-81227510D01*
X174583343Y-81036433D01*
X174690568Y-80825992D01*
X174763553Y-80601368D01*
X174766469Y-80582956D01*
X174800500Y-80368097D01*
X174800500Y-80131902D01*
X174763553Y-79898631D01*
X174690566Y-79674003D01*
X174634002Y-79562991D01*
X174583343Y-79463567D01*
X174444517Y-79272490D01*
X174277510Y-79105483D01*
X174086433Y-78966657D01*
X174064935Y-78955703D01*
X173875996Y-78859433D01*
X173651368Y-78786446D01*
X173418097Y-78749500D01*
X173418092Y-78749500D01*
X173181908Y-78749500D01*
X173181903Y-78749500D01*
X172948631Y-78786446D01*
X172724003Y-78859433D01*
X172513566Y-78966657D01*
X172404550Y-79045862D01*
X172322490Y-79105483D01*
X172322488Y-79105485D01*
X172322487Y-79105485D01*
X172155485Y-79272487D01*
X172155485Y-79272488D01*
X172155483Y-79272490D01*
X172050454Y-79417050D01*
X172027687Y-79448386D01*
X171972357Y-79491051D01*
X171927369Y-79499500D01*
X168172631Y-79499500D01*
X168105592Y-79479815D01*
X168072313Y-79448386D01*
X168049546Y-79417050D01*
X167944517Y-79272490D01*
X167777510Y-79105483D01*
X167586433Y-78966657D01*
X167564935Y-78955703D01*
X167375996Y-78859433D01*
X167151368Y-78786446D01*
X166918097Y-78749500D01*
X166918092Y-78749500D01*
X166681908Y-78749500D01*
X166681903Y-78749500D01*
X166448631Y-78786446D01*
X166224003Y-78859433D01*
X166013566Y-78966657D01*
X165904550Y-79045862D01*
X165822490Y-79105483D01*
X165822488Y-79105485D01*
X165822487Y-79105485D01*
X165655485Y-79272487D01*
X165655485Y-79272488D01*
X165655483Y-79272490D01*
X165550454Y-79417050D01*
X165527687Y-79448386D01*
X165472357Y-79491051D01*
X165427369Y-79499500D01*
X162912229Y-79499500D01*
X162845190Y-79479815D01*
X162824548Y-79463181D01*
X160778421Y-77417052D01*
X160778414Y-77417046D01*
X160699174Y-77364100D01*
X160699075Y-77364035D01*
X160655495Y-77334916D01*
X160655494Y-77334915D01*
X160655492Y-77334914D01*
X160518917Y-77278343D01*
X160518907Y-77278340D01*
X160373920Y-77249500D01*
X160373918Y-77249500D01*
X149976082Y-77249500D01*
X149976076Y-77249500D01*
X149947242Y-77255234D01*
X149947243Y-77255235D01*
X149831093Y-77278339D01*
X149831083Y-77278342D01*
X149751081Y-77311479D01*
X149751082Y-77311480D01*
X149694506Y-77334915D01*
X149694498Y-77334919D01*
X149650926Y-77364034D01*
X149650925Y-77364034D01*
X149571585Y-77417046D01*
X149571578Y-77417052D01*
X145974451Y-81014181D01*
X145913128Y-81047666D01*
X145886770Y-81050500D01*
X133713229Y-81050500D01*
X133646190Y-81030815D01*
X133625548Y-81014181D01*
X132859819Y-80248451D01*
X132826334Y-80187128D01*
X132823500Y-80160770D01*
X132823500Y-78574499D01*
X132843185Y-78507460D01*
X132895989Y-78461705D01*
X132947495Y-78450499D01*
X134062008Y-78450499D01*
X134062498Y-78450449D01*
X134079895Y-78448671D01*
X134164797Y-78439999D01*
X134331334Y-78384814D01*
X134480656Y-78292712D01*
X134604712Y-78168656D01*
X134664461Y-78071787D01*
X134716409Y-78025062D01*
X134785371Y-78013839D01*
X134849454Y-78041683D01*
X134875539Y-78071787D01*
X134935288Y-78168656D01*
X135059344Y-78292712D01*
X135208666Y-78384814D01*
X135375203Y-78439999D01*
X135477991Y-78450500D01*
X136602008Y-78450499D01*
X136602498Y-78450449D01*
X136619895Y-78448671D01*
X136704797Y-78439999D01*
X136871334Y-78384814D01*
X137020656Y-78292712D01*
X137144712Y-78168656D01*
X137204461Y-78071787D01*
X137256409Y-78025062D01*
X137325371Y-78013839D01*
X137389454Y-78041683D01*
X137415539Y-78071787D01*
X137475288Y-78168656D01*
X137599344Y-78292712D01*
X137747927Y-78384358D01*
X137748671Y-78384817D01*
X137755216Y-78387869D01*
X137754163Y-78390126D01*
X137801939Y-78423196D01*
X137828770Y-78487708D01*
X137829500Y-78501141D01*
X137829500Y-79073918D01*
X137829500Y-79073920D01*
X137829499Y-79073920D01*
X137858340Y-79218907D01*
X137858343Y-79218917D01*
X137914914Y-79355492D01*
X137947812Y-79404727D01*
X137947813Y-79404730D01*
X137997046Y-79478414D01*
X137997052Y-79478421D01*
X139101585Y-80582952D01*
X139101590Y-80582956D01*
X139129147Y-80601368D01*
X139142373Y-80610205D01*
X139224505Y-80665084D01*
X139274834Y-80685931D01*
X139361088Y-80721659D01*
X139477241Y-80744763D01*
X139496468Y-80748587D01*
X139506081Y-80750500D01*
X139506082Y-80750500D01*
X144123920Y-80750500D01*
X144234944Y-80728415D01*
X144268913Y-80721658D01*
X144405495Y-80665084D01*
X144454729Y-80632186D01*
X144528416Y-80582952D01*
X147632952Y-77478415D01*
X147675268Y-77415084D01*
X147715084Y-77355495D01*
X147751153Y-77268416D01*
X147771659Y-77218912D01*
X147800500Y-77073917D01*
X147800500Y-76926082D01*
X147800500Y-70862230D01*
X147820185Y-70795191D01*
X147836819Y-70774549D01*
X149074549Y-69536819D01*
X149135872Y-69503334D01*
X149162230Y-69500500D01*
X150114582Y-69500500D01*
X150181621Y-69520185D01*
X150214900Y-69551615D01*
X150248028Y-69597212D01*
X150248032Y-69597217D01*
X150392786Y-69741971D01*
X150547749Y-69854556D01*
X150558390Y-69862287D01*
X150674607Y-69921503D01*
X150740776Y-69955218D01*
X150740778Y-69955218D01*
X150740781Y-69955220D01*
X150845137Y-69989127D01*
X150935465Y-70018477D01*
X151026351Y-70032872D01*
X151137648Y-70050500D01*
X151137649Y-70050500D01*
X151342351Y-70050500D01*
X151342352Y-70050500D01*
X151544534Y-70018477D01*
X151739219Y-69955220D01*
X151921610Y-69862287D01*
X152014590Y-69794732D01*
X152087213Y-69741971D01*
X152087215Y-69741968D01*
X152087219Y-69741966D01*
X152231966Y-69597219D01*
X152231968Y-69597215D01*
X152231971Y-69597213D01*
X152302236Y-69500500D01*
X152352287Y-69431610D01*
X152445220Y-69249219D01*
X152508477Y-69054534D01*
X152540500Y-68852352D01*
X152540500Y-68647648D01*
X152540002Y-68644505D01*
X152508477Y-68445465D01*
X152445218Y-68250776D01*
X152389868Y-68142147D01*
X152352287Y-68068390D01*
X152329350Y-68036819D01*
X152231971Y-67902786D01*
X152087213Y-67758028D01*
X151921613Y-67637715D01*
X151921612Y-67637714D01*
X151921610Y-67637713D01*
X151864653Y-67608691D01*
X151739223Y-67544781D01*
X151544534Y-67481522D01*
X151369995Y-67453878D01*
X151342352Y-67449500D01*
X151137648Y-67449500D01*
X151113329Y-67453351D01*
X150935465Y-67481522D01*
X150740776Y-67544781D01*
X150558386Y-67637715D01*
X150392786Y-67758028D01*
X150248032Y-67902782D01*
X150248028Y-67902787D01*
X150214900Y-67948385D01*
X150159571Y-67991051D01*
X150114582Y-67999500D01*
X148726076Y-67999500D01*
X148697242Y-68005234D01*
X148697243Y-68005235D01*
X148581092Y-68028339D01*
X148581086Y-68028341D01*
X148517376Y-68054731D01*
X148517366Y-68054735D01*
X148512871Y-68056598D01*
X148444505Y-68084916D01*
X148406774Y-68110127D01*
X148400700Y-68114185D01*
X148400689Y-68114191D01*
X148321585Y-68167046D01*
X148321578Y-68167052D01*
X146467049Y-70021581D01*
X146433874Y-70071231D01*
X146433875Y-70071232D01*
X146384914Y-70144508D01*
X146328343Y-70281082D01*
X146328340Y-70281092D01*
X146299500Y-70426079D01*
X146299500Y-76637770D01*
X146279815Y-76704809D01*
X146263181Y-76725451D01*
X143775451Y-79213181D01*
X143714128Y-79246666D01*
X143687770Y-79249500D01*
X139942229Y-79249500D01*
X139875190Y-79229815D01*
X139854548Y-79213181D01*
X139366819Y-78725451D01*
X139352115Y-78698523D01*
X139335523Y-78672705D01*
X139334631Y-78666504D01*
X139333334Y-78664128D01*
X139330500Y-78637770D01*
X139330500Y-78501141D01*
X139350185Y-78434102D01*
X139402989Y-78388347D01*
X139407862Y-78386433D01*
X139411328Y-78384817D01*
X139411331Y-78384814D01*
X139411334Y-78384814D01*
X139560656Y-78292712D01*
X139684712Y-78168656D01*
X139744461Y-78071787D01*
X139796409Y-78025062D01*
X139865371Y-78013839D01*
X139929454Y-78041683D01*
X139955539Y-78071787D01*
X140015288Y-78168656D01*
X140139344Y-78292712D01*
X140288666Y-78384814D01*
X140455203Y-78439999D01*
X140557991Y-78450500D01*
X141682008Y-78450499D01*
X141682498Y-78450449D01*
X141699895Y-78448671D01*
X141784797Y-78439999D01*
X141951334Y-78384814D01*
X142100656Y-78292712D01*
X142224712Y-78168656D01*
X142316814Y-78019334D01*
X142371999Y-77852797D01*
X142382500Y-77750009D01*
X142382499Y-75749992D01*
X142371999Y-75647203D01*
X142339641Y-75549556D01*
X142337240Y-75479729D01*
X142372971Y-75419687D01*
X142392252Y-75405014D01*
X142450368Y-75369168D01*
X142538656Y-75314712D01*
X142662712Y-75190656D01*
X142754814Y-75041334D01*
X142809999Y-74874797D01*
X142820500Y-74772009D01*
X142820499Y-73647992D01*
X142815044Y-73594595D01*
X142809999Y-73545203D01*
X142809998Y-73545200D01*
X142786303Y-73473694D01*
X142754814Y-73378666D01*
X142662712Y-73229344D01*
X142538656Y-73105288D01*
X142441787Y-73045539D01*
X142395062Y-72993591D01*
X142383839Y-72924629D01*
X142411683Y-72860546D01*
X142441787Y-72834461D01*
X142447497Y-72830938D01*
X142538656Y-72774712D01*
X142662712Y-72650656D01*
X142754814Y-72501334D01*
X142809999Y-72334797D01*
X142820500Y-72232009D01*
X142820499Y-71107992D01*
X142809999Y-71005203D01*
X142754814Y-70838666D01*
X142662712Y-70689344D01*
X142538656Y-70565288D01*
X142441787Y-70505539D01*
X142395062Y-70453591D01*
X142383839Y-70384629D01*
X142411683Y-70320546D01*
X142441787Y-70294461D01*
X142447497Y-70290938D01*
X142538656Y-70234712D01*
X142662712Y-70110656D01*
X142754814Y-69961334D01*
X142809999Y-69794797D01*
X142820500Y-69692009D01*
X142820499Y-68567992D01*
X142819708Y-68560253D01*
X142809999Y-68465203D01*
X142809998Y-68465200D01*
X142803458Y-68445465D01*
X142754814Y-68298666D01*
X142662712Y-68149344D01*
X142538656Y-68025288D01*
X142441787Y-67965539D01*
X142395062Y-67913591D01*
X142383839Y-67844629D01*
X142411683Y-67780546D01*
X142441787Y-67754461D01*
X142447497Y-67750938D01*
X142538656Y-67694712D01*
X142662712Y-67570656D01*
X142754814Y-67421334D01*
X142809999Y-67254797D01*
X142820500Y-67152009D01*
X142820499Y-66037499D01*
X142840184Y-65970461D01*
X142892987Y-65924706D01*
X142944499Y-65913500D01*
X144378032Y-65913500D01*
X144445071Y-65933185D01*
X144488517Y-65981205D01*
X144516657Y-66036433D01*
X144655483Y-66227510D01*
X144822490Y-66394517D01*
X145013567Y-66533343D01*
X145112991Y-66584002D01*
X145224003Y-66640566D01*
X145224005Y-66640566D01*
X145224008Y-66640568D01*
X145305499Y-66667046D01*
X145448631Y-66713553D01*
X145681903Y-66750500D01*
X145681908Y-66750500D01*
X145918097Y-66750500D01*
X146151368Y-66713553D01*
X146375992Y-66640568D01*
X146586433Y-66533343D01*
X146777510Y-66394517D01*
X146944517Y-66227510D01*
X147072313Y-66051613D01*
X147127643Y-66008949D01*
X147172631Y-66000500D01*
X150927369Y-66000500D01*
X150994408Y-66020185D01*
X151027685Y-66051613D01*
X151155483Y-66227510D01*
X151322490Y-66394517D01*
X151513567Y-66533343D01*
X151612991Y-66584002D01*
X151724003Y-66640566D01*
X151724005Y-66640566D01*
X151724008Y-66640568D01*
X151805499Y-66667046D01*
X151948631Y-66713553D01*
X152181903Y-66750500D01*
X152181908Y-66750500D01*
X152418097Y-66750500D01*
X152651368Y-66713553D01*
X152875992Y-66640568D01*
X153086433Y-66533343D01*
X153277510Y-66394517D01*
X153444517Y-66227510D01*
X153583343Y-66036433D01*
X153690568Y-65825992D01*
X153763553Y-65601368D01*
X153776578Y-65519132D01*
X153800500Y-65368097D01*
X153800500Y-65131902D01*
X153763553Y-64898631D01*
X153708248Y-64728421D01*
X153690568Y-64674008D01*
X153690566Y-64674005D01*
X153690566Y-64674003D01*
X153622293Y-64540011D01*
X153583343Y-64463567D01*
X153444517Y-64272490D01*
X153277510Y-64105483D01*
X153097664Y-63974816D01*
X153055000Y-63919488D01*
X153049021Y-63849874D01*
X153081627Y-63788080D01*
X153142466Y-63753722D01*
X153170551Y-63750500D01*
X158929449Y-63750500D01*
X158996488Y-63770185D01*
X159042243Y-63822989D01*
X159052187Y-63892147D01*
X159023162Y-63955703D01*
X159002337Y-63974815D01*
X158822490Y-64105483D01*
X158822488Y-64105485D01*
X158822487Y-64105485D01*
X158655485Y-64272487D01*
X158655485Y-64272488D01*
X158655483Y-64272490D01*
X158618119Y-64323917D01*
X158516657Y-64463566D01*
X158409433Y-64674003D01*
X158336446Y-64898631D01*
X158299500Y-65131902D01*
X158299500Y-65368097D01*
X158336446Y-65601368D01*
X158409433Y-65825996D01*
X158495425Y-65994763D01*
X158516657Y-66036433D01*
X158655483Y-66227510D01*
X158655485Y-66227512D01*
X158715792Y-66287819D01*
X158749277Y-66349142D01*
X158744293Y-66418834D01*
X158702421Y-66474767D01*
X158636957Y-66499184D01*
X158628111Y-66499500D01*
X155476082Y-66499500D01*
X155456531Y-66503389D01*
X155456530Y-66503389D01*
X155331095Y-66528339D01*
X155331087Y-66528341D01*
X155274796Y-66551658D01*
X155194509Y-66584914D01*
X155194496Y-66584921D01*
X155145269Y-66617813D01*
X155071588Y-66667044D01*
X155071580Y-66667050D01*
X153217047Y-68521584D01*
X153204710Y-68540049D01*
X153191209Y-68560256D01*
X153162965Y-68602525D01*
X153134914Y-68644507D01*
X153078343Y-68781082D01*
X153078340Y-68781092D01*
X153049500Y-68926079D01*
X153049500Y-72350249D01*
X153029815Y-72417288D01*
X152999812Y-72449515D01*
X152942457Y-72492451D01*
X152942451Y-72492457D01*
X152856206Y-72607664D01*
X152856202Y-72607671D01*
X152805908Y-72742517D01*
X152799501Y-72802116D01*
X152799500Y-72802135D01*
X152799500Y-74697870D01*
X152799501Y-74697876D01*
X152805908Y-74757483D01*
X152856202Y-74892328D01*
X152856206Y-74892335D01*
X152942452Y-75007544D01*
X152942455Y-75007547D01*
X153057664Y-75093793D01*
X153057671Y-75093797D01*
X153192517Y-75144091D01*
X153192516Y-75144091D01*
X153199444Y-75144835D01*
X153252127Y-75150500D01*
X154347872Y-75150499D01*
X154407483Y-75144091D01*
X154542331Y-75093796D01*
X154554575Y-75084629D01*
X154620035Y-75060210D01*
X154676339Y-75069333D01*
X154778308Y-75111569D01*
X154820000Y-75119862D01*
X154820000Y-74125277D01*
X154896306Y-74169333D01*
X155010756Y-74200000D01*
X155129244Y-74200000D01*
X155243694Y-74169333D01*
X155320000Y-74125277D01*
X155320000Y-75119862D01*
X155361690Y-75111569D01*
X155361692Y-75111569D01*
X155543673Y-75036191D01*
X155543676Y-75036189D01*
X155635657Y-74974729D01*
X155702334Y-74953850D01*
X155769715Y-74972334D01*
X155773440Y-74974728D01*
X155866079Y-75036628D01*
X155866092Y-75036635D01*
X156034044Y-75106202D01*
X156048165Y-75112051D01*
X156048169Y-75112051D01*
X156048170Y-75112052D01*
X156241456Y-75150500D01*
X156241459Y-75150500D01*
X156438543Y-75150500D01*
X156592567Y-75119862D01*
X156631835Y-75112051D01*
X156782848Y-75049500D01*
X156813907Y-75036635D01*
X156813907Y-75036634D01*
X156813914Y-75036632D01*
X156887834Y-74987240D01*
X156906109Y-74975029D01*
X156972786Y-74954151D01*
X157040166Y-74972635D01*
X157043891Y-74975029D01*
X157117058Y-75023918D01*
X157136086Y-75036632D01*
X157136088Y-75036633D01*
X157136092Y-75036635D01*
X157304044Y-75106202D01*
X157318165Y-75112051D01*
X157318169Y-75112051D01*
X157318170Y-75112052D01*
X157511456Y-75150500D01*
X157511459Y-75150500D01*
X157708543Y-75150500D01*
X157862567Y-75119862D01*
X157901835Y-75112051D01*
X158052848Y-75049500D01*
X158083907Y-75036635D01*
X158083907Y-75036634D01*
X158083914Y-75036632D01*
X158247782Y-74927139D01*
X158387139Y-74787782D01*
X158496632Y-74623914D01*
X158497164Y-74622631D01*
X158538716Y-74522313D01*
X158572051Y-74441835D01*
X158600687Y-74297873D01*
X158610500Y-74248543D01*
X158610500Y-73251456D01*
X158572052Y-73058170D01*
X158572051Y-73058169D01*
X158572051Y-73058165D01*
X158553420Y-73013186D01*
X158496635Y-72876092D01*
X158496628Y-72876079D01*
X158387139Y-72712218D01*
X158387136Y-72712214D01*
X158247785Y-72572863D01*
X158247781Y-72572860D01*
X158083920Y-72463371D01*
X158083907Y-72463364D01*
X157901839Y-72387950D01*
X157901829Y-72387947D01*
X157708543Y-72349500D01*
X157708541Y-72349500D01*
X157511459Y-72349500D01*
X157511457Y-72349500D01*
X157318170Y-72387947D01*
X157318160Y-72387950D01*
X157136089Y-72463366D01*
X157043890Y-72524971D01*
X156977213Y-72545848D01*
X156909833Y-72527363D01*
X156906110Y-72524971D01*
X156851218Y-72488294D01*
X156813914Y-72463368D01*
X156813911Y-72463366D01*
X156813910Y-72463366D01*
X156631839Y-72387950D01*
X156631829Y-72387947D01*
X156438543Y-72349500D01*
X156438541Y-72349500D01*
X156241459Y-72349500D01*
X156241457Y-72349500D01*
X156048170Y-72387947D01*
X156048160Y-72387950D01*
X155866093Y-72463364D01*
X155866082Y-72463370D01*
X155773440Y-72525271D01*
X155706762Y-72546148D01*
X155639382Y-72527663D01*
X155635659Y-72525270D01*
X155543684Y-72463814D01*
X155543671Y-72463807D01*
X155361691Y-72388429D01*
X155361683Y-72388427D01*
X155320000Y-72380135D01*
X155320000Y-73374722D01*
X155243694Y-73330667D01*
X155129244Y-73300000D01*
X155010756Y-73300000D01*
X154896306Y-73330667D01*
X154820000Y-73374722D01*
X154820000Y-72380136D01*
X154819999Y-72380135D01*
X154778316Y-72388427D01*
X154721951Y-72411774D01*
X154652482Y-72419242D01*
X154590003Y-72387966D01*
X154554351Y-72327877D01*
X154550500Y-72297212D01*
X154550500Y-69362230D01*
X154570185Y-69295191D01*
X154586819Y-69274549D01*
X155824549Y-68036819D01*
X155885872Y-68003334D01*
X155912230Y-68000500D01*
X157579955Y-68000500D01*
X157646994Y-68020185D01*
X157692749Y-68072989D01*
X157702693Y-68142147D01*
X157690440Y-68180795D01*
X157654781Y-68250776D01*
X157591522Y-68445465D01*
X157559500Y-68647648D01*
X157559500Y-68852351D01*
X157591522Y-69054534D01*
X157654781Y-69249223D01*
X157747715Y-69431613D01*
X157868028Y-69597213D01*
X158012786Y-69741971D01*
X158167749Y-69854556D01*
X158178390Y-69862287D01*
X158294607Y-69921503D01*
X158360776Y-69955218D01*
X158360778Y-69955218D01*
X158360781Y-69955220D01*
X158465137Y-69989127D01*
X158555465Y-70018477D01*
X158646351Y-70032872D01*
X158757648Y-70050500D01*
X158757649Y-70050500D01*
X158962351Y-70050500D01*
X158962352Y-70050500D01*
X159164534Y-70018477D01*
X159359219Y-69955220D01*
X159541610Y-69862287D01*
X159634590Y-69794732D01*
X159707213Y-69741971D01*
X159707215Y-69741968D01*
X159707219Y-69741966D01*
X159851966Y-69597219D01*
X159957753Y-69451613D01*
X160013082Y-69408949D01*
X160058071Y-69400500D01*
X161479192Y-69400500D01*
X161546231Y-69420185D01*
X161566873Y-69436819D01*
X162523326Y-70393272D01*
X162556811Y-70454595D01*
X162551827Y-70524287D01*
X162509955Y-70580220D01*
X162491939Y-70591438D01*
X162394863Y-70640899D01*
X162394859Y-70640902D01*
X162359873Y-70666320D01*
X162359872Y-70666320D01*
X163003553Y-71310000D01*
X162997339Y-71310000D01*
X162895606Y-71337259D01*
X162804394Y-71389920D01*
X162729920Y-71464394D01*
X162677259Y-71555606D01*
X162650000Y-71657339D01*
X162650000Y-71663552D01*
X162006320Y-71019872D01*
X162006320Y-71019873D01*
X161980902Y-71054859D01*
X161980899Y-71054863D01*
X161891582Y-71230161D01*
X161830778Y-71417294D01*
X161800000Y-71611617D01*
X161800000Y-71808382D01*
X161830778Y-72002705D01*
X161891581Y-72189835D01*
X161980905Y-72365145D01*
X162006319Y-72400125D01*
X162006320Y-72400125D01*
X162650000Y-71756445D01*
X162650000Y-71762661D01*
X162677259Y-71864394D01*
X162729920Y-71955606D01*
X162804394Y-72030080D01*
X162895606Y-72082741D01*
X162997339Y-72110000D01*
X163003553Y-72110000D01*
X162359873Y-72753677D01*
X162359873Y-72753678D01*
X162394858Y-72779096D01*
X162571764Y-72869234D01*
X162622560Y-72917209D01*
X162639355Y-72985030D01*
X162616818Y-73051164D01*
X162571764Y-73090204D01*
X162394594Y-73180476D01*
X162327337Y-73229342D01*
X162235354Y-73296172D01*
X162235352Y-73296174D01*
X162235351Y-73296174D01*
X162096174Y-73435351D01*
X162096174Y-73435352D01*
X162096172Y-73435354D01*
X162068316Y-73473694D01*
X161980476Y-73594594D01*
X161891117Y-73769970D01*
X161830290Y-73957173D01*
X161799500Y-74151577D01*
X161799500Y-74348422D01*
X161830290Y-74542826D01*
X161891117Y-74730029D01*
X161977977Y-74900500D01*
X161980476Y-74905405D01*
X162096172Y-75064646D01*
X162235354Y-75203828D01*
X162388621Y-75315184D01*
X162431285Y-75370512D01*
X162437264Y-75440125D01*
X162404658Y-75501920D01*
X162343819Y-75536278D01*
X162315736Y-75539500D01*
X162252130Y-75539500D01*
X162252123Y-75539501D01*
X162192516Y-75545908D01*
X162057671Y-75596202D01*
X162057664Y-75596206D01*
X161942455Y-75682452D01*
X161942452Y-75682455D01*
X161856206Y-75797664D01*
X161856202Y-75797671D01*
X161805908Y-75932517D01*
X161799501Y-75992116D01*
X161799500Y-75992135D01*
X161799500Y-77587870D01*
X161799501Y-77587876D01*
X161805908Y-77647483D01*
X161856202Y-77782328D01*
X161856206Y-77782335D01*
X161942452Y-77897544D01*
X161942455Y-77897547D01*
X162057664Y-77983793D01*
X162057671Y-77983797D01*
X162192517Y-78034091D01*
X162192516Y-78034091D01*
X162199444Y-78034835D01*
X162252127Y-78040500D01*
X163847872Y-78040499D01*
X163907483Y-78034091D01*
X164042331Y-77983796D01*
X164157546Y-77897546D01*
X164243796Y-77782331D01*
X164294091Y-77647483D01*
X164294091Y-77647481D01*
X164295874Y-77639938D01*
X164298146Y-77640474D01*
X164320429Y-77586688D01*
X164377823Y-77546843D01*
X164416976Y-77540500D01*
X183333920Y-77540500D01*
X183431462Y-77521096D01*
X183478913Y-77511658D01*
X183615495Y-77455084D01*
X183615501Y-77455080D01*
X183672419Y-77417049D01*
X183672421Y-77417048D01*
X183738410Y-77372956D01*
X183738409Y-77372956D01*
X183738416Y-77372952D01*
X185682952Y-75428416D01*
X185758925Y-75314712D01*
X185765084Y-75305495D01*
X185821658Y-75168913D01*
X185842398Y-75064648D01*
X185850500Y-75023920D01*
X185850500Y-74622631D01*
X185870185Y-74555592D01*
X185901614Y-74522313D01*
X186077510Y-74394517D01*
X186244517Y-74227510D01*
X186383343Y-74036433D01*
X186490568Y-73825992D01*
X186563553Y-73601368D01*
X186567522Y-73576306D01*
X186600500Y-73368097D01*
X186600500Y-73131902D01*
X186563553Y-72898631D01*
X186501337Y-72707153D01*
X186490568Y-72674008D01*
X186490566Y-72674005D01*
X186490566Y-72674003D01*
X186425267Y-72545848D01*
X186383343Y-72463567D01*
X186244517Y-72272490D01*
X186077510Y-72105483D01*
X186026879Y-72068697D01*
X185901614Y-71977686D01*
X185858949Y-71922355D01*
X185850500Y-71877368D01*
X185850500Y-71226080D01*
X185840554Y-71176083D01*
X185840554Y-71176082D01*
X185821659Y-71081088D01*
X185779130Y-70978416D01*
X185765084Y-70944505D01*
X185682951Y-70821584D01*
X185578416Y-70717049D01*
X184961168Y-70099801D01*
X183028421Y-68167052D01*
X183028414Y-68167046D01*
X182943226Y-68110126D01*
X182943225Y-68110126D01*
X182905501Y-68084919D01*
X182905488Y-68084912D01*
X182768917Y-68028343D01*
X182768907Y-68028340D01*
X182623920Y-67999500D01*
X182623918Y-67999500D01*
X174735418Y-67999500D01*
X174668379Y-67979815D01*
X174635100Y-67948385D01*
X174601971Y-67902787D01*
X174601967Y-67902782D01*
X174457213Y-67758028D01*
X174291613Y-67637715D01*
X174291612Y-67637714D01*
X174291610Y-67637713D01*
X174234653Y-67608691D01*
X174109223Y-67544781D01*
X173914534Y-67481522D01*
X173739995Y-67453878D01*
X173712352Y-67449500D01*
X173507648Y-67449500D01*
X173483329Y-67453351D01*
X173305465Y-67481522D01*
X173110776Y-67544781D01*
X172928386Y-67637715D01*
X172762786Y-67758028D01*
X172618028Y-67902786D01*
X172497715Y-68068386D01*
X172404781Y-68250776D01*
X172341522Y-68445465D01*
X172309500Y-68647648D01*
X172309500Y-68852351D01*
X172341522Y-69054534D01*
X172371832Y-69147815D01*
X172383628Y-69184121D01*
X172386770Y-69193789D01*
X172388765Y-69263631D01*
X172352685Y-69323464D01*
X172289984Y-69354292D01*
X172220570Y-69346328D01*
X172181158Y-69319789D01*
X171028421Y-68167052D01*
X171028414Y-68167046D01*
X170943226Y-68110126D01*
X170943225Y-68110126D01*
X170905501Y-68084919D01*
X170905488Y-68084912D01*
X170768917Y-68028343D01*
X170768907Y-68028340D01*
X170623920Y-67999500D01*
X170623918Y-67999500D01*
X167115418Y-67999500D01*
X167048379Y-67979815D01*
X167015100Y-67948385D01*
X166981971Y-67902787D01*
X166981967Y-67902782D01*
X166837213Y-67758028D01*
X166671613Y-67637715D01*
X166671612Y-67637714D01*
X166671610Y-67637713D01*
X166614653Y-67608691D01*
X166489223Y-67544781D01*
X166294534Y-67481522D01*
X166119995Y-67453878D01*
X166092352Y-67449500D01*
X165887648Y-67449500D01*
X165863329Y-67453351D01*
X165685465Y-67481522D01*
X165490776Y-67544781D01*
X165308386Y-67637715D01*
X165142786Y-67758028D01*
X164998028Y-67902786D01*
X164877715Y-68068386D01*
X164784781Y-68250776D01*
X164721522Y-68445465D01*
X164689500Y-68647648D01*
X164689500Y-68852351D01*
X164719337Y-69040736D01*
X164710382Y-69110030D01*
X164665386Y-69163482D01*
X164598635Y-69184121D01*
X164531321Y-69165396D01*
X164509183Y-69147815D01*
X162028421Y-66667052D01*
X162028414Y-66667046D01*
X161954729Y-66617812D01*
X161954729Y-66617813D01*
X161905491Y-66584913D01*
X161768917Y-66528343D01*
X161768907Y-66528340D01*
X161623920Y-66499500D01*
X161623918Y-66499500D01*
X160971889Y-66499500D01*
X160904850Y-66479815D01*
X160859095Y-66427011D01*
X160849151Y-66357853D01*
X160878176Y-66294297D01*
X160884208Y-66287819D01*
X160944517Y-66227510D01*
X161072313Y-66051613D01*
X161127643Y-66008949D01*
X161172631Y-66000500D01*
X164927369Y-66000500D01*
X164994408Y-66020185D01*
X165027685Y-66051613D01*
X165155483Y-66227510D01*
X165322490Y-66394517D01*
X165513567Y-66533343D01*
X165612991Y-66584002D01*
X165724003Y-66640566D01*
X165724005Y-66640566D01*
X165724008Y-66640568D01*
X165805499Y-66667046D01*
X165948631Y-66713553D01*
X166181903Y-66750500D01*
X166181908Y-66750500D01*
X166418097Y-66750500D01*
X166651368Y-66713553D01*
X166875992Y-66640568D01*
X167086433Y-66533343D01*
X167277510Y-66394517D01*
X167444517Y-66227510D01*
X167583343Y-66036433D01*
X167690568Y-65825992D01*
X167763553Y-65601368D01*
X167776578Y-65519132D01*
X167800500Y-65368097D01*
X167800500Y-65131902D01*
X167763553Y-64898631D01*
X167708248Y-64728421D01*
X167690568Y-64674008D01*
X167690566Y-64674005D01*
X167690566Y-64674003D01*
X167622293Y-64540011D01*
X167583343Y-64463567D01*
X167444517Y-64272490D01*
X167277510Y-64105483D01*
X167097664Y-63974816D01*
X167055000Y-63919488D01*
X167049021Y-63849874D01*
X167081627Y-63788080D01*
X167142466Y-63753722D01*
X167170551Y-63750500D01*
X171187770Y-63750500D01*
X171254809Y-63770185D01*
X171275451Y-63786819D01*
X172298719Y-64810086D01*
X172332204Y-64871409D01*
X172333511Y-64917165D01*
X172299500Y-65131902D01*
X172299500Y-65368097D01*
X172336446Y-65601368D01*
X172409433Y-65825996D01*
X172495425Y-65994763D01*
X172516657Y-66036433D01*
X172655483Y-66227510D01*
X172822490Y-66394517D01*
X173013567Y-66533343D01*
X173112991Y-66584002D01*
X173224003Y-66640566D01*
X173224005Y-66640566D01*
X173224008Y-66640568D01*
X173305499Y-66667046D01*
X173448631Y-66713553D01*
X173681903Y-66750500D01*
X173681908Y-66750500D01*
X173918097Y-66750500D01*
X174151368Y-66713553D01*
X174375992Y-66640568D01*
X174586433Y-66533343D01*
X174777510Y-66394517D01*
X174944517Y-66227510D01*
X175072313Y-66051613D01*
X175127643Y-66008949D01*
X175172631Y-66000500D01*
X178927369Y-66000500D01*
X178994408Y-66020185D01*
X179027685Y-66051613D01*
X179155483Y-66227510D01*
X179322490Y-66394517D01*
X179513567Y-66533343D01*
X179612991Y-66584002D01*
X179724003Y-66640566D01*
X179724005Y-66640566D01*
X179724008Y-66640568D01*
X179805499Y-66667046D01*
X179948631Y-66713553D01*
X180181903Y-66750500D01*
X180181908Y-66750500D01*
X180418097Y-66750500D01*
X180651368Y-66713553D01*
X180875992Y-66640568D01*
X181086433Y-66533343D01*
X181277510Y-66394517D01*
X181444517Y-66227510D01*
X181572313Y-66051613D01*
X181627643Y-66008949D01*
X181672631Y-66000500D01*
X182623920Y-66000500D01*
X182721462Y-65981096D01*
X182768913Y-65971658D01*
X182905495Y-65915084D01*
X182968371Y-65873072D01*
X183028416Y-65832952D01*
X184132952Y-64728415D01*
X184175545Y-64664669D01*
X184215084Y-64605495D01*
X184247042Y-64528342D01*
X184271659Y-64468912D01*
X184300500Y-64323917D01*
X184300500Y-64176082D01*
X184300500Y-51176082D01*
X184300500Y-38426082D01*
X184300500Y-38426079D01*
X184271659Y-38281092D01*
X184271658Y-38281091D01*
X184271658Y-38281087D01*
X184215084Y-38144505D01*
X184182186Y-38095270D01*
X184153017Y-38051614D01*
X184132956Y-38021589D01*
X184132952Y-38021584D01*
X182778421Y-36667052D01*
X182778420Y-36667051D01*
X182686292Y-36605494D01*
X182655495Y-36584916D01*
X182655488Y-36584912D01*
X182518917Y-36528343D01*
X182518907Y-36528340D01*
X182373920Y-36499500D01*
X182373918Y-36499500D01*
X181672631Y-36499500D01*
X181605592Y-36479815D01*
X181572313Y-36448386D01*
X181444517Y-36272490D01*
X181277510Y-36105483D01*
X181086433Y-35966657D01*
X180875996Y-35859433D01*
X180651368Y-35786446D01*
X180418097Y-35749500D01*
X180418092Y-35749500D01*
X180181908Y-35749500D01*
X180181903Y-35749500D01*
X179948631Y-35786446D01*
X179724003Y-35859433D01*
X179513566Y-35966657D01*
X179424888Y-36031086D01*
X179322490Y-36105483D01*
X179322488Y-36105485D01*
X179322487Y-36105485D01*
X179155485Y-36272487D01*
X179155485Y-36272488D01*
X179155483Y-36272490D01*
X179027687Y-36448386D01*
X178972357Y-36491051D01*
X178927369Y-36499500D01*
X175172631Y-36499500D01*
X175105592Y-36479815D01*
X175072313Y-36448386D01*
X174944517Y-36272490D01*
X174777510Y-36105483D01*
X174586433Y-35966657D01*
X174375996Y-35859433D01*
X174151368Y-35786446D01*
X173918097Y-35749500D01*
X173918092Y-35749500D01*
X173681908Y-35749500D01*
X173681903Y-35749500D01*
X173448631Y-35786446D01*
X173224003Y-35859433D01*
X173013566Y-35966657D01*
X172924888Y-36031086D01*
X172822490Y-36105483D01*
X172822488Y-36105485D01*
X172822487Y-36105485D01*
X172655485Y-36272487D01*
X172655485Y-36272488D01*
X172655483Y-36272490D01*
X172595862Y-36354550D01*
X172516657Y-36463566D01*
X172409433Y-36674003D01*
X172336446Y-36898631D01*
X172299500Y-37131902D01*
X172299500Y-37368097D01*
X172336446Y-37601368D01*
X172409433Y-37825996D01*
X172498348Y-38000500D01*
X172516657Y-38036433D01*
X172655483Y-38227510D01*
X172822490Y-38394517D01*
X173013567Y-38533343D01*
X173106141Y-38580512D01*
X173224003Y-38640566D01*
X173224005Y-38640566D01*
X173224008Y-38640568D01*
X173336168Y-38677011D01*
X173448631Y-38713553D01*
X173681903Y-38750500D01*
X173681908Y-38750500D01*
X173918097Y-38750500D01*
X174151368Y-38713553D01*
X174156394Y-38711920D01*
X174375992Y-38640568D01*
X174586433Y-38533343D01*
X174777510Y-38394517D01*
X174944517Y-38227510D01*
X175072313Y-38051613D01*
X175127643Y-38008949D01*
X175172631Y-38000500D01*
X178927369Y-38000500D01*
X178994408Y-38020185D01*
X179027685Y-38051613D01*
X179155483Y-38227510D01*
X179322490Y-38394517D01*
X179513567Y-38533343D01*
X179606141Y-38580512D01*
X179724003Y-38640566D01*
X179724005Y-38640566D01*
X179724008Y-38640568D01*
X179836168Y-38677011D01*
X179948631Y-38713553D01*
X180181903Y-38750500D01*
X180181908Y-38750500D01*
X180418097Y-38750500D01*
X180651368Y-38713553D01*
X180656394Y-38711920D01*
X180875992Y-38640568D01*
X181086433Y-38533343D01*
X181277510Y-38394517D01*
X181444517Y-38227510D01*
X181572313Y-38051613D01*
X181627643Y-38008949D01*
X181672631Y-38000500D01*
X181937770Y-38000500D01*
X182004809Y-38020185D01*
X182025451Y-38036819D01*
X182763181Y-38774549D01*
X182796666Y-38835872D01*
X182799500Y-38862230D01*
X182799500Y-50375500D01*
X182779815Y-50442539D01*
X182727011Y-50488294D01*
X182675500Y-50499500D01*
X181672631Y-50499500D01*
X181605592Y-50479815D01*
X181572313Y-50448386D01*
X181444517Y-50272490D01*
X181277510Y-50105483D01*
X181086433Y-49966657D01*
X181064935Y-49955703D01*
X180875996Y-49859433D01*
X180651368Y-49786446D01*
X180418097Y-49749500D01*
X180418092Y-49749500D01*
X180181908Y-49749500D01*
X180181903Y-49749500D01*
X179948631Y-49786446D01*
X179724003Y-49859433D01*
X179513566Y-49966657D01*
X179404550Y-50045862D01*
X179322490Y-50105483D01*
X179322488Y-50105485D01*
X179322487Y-50105485D01*
X179155485Y-50272487D01*
X179155485Y-50272488D01*
X179155483Y-50272490D01*
X179027687Y-50448386D01*
X178972357Y-50491051D01*
X178927369Y-50499500D01*
X175172631Y-50499500D01*
X175105592Y-50479815D01*
X175072313Y-50448386D01*
X174944517Y-50272490D01*
X174777510Y-50105483D01*
X174586433Y-49966657D01*
X174564935Y-49955703D01*
X174375996Y-49859433D01*
X174151368Y-49786446D01*
X173918097Y-49749500D01*
X173918092Y-49749500D01*
X173681908Y-49749500D01*
X173681903Y-49749500D01*
X173448631Y-49786446D01*
X173224003Y-49859433D01*
X173013566Y-49966657D01*
X172904550Y-50045862D01*
X172822490Y-50105483D01*
X172822488Y-50105485D01*
X172822487Y-50105485D01*
X172655485Y-50272487D01*
X172655485Y-50272488D01*
X172655483Y-50272490D01*
X172595862Y-50354550D01*
X172516657Y-50463566D01*
X172409433Y-50674003D01*
X172336446Y-50898631D01*
X172299500Y-51131902D01*
X172299500Y-51368097D01*
X172336446Y-51601368D01*
X172409433Y-51825996D01*
X172507508Y-52018477D01*
X172516657Y-52036433D01*
X172655483Y-52227510D01*
X172822490Y-52394517D01*
X173013567Y-52533343D01*
X173112991Y-52584002D01*
X173224003Y-52640566D01*
X173224005Y-52640566D01*
X173224008Y-52640568D01*
X173344412Y-52679689D01*
X173448631Y-52713553D01*
X173681903Y-52750500D01*
X173681908Y-52750500D01*
X173918097Y-52750500D01*
X174151368Y-52713553D01*
X174375992Y-52640568D01*
X174586433Y-52533343D01*
X174777510Y-52394517D01*
X174944517Y-52227510D01*
X175072313Y-52051613D01*
X175127643Y-52008949D01*
X175172631Y-52000500D01*
X178927369Y-52000500D01*
X178994408Y-52020185D01*
X179027685Y-52051613D01*
X179155483Y-52227510D01*
X179322490Y-52394517D01*
X179513567Y-52533343D01*
X179612991Y-52584002D01*
X179724003Y-52640566D01*
X179724005Y-52640566D01*
X179724008Y-52640568D01*
X179844412Y-52679689D01*
X179948631Y-52713553D01*
X180181903Y-52750500D01*
X180181908Y-52750500D01*
X180418097Y-52750500D01*
X180651368Y-52713553D01*
X180875992Y-52640568D01*
X181086433Y-52533343D01*
X181277510Y-52394517D01*
X181444517Y-52227510D01*
X181572313Y-52051613D01*
X181627643Y-52008949D01*
X181672631Y-52000500D01*
X182675500Y-52000500D01*
X182742539Y-52020185D01*
X182788294Y-52072989D01*
X182799500Y-52124500D01*
X182799500Y-63887770D01*
X182779815Y-63954809D01*
X182763181Y-63975451D01*
X182275451Y-64463181D01*
X182214128Y-64496666D01*
X182187770Y-64499500D01*
X181672631Y-64499500D01*
X181605592Y-64479815D01*
X181572313Y-64448386D01*
X181444517Y-64272490D01*
X181277510Y-64105483D01*
X181086433Y-63966657D01*
X181063180Y-63954809D01*
X180875996Y-63859433D01*
X180651368Y-63786446D01*
X180418097Y-63749500D01*
X180418092Y-63749500D01*
X180181908Y-63749500D01*
X180181903Y-63749500D01*
X179948631Y-63786446D01*
X179724003Y-63859433D01*
X179513566Y-63966657D01*
X179424888Y-64031086D01*
X179322490Y-64105483D01*
X179322488Y-64105485D01*
X179322487Y-64105485D01*
X179155485Y-64272487D01*
X179155485Y-64272488D01*
X179155483Y-64272490D01*
X179027687Y-64448386D01*
X178972357Y-64491051D01*
X178927369Y-64499500D01*
X175172631Y-64499500D01*
X175105592Y-64479815D01*
X175072313Y-64448386D01*
X174944517Y-64272490D01*
X174777510Y-64105483D01*
X174586433Y-63966657D01*
X174563180Y-63954809D01*
X174375996Y-63859433D01*
X174151368Y-63786446D01*
X173918097Y-63749500D01*
X173918092Y-63749500D01*
X173681908Y-63749500D01*
X173681903Y-63749500D01*
X173467165Y-63783511D01*
X173397871Y-63774556D01*
X173360086Y-63748719D01*
X172028421Y-62417052D01*
X172028414Y-62417046D01*
X171954729Y-62367812D01*
X171954729Y-62367813D01*
X171905491Y-62334913D01*
X171768917Y-62278343D01*
X171768907Y-62278340D01*
X171623920Y-62249500D01*
X171623918Y-62249500D01*
X167170551Y-62249500D01*
X167103512Y-62229815D01*
X167057757Y-62177011D01*
X167047813Y-62107853D01*
X167076838Y-62044297D01*
X167097662Y-62025184D01*
X167277510Y-61894517D01*
X167444517Y-61727510D01*
X167572313Y-61551613D01*
X167627643Y-61508949D01*
X167672631Y-61500500D01*
X172427369Y-61500500D01*
X172494408Y-61520185D01*
X172527685Y-61551613D01*
X172655483Y-61727510D01*
X172822490Y-61894517D01*
X173013567Y-62033343D01*
X173089522Y-62072044D01*
X173224003Y-62140566D01*
X173224005Y-62140566D01*
X173224008Y-62140568D01*
X173336168Y-62177011D01*
X173448631Y-62213553D01*
X173681903Y-62250500D01*
X173681908Y-62250500D01*
X173918097Y-62250500D01*
X174151368Y-62213553D01*
X174156394Y-62211920D01*
X174375992Y-62140568D01*
X174586433Y-62033343D01*
X174777510Y-61894517D01*
X174944517Y-61727510D01*
X175072313Y-61551613D01*
X175127643Y-61508949D01*
X175172631Y-61500500D01*
X178927369Y-61500500D01*
X178994408Y-61520185D01*
X179027685Y-61551613D01*
X179155483Y-61727510D01*
X179322490Y-61894517D01*
X179513567Y-62033343D01*
X179589522Y-62072044D01*
X179724003Y-62140566D01*
X179724005Y-62140566D01*
X179724008Y-62140568D01*
X179836168Y-62177011D01*
X179948631Y-62213553D01*
X180181903Y-62250500D01*
X180181908Y-62250500D01*
X180418097Y-62250500D01*
X180651368Y-62213553D01*
X180656394Y-62211920D01*
X180875992Y-62140568D01*
X181086433Y-62033343D01*
X181277510Y-61894517D01*
X181444517Y-61727510D01*
X181583343Y-61536433D01*
X181690568Y-61325992D01*
X181763553Y-61101368D01*
X181800500Y-60868097D01*
X181800500Y-60631902D01*
X181763553Y-60398631D01*
X181712227Y-60240668D01*
X181690568Y-60174008D01*
X181690566Y-60174005D01*
X181690566Y-60174003D01*
X181602161Y-60000500D01*
X181583343Y-59963567D01*
X181444517Y-59772490D01*
X181277510Y-59605483D01*
X181086433Y-59466657D01*
X181030450Y-59438132D01*
X180875996Y-59359433D01*
X180651368Y-59286446D01*
X180418097Y-59249500D01*
X180418092Y-59249500D01*
X180181908Y-59249500D01*
X180181903Y-59249500D01*
X179948631Y-59286446D01*
X179724003Y-59359433D01*
X179513566Y-59466657D01*
X179437965Y-59521585D01*
X179322490Y-59605483D01*
X179322488Y-59605485D01*
X179322487Y-59605485D01*
X179155485Y-59772487D01*
X179155485Y-59772488D01*
X179155483Y-59772490D01*
X179027713Y-59948350D01*
X179027687Y-59948386D01*
X178972357Y-59991051D01*
X178927369Y-59999500D01*
X175172631Y-59999500D01*
X175105592Y-59979815D01*
X175072313Y-59948386D01*
X175072287Y-59948350D01*
X174944517Y-59772490D01*
X174777510Y-59605483D01*
X174586433Y-59466657D01*
X174530450Y-59438132D01*
X174375996Y-59359433D01*
X174151368Y-59286446D01*
X173918097Y-59249500D01*
X173918092Y-59249500D01*
X173681908Y-59249500D01*
X173681903Y-59249500D01*
X173448631Y-59286446D01*
X173224003Y-59359433D01*
X173013566Y-59466657D01*
X172937965Y-59521585D01*
X172822490Y-59605483D01*
X172822488Y-59605485D01*
X172822487Y-59605485D01*
X172655485Y-59772487D01*
X172655485Y-59772488D01*
X172655483Y-59772490D01*
X172527713Y-59948350D01*
X172527687Y-59948386D01*
X172472357Y-59991051D01*
X172427369Y-59999500D01*
X167672631Y-59999500D01*
X167667359Y-59997952D01*
X167661976Y-59999041D01*
X167634196Y-59988214D01*
X167605592Y-59979815D01*
X167600638Y-59975135D01*
X167596876Y-59973669D01*
X167572287Y-59948350D01*
X167571561Y-59947350D01*
X167548105Y-59881535D01*
X167563954Y-59813487D01*
X167614077Y-59764810D01*
X167671905Y-59750500D01*
X170123920Y-59750500D01*
X170221462Y-59731096D01*
X170268913Y-59721658D01*
X170405495Y-59665084D01*
X170460373Y-59628416D01*
X170528416Y-59582952D01*
X172392952Y-57718416D01*
X172442186Y-57644729D01*
X172475084Y-57595495D01*
X172531658Y-57458913D01*
X172546212Y-57385748D01*
X172560500Y-57313920D01*
X172560500Y-57114610D01*
X172580185Y-57047571D01*
X172585228Y-57040641D01*
X172587136Y-57037784D01*
X172587139Y-57037782D01*
X172696632Y-56873914D01*
X172772051Y-56691835D01*
X172810500Y-56498541D01*
X172810500Y-55501459D01*
X172810500Y-55501456D01*
X172772052Y-55308170D01*
X172772051Y-55308169D01*
X172772051Y-55308165D01*
X172772049Y-55308160D01*
X172696635Y-55126092D01*
X172696628Y-55126079D01*
X172587139Y-54962218D01*
X172587136Y-54962214D01*
X172447785Y-54822863D01*
X172447781Y-54822860D01*
X172283920Y-54713371D01*
X172283907Y-54713364D01*
X172101839Y-54637950D01*
X172101829Y-54637947D01*
X171908543Y-54599500D01*
X171908541Y-54599500D01*
X171711459Y-54599500D01*
X171711457Y-54599500D01*
X171518170Y-54637947D01*
X171518160Y-54637950D01*
X171336089Y-54713366D01*
X171243890Y-54774971D01*
X171177213Y-54795848D01*
X171109833Y-54777363D01*
X171106110Y-54774971D01*
X171057440Y-54742451D01*
X171013914Y-54713368D01*
X171013911Y-54713366D01*
X171013910Y-54713366D01*
X170831839Y-54637950D01*
X170831829Y-54637947D01*
X170638543Y-54599500D01*
X170638541Y-54599500D01*
X170441459Y-54599500D01*
X170441457Y-54599500D01*
X170248170Y-54637947D01*
X170248160Y-54637950D01*
X170066093Y-54713364D01*
X170066082Y-54713370D01*
X169973440Y-54775271D01*
X169906762Y-54796148D01*
X169839382Y-54777663D01*
X169835659Y-54775270D01*
X169743684Y-54713814D01*
X169743671Y-54713807D01*
X169561691Y-54638429D01*
X169561683Y-54638427D01*
X169520000Y-54630135D01*
X169520000Y-55624722D01*
X169443694Y-55580667D01*
X169329244Y-55550000D01*
X169210756Y-55550000D01*
X169096306Y-55580667D01*
X169020000Y-55624722D01*
X169020000Y-54630136D01*
X169019999Y-54630135D01*
X168978316Y-54638427D01*
X168876339Y-54680666D01*
X168806870Y-54688133D01*
X168754578Y-54665372D01*
X168742330Y-54656203D01*
X168742328Y-54656202D01*
X168607482Y-54605908D01*
X168607483Y-54605908D01*
X168547883Y-54599501D01*
X168547881Y-54599500D01*
X168547873Y-54599500D01*
X168547864Y-54599500D01*
X167452129Y-54599500D01*
X167452123Y-54599501D01*
X167392516Y-54605908D01*
X167257671Y-54656202D01*
X167257664Y-54656206D01*
X167142455Y-54742452D01*
X167142452Y-54742455D01*
X167056206Y-54857664D01*
X167056202Y-54857671D01*
X167005908Y-54992517D01*
X166999501Y-55052116D01*
X166999500Y-55052135D01*
X166999500Y-56947870D01*
X166999501Y-56947876D01*
X167005908Y-57007483D01*
X167056202Y-57142328D01*
X167056206Y-57142335D01*
X167142452Y-57257544D01*
X167142455Y-57257547D01*
X167257664Y-57343793D01*
X167257671Y-57343797D01*
X167392517Y-57394091D01*
X167392516Y-57394091D01*
X167399444Y-57394835D01*
X167452127Y-57400500D01*
X168547872Y-57400499D01*
X168607483Y-57394091D01*
X168742331Y-57343796D01*
X168754575Y-57334629D01*
X168820035Y-57310210D01*
X168876339Y-57319333D01*
X168978308Y-57361569D01*
X169020000Y-57369862D01*
X169020000Y-56375277D01*
X169096306Y-56419333D01*
X169210756Y-56450000D01*
X169329244Y-56450000D01*
X169443694Y-56419333D01*
X169520000Y-56375277D01*
X169520000Y-57369862D01*
X169561690Y-57361569D01*
X169561692Y-57361569D01*
X169743673Y-57286191D01*
X169743676Y-57286189D01*
X169835657Y-57224729D01*
X169902334Y-57203850D01*
X169969715Y-57222334D01*
X169973440Y-57224728D01*
X170066079Y-57286628D01*
X170066092Y-57286635D01*
X170234558Y-57356415D01*
X170248165Y-57362051D01*
X170304133Y-57373184D01*
X170336267Y-57379576D01*
X170398178Y-57411961D01*
X170432752Y-57472676D01*
X170429013Y-57542446D01*
X170399757Y-57588874D01*
X169775451Y-58213181D01*
X169714128Y-58246666D01*
X169687770Y-58249500D01*
X165395016Y-58249500D01*
X165327977Y-58229815D01*
X165307335Y-58213181D01*
X164860207Y-57766052D01*
X164860200Y-57766046D01*
X164786515Y-57716812D01*
X164786515Y-57716813D01*
X164737277Y-57683913D01*
X164600703Y-57627343D01*
X164600693Y-57627340D01*
X164455706Y-57598500D01*
X164455704Y-57598500D01*
X163792131Y-57598500D01*
X163644296Y-57598500D01*
X163644294Y-57598500D01*
X163499306Y-57627340D01*
X163499300Y-57627342D01*
X163457310Y-57644735D01*
X163362727Y-57683913D01*
X163357092Y-57686247D01*
X163356734Y-57685385D01*
X163304374Y-57698500D01*
X154874500Y-57698500D01*
X154807461Y-57678815D01*
X154761706Y-57626011D01*
X154750500Y-57574500D01*
X154750500Y-57452787D01*
X154770185Y-57385748D01*
X154822989Y-57339993D01*
X154892147Y-57330049D01*
X154921954Y-57338226D01*
X154978310Y-57361570D01*
X155020000Y-57369862D01*
X155020000Y-56375277D01*
X155096306Y-56419333D01*
X155210756Y-56450000D01*
X155329244Y-56450000D01*
X155443694Y-56419333D01*
X155520000Y-56375277D01*
X155520000Y-57369862D01*
X155561690Y-57361569D01*
X155561692Y-57361569D01*
X155743673Y-57286191D01*
X155743676Y-57286189D01*
X155835657Y-57224729D01*
X155902334Y-57203850D01*
X155969715Y-57222334D01*
X155973440Y-57224728D01*
X156066079Y-57286628D01*
X156066092Y-57286635D01*
X156234558Y-57356415D01*
X156248165Y-57362051D01*
X156248169Y-57362051D01*
X156248170Y-57362052D01*
X156441456Y-57400500D01*
X156441459Y-57400500D01*
X156638543Y-57400500D01*
X156792567Y-57369862D01*
X156831835Y-57362051D01*
X157013914Y-57286632D01*
X157106109Y-57225029D01*
X157172786Y-57204151D01*
X157240166Y-57222635D01*
X157243891Y-57225029D01*
X157335423Y-57286189D01*
X157336086Y-57286632D01*
X157336088Y-57286633D01*
X157336092Y-57286635D01*
X157504558Y-57356415D01*
X157518165Y-57362051D01*
X157518169Y-57362051D01*
X157518170Y-57362052D01*
X157711456Y-57400500D01*
X157711459Y-57400500D01*
X157908543Y-57400500D01*
X158062567Y-57369862D01*
X158101835Y-57362051D01*
X158283914Y-57286632D01*
X158447782Y-57177139D01*
X158587139Y-57037782D01*
X158696632Y-56873914D01*
X158772051Y-56691835D01*
X158810500Y-56498541D01*
X158810500Y-55501459D01*
X158810500Y-55501456D01*
X158772052Y-55308170D01*
X158772051Y-55308169D01*
X158772051Y-55308165D01*
X158772049Y-55308160D01*
X158696635Y-55126092D01*
X158696627Y-55126078D01*
X158691154Y-55117887D01*
X158691055Y-55117740D01*
X158587139Y-54962218D01*
X158585874Y-54960953D01*
X158581525Y-54954470D01*
X158572746Y-54926613D01*
X158561331Y-54899723D01*
X158560668Y-54888288D01*
X158560524Y-54887831D01*
X158560620Y-54887475D01*
X158560500Y-54885389D01*
X158560500Y-54436079D01*
X158531659Y-54291092D01*
X158531658Y-54291088D01*
X158531658Y-54291087D01*
X158530899Y-54289254D01*
X158475086Y-54154509D01*
X158475085Y-54154507D01*
X158442186Y-54105270D01*
X158442185Y-54105268D01*
X158392956Y-54031589D01*
X158392952Y-54031584D01*
X156528421Y-52167052D01*
X156528414Y-52167046D01*
X156454729Y-52117812D01*
X156454729Y-52117813D01*
X156405491Y-52084913D01*
X156268917Y-52028343D01*
X156268907Y-52028340D01*
X156123920Y-51999500D01*
X156123918Y-51999500D01*
X153804278Y-51999500D01*
X153737239Y-51979815D01*
X153691484Y-51927011D01*
X153681540Y-51857853D01*
X153689713Y-51828056D01*
X153690566Y-51825996D01*
X153690566Y-51825995D01*
X153690568Y-51825992D01*
X153763553Y-51601368D01*
X153765962Y-51586161D01*
X153800500Y-51368097D01*
X153800500Y-51131902D01*
X153763553Y-50898631D01*
X153690566Y-50674003D01*
X153634002Y-50562991D01*
X153583343Y-50463567D01*
X153444517Y-50272490D01*
X153277510Y-50105483D01*
X153097664Y-49974816D01*
X153055000Y-49919488D01*
X153049021Y-49849874D01*
X153081627Y-49788080D01*
X153142466Y-49753722D01*
X153170551Y-49750500D01*
X157187770Y-49750500D01*
X157254809Y-49770185D01*
X157275451Y-49786819D01*
X158298719Y-50810086D01*
X158332204Y-50871409D01*
X158333511Y-50917165D01*
X158299500Y-51131902D01*
X158299500Y-51368097D01*
X158336446Y-51601368D01*
X158409433Y-51825996D01*
X158507508Y-52018477D01*
X158516657Y-52036433D01*
X158655483Y-52227510D01*
X158822490Y-52394517D01*
X159013567Y-52533343D01*
X159112991Y-52584002D01*
X159224003Y-52640566D01*
X159224005Y-52640566D01*
X159224008Y-52640568D01*
X159344412Y-52679689D01*
X159448631Y-52713553D01*
X159681903Y-52750500D01*
X159681908Y-52750500D01*
X159918097Y-52750500D01*
X160151368Y-52713553D01*
X160375992Y-52640568D01*
X160586433Y-52533343D01*
X160777510Y-52394517D01*
X160944517Y-52227510D01*
X161072313Y-52051613D01*
X161127643Y-52008949D01*
X161172631Y-52000500D01*
X164927369Y-52000500D01*
X164994408Y-52020185D01*
X165027685Y-52051613D01*
X165155483Y-52227510D01*
X165322490Y-52394517D01*
X165513567Y-52533343D01*
X165612991Y-52584002D01*
X165724003Y-52640566D01*
X165724005Y-52640566D01*
X165724008Y-52640568D01*
X165844412Y-52679689D01*
X165948631Y-52713553D01*
X166181903Y-52750500D01*
X166181908Y-52750500D01*
X166418097Y-52750500D01*
X166651368Y-52713553D01*
X166875992Y-52640568D01*
X167086433Y-52533343D01*
X167277510Y-52394517D01*
X167444517Y-52227510D01*
X167583343Y-52036433D01*
X167690568Y-51825992D01*
X167763553Y-51601368D01*
X167765962Y-51586161D01*
X167800500Y-51368097D01*
X167800500Y-51131902D01*
X167763553Y-50898631D01*
X167690566Y-50674003D01*
X167634002Y-50562991D01*
X167583343Y-50463567D01*
X167444517Y-50272490D01*
X167277510Y-50105483D01*
X167086433Y-49966657D01*
X167064935Y-49955703D01*
X166875996Y-49859433D01*
X166651368Y-49786446D01*
X166418097Y-49749500D01*
X166418092Y-49749500D01*
X166181908Y-49749500D01*
X166181903Y-49749500D01*
X165948631Y-49786446D01*
X165724003Y-49859433D01*
X165513566Y-49966657D01*
X165404550Y-50045862D01*
X165322490Y-50105483D01*
X165322488Y-50105485D01*
X165322487Y-50105485D01*
X165155485Y-50272487D01*
X165155485Y-50272488D01*
X165155483Y-50272490D01*
X165027687Y-50448386D01*
X164972357Y-50491051D01*
X164927369Y-50499500D01*
X161172631Y-50499500D01*
X161105592Y-50479815D01*
X161072313Y-50448386D01*
X160944517Y-50272490D01*
X160777510Y-50105483D01*
X160586433Y-49966657D01*
X160564935Y-49955703D01*
X160375996Y-49859433D01*
X160151368Y-49786446D01*
X159918097Y-49749500D01*
X159918092Y-49749500D01*
X159681908Y-49749500D01*
X159681903Y-49749500D01*
X159467165Y-49783511D01*
X159397871Y-49774556D01*
X159360086Y-49748719D01*
X158028421Y-48417052D01*
X158028414Y-48417046D01*
X157954729Y-48367812D01*
X157954729Y-48367813D01*
X157905491Y-48334913D01*
X157768917Y-48278343D01*
X157768907Y-48278340D01*
X157623920Y-48249500D01*
X157623918Y-48249500D01*
X153170551Y-48249500D01*
X153103512Y-48229815D01*
X153057757Y-48177011D01*
X153047813Y-48107853D01*
X153076838Y-48044297D01*
X153097662Y-48025184D01*
X153277510Y-47894517D01*
X153444517Y-47727510D01*
X153572313Y-47551613D01*
X153627643Y-47508949D01*
X153672631Y-47500500D01*
X158427369Y-47500500D01*
X158494408Y-47520185D01*
X158527685Y-47551613D01*
X158655483Y-47727510D01*
X158822490Y-47894517D01*
X159013567Y-48033343D01*
X159106141Y-48080512D01*
X159224003Y-48140566D01*
X159224005Y-48140566D01*
X159224008Y-48140568D01*
X159336168Y-48177011D01*
X159448631Y-48213553D01*
X159681903Y-48250500D01*
X159681908Y-48250500D01*
X159918097Y-48250500D01*
X160151368Y-48213553D01*
X160156394Y-48211920D01*
X160375992Y-48140568D01*
X160586433Y-48033343D01*
X160777510Y-47894517D01*
X160944517Y-47727510D01*
X161072313Y-47551613D01*
X161127643Y-47508949D01*
X161172631Y-47500500D01*
X164927369Y-47500500D01*
X164994408Y-47520185D01*
X165027685Y-47551613D01*
X165155483Y-47727510D01*
X165322490Y-47894517D01*
X165513567Y-48033343D01*
X165606141Y-48080512D01*
X165724003Y-48140566D01*
X165724005Y-48140566D01*
X165724008Y-48140568D01*
X165836168Y-48177011D01*
X165948631Y-48213553D01*
X166181903Y-48250500D01*
X166181908Y-48250500D01*
X166418097Y-48250500D01*
X166651368Y-48213553D01*
X166656394Y-48211920D01*
X166875992Y-48140568D01*
X167086433Y-48033343D01*
X167277510Y-47894517D01*
X167444517Y-47727510D01*
X167572313Y-47551613D01*
X167627643Y-47508949D01*
X167672631Y-47500500D01*
X172427369Y-47500500D01*
X172494408Y-47520185D01*
X172527685Y-47551613D01*
X172655483Y-47727510D01*
X172822490Y-47894517D01*
X173013567Y-48033343D01*
X173106141Y-48080512D01*
X173224003Y-48140566D01*
X173224005Y-48140566D01*
X173224008Y-48140568D01*
X173336168Y-48177011D01*
X173448631Y-48213553D01*
X173681903Y-48250500D01*
X173681908Y-48250500D01*
X173918097Y-48250500D01*
X174151368Y-48213553D01*
X174156394Y-48211920D01*
X174375992Y-48140568D01*
X174586433Y-48033343D01*
X174777510Y-47894517D01*
X174944517Y-47727510D01*
X175072313Y-47551613D01*
X175127643Y-47508949D01*
X175172631Y-47500500D01*
X178927369Y-47500500D01*
X178994408Y-47520185D01*
X179027685Y-47551613D01*
X179155483Y-47727510D01*
X179322490Y-47894517D01*
X179513567Y-48033343D01*
X179606141Y-48080512D01*
X179724003Y-48140566D01*
X179724005Y-48140566D01*
X179724008Y-48140568D01*
X179836168Y-48177011D01*
X179948631Y-48213553D01*
X180181903Y-48250500D01*
X180181908Y-48250500D01*
X180418097Y-48250500D01*
X180651368Y-48213553D01*
X180656394Y-48211920D01*
X180875992Y-48140568D01*
X181086433Y-48033343D01*
X181277510Y-47894517D01*
X181444517Y-47727510D01*
X181583343Y-47536433D01*
X181690568Y-47325992D01*
X181763553Y-47101368D01*
X181800500Y-46868097D01*
X181800500Y-46631902D01*
X181763553Y-46398631D01*
X181715007Y-46249223D01*
X181690568Y-46174008D01*
X181690566Y-46174005D01*
X181690566Y-46174003D01*
X181629693Y-46054534D01*
X181583343Y-45963567D01*
X181444517Y-45772490D01*
X181277510Y-45605483D01*
X181086433Y-45466657D01*
X180875996Y-45359433D01*
X180651368Y-45286446D01*
X180418097Y-45249500D01*
X180418092Y-45249500D01*
X180181908Y-45249500D01*
X180181903Y-45249500D01*
X179948631Y-45286446D01*
X179724003Y-45359433D01*
X179513566Y-45466657D01*
X179404550Y-45545862D01*
X179322490Y-45605483D01*
X179322488Y-45605485D01*
X179322487Y-45605485D01*
X179155485Y-45772487D01*
X179155485Y-45772488D01*
X179155483Y-45772490D01*
X179027713Y-45948350D01*
X179027687Y-45948386D01*
X178972357Y-45991051D01*
X178927369Y-45999500D01*
X175172631Y-45999500D01*
X175105592Y-45979815D01*
X175072313Y-45948386D01*
X175072287Y-45948350D01*
X174944517Y-45772490D01*
X174777510Y-45605483D01*
X174586433Y-45466657D01*
X174375996Y-45359433D01*
X174151368Y-45286446D01*
X173918097Y-45249500D01*
X173918092Y-45249500D01*
X173681908Y-45249500D01*
X173681903Y-45249500D01*
X173448631Y-45286446D01*
X173224003Y-45359433D01*
X173013566Y-45466657D01*
X172904550Y-45545862D01*
X172822490Y-45605483D01*
X172822488Y-45605485D01*
X172822487Y-45605485D01*
X172655485Y-45772487D01*
X172655485Y-45772488D01*
X172655483Y-45772490D01*
X172527713Y-45948350D01*
X172527687Y-45948386D01*
X172472357Y-45991051D01*
X172427369Y-45999500D01*
X167672631Y-45999500D01*
X167667359Y-45997952D01*
X167661976Y-45999041D01*
X167634196Y-45988214D01*
X167605592Y-45979815D01*
X167600638Y-45975135D01*
X167596876Y-45973669D01*
X167572287Y-45948350D01*
X167571561Y-45947350D01*
X167548105Y-45881535D01*
X167563954Y-45813487D01*
X167614077Y-45764810D01*
X167671905Y-45750500D01*
X170373920Y-45750500D01*
X170471462Y-45731096D01*
X170518913Y-45721658D01*
X170655495Y-45665084D01*
X170704729Y-45632186D01*
X170704734Y-45632183D01*
X170729071Y-45615921D01*
X170778416Y-45582952D01*
X172392951Y-43968416D01*
X172475084Y-43845495D01*
X172531658Y-43708913D01*
X172539985Y-43667049D01*
X172560500Y-43563918D01*
X172560500Y-43114610D01*
X172580185Y-43047571D01*
X172585228Y-43040641D01*
X172587136Y-43037784D01*
X172587139Y-43037782D01*
X172696632Y-42873914D01*
X172772051Y-42691835D01*
X172784632Y-42628582D01*
X172810500Y-42498543D01*
X172810500Y-41501456D01*
X172772052Y-41308170D01*
X172772051Y-41308169D01*
X172772051Y-41308165D01*
X172764401Y-41289695D01*
X172696635Y-41126092D01*
X172696628Y-41126079D01*
X172587139Y-40962218D01*
X172587136Y-40962214D01*
X172447785Y-40822863D01*
X172447781Y-40822860D01*
X172283920Y-40713371D01*
X172283907Y-40713364D01*
X172101839Y-40637950D01*
X172101829Y-40637947D01*
X171908543Y-40599500D01*
X171908541Y-40599500D01*
X171711459Y-40599500D01*
X171711457Y-40599500D01*
X171518170Y-40637947D01*
X171518160Y-40637950D01*
X171336089Y-40713366D01*
X171243890Y-40774971D01*
X171177213Y-40795848D01*
X171109833Y-40777363D01*
X171106110Y-40774971D01*
X171057440Y-40742451D01*
X171013914Y-40713368D01*
X171013911Y-40713366D01*
X171013910Y-40713366D01*
X170831839Y-40637950D01*
X170831829Y-40637947D01*
X170638543Y-40599500D01*
X170638541Y-40599500D01*
X170441459Y-40599500D01*
X170441457Y-40599500D01*
X170248170Y-40637947D01*
X170248160Y-40637950D01*
X170066093Y-40713364D01*
X170066082Y-40713370D01*
X169973440Y-40775271D01*
X169906762Y-40796148D01*
X169839382Y-40777663D01*
X169835659Y-40775270D01*
X169743684Y-40713814D01*
X169743671Y-40713807D01*
X169561691Y-40638429D01*
X169561683Y-40638427D01*
X169520000Y-40630135D01*
X169520000Y-41624722D01*
X169443694Y-41580667D01*
X169329244Y-41550000D01*
X169210756Y-41550000D01*
X169096306Y-41580667D01*
X169020000Y-41624722D01*
X169020000Y-40630136D01*
X169019999Y-40630135D01*
X168978316Y-40638427D01*
X168876339Y-40680666D01*
X168806870Y-40688133D01*
X168754578Y-40665372D01*
X168742330Y-40656203D01*
X168742328Y-40656202D01*
X168607482Y-40605908D01*
X168607483Y-40605908D01*
X168547883Y-40599501D01*
X168547881Y-40599500D01*
X168547873Y-40599500D01*
X168547864Y-40599500D01*
X167452129Y-40599500D01*
X167452123Y-40599501D01*
X167392516Y-40605908D01*
X167257671Y-40656202D01*
X167257664Y-40656206D01*
X167142455Y-40742452D01*
X167142452Y-40742455D01*
X167056206Y-40857664D01*
X167056202Y-40857671D01*
X167005908Y-40992517D01*
X166999501Y-41052116D01*
X166999500Y-41052135D01*
X166999500Y-42947870D01*
X166999501Y-42947876D01*
X167005908Y-43007483D01*
X167056202Y-43142328D01*
X167056206Y-43142335D01*
X167142452Y-43257544D01*
X167142455Y-43257547D01*
X167257664Y-43343793D01*
X167257671Y-43343797D01*
X167392517Y-43394091D01*
X167392516Y-43394091D01*
X167399444Y-43394835D01*
X167452127Y-43400500D01*
X168547872Y-43400499D01*
X168607483Y-43394091D01*
X168742331Y-43343796D01*
X168754575Y-43334629D01*
X168820035Y-43310210D01*
X168876339Y-43319333D01*
X168978308Y-43361569D01*
X169020000Y-43369862D01*
X169020000Y-42375277D01*
X169096306Y-42419333D01*
X169210756Y-42450000D01*
X169329244Y-42450000D01*
X169443694Y-42419333D01*
X169520000Y-42375277D01*
X169520000Y-43369862D01*
X169561690Y-43361569D01*
X169561692Y-43361569D01*
X169743673Y-43286191D01*
X169743676Y-43286189D01*
X169835657Y-43224729D01*
X169902334Y-43203850D01*
X169969715Y-43222334D01*
X169973440Y-43224728D01*
X170066079Y-43286628D01*
X170066092Y-43286635D01*
X170234558Y-43356415D01*
X170248165Y-43362051D01*
X170248169Y-43362051D01*
X170248170Y-43362052D01*
X170441456Y-43400500D01*
X170538770Y-43400500D01*
X170605809Y-43420185D01*
X170651564Y-43472989D01*
X170661508Y-43542147D01*
X170632483Y-43605703D01*
X170626451Y-43612181D01*
X170025451Y-44213181D01*
X169964128Y-44246666D01*
X169937770Y-44249500D01*
X155162230Y-44249500D01*
X155095191Y-44229815D01*
X155074549Y-44213181D01*
X154786819Y-43925451D01*
X154753334Y-43864128D01*
X154750500Y-43837770D01*
X154750500Y-43452787D01*
X154770185Y-43385748D01*
X154822989Y-43339993D01*
X154892147Y-43330049D01*
X154921954Y-43338226D01*
X154978310Y-43361570D01*
X155020000Y-43369862D01*
X155020000Y-42375277D01*
X155096306Y-42419333D01*
X155210756Y-42450000D01*
X155329244Y-42450000D01*
X155443694Y-42419333D01*
X155520000Y-42375277D01*
X155520000Y-43369862D01*
X155561690Y-43361569D01*
X155561692Y-43361569D01*
X155743673Y-43286191D01*
X155743676Y-43286189D01*
X155835657Y-43224729D01*
X155902334Y-43203850D01*
X155969715Y-43222334D01*
X155973440Y-43224728D01*
X156066079Y-43286628D01*
X156066092Y-43286635D01*
X156234558Y-43356415D01*
X156248165Y-43362051D01*
X156248169Y-43362051D01*
X156248170Y-43362052D01*
X156441456Y-43400500D01*
X156441459Y-43400500D01*
X156638543Y-43400500D01*
X156792567Y-43369862D01*
X156831835Y-43362051D01*
X157013914Y-43286632D01*
X157106109Y-43225029D01*
X157172786Y-43204151D01*
X157240166Y-43222635D01*
X157243891Y-43225029D01*
X157314783Y-43272398D01*
X157336086Y-43286632D01*
X157336088Y-43286633D01*
X157336092Y-43286635D01*
X157504558Y-43356415D01*
X157518165Y-43362051D01*
X157518169Y-43362051D01*
X157518170Y-43362052D01*
X157711456Y-43400500D01*
X157711459Y-43400500D01*
X157908543Y-43400500D01*
X158062567Y-43369862D01*
X158101835Y-43362051D01*
X158283914Y-43286632D01*
X158447782Y-43177139D01*
X158587139Y-43037782D01*
X158696632Y-42873914D01*
X158772051Y-42691835D01*
X158784632Y-42628582D01*
X158810500Y-42498543D01*
X158810500Y-41501456D01*
X158772052Y-41308170D01*
X158772051Y-41308169D01*
X158772051Y-41308165D01*
X158764401Y-41289695D01*
X158696635Y-41126092D01*
X158696627Y-41126078D01*
X158691154Y-41117887D01*
X158691055Y-41117740D01*
X158587139Y-40962218D01*
X158585874Y-40960953D01*
X158581525Y-40954470D01*
X158572746Y-40926613D01*
X158561331Y-40899723D01*
X158560668Y-40888288D01*
X158560524Y-40887831D01*
X158560620Y-40887475D01*
X158560500Y-40885389D01*
X158560500Y-40186079D01*
X158531659Y-40041092D01*
X158531658Y-40041091D01*
X158531658Y-40041087D01*
X158504731Y-39976079D01*
X158475087Y-39904511D01*
X158475080Y-39904498D01*
X158392952Y-39781585D01*
X158392951Y-39781584D01*
X158288416Y-39677049D01*
X158182947Y-39571580D01*
X157528421Y-38917052D01*
X157528420Y-38917051D01*
X157481201Y-38885501D01*
X157436292Y-38855494D01*
X157405495Y-38834916D01*
X157405488Y-38834912D01*
X157268917Y-38778343D01*
X157268907Y-38778340D01*
X157123920Y-38749500D01*
X157123918Y-38749500D01*
X153170551Y-38749500D01*
X153103512Y-38729815D01*
X153057757Y-38677011D01*
X153047813Y-38607853D01*
X153076838Y-38544297D01*
X153097662Y-38525184D01*
X153277510Y-38394517D01*
X153444517Y-38227510D01*
X153583343Y-38036433D01*
X153690568Y-37825992D01*
X153763553Y-37601368D01*
X153800500Y-37368097D01*
X153800500Y-37131902D01*
X158299500Y-37131902D01*
X158299500Y-37368097D01*
X158336446Y-37601368D01*
X158409433Y-37825996D01*
X158498348Y-38000500D01*
X158516657Y-38036433D01*
X158655483Y-38227510D01*
X158822490Y-38394517D01*
X159013567Y-38533343D01*
X159106141Y-38580512D01*
X159224003Y-38640566D01*
X159224005Y-38640566D01*
X159224008Y-38640568D01*
X159336168Y-38677011D01*
X159448631Y-38713553D01*
X159681903Y-38750500D01*
X159681908Y-38750500D01*
X159918097Y-38750500D01*
X160151368Y-38713553D01*
X160156394Y-38711920D01*
X160375992Y-38640568D01*
X160586433Y-38533343D01*
X160777510Y-38394517D01*
X160944517Y-38227510D01*
X161072313Y-38051613D01*
X161127643Y-38008949D01*
X161172631Y-38000500D01*
X164927369Y-38000500D01*
X164994408Y-38020185D01*
X165027685Y-38051613D01*
X165155483Y-38227510D01*
X165322490Y-38394517D01*
X165513567Y-38533343D01*
X165606141Y-38580512D01*
X165724003Y-38640566D01*
X165724005Y-38640566D01*
X165724008Y-38640568D01*
X165836168Y-38677011D01*
X165948631Y-38713553D01*
X166181903Y-38750500D01*
X166181908Y-38750500D01*
X166418097Y-38750500D01*
X166651368Y-38713553D01*
X166656394Y-38711920D01*
X166875992Y-38640568D01*
X167086433Y-38533343D01*
X167277510Y-38394517D01*
X167444517Y-38227510D01*
X167583343Y-38036433D01*
X167690568Y-37825992D01*
X167763553Y-37601368D01*
X167800500Y-37368097D01*
X167800500Y-37131902D01*
X167763553Y-36898631D01*
X167690566Y-36674003D01*
X167614415Y-36524549D01*
X167583343Y-36463567D01*
X167444517Y-36272490D01*
X167277510Y-36105483D01*
X167086433Y-35966657D01*
X166875996Y-35859433D01*
X166651368Y-35786446D01*
X166418097Y-35749500D01*
X166418092Y-35749500D01*
X166181908Y-35749500D01*
X166181903Y-35749500D01*
X165948631Y-35786446D01*
X165724003Y-35859433D01*
X165513566Y-35966657D01*
X165424888Y-36031086D01*
X165322490Y-36105483D01*
X165322488Y-36105485D01*
X165322487Y-36105485D01*
X165155485Y-36272487D01*
X165155485Y-36272488D01*
X165155483Y-36272490D01*
X165027687Y-36448386D01*
X164972357Y-36491051D01*
X164927369Y-36499500D01*
X161172631Y-36499500D01*
X161105592Y-36479815D01*
X161072313Y-36448386D01*
X160944517Y-36272490D01*
X160777510Y-36105483D01*
X160586433Y-35966657D01*
X160375996Y-35859433D01*
X160151368Y-35786446D01*
X159918097Y-35749500D01*
X159918092Y-35749500D01*
X159681908Y-35749500D01*
X159681903Y-35749500D01*
X159448631Y-35786446D01*
X159224003Y-35859433D01*
X159013566Y-35966657D01*
X158924888Y-36031086D01*
X158822490Y-36105483D01*
X158822488Y-36105485D01*
X158822487Y-36105485D01*
X158655485Y-36272487D01*
X158655485Y-36272488D01*
X158655483Y-36272490D01*
X158595862Y-36354550D01*
X158516657Y-36463566D01*
X158409433Y-36674003D01*
X158336446Y-36898631D01*
X158299500Y-37131902D01*
X153800500Y-37131902D01*
X153763553Y-36898631D01*
X153690566Y-36674003D01*
X153614415Y-36524549D01*
X153583343Y-36463567D01*
X153444517Y-36272490D01*
X153277510Y-36105483D01*
X153086433Y-35966657D01*
X152875996Y-35859433D01*
X152651368Y-35786446D01*
X152418097Y-35749500D01*
X152418092Y-35749500D01*
X152181908Y-35749500D01*
X152181903Y-35749500D01*
X151948631Y-35786446D01*
X151724003Y-35859433D01*
X151513566Y-35966657D01*
X151424888Y-36031086D01*
X151322490Y-36105483D01*
X151322488Y-36105485D01*
X151322487Y-36105485D01*
X151155485Y-36272487D01*
X151155485Y-36272488D01*
X151155483Y-36272490D01*
X151027687Y-36448386D01*
X150972357Y-36491051D01*
X150927369Y-36499500D01*
X147172631Y-36499500D01*
X147105592Y-36479815D01*
X147072313Y-36448386D01*
X146944517Y-36272490D01*
X146777510Y-36105483D01*
X146586433Y-35966657D01*
X146375996Y-35859433D01*
X146151368Y-35786446D01*
X145918097Y-35749500D01*
X145918092Y-35749500D01*
X145681908Y-35749500D01*
X145681903Y-35749500D01*
X145448631Y-35786446D01*
X145224003Y-35859433D01*
X145013566Y-35966657D01*
X144924888Y-36031086D01*
X144822490Y-36105483D01*
X144822488Y-36105485D01*
X144822487Y-36105485D01*
X144655485Y-36272487D01*
X144655485Y-36272488D01*
X144655483Y-36272490D01*
X144595862Y-36354550D01*
X144516657Y-36463566D01*
X144409433Y-36674003D01*
X144336446Y-36898631D01*
X144299500Y-37131902D01*
X144299500Y-37368097D01*
X144336446Y-37601368D01*
X144409433Y-37825996D01*
X144498348Y-38000500D01*
X144516657Y-38036433D01*
X144655483Y-38227510D01*
X144822490Y-38394517D01*
X145002335Y-38525183D01*
X145045000Y-38580512D01*
X145050979Y-38650126D01*
X145018373Y-38711920D01*
X144957534Y-38746278D01*
X144929449Y-38749500D01*
X140476080Y-38749500D01*
X140331092Y-38778340D01*
X140331082Y-38778343D01*
X140194511Y-38834912D01*
X140194498Y-38834919D01*
X140071584Y-38917048D01*
X140071580Y-38917051D01*
X139417050Y-39571580D01*
X139417044Y-39571588D01*
X139367812Y-39645268D01*
X139367813Y-39645269D01*
X139334921Y-39694496D01*
X139334914Y-39694508D01*
X139278342Y-39831086D01*
X139278340Y-39831092D01*
X139249500Y-39976079D01*
X139249500Y-40600249D01*
X139229815Y-40667288D01*
X139199812Y-40699515D01*
X139142457Y-40742451D01*
X139142451Y-40742457D01*
X139056206Y-40857664D01*
X139056202Y-40857671D01*
X139005908Y-40992517D01*
X138999501Y-41052116D01*
X138999500Y-41052135D01*
X138999500Y-42947870D01*
X138999501Y-42947876D01*
X139005908Y-43007483D01*
X139056202Y-43142328D01*
X139056206Y-43142335D01*
X139142452Y-43257544D01*
X139142455Y-43257547D01*
X139257664Y-43343793D01*
X139257671Y-43343797D01*
X139392517Y-43394091D01*
X139392516Y-43394091D01*
X139399444Y-43394835D01*
X139452127Y-43400500D01*
X140547872Y-43400499D01*
X140607483Y-43394091D01*
X140742331Y-43343796D01*
X140754575Y-43334629D01*
X140820035Y-43310210D01*
X140876339Y-43319333D01*
X140978308Y-43361569D01*
X141020000Y-43369862D01*
X141020000Y-42375277D01*
X141096306Y-42419333D01*
X141210756Y-42450000D01*
X141329244Y-42450000D01*
X141443694Y-42419333D01*
X141520000Y-42375277D01*
X141520000Y-43377047D01*
X141548236Y-43418501D01*
X141550107Y-43488346D01*
X141513919Y-43548114D01*
X141477693Y-43571168D01*
X141444507Y-43584914D01*
X141444498Y-43584919D01*
X141321586Y-43667047D01*
X141321580Y-43667051D01*
X136061255Y-48927375D01*
X136061249Y-48927383D01*
X136012017Y-49001063D01*
X136012018Y-49001064D01*
X135979126Y-49050291D01*
X135979119Y-49050303D01*
X135922547Y-49186881D01*
X135922545Y-49186887D01*
X135893705Y-49331874D01*
X135893705Y-49581930D01*
X135874020Y-49648969D01*
X135821216Y-49694724D01*
X135782960Y-49705220D01*
X135736721Y-49710191D01*
X135601876Y-49760484D01*
X135601869Y-49760488D01*
X135486660Y-49846734D01*
X135486657Y-49846737D01*
X135400411Y-49961946D01*
X135400407Y-49961953D01*
X135350113Y-50096799D01*
X135343706Y-50156398D01*
X135343706Y-50156405D01*
X135343705Y-50156417D01*
X135343705Y-51852152D01*
X135343706Y-51852158D01*
X135350113Y-51911765D01*
X135400407Y-52046610D01*
X135400411Y-52046617D01*
X135486657Y-52161826D01*
X135486660Y-52161829D01*
X135601869Y-52248075D01*
X135601876Y-52248079D01*
X135736721Y-52298373D01*
X135782962Y-52303345D01*
X135785080Y-52304222D01*
X135787352Y-52303896D01*
X135817200Y-52317527D01*
X135847512Y-52330083D01*
X135848820Y-52331967D01*
X135850908Y-52332921D01*
X135868647Y-52360524D01*
X135887360Y-52387476D01*
X135887829Y-52390372D01*
X135888682Y-52391699D01*
X135893705Y-52426634D01*
X135893705Y-52543565D01*
X135874020Y-52610604D01*
X135857386Y-52631246D01*
X134762181Y-53726451D01*
X134700858Y-53759936D01*
X134631166Y-53754952D01*
X134575233Y-53713080D01*
X134550816Y-53647616D01*
X134550500Y-53638770D01*
X134550500Y-39575483D01*
X134912000Y-39575483D01*
X134912000Y-40699501D01*
X134912001Y-40699518D01*
X134922500Y-40802296D01*
X134922501Y-40802299D01*
X134970578Y-40947383D01*
X134977686Y-40968834D01*
X135069788Y-41118156D01*
X135193844Y-41242212D01*
X135343166Y-41334314D01*
X135509703Y-41389499D01*
X135612491Y-41400000D01*
X135788000Y-41399999D01*
X135855039Y-41419683D01*
X135900794Y-41472487D01*
X135912000Y-41523999D01*
X135912000Y-42245572D01*
X135892315Y-42312611D01*
X135860885Y-42345890D01*
X135796992Y-42392310D01*
X135796987Y-42392314D01*
X135652233Y-42537068D01*
X135531920Y-42702668D01*
X135438986Y-42885058D01*
X135375727Y-43079747D01*
X135347567Y-43257544D01*
X135343705Y-43281930D01*
X135343705Y-43486634D01*
X135345743Y-43499500D01*
X135375727Y-43688816D01*
X135438986Y-43883505D01*
X135531920Y-44065895D01*
X135652233Y-44231495D01*
X135796991Y-44376253D01*
X135940625Y-44480607D01*
X135962595Y-44496569D01*
X136078240Y-44555493D01*
X136144981Y-44589500D01*
X136144983Y-44589500D01*
X136144986Y-44589502D01*
X136249342Y-44623409D01*
X136339670Y-44652759D01*
X136440762Y-44668770D01*
X136541853Y-44684782D01*
X136541854Y-44684782D01*
X136746556Y-44684782D01*
X136746557Y-44684782D01*
X136948739Y-44652759D01*
X137143424Y-44589502D01*
X137325815Y-44496569D01*
X137432700Y-44418913D01*
X137491418Y-44376253D01*
X137491420Y-44376250D01*
X137491424Y-44376248D01*
X137636171Y-44231501D01*
X137636173Y-44231497D01*
X137636176Y-44231495D01*
X137688937Y-44158872D01*
X137756492Y-44065892D01*
X137849425Y-43883501D01*
X137912682Y-43688816D01*
X137944705Y-43486634D01*
X137944705Y-43281930D01*
X137928402Y-43178997D01*
X137912682Y-43079747D01*
X137849423Y-42885058D01*
X137815708Y-42818889D01*
X137756492Y-42702672D01*
X137748614Y-42691829D01*
X137636176Y-42537068D01*
X137491422Y-42392314D01*
X137491417Y-42392310D01*
X137464115Y-42372474D01*
X137421449Y-42317145D01*
X137413000Y-42272156D01*
X137413000Y-41523999D01*
X137432685Y-41456960D01*
X137485489Y-41411205D01*
X137537000Y-41399999D01*
X137712502Y-41399999D01*
X137712508Y-41399999D01*
X137815297Y-41389499D01*
X137981834Y-41334314D01*
X138131156Y-41242212D01*
X138255212Y-41118156D01*
X138347314Y-40968834D01*
X138402499Y-40802297D01*
X138413000Y-40699509D01*
X138412999Y-39575492D01*
X138412599Y-39571580D01*
X138402499Y-39472703D01*
X138402498Y-39472700D01*
X138354426Y-39327629D01*
X138347314Y-39306166D01*
X138255212Y-39156844D01*
X138131156Y-39032788D01*
X137981834Y-38940686D01*
X137815297Y-38885501D01*
X137815295Y-38885500D01*
X137712510Y-38875000D01*
X135612498Y-38875000D01*
X135612481Y-38875001D01*
X135509703Y-38885500D01*
X135509700Y-38885501D01*
X135343168Y-38940685D01*
X135343163Y-38940687D01*
X135193842Y-39032789D01*
X135069789Y-39156842D01*
X134977687Y-39306163D01*
X134977685Y-39306168D01*
X134970574Y-39327628D01*
X134922501Y-39472703D01*
X134922501Y-39472704D01*
X134922500Y-39472704D01*
X134912000Y-39575483D01*
X134550500Y-39575483D01*
X134550500Y-36612230D01*
X134570185Y-36545191D01*
X134586819Y-36524549D01*
X137824549Y-33286819D01*
X137885872Y-33253334D01*
X137912230Y-33250500D01*
X141873920Y-33250500D01*
X141971462Y-33231096D01*
X142018913Y-33221658D01*
X142155495Y-33165084D01*
X142204729Y-33132186D01*
X142278416Y-33082952D01*
X143361868Y-31999500D01*
X144392948Y-30968419D01*
X144392947Y-30968419D01*
X144392951Y-30968416D01*
X144475084Y-30845495D01*
X144531658Y-30708913D01*
X144560500Y-30563918D01*
X144560500Y-30416083D01*
X144560500Y-29114610D01*
X144580185Y-29047571D01*
X144585228Y-29040641D01*
X144587136Y-29037784D01*
X144587139Y-29037782D01*
X144696632Y-28873914D01*
X144772051Y-28691835D01*
X144810500Y-28498541D01*
X144810500Y-27501459D01*
X144810500Y-27501456D01*
X144772052Y-27308170D01*
X144772051Y-27308169D01*
X144772051Y-27308165D01*
X144772049Y-27308160D01*
X144696635Y-27126092D01*
X144696628Y-27126079D01*
X144587139Y-26962218D01*
X144587136Y-26962214D01*
X144447785Y-26822863D01*
X144447781Y-26822860D01*
X144283920Y-26713371D01*
X144283907Y-26713364D01*
X144101839Y-26637950D01*
X144101829Y-26637947D01*
X143908543Y-26599500D01*
X143908541Y-26599500D01*
X143711459Y-26599500D01*
X143711457Y-26599500D01*
X143518170Y-26637947D01*
X143518160Y-26637950D01*
X143336089Y-26713366D01*
X143243890Y-26774971D01*
X143177213Y-26795848D01*
X143109833Y-26777363D01*
X143106110Y-26774971D01*
X143057438Y-26742450D01*
X143013914Y-26713368D01*
X143013911Y-26713366D01*
X143013910Y-26713366D01*
X142831839Y-26637950D01*
X142831829Y-26637947D01*
X142638543Y-26599500D01*
X142638541Y-26599500D01*
X142441459Y-26599500D01*
X142441457Y-26599500D01*
X142248170Y-26637947D01*
X142248160Y-26637950D01*
X142066093Y-26713364D01*
X142066082Y-26713370D01*
X141973440Y-26775271D01*
X141906762Y-26796148D01*
X141839382Y-26777663D01*
X141835659Y-26775270D01*
X141743684Y-26713814D01*
X141743671Y-26713807D01*
X141561691Y-26638429D01*
X141561683Y-26638427D01*
X141520000Y-26630135D01*
X141520000Y-27624722D01*
X141443694Y-27580667D01*
X141329244Y-27550000D01*
X141210756Y-27550000D01*
X141096306Y-27580667D01*
X141020000Y-27624722D01*
X141020000Y-26630136D01*
X141019999Y-26630135D01*
X140978316Y-26638427D01*
X140921951Y-26661774D01*
X140889314Y-26665282D01*
X140856853Y-26669950D01*
X140854765Y-26668996D01*
X140852482Y-26669242D01*
X140823139Y-26654553D01*
X140793297Y-26640925D01*
X140792055Y-26638993D01*
X140790003Y-26637966D01*
X140773257Y-26609743D01*
X140755523Y-26582147D01*
X140755087Y-26579118D01*
X140754351Y-26577877D01*
X140750500Y-26547212D01*
X140750500Y-26412230D01*
X140770185Y-26345191D01*
X140786819Y-26324549D01*
X141074549Y-26036819D01*
X141135872Y-26003334D01*
X141162230Y-26000500D01*
X156197770Y-26000500D01*
X156264809Y-26020185D01*
X156285451Y-26036819D01*
X156636451Y-26387819D01*
X156669936Y-26449142D01*
X156664952Y-26518834D01*
X156623080Y-26574767D01*
X156557616Y-26599184D01*
X156548770Y-26599500D01*
X156441457Y-26599500D01*
X156248170Y-26637947D01*
X156248160Y-26637950D01*
X156066093Y-26713364D01*
X156066082Y-26713370D01*
X155973440Y-26775271D01*
X155906762Y-26796148D01*
X155839382Y-26777663D01*
X155835659Y-26775270D01*
X155743684Y-26713814D01*
X155743671Y-26713807D01*
X155561691Y-26638429D01*
X155561683Y-26638427D01*
X155520000Y-26630135D01*
X155520000Y-27624722D01*
X155443694Y-27580667D01*
X155329244Y-27550000D01*
X155210756Y-27550000D01*
X155096306Y-27580667D01*
X155020000Y-27624722D01*
X155020000Y-26630136D01*
X155019999Y-26630135D01*
X154978316Y-26638427D01*
X154876339Y-26680666D01*
X154806870Y-26688133D01*
X154754578Y-26665372D01*
X154742330Y-26656203D01*
X154742328Y-26656202D01*
X154607482Y-26605908D01*
X154607483Y-26605908D01*
X154547883Y-26599501D01*
X154547881Y-26599500D01*
X154547873Y-26599500D01*
X154547864Y-26599500D01*
X153452129Y-26599500D01*
X153452123Y-26599501D01*
X153392516Y-26605908D01*
X153257671Y-26656202D01*
X153257664Y-26656206D01*
X153142455Y-26742452D01*
X153142452Y-26742455D01*
X153056206Y-26857664D01*
X153056202Y-26857671D01*
X153005908Y-26992517D01*
X152999501Y-27052116D01*
X152999500Y-27052135D01*
X152999500Y-28947870D01*
X152999501Y-28947876D01*
X153005908Y-29007483D01*
X153056202Y-29142328D01*
X153056203Y-29142329D01*
X153056204Y-29142331D01*
X153142454Y-29257546D01*
X153180716Y-29286189D01*
X153199810Y-29300482D01*
X153241682Y-29356415D01*
X153249500Y-29399749D01*
X153249500Y-29523918D01*
X153249500Y-29523920D01*
X153249499Y-29523920D01*
X153278340Y-29668907D01*
X153278343Y-29668917D01*
X153334912Y-29805488D01*
X153334914Y-29805492D01*
X153334916Y-29805495D01*
X153347893Y-29824916D01*
X153417051Y-29928420D01*
X153417052Y-29928421D01*
X155071584Y-31582952D01*
X155071586Y-31582954D01*
X155101058Y-31602645D01*
X155145270Y-31632186D01*
X155194505Y-31665084D01*
X155194506Y-31665084D01*
X155194507Y-31665085D01*
X155194509Y-31665086D01*
X155331082Y-31721656D01*
X155331087Y-31721658D01*
X155331091Y-31721658D01*
X155331092Y-31721659D01*
X155476079Y-31750500D01*
X155476082Y-31750500D01*
X155476083Y-31750500D01*
X155623917Y-31750500D01*
X158428095Y-31750500D01*
X158440154Y-31754041D01*
X158452677Y-31752961D01*
X158473045Y-31763699D01*
X158495134Y-31770185D01*
X158503363Y-31779682D01*
X158514484Y-31785545D01*
X158525813Y-31805591D01*
X158540889Y-31822989D01*
X158542677Y-31835430D01*
X158548862Y-31846372D01*
X158547555Y-31869355D01*
X158550833Y-31892147D01*
X158545515Y-31905253D01*
X158544898Y-31916129D01*
X158528439Y-31947350D01*
X158527713Y-31948350D01*
X158472398Y-31991035D01*
X158427369Y-31999500D01*
X153672631Y-31999500D01*
X153605592Y-31979815D01*
X153572313Y-31948386D01*
X153572287Y-31948350D01*
X153444517Y-31772490D01*
X153277510Y-31605483D01*
X153086433Y-31466657D01*
X152875996Y-31359433D01*
X152651368Y-31286446D01*
X152418097Y-31249500D01*
X152418092Y-31249500D01*
X152181908Y-31249500D01*
X152181903Y-31249500D01*
X151948631Y-31286446D01*
X151724003Y-31359433D01*
X151513566Y-31466657D01*
X151404550Y-31545862D01*
X151322490Y-31605483D01*
X151322488Y-31605485D01*
X151322487Y-31605485D01*
X151155485Y-31772487D01*
X151155485Y-31772488D01*
X151155483Y-31772490D01*
X151027713Y-31948350D01*
X151027687Y-31948386D01*
X150972357Y-31991051D01*
X150927369Y-31999500D01*
X147172631Y-31999500D01*
X147105592Y-31979815D01*
X147072313Y-31948386D01*
X147072287Y-31948350D01*
X146944517Y-31772490D01*
X146777510Y-31605483D01*
X146586433Y-31466657D01*
X146375996Y-31359433D01*
X146151368Y-31286446D01*
X145918097Y-31249500D01*
X145918092Y-31249500D01*
X145681908Y-31249500D01*
X145681903Y-31249500D01*
X145448631Y-31286446D01*
X145224003Y-31359433D01*
X145013566Y-31466657D01*
X144904550Y-31545862D01*
X144822490Y-31605483D01*
X144822488Y-31605485D01*
X144822487Y-31605485D01*
X144655485Y-31772487D01*
X144655485Y-31772488D01*
X144655483Y-31772490D01*
X144610128Y-31834916D01*
X144516657Y-31963566D01*
X144409433Y-32174003D01*
X144336446Y-32398631D01*
X144299500Y-32631902D01*
X144299500Y-32868097D01*
X144336446Y-33101368D01*
X144409433Y-33325996D01*
X144498348Y-33500500D01*
X144516657Y-33536433D01*
X144655483Y-33727510D01*
X144822490Y-33894517D01*
X145013567Y-34033343D01*
X145112991Y-34084002D01*
X145224003Y-34140566D01*
X145224005Y-34140566D01*
X145224008Y-34140568D01*
X145344412Y-34179689D01*
X145448631Y-34213553D01*
X145681903Y-34250500D01*
X145681908Y-34250500D01*
X145918097Y-34250500D01*
X146151368Y-34213553D01*
X146375992Y-34140568D01*
X146586433Y-34033343D01*
X146777510Y-33894517D01*
X146944517Y-33727510D01*
X147072313Y-33551613D01*
X147127643Y-33508949D01*
X147172631Y-33500500D01*
X150927369Y-33500500D01*
X150994408Y-33520185D01*
X151027685Y-33551613D01*
X151155483Y-33727510D01*
X151322490Y-33894517D01*
X151513567Y-34033343D01*
X151612991Y-34084002D01*
X151724003Y-34140566D01*
X151724005Y-34140566D01*
X151724008Y-34140568D01*
X151844412Y-34179689D01*
X151948631Y-34213553D01*
X152181903Y-34250500D01*
X152181908Y-34250500D01*
X152418097Y-34250500D01*
X152651368Y-34213553D01*
X152875992Y-34140568D01*
X153086433Y-34033343D01*
X153277510Y-33894517D01*
X153444517Y-33727510D01*
X153572313Y-33551613D01*
X153627643Y-33508949D01*
X153672631Y-33500500D01*
X158427369Y-33500500D01*
X158494408Y-33520185D01*
X158527685Y-33551613D01*
X158655483Y-33727510D01*
X158822490Y-33894517D01*
X159013567Y-34033343D01*
X159112991Y-34084002D01*
X159224003Y-34140566D01*
X159224005Y-34140566D01*
X159224008Y-34140568D01*
X159344412Y-34179689D01*
X159448631Y-34213553D01*
X159681903Y-34250500D01*
X159681908Y-34250500D01*
X159918097Y-34250500D01*
X160151368Y-34213553D01*
X160375992Y-34140568D01*
X160586433Y-34033343D01*
X160777510Y-33894517D01*
X160944517Y-33727510D01*
X161072313Y-33551613D01*
X161127643Y-33508949D01*
X161172631Y-33500500D01*
X164927369Y-33500500D01*
X164994408Y-33520185D01*
X165027685Y-33551613D01*
X165155483Y-33727510D01*
X165322490Y-33894517D01*
X165513567Y-34033343D01*
X165612991Y-34084002D01*
X165724003Y-34140566D01*
X165724005Y-34140566D01*
X165724008Y-34140568D01*
X165844412Y-34179689D01*
X165948631Y-34213553D01*
X166181903Y-34250500D01*
X166181908Y-34250500D01*
X166418097Y-34250500D01*
X166651368Y-34213553D01*
X166875992Y-34140568D01*
X167086433Y-34033343D01*
X167277510Y-33894517D01*
X167444517Y-33727510D01*
X167572313Y-33551613D01*
X167627643Y-33508949D01*
X167672631Y-33500500D01*
X172427369Y-33500500D01*
X172494408Y-33520185D01*
X172527685Y-33551613D01*
X172655483Y-33727510D01*
X172822490Y-33894517D01*
X173013567Y-34033343D01*
X173112991Y-34084002D01*
X173224003Y-34140566D01*
X173224005Y-34140566D01*
X173224008Y-34140568D01*
X173344412Y-34179689D01*
X173448631Y-34213553D01*
X173681903Y-34250500D01*
X173681908Y-34250500D01*
X173918097Y-34250500D01*
X174151368Y-34213553D01*
X174375992Y-34140568D01*
X174586433Y-34033343D01*
X174777510Y-33894517D01*
X174944517Y-33727510D01*
X175072313Y-33551613D01*
X175127643Y-33508949D01*
X175172631Y-33500500D01*
X178927369Y-33500500D01*
X178994408Y-33520185D01*
X179027685Y-33551613D01*
X179155483Y-33727510D01*
X179322490Y-33894517D01*
X179513567Y-34033343D01*
X179612991Y-34084002D01*
X179724003Y-34140566D01*
X179724005Y-34140566D01*
X179724008Y-34140568D01*
X179844412Y-34179689D01*
X179948631Y-34213553D01*
X180181903Y-34250500D01*
X180181908Y-34250500D01*
X180418097Y-34250500D01*
X180651368Y-34213553D01*
X180875992Y-34140568D01*
X181086433Y-34033343D01*
X181277510Y-33894517D01*
X181444517Y-33727510D01*
X181583343Y-33536433D01*
X181690568Y-33325992D01*
X181763553Y-33101368D01*
X181800500Y-32868097D01*
X181800500Y-32631902D01*
X181763553Y-32398631D01*
X181690566Y-32174003D01*
X181617778Y-32031149D01*
X181583343Y-31963567D01*
X181444517Y-31772490D01*
X181277510Y-31605483D01*
X181086433Y-31466657D01*
X180875996Y-31359433D01*
X180651368Y-31286446D01*
X180418097Y-31249500D01*
X180418092Y-31249500D01*
X180181908Y-31249500D01*
X180181903Y-31249500D01*
X179948631Y-31286446D01*
X179724003Y-31359433D01*
X179513566Y-31466657D01*
X179404550Y-31545862D01*
X179322490Y-31605483D01*
X179322488Y-31605485D01*
X179322487Y-31605485D01*
X179155485Y-31772487D01*
X179155485Y-31772488D01*
X179155483Y-31772490D01*
X179027713Y-31948350D01*
X179027687Y-31948386D01*
X178972357Y-31991051D01*
X178927369Y-31999500D01*
X175172631Y-31999500D01*
X175105592Y-31979815D01*
X175072313Y-31948386D01*
X175072287Y-31948350D01*
X174944517Y-31772490D01*
X174777510Y-31605483D01*
X174586433Y-31466657D01*
X174375996Y-31359433D01*
X174151368Y-31286446D01*
X173918097Y-31249500D01*
X173918092Y-31249500D01*
X173681908Y-31249500D01*
X173681903Y-31249500D01*
X173448631Y-31286446D01*
X173224003Y-31359433D01*
X173013566Y-31466657D01*
X172904550Y-31545862D01*
X172822490Y-31605483D01*
X172822488Y-31605485D01*
X172822487Y-31605485D01*
X172655485Y-31772487D01*
X172655485Y-31772488D01*
X172655483Y-31772490D01*
X172527713Y-31948350D01*
X172527687Y-31948386D01*
X172472357Y-31991051D01*
X172427369Y-31999500D01*
X167672631Y-31999500D01*
X167667359Y-31997952D01*
X167661976Y-31999041D01*
X167634196Y-31988214D01*
X167605592Y-31979815D01*
X167600638Y-31975135D01*
X167596876Y-31973669D01*
X167572287Y-31948350D01*
X167571561Y-31947350D01*
X167548105Y-31881535D01*
X167563954Y-31813487D01*
X167614077Y-31764810D01*
X167671905Y-31750500D01*
X170623920Y-31750500D01*
X170727906Y-31729815D01*
X170768913Y-31721658D01*
X170905495Y-31665084D01*
X170954729Y-31632186D01*
X170954734Y-31632183D01*
X170991147Y-31607853D01*
X171028416Y-31582952D01*
X172392951Y-30218416D01*
X172404922Y-30200500D01*
X172475084Y-30095495D01*
X172531658Y-29958913D01*
X172541096Y-29911462D01*
X172560500Y-29813920D01*
X172560500Y-29114610D01*
X172580185Y-29047571D01*
X172585228Y-29040641D01*
X172587136Y-29037784D01*
X172587139Y-29037782D01*
X172696632Y-28873914D01*
X172772051Y-28691835D01*
X172810500Y-28498541D01*
X172810500Y-27501459D01*
X172810500Y-27501456D01*
X172772052Y-27308170D01*
X172772051Y-27308169D01*
X172772051Y-27308165D01*
X172772049Y-27308160D01*
X172696635Y-27126092D01*
X172696628Y-27126079D01*
X172587139Y-26962218D01*
X172587136Y-26962214D01*
X172447785Y-26822863D01*
X172447781Y-26822860D01*
X172283920Y-26713371D01*
X172283907Y-26713364D01*
X172101839Y-26637950D01*
X172101829Y-26637947D01*
X171908543Y-26599500D01*
X171908541Y-26599500D01*
X171711459Y-26599500D01*
X171711457Y-26599500D01*
X171518170Y-26637947D01*
X171518160Y-26637950D01*
X171336089Y-26713366D01*
X171243890Y-26774971D01*
X171177213Y-26795848D01*
X171109833Y-26777363D01*
X171106110Y-26774971D01*
X171057438Y-26742450D01*
X171013914Y-26713368D01*
X171013911Y-26713366D01*
X171013910Y-26713366D01*
X170831839Y-26637950D01*
X170831829Y-26637947D01*
X170638543Y-26599500D01*
X170638541Y-26599500D01*
X170441459Y-26599500D01*
X170441457Y-26599500D01*
X170248170Y-26637947D01*
X170248160Y-26637950D01*
X170066093Y-26713364D01*
X170066082Y-26713370D01*
X169973440Y-26775271D01*
X169906762Y-26796148D01*
X169839382Y-26777663D01*
X169835659Y-26775270D01*
X169743684Y-26713814D01*
X169743671Y-26713807D01*
X169561691Y-26638429D01*
X169561683Y-26638427D01*
X169520000Y-26630135D01*
X169520000Y-27624722D01*
X169443694Y-27580667D01*
X169329244Y-27550000D01*
X169210756Y-27550000D01*
X169096306Y-27580667D01*
X169020000Y-27624722D01*
X169020000Y-26630136D01*
X169019999Y-26630135D01*
X168978316Y-26638427D01*
X168921951Y-26661774D01*
X168852482Y-26669242D01*
X168790003Y-26637966D01*
X168754351Y-26577877D01*
X168750500Y-26547212D01*
X168750500Y-26176079D01*
X168721659Y-26031092D01*
X168721658Y-26031091D01*
X168721658Y-26031087D01*
X168717142Y-26020185D01*
X168665087Y-25894511D01*
X168665080Y-25894498D01*
X168582952Y-25771585D01*
X168582951Y-25771584D01*
X168478416Y-25667049D01*
X168023548Y-25212181D01*
X166478421Y-23667052D01*
X166478420Y-23667051D01*
X166458010Y-23653414D01*
X166403982Y-23617314D01*
X166403981Y-23617313D01*
X166355501Y-23584919D01*
X166355488Y-23584912D01*
X166218917Y-23528343D01*
X166218907Y-23528340D01*
X166073920Y-23499500D01*
X166073918Y-23499500D01*
X146985261Y-23499500D01*
X146937808Y-23490061D01*
X146798082Y-23432184D01*
X146798074Y-23432182D01*
X146633771Y-23399500D01*
X146633767Y-23399500D01*
X146466233Y-23399500D01*
X146466228Y-23399500D01*
X146301925Y-23432182D01*
X146301917Y-23432184D01*
X146147139Y-23496295D01*
X146007837Y-23589373D01*
X145889373Y-23707837D01*
X145796295Y-23847139D01*
X145732184Y-24001917D01*
X145732182Y-24001925D01*
X145699500Y-24166228D01*
X145699500Y-24333768D01*
X145702989Y-24351308D01*
X145696762Y-24420900D01*
X145653900Y-24476077D01*
X145588010Y-24499322D01*
X145581372Y-24499500D01*
X140726080Y-24499500D01*
X140581092Y-24528340D01*
X140581086Y-24528342D01*
X140444508Y-24584914D01*
X140444496Y-24584921D01*
X140395269Y-24617813D01*
X140321588Y-24667044D01*
X140321580Y-24667050D01*
X139417049Y-25571582D01*
X139417049Y-25571583D01*
X139394390Y-25605495D01*
X139334914Y-25694508D01*
X139278343Y-25831082D01*
X139278340Y-25831092D01*
X139249500Y-25976079D01*
X139249500Y-26600249D01*
X139229815Y-26667288D01*
X139199812Y-26699515D01*
X139142457Y-26742451D01*
X139142451Y-26742457D01*
X139056206Y-26857664D01*
X139056202Y-26857671D01*
X139005908Y-26992517D01*
X138999501Y-27052116D01*
X138999500Y-27052135D01*
X138999500Y-28947870D01*
X138999501Y-28947876D01*
X139005908Y-29007483D01*
X139056202Y-29142328D01*
X139056206Y-29142335D01*
X139142452Y-29257544D01*
X139142455Y-29257547D01*
X139257664Y-29343793D01*
X139257671Y-29343797D01*
X139392517Y-29394091D01*
X139392516Y-29394091D01*
X139399444Y-29394835D01*
X139452127Y-29400500D01*
X140547872Y-29400499D01*
X140607483Y-29394091D01*
X140742331Y-29343796D01*
X140754575Y-29334629D01*
X140820035Y-29310210D01*
X140876339Y-29319333D01*
X140978308Y-29361569D01*
X141020000Y-29369862D01*
X141020000Y-28375277D01*
X141096306Y-28419333D01*
X141210756Y-28450000D01*
X141329244Y-28450000D01*
X141443694Y-28419333D01*
X141520000Y-28375277D01*
X141520000Y-29369862D01*
X141561690Y-29361569D01*
X141561692Y-29361569D01*
X141743673Y-29286191D01*
X141743676Y-29286189D01*
X141835657Y-29224729D01*
X141902334Y-29203850D01*
X141969715Y-29222334D01*
X141973440Y-29224728D01*
X142066079Y-29286628D01*
X142066092Y-29286635D01*
X142247001Y-29361569D01*
X142248165Y-29362051D01*
X142248169Y-29362051D01*
X142248170Y-29362052D01*
X142441456Y-29400500D01*
X142441459Y-29400500D01*
X142638543Y-29400500D01*
X142798851Y-29368612D01*
X142831835Y-29362051D01*
X142888048Y-29338766D01*
X142957517Y-29331298D01*
X143019996Y-29362573D01*
X143055648Y-29422662D01*
X143059500Y-29453328D01*
X143059500Y-30127770D01*
X143039815Y-30194809D01*
X143023181Y-30215451D01*
X141525451Y-31713181D01*
X141464128Y-31746666D01*
X141437770Y-31749500D01*
X138395785Y-31749500D01*
X138328746Y-31729815D01*
X138282991Y-31677011D01*
X138273047Y-31607853D01*
X138290247Y-31560403D01*
X138346853Y-31468630D01*
X138346858Y-31468619D01*
X138402005Y-31302197D01*
X138402006Y-31302190D01*
X138412499Y-31199486D01*
X138412500Y-31199473D01*
X138412500Y-30887500D01*
X137210982Y-30887500D01*
X137221611Y-30869091D01*
X137262500Y-30716491D01*
X137262500Y-30558509D01*
X137221611Y-30405909D01*
X137210982Y-30387500D01*
X138412499Y-30387500D01*
X138412499Y-30075528D01*
X138412498Y-30075513D01*
X138402005Y-29972802D01*
X138346858Y-29806380D01*
X138346856Y-29806375D01*
X138254815Y-29657154D01*
X138130845Y-29533184D01*
X137981624Y-29441143D01*
X137981619Y-29441141D01*
X137815197Y-29385994D01*
X137815190Y-29385993D01*
X137712486Y-29375500D01*
X136912500Y-29375500D01*
X136912500Y-30089017D01*
X136894091Y-30078389D01*
X136741491Y-30037500D01*
X136583509Y-30037500D01*
X136430909Y-30078389D01*
X136412500Y-30089017D01*
X136412500Y-29375500D01*
X135612528Y-29375500D01*
X135612512Y-29375501D01*
X135509802Y-29385994D01*
X135343380Y-29441141D01*
X135343375Y-29441143D01*
X135194154Y-29533184D01*
X135070184Y-29657154D01*
X134978143Y-29806375D01*
X134978141Y-29806380D01*
X134922994Y-29972802D01*
X134922993Y-29972809D01*
X134912500Y-30075513D01*
X134912500Y-30387500D01*
X136114018Y-30387500D01*
X136103389Y-30405909D01*
X136062500Y-30558509D01*
X136062500Y-30716491D01*
X136103389Y-30869091D01*
X136114018Y-30887500D01*
X134912501Y-30887500D01*
X134912501Y-31199486D01*
X134922994Y-31302197D01*
X134978141Y-31468619D01*
X134978143Y-31468624D01*
X135070184Y-31617845D01*
X135194154Y-31741815D01*
X135343375Y-31833856D01*
X135343380Y-31833858D01*
X135509802Y-31889005D01*
X135509809Y-31889006D01*
X135612519Y-31899499D01*
X136412499Y-31899499D01*
X136412500Y-31899498D01*
X136412500Y-31185982D01*
X136430909Y-31196611D01*
X136583509Y-31237500D01*
X136741491Y-31237500D01*
X136894091Y-31196611D01*
X136912500Y-31185982D01*
X136912500Y-31899499D01*
X136913135Y-31900134D01*
X136946620Y-31961457D01*
X136941636Y-32031149D01*
X136913135Y-32075496D01*
X133217050Y-35771580D01*
X133217044Y-35771588D01*
X133167812Y-35845268D01*
X133167813Y-35845269D01*
X133134921Y-35894496D01*
X133134914Y-35894508D01*
X133078342Y-36031086D01*
X133078340Y-36031092D01*
X133049500Y-36176079D01*
X133049500Y-53387770D01*
X133029815Y-53454809D01*
X133013181Y-53475451D01*
X132275451Y-54213181D01*
X132214128Y-54246666D01*
X132187770Y-54249500D01*
X122976076Y-54249500D01*
X122947242Y-54255234D01*
X122947243Y-54255235D01*
X122831092Y-54278339D01*
X122831086Y-54278341D01*
X122804739Y-54289254D01*
X122804723Y-54289261D01*
X122800315Y-54291088D01*
X122694505Y-54334916D01*
X122636136Y-54373917D01*
X122630005Y-54378012D01*
X122629994Y-54378019D01*
X122571582Y-54417049D01*
X122571579Y-54417052D01*
X120217052Y-56771578D01*
X120217049Y-56771581D01*
X120169782Y-56842321D01*
X120169783Y-56842322D01*
X120134918Y-56894501D01*
X120134914Y-56894508D01*
X120078342Y-57031086D01*
X120078340Y-57031092D01*
X120049500Y-57176079D01*
X120049500Y-59758859D01*
X120029815Y-59825898D01*
X119977011Y-59871653D01*
X119972143Y-59873565D01*
X119968663Y-59875187D01*
X119819342Y-59967289D01*
X119695289Y-60091342D01*
X119603187Y-60240663D01*
X119603186Y-60240666D01*
X119548001Y-60407203D01*
X119548001Y-60407204D01*
X119548000Y-60407204D01*
X119547858Y-60408603D01*
X119547528Y-60409410D01*
X119546583Y-60413827D01*
X119545795Y-60413658D01*
X119521462Y-60473294D01*
X119464281Y-60513446D01*
X119394470Y-60516309D01*
X119334193Y-60480975D01*
X119302588Y-60418662D01*
X119300500Y-60396000D01*
X119300500Y-50647648D01*
X125499500Y-50647648D01*
X125499500Y-50852351D01*
X125531522Y-51054534D01*
X125594781Y-51249223D01*
X125687715Y-51431613D01*
X125808028Y-51597213D01*
X125952786Y-51741971D01*
X126104458Y-51852165D01*
X126118390Y-51862287D01*
X126215494Y-51911764D01*
X126300776Y-51955218D01*
X126300778Y-51955218D01*
X126300781Y-51955220D01*
X126376477Y-51979815D01*
X126495465Y-52018477D01*
X126557750Y-52028342D01*
X126697648Y-52050500D01*
X126697649Y-52050500D01*
X126902351Y-52050500D01*
X126902352Y-52050500D01*
X127104534Y-52018477D01*
X127299219Y-51955220D01*
X127481610Y-51862287D01*
X127574590Y-51794732D01*
X127647213Y-51741971D01*
X127647215Y-51741968D01*
X127647219Y-51741966D01*
X127712319Y-51676866D01*
X127773642Y-51643381D01*
X127843334Y-51648365D01*
X127887681Y-51676866D01*
X127952786Y-51741971D01*
X128104458Y-51852165D01*
X128118390Y-51862287D01*
X128215494Y-51911764D01*
X128300776Y-51955218D01*
X128300778Y-51955218D01*
X128300781Y-51955220D01*
X128376477Y-51979815D01*
X128495465Y-52018477D01*
X128557750Y-52028342D01*
X128697648Y-52050500D01*
X128697649Y-52050500D01*
X128902351Y-52050500D01*
X128902352Y-52050500D01*
X129104534Y-52018477D01*
X129299219Y-51955220D01*
X129481610Y-51862287D01*
X129574590Y-51794732D01*
X129647213Y-51741971D01*
X129647215Y-51741968D01*
X129647219Y-51741966D01*
X129712319Y-51676866D01*
X129773642Y-51643381D01*
X129843334Y-51648365D01*
X129887681Y-51676866D01*
X129952786Y-51741971D01*
X130104458Y-51852165D01*
X130118390Y-51862287D01*
X130215494Y-51911764D01*
X130300776Y-51955218D01*
X130300778Y-51955218D01*
X130300781Y-51955220D01*
X130376477Y-51979815D01*
X130495465Y-52018477D01*
X130557750Y-52028342D01*
X130697648Y-52050500D01*
X130697649Y-52050500D01*
X130902351Y-52050500D01*
X130902352Y-52050500D01*
X131104534Y-52018477D01*
X131299219Y-51955220D01*
X131481610Y-51862287D01*
X131574590Y-51794732D01*
X131647213Y-51741971D01*
X131647215Y-51741968D01*
X131647219Y-51741966D01*
X131791966Y-51597219D01*
X131791968Y-51597215D01*
X131791971Y-51597213D01*
X131844732Y-51524590D01*
X131912287Y-51431610D01*
X132005220Y-51249219D01*
X132068477Y-51054534D01*
X132100500Y-50852352D01*
X132100500Y-50647648D01*
X132075697Y-50491051D01*
X132068477Y-50445465D01*
X132039127Y-50355137D01*
X132005220Y-50250781D01*
X132005218Y-50250778D01*
X132005218Y-50250776D01*
X131957129Y-50156398D01*
X131912287Y-50068390D01*
X131844304Y-49974818D01*
X131791971Y-49902786D01*
X131647213Y-49758028D01*
X131481613Y-49637715D01*
X131481612Y-49637714D01*
X131481610Y-49637713D01*
X131424653Y-49608691D01*
X131299223Y-49544781D01*
X131104534Y-49481522D01*
X130929995Y-49453878D01*
X130902352Y-49449500D01*
X130697648Y-49449500D01*
X130673329Y-49453351D01*
X130495465Y-49481522D01*
X130300776Y-49544781D01*
X130118386Y-49637715D01*
X129952786Y-49758028D01*
X129952782Y-49758032D01*
X129887681Y-49823134D01*
X129826358Y-49856619D01*
X129756666Y-49851635D01*
X129712319Y-49823134D01*
X129647213Y-49758028D01*
X129481613Y-49637715D01*
X129481612Y-49637714D01*
X129481610Y-49637713D01*
X129424653Y-49608691D01*
X129299223Y-49544781D01*
X129104534Y-49481522D01*
X128929995Y-49453878D01*
X128902352Y-49449500D01*
X128697648Y-49449500D01*
X128673329Y-49453351D01*
X128495465Y-49481522D01*
X128300776Y-49544781D01*
X128118386Y-49637715D01*
X127952786Y-49758028D01*
X127952782Y-49758032D01*
X127887681Y-49823134D01*
X127826358Y-49856619D01*
X127756666Y-49851635D01*
X127712319Y-49823134D01*
X127647213Y-49758028D01*
X127481613Y-49637715D01*
X127481612Y-49637714D01*
X127481610Y-49637713D01*
X127424653Y-49608691D01*
X127299223Y-49544781D01*
X127104534Y-49481522D01*
X126929995Y-49453878D01*
X126902352Y-49449500D01*
X126697648Y-49449500D01*
X126673329Y-49453351D01*
X126495465Y-49481522D01*
X126300776Y-49544781D01*
X126118386Y-49637715D01*
X125952786Y-49758028D01*
X125808028Y-49902786D01*
X125687715Y-50068386D01*
X125594781Y-50250776D01*
X125531522Y-50445465D01*
X125499500Y-50647648D01*
X119300500Y-50647648D01*
X119300500Y-41289695D01*
X119320185Y-41222656D01*
X119372989Y-41176901D01*
X119442147Y-41166957D01*
X119505703Y-41195982D01*
X119523767Y-41215385D01*
X119554954Y-41257046D01*
X119554955Y-41257047D01*
X119670164Y-41343293D01*
X119670171Y-41343297D01*
X119715118Y-41360061D01*
X119805017Y-41393591D01*
X119864627Y-41400000D01*
X120288000Y-41399999D01*
X120355039Y-41419683D01*
X120400794Y-41472487D01*
X120412000Y-41523999D01*
X120412000Y-45686418D01*
X120412000Y-45686420D01*
X120411999Y-45686420D01*
X120440840Y-45831407D01*
X120440843Y-45831417D01*
X120497412Y-45967988D01*
X120497416Y-45967995D01*
X120518465Y-45999497D01*
X120518466Y-45999500D01*
X120518467Y-45999500D01*
X120579551Y-46090920D01*
X120579552Y-46090921D01*
X122216143Y-47727510D01*
X122717048Y-48228415D01*
X122717049Y-48228416D01*
X122800112Y-48311479D01*
X122821585Y-48332952D01*
X122944498Y-48415080D01*
X122944511Y-48415087D01*
X123081082Y-48471656D01*
X123081087Y-48471658D01*
X123081091Y-48471658D01*
X123081092Y-48471659D01*
X123226079Y-48500500D01*
X123226082Y-48500500D01*
X130373920Y-48500500D01*
X130471462Y-48481096D01*
X130518913Y-48471658D01*
X130655495Y-48415084D01*
X130704729Y-48382186D01*
X130778416Y-48332952D01*
X131382952Y-47728416D01*
X131432186Y-47654729D01*
X131465084Y-47605495D01*
X131521658Y-47468913D01*
X131550087Y-47325996D01*
X131550500Y-47323920D01*
X131550500Y-46875416D01*
X131570185Y-46808377D01*
X131601613Y-46775099D01*
X131647219Y-46741966D01*
X131791966Y-46597219D01*
X131791968Y-46597215D01*
X131791971Y-46597213D01*
X131844732Y-46524590D01*
X131912287Y-46431610D01*
X132005220Y-46249219D01*
X132068477Y-46054534D01*
X132100500Y-45852352D01*
X132100500Y-45647648D01*
X132068477Y-45445465D01*
X132021742Y-45301632D01*
X132005220Y-45250781D01*
X132005218Y-45250778D01*
X132005218Y-45250776D01*
X131971503Y-45184607D01*
X131912287Y-45068390D01*
X131889350Y-45036819D01*
X131791971Y-44902786D01*
X131647213Y-44758028D01*
X131481613Y-44637715D01*
X131481612Y-44637714D01*
X131481610Y-44637713D01*
X131424653Y-44608691D01*
X131299223Y-44544781D01*
X131104534Y-44481522D01*
X130929995Y-44453878D01*
X130902352Y-44449500D01*
X130697648Y-44449500D01*
X130673329Y-44453351D01*
X130495465Y-44481522D01*
X130300776Y-44544781D01*
X130118386Y-44637715D01*
X129952786Y-44758028D01*
X129952782Y-44758032D01*
X129887681Y-44823134D01*
X129883139Y-44825614D01*
X129880300Y-44829940D01*
X129852790Y-44842185D01*
X129826358Y-44856619D01*
X129821195Y-44856249D01*
X129816469Y-44858354D01*
X129786708Y-44853783D01*
X129756666Y-44851635D01*
X129751141Y-44848321D01*
X129747409Y-44847748D01*
X129731017Y-44836250D01*
X129717902Y-44828383D01*
X129715036Y-44825851D01*
X129647219Y-44758034D01*
X129596834Y-44721427D01*
X129592402Y-44717512D01*
X129576817Y-44692742D01*
X129558949Y-44669571D01*
X129557549Y-44662119D01*
X129555193Y-44658374D01*
X129555273Y-44649998D01*
X129550500Y-44624582D01*
X129550500Y-33112230D01*
X129570185Y-33045191D01*
X129586819Y-33024549D01*
X135650243Y-26961125D01*
X136012184Y-26599184D01*
X136382952Y-26228416D01*
X136439018Y-26144505D01*
X136465084Y-26105495D01*
X136521658Y-25968913D01*
X136536459Y-25894505D01*
X136550500Y-25823920D01*
X136550500Y-23807000D01*
X136570185Y-23739961D01*
X136622989Y-23694206D01*
X136674500Y-23683000D01*
X136800003Y-23683000D01*
X136800008Y-23683000D01*
X136902797Y-23672499D01*
X137069334Y-23617314D01*
X137218655Y-23525211D01*
X137342711Y-23401155D01*
X137434814Y-23251834D01*
X137489999Y-23085297D01*
X137500500Y-22982508D01*
X137500500Y-20982492D01*
X137489999Y-20879703D01*
X137434814Y-20713166D01*
X137342711Y-20563845D01*
X137218655Y-20439789D01*
X137218651Y-20439786D01*
X137069337Y-20347687D01*
X137069335Y-20347686D01*
X136986065Y-20320093D01*
X136902797Y-20292501D01*
X136902795Y-20292500D01*
X136800015Y-20282000D01*
X136800008Y-20282000D01*
X134799992Y-20282000D01*
X134799984Y-20282000D01*
X134697204Y-20292500D01*
X134697203Y-20292501D01*
X134530664Y-20347686D01*
X134530662Y-20347687D01*
X134381348Y-20439786D01*
X134381344Y-20439789D01*
X134257289Y-20563844D01*
X134257286Y-20563848D01*
X134165187Y-20713162D01*
X134165186Y-20713164D01*
X134110001Y-20879703D01*
X134110000Y-20879704D01*
X134099500Y-20982484D01*
X134099500Y-21261173D01*
X134079815Y-21328212D01*
X134027011Y-21373967D01*
X133957853Y-21383911D01*
X133894297Y-21354886D01*
X133860939Y-21308627D01*
X133827952Y-21228992D01*
X133827949Y-21228985D01*
X133716533Y-21036007D01*
X133665956Y-20970095D01*
X133665955Y-20970095D01*
X132864612Y-21771439D01*
X132859111Y-21750909D01*
X132780119Y-21614092D01*
X132668408Y-21502381D01*
X132531591Y-21423389D01*
X132511058Y-21417887D01*
X133312403Y-20616543D01*
X133312403Y-20616540D01*
X133246504Y-20565973D01*
X133246491Y-20565964D01*
X133053520Y-20454554D01*
X133053502Y-20454545D01*
X132847618Y-20369263D01*
X132632367Y-20311588D01*
X132632354Y-20311585D01*
X132411425Y-20282500D01*
X132188575Y-20282500D01*
X131967645Y-20311585D01*
X131967632Y-20311588D01*
X131752381Y-20369263D01*
X131546497Y-20454545D01*
X131546479Y-20454554D01*
X131353511Y-20565962D01*
X131287595Y-20616542D01*
X132088941Y-21417887D01*
X132068409Y-21423389D01*
X131931592Y-21502381D01*
X131819881Y-21614092D01*
X131740889Y-21750909D01*
X131735387Y-21771440D01*
X130934042Y-20970095D01*
X130883462Y-21036011D01*
X130772054Y-21228979D01*
X130772045Y-21228997D01*
X130686763Y-21434881D01*
X130629088Y-21650132D01*
X130629085Y-21650145D01*
X130600000Y-21871075D01*
X130600000Y-22093924D01*
X130629085Y-22314854D01*
X130629088Y-22314867D01*
X130686763Y-22530118D01*
X130772045Y-22736002D01*
X130772054Y-22736020D01*
X130883464Y-22928991D01*
X130883473Y-22929004D01*
X130934040Y-22994903D01*
X130934043Y-22994903D01*
X131735387Y-22193559D01*
X131740889Y-22214091D01*
X131819881Y-22350908D01*
X131931592Y-22462619D01*
X132068409Y-22541611D01*
X132088940Y-22547112D01*
X131287595Y-23348455D01*
X131287595Y-23348456D01*
X131353507Y-23399033D01*
X131546485Y-23510449D01*
X131546497Y-23510454D01*
X131752381Y-23595736D01*
X131967632Y-23653411D01*
X131967645Y-23653414D01*
X132188575Y-23682500D01*
X132411425Y-23682500D01*
X132632354Y-23653414D01*
X132632367Y-23653411D01*
X132847618Y-23595736D01*
X133053502Y-23510454D01*
X133053514Y-23510449D01*
X133246498Y-23399030D01*
X133312403Y-23348457D01*
X133312404Y-23348456D01*
X132511059Y-22547112D01*
X132531591Y-22541611D01*
X132668408Y-22462619D01*
X132780119Y-22350908D01*
X132859111Y-22214091D01*
X132864612Y-22193559D01*
X133665956Y-22994904D01*
X133665957Y-22994903D01*
X133716530Y-22928998D01*
X133827949Y-22736014D01*
X133827954Y-22736002D01*
X133860939Y-22656373D01*
X133904780Y-22601969D01*
X133971075Y-22579905D01*
X134038774Y-22597185D01*
X134086384Y-22648322D01*
X134099500Y-22703826D01*
X134099500Y-22982515D01*
X134110000Y-23085295D01*
X134110001Y-23085296D01*
X134165186Y-23251835D01*
X134165187Y-23251837D01*
X134257286Y-23401151D01*
X134257289Y-23401155D01*
X134381344Y-23525210D01*
X134381348Y-23525213D01*
X134530662Y-23617312D01*
X134530664Y-23617313D01*
X134530666Y-23617314D01*
X134697203Y-23672499D01*
X134799992Y-23683000D01*
X134925500Y-23683000D01*
X134992539Y-23702685D01*
X135038294Y-23755489D01*
X135049500Y-23807000D01*
X135049500Y-25387769D01*
X135029815Y-25454808D01*
X135013181Y-25475450D01*
X128217050Y-32271580D01*
X128217044Y-32271588D01*
X128167812Y-32345268D01*
X128167813Y-32345269D01*
X128134921Y-32394496D01*
X128134914Y-32394508D01*
X128078342Y-32531086D01*
X128078340Y-32531092D01*
X128049500Y-32676079D01*
X128049500Y-44413568D01*
X128029815Y-44480607D01*
X127977011Y-44526362D01*
X127907853Y-44536306D01*
X127851190Y-44512835D01*
X127842334Y-44506206D01*
X127842328Y-44506202D01*
X127707482Y-44455908D01*
X127707483Y-44455908D01*
X127647883Y-44449501D01*
X127647881Y-44449500D01*
X127647873Y-44449500D01*
X127647864Y-44449500D01*
X125952129Y-44449500D01*
X125952123Y-44449501D01*
X125892516Y-44455908D01*
X125757671Y-44506202D01*
X125757664Y-44506206D01*
X125642455Y-44592452D01*
X125642452Y-44592455D01*
X125556206Y-44707664D01*
X125556202Y-44707671D01*
X125505908Y-44842517D01*
X125499501Y-44902116D01*
X125499500Y-44902135D01*
X125499500Y-46597870D01*
X125499501Y-46597876D01*
X125505908Y-46657483D01*
X125556202Y-46792328D01*
X125556206Y-46792334D01*
X125562835Y-46801190D01*
X125587252Y-46866654D01*
X125572400Y-46934927D01*
X125522995Y-46984332D01*
X125463568Y-46999500D01*
X123662229Y-46999500D01*
X123595190Y-46979815D01*
X123574548Y-46963181D01*
X121949319Y-45337951D01*
X121915834Y-45276628D01*
X121913000Y-45250270D01*
X121913000Y-41523999D01*
X121932685Y-41456960D01*
X121985489Y-41411205D01*
X122037000Y-41399999D01*
X122460371Y-41399999D01*
X122460372Y-41399999D01*
X122519983Y-41393591D01*
X122654831Y-41343296D01*
X122770046Y-41257046D01*
X122856296Y-41141831D01*
X122906591Y-41006983D01*
X122913000Y-40947373D01*
X122912999Y-39327628D01*
X122906591Y-39268017D01*
X122865125Y-39156842D01*
X122856297Y-39133171D01*
X122856293Y-39133164D01*
X122770047Y-39017955D01*
X122770044Y-39017952D01*
X122654835Y-38931706D01*
X122654828Y-38931702D01*
X122519982Y-38881408D01*
X122519983Y-38881408D01*
X122460383Y-38875001D01*
X122460381Y-38875000D01*
X122460373Y-38875000D01*
X122460364Y-38875000D01*
X119864629Y-38875000D01*
X119864623Y-38875001D01*
X119805016Y-38881408D01*
X119670171Y-38931702D01*
X119670164Y-38931706D01*
X119554955Y-39017952D01*
X119554952Y-39017955D01*
X119523766Y-39059615D01*
X119467832Y-39101486D01*
X119398141Y-39106470D01*
X119336818Y-39072984D01*
X119303334Y-39011661D01*
X119300500Y-38985304D01*
X119300500Y-31617856D01*
X119320185Y-31550817D01*
X119372989Y-31505062D01*
X119442147Y-31495118D01*
X119505703Y-31524143D01*
X119530039Y-31552759D01*
X119570184Y-31617845D01*
X119694154Y-31741815D01*
X119843375Y-31833856D01*
X119843380Y-31833858D01*
X120009802Y-31889005D01*
X120009809Y-31889006D01*
X120112519Y-31899499D01*
X120912499Y-31899499D01*
X120912500Y-31899498D01*
X120912500Y-31185982D01*
X120930909Y-31196611D01*
X121083509Y-31237500D01*
X121241491Y-31237500D01*
X121394091Y-31196611D01*
X121412500Y-31185982D01*
X121412500Y-31899499D01*
X122212472Y-31899499D01*
X122212486Y-31899498D01*
X122315197Y-31889005D01*
X122481619Y-31833858D01*
X122481624Y-31833856D01*
X122630845Y-31741815D01*
X122754815Y-31617845D01*
X122846856Y-31468624D01*
X122846858Y-31468619D01*
X122902005Y-31302197D01*
X122902006Y-31302190D01*
X122912499Y-31199486D01*
X122912500Y-31199473D01*
X122912500Y-30887500D01*
X121710982Y-30887500D01*
X121721611Y-30869091D01*
X121762500Y-30716491D01*
X121762500Y-30558509D01*
X121721611Y-30405909D01*
X121710982Y-30387500D01*
X122912499Y-30387500D01*
X122912499Y-30075528D01*
X122912498Y-30075513D01*
X122902005Y-29972802D01*
X122846858Y-29806380D01*
X122846856Y-29806375D01*
X122754815Y-29657154D01*
X122630845Y-29533184D01*
X122481624Y-29441143D01*
X122481619Y-29441141D01*
X122315197Y-29385994D01*
X122315190Y-29385993D01*
X122212486Y-29375500D01*
X121412500Y-29375500D01*
X121412500Y-30089017D01*
X121394091Y-30078389D01*
X121241491Y-30037500D01*
X121083509Y-30037500D01*
X120930909Y-30078389D01*
X120912500Y-30089017D01*
X120912500Y-29375500D01*
X120112528Y-29375500D01*
X120112512Y-29375501D01*
X120009802Y-29385994D01*
X119843380Y-29441141D01*
X119843375Y-29441143D01*
X119694154Y-29533184D01*
X119570183Y-29657155D01*
X119570180Y-29657159D01*
X119530038Y-29722240D01*
X119478090Y-29768965D01*
X119409128Y-29780186D01*
X119345046Y-29752343D01*
X119306190Y-29694274D01*
X119300500Y-29657143D01*
X119300500Y-18374500D01*
X119320185Y-18307461D01*
X119372989Y-18261706D01*
X119424500Y-18250500D01*
X188175500Y-18250500D01*
X188242539Y-18270185D01*
G37*
G04 #@! TD.AperFunction*
G04 #@! TA.AperFunction,Conductor*
G36*
X124689454Y-62801683D02*
G01*
X124715539Y-62831787D01*
X124775288Y-62928656D01*
X124899344Y-63052712D01*
X125048663Y-63144812D01*
X125048671Y-63144817D01*
X125055216Y-63147869D01*
X125054163Y-63150126D01*
X125101939Y-63183196D01*
X125128770Y-63247708D01*
X125129500Y-63261141D01*
X125129500Y-65903918D01*
X125129500Y-65903920D01*
X125129499Y-65903920D01*
X125158340Y-66048907D01*
X125158343Y-66048917D01*
X125214914Y-66185492D01*
X125214915Y-66185494D01*
X125214916Y-66185495D01*
X125242989Y-66227510D01*
X125247812Y-66234727D01*
X125247813Y-66234730D01*
X125297046Y-66308414D01*
X125297052Y-66308421D01*
X128960181Y-69971549D01*
X128993666Y-70032872D01*
X128996500Y-70059230D01*
X128996500Y-74073918D01*
X128996500Y-74073920D01*
X128996499Y-74073920D01*
X129025340Y-74218907D01*
X129025343Y-74218917D01*
X129084247Y-74361124D01*
X129083383Y-74361481D01*
X129096500Y-74413840D01*
X129096500Y-74925500D01*
X129076815Y-74992539D01*
X129024011Y-75038294D01*
X128972500Y-75049500D01*
X127857998Y-75049500D01*
X127857981Y-75049501D01*
X127755203Y-75060000D01*
X127755200Y-75060001D01*
X127588668Y-75115185D01*
X127588663Y-75115187D01*
X127439342Y-75207289D01*
X127315289Y-75331342D01*
X127255539Y-75428213D01*
X127203591Y-75474937D01*
X127134628Y-75486160D01*
X127070546Y-75458316D01*
X127044461Y-75428213D01*
X127018297Y-75385795D01*
X126984712Y-75331344D01*
X126860656Y-75207288D01*
X126711334Y-75115186D01*
X126544797Y-75060001D01*
X126544795Y-75060000D01*
X126442010Y-75049500D01*
X125317998Y-75049500D01*
X125317981Y-75049501D01*
X125215203Y-75060000D01*
X125215200Y-75060001D01*
X125048668Y-75115185D01*
X125048663Y-75115187D01*
X124899342Y-75207289D01*
X124775288Y-75331343D01*
X124775285Y-75331347D01*
X124715244Y-75428689D01*
X124663296Y-75475414D01*
X124594334Y-75486635D01*
X124530252Y-75458792D01*
X124504167Y-75428689D01*
X124444315Y-75331654D01*
X124320345Y-75207684D01*
X124171124Y-75115643D01*
X124171119Y-75115641D01*
X124004697Y-75060494D01*
X124004690Y-75060493D01*
X123901986Y-75050000D01*
X123590000Y-75050000D01*
X123590000Y-76201517D01*
X123571591Y-76190889D01*
X123418991Y-76150000D01*
X123261009Y-76150000D01*
X123108409Y-76190889D01*
X123090000Y-76201517D01*
X123090000Y-75050000D01*
X122778028Y-75050000D01*
X122778012Y-75050001D01*
X122675302Y-75060494D01*
X122508880Y-75115641D01*
X122508875Y-75115643D01*
X122359654Y-75207684D01*
X122235683Y-75331655D01*
X122235681Y-75331658D01*
X122231108Y-75339072D01*
X122179158Y-75385795D01*
X122110195Y-75397014D01*
X122046114Y-75369168D01*
X122009390Y-75317304D01*
X122005797Y-75307671D01*
X122005793Y-75307664D01*
X121919547Y-75192455D01*
X121919544Y-75192452D01*
X121804335Y-75106206D01*
X121804328Y-75106202D01*
X121669482Y-75055908D01*
X121669484Y-75055908D01*
X121661244Y-75055023D01*
X121596693Y-75028285D01*
X121556845Y-74970892D01*
X121550500Y-74931734D01*
X121550500Y-65862230D01*
X121570185Y-65795191D01*
X121586819Y-65774549D01*
X122632947Y-64728421D01*
X122632952Y-64728416D01*
X122715084Y-64605494D01*
X122771658Y-64468912D01*
X122781096Y-64421461D01*
X122800500Y-64323919D01*
X122800500Y-64176080D01*
X122771659Y-64031092D01*
X122771658Y-64031091D01*
X122771658Y-64031087D01*
X122715084Y-63894506D01*
X122712753Y-63888878D01*
X122713614Y-63888520D01*
X122700500Y-63836160D01*
X122700500Y-63334499D01*
X122720185Y-63267460D01*
X122772989Y-63221705D01*
X122824495Y-63210499D01*
X123902008Y-63210499D01*
X124004797Y-63199999D01*
X124171334Y-63144814D01*
X124320656Y-63052712D01*
X124444712Y-62928656D01*
X124504461Y-62831787D01*
X124556409Y-62785062D01*
X124625371Y-62773839D01*
X124689454Y-62801683D01*
G37*
G04 #@! TD.AperFunction*
G04 #@! TA.AperFunction,Conductor*
G36*
X170254809Y-69520185D02*
G01*
X170275451Y-69536819D01*
X174571586Y-73832954D01*
X174601058Y-73852645D01*
X174645270Y-73882186D01*
X174694505Y-73915084D01*
X174694506Y-73915084D01*
X174694507Y-73915085D01*
X174694509Y-73915086D01*
X174796117Y-73957173D01*
X174831087Y-73971658D01*
X174831091Y-73971658D01*
X174831092Y-73971659D01*
X174976079Y-74000500D01*
X174976082Y-74000500D01*
X174976083Y-74000500D01*
X175123917Y-74000500D01*
X175875501Y-74000500D01*
X175942540Y-74020185D01*
X175988295Y-74072989D01*
X175999501Y-74124500D01*
X175999501Y-74297876D01*
X176005908Y-74357483D01*
X176056202Y-74492328D01*
X176056206Y-74492335D01*
X176142452Y-74607544D01*
X176142455Y-74607547D01*
X176257664Y-74693793D01*
X176257671Y-74693797D01*
X176392517Y-74744091D01*
X176392516Y-74744091D01*
X176399444Y-74744835D01*
X176452127Y-74750500D01*
X178547872Y-74750499D01*
X178607483Y-74744091D01*
X178742331Y-74693796D01*
X178857546Y-74607546D01*
X178943796Y-74492331D01*
X178994091Y-74357483D01*
X179000500Y-74297873D01*
X179000499Y-72202128D01*
X178994091Y-72142517D01*
X178980278Y-72105483D01*
X178943797Y-72007671D01*
X178943793Y-72007664D01*
X178857547Y-71892455D01*
X178857544Y-71892452D01*
X178742335Y-71806206D01*
X178742328Y-71806202D01*
X178607482Y-71755908D01*
X178607483Y-71755908D01*
X178547883Y-71749501D01*
X178547881Y-71749500D01*
X178547873Y-71749500D01*
X178547864Y-71749500D01*
X176452129Y-71749500D01*
X176452123Y-71749501D01*
X176392516Y-71755908D01*
X176257671Y-71806202D01*
X176257664Y-71806206D01*
X176142455Y-71892452D01*
X176142452Y-71892455D01*
X176056206Y-72007664D01*
X176056202Y-72007671D01*
X176005908Y-72142517D01*
X175999821Y-72199142D01*
X175999501Y-72202123D01*
X175999500Y-72202135D01*
X175999500Y-72375500D01*
X175979815Y-72442539D01*
X175927011Y-72488294D01*
X175875500Y-72499500D01*
X175412230Y-72499500D01*
X175345191Y-72479815D01*
X175324549Y-72463181D01*
X173040210Y-70178841D01*
X173006725Y-70117518D01*
X173011709Y-70047826D01*
X173053581Y-69991893D01*
X173119045Y-69967476D01*
X173166205Y-69973228D01*
X173270694Y-70007179D01*
X173305465Y-70018477D01*
X173396351Y-70032872D01*
X173507648Y-70050500D01*
X173507649Y-70050500D01*
X173712351Y-70050500D01*
X173712352Y-70050500D01*
X173914534Y-70018477D01*
X174109219Y-69955220D01*
X174291610Y-69862287D01*
X174384590Y-69794732D01*
X174457213Y-69741971D01*
X174457215Y-69741968D01*
X174457219Y-69741966D01*
X174601966Y-69597219D01*
X174604650Y-69593524D01*
X174635100Y-69551615D01*
X174690429Y-69508949D01*
X174735418Y-69500500D01*
X182187770Y-69500500D01*
X182254809Y-69520185D01*
X182275451Y-69536819D01*
X184313181Y-71574548D01*
X184327884Y-71601475D01*
X184344477Y-71627294D01*
X184345368Y-71633494D01*
X184346666Y-71635871D01*
X184349500Y-71662229D01*
X184349500Y-71877368D01*
X184329815Y-71944407D01*
X184298386Y-71977686D01*
X184122488Y-72105484D01*
X183955485Y-72272487D01*
X183955485Y-72272488D01*
X183955483Y-72272490D01*
X183915242Y-72327877D01*
X183816657Y-72463566D01*
X183709433Y-72674003D01*
X183636446Y-72898631D01*
X183599500Y-73131902D01*
X183599500Y-73368097D01*
X183636446Y-73601368D01*
X183709433Y-73825996D01*
X183783653Y-73971659D01*
X183816657Y-74036433D01*
X183955483Y-74227510D01*
X184122490Y-74394517D01*
X184257115Y-74492328D01*
X184278194Y-74507643D01*
X184320859Y-74562973D01*
X184326838Y-74632587D01*
X184294232Y-74694382D01*
X184292989Y-74695642D01*
X182985451Y-76003181D01*
X182924128Y-76036666D01*
X182897770Y-76039500D01*
X164416977Y-76039500D01*
X164349938Y-76019815D01*
X164304183Y-75967011D01*
X164296733Y-75939865D01*
X164295876Y-75940068D01*
X164294092Y-75932520D01*
X164243797Y-75797671D01*
X164243793Y-75797664D01*
X164157547Y-75682455D01*
X164157544Y-75682452D01*
X164042335Y-75596206D01*
X164042328Y-75596202D01*
X163907482Y-75545908D01*
X163907483Y-75545908D01*
X163847883Y-75539501D01*
X163847881Y-75539500D01*
X163847873Y-75539500D01*
X163847865Y-75539500D01*
X163784267Y-75539500D01*
X163717228Y-75519815D01*
X163671473Y-75467011D01*
X163661529Y-75397853D01*
X163690554Y-75334297D01*
X163711381Y-75315182D01*
X163721722Y-75307669D01*
X163864646Y-75203828D01*
X164003828Y-75064646D01*
X164085950Y-74951614D01*
X164141280Y-74908949D01*
X164186268Y-74900500D01*
X164364071Y-74900500D01*
X164448615Y-74883682D01*
X164489744Y-74875501D01*
X164608127Y-74826465D01*
X164610836Y-74824654D01*
X164611772Y-74824030D01*
X164646991Y-74800497D01*
X164714669Y-74755277D01*
X165305277Y-74164669D01*
X165376465Y-74058127D01*
X165400335Y-74000500D01*
X165425501Y-73939744D01*
X165436951Y-73882183D01*
X165450500Y-73814071D01*
X165450500Y-72124500D01*
X165470185Y-72057461D01*
X165522989Y-72011706D01*
X165574500Y-72000500D01*
X170187770Y-72000500D01*
X170217210Y-72009144D01*
X170247197Y-72015668D01*
X170252212Y-72019422D01*
X170254809Y-72020185D01*
X170275451Y-72036819D01*
X170376451Y-72137819D01*
X170409936Y-72199142D01*
X170404952Y-72268834D01*
X170363080Y-72324767D01*
X170297616Y-72349184D01*
X170288770Y-72349500D01*
X170241457Y-72349500D01*
X170048170Y-72387947D01*
X170048160Y-72387950D01*
X169866093Y-72463364D01*
X169866082Y-72463370D01*
X169773440Y-72525271D01*
X169706762Y-72546148D01*
X169639382Y-72527663D01*
X169635659Y-72525270D01*
X169543684Y-72463814D01*
X169543671Y-72463807D01*
X169361691Y-72388429D01*
X169361683Y-72388427D01*
X169320000Y-72380135D01*
X169320000Y-73374722D01*
X169243694Y-73330667D01*
X169129244Y-73300000D01*
X169010756Y-73300000D01*
X168896306Y-73330667D01*
X168820000Y-73374722D01*
X168820000Y-72380136D01*
X168819999Y-72380135D01*
X168778316Y-72388427D01*
X168676339Y-72430666D01*
X168606870Y-72438133D01*
X168554578Y-72415372D01*
X168542330Y-72406203D01*
X168542328Y-72406202D01*
X168407482Y-72355908D01*
X168407483Y-72355908D01*
X168347883Y-72349501D01*
X168347881Y-72349500D01*
X168347873Y-72349500D01*
X168347864Y-72349500D01*
X167252129Y-72349500D01*
X167252123Y-72349501D01*
X167192516Y-72355908D01*
X167057671Y-72406202D01*
X167057664Y-72406206D01*
X166942455Y-72492452D01*
X166942452Y-72492455D01*
X166856206Y-72607664D01*
X166856202Y-72607671D01*
X166805908Y-72742517D01*
X166799501Y-72802116D01*
X166799500Y-72802135D01*
X166799500Y-74697870D01*
X166799501Y-74697876D01*
X166805908Y-74757483D01*
X166856202Y-74892328D01*
X166856206Y-74892335D01*
X166942452Y-75007544D01*
X166942455Y-75007547D01*
X167057664Y-75093793D01*
X167057671Y-75093797D01*
X167192517Y-75144091D01*
X167192516Y-75144091D01*
X167199444Y-75144835D01*
X167252127Y-75150500D01*
X168347872Y-75150499D01*
X168407483Y-75144091D01*
X168542331Y-75093796D01*
X168554575Y-75084629D01*
X168620035Y-75060210D01*
X168676339Y-75069333D01*
X168778308Y-75111569D01*
X168820000Y-75119862D01*
X168820000Y-74125277D01*
X168896306Y-74169333D01*
X169010756Y-74200000D01*
X169129244Y-74200000D01*
X169243694Y-74169333D01*
X169320000Y-74125277D01*
X169320000Y-75119862D01*
X169361690Y-75111569D01*
X169361692Y-75111569D01*
X169543673Y-75036191D01*
X169543676Y-75036189D01*
X169635657Y-74974729D01*
X169702334Y-74953850D01*
X169769715Y-74972334D01*
X169773440Y-74974728D01*
X169866079Y-75036628D01*
X169866092Y-75036635D01*
X170034044Y-75106202D01*
X170048165Y-75112051D01*
X170048169Y-75112051D01*
X170048170Y-75112052D01*
X170241456Y-75150500D01*
X170241459Y-75150500D01*
X170438543Y-75150500D01*
X170592567Y-75119862D01*
X170631835Y-75112051D01*
X170782848Y-75049500D01*
X170813907Y-75036635D01*
X170813907Y-75036634D01*
X170813914Y-75036632D01*
X170887834Y-74987240D01*
X170906109Y-74975029D01*
X170972786Y-74954151D01*
X171040166Y-74972635D01*
X171043891Y-74975029D01*
X171117058Y-75023918D01*
X171136086Y-75036632D01*
X171136088Y-75036633D01*
X171136092Y-75036635D01*
X171304044Y-75106202D01*
X171318165Y-75112051D01*
X171318169Y-75112051D01*
X171318170Y-75112052D01*
X171511456Y-75150500D01*
X171511459Y-75150500D01*
X171708543Y-75150500D01*
X171862567Y-75119862D01*
X171901835Y-75112051D01*
X172052848Y-75049500D01*
X172083907Y-75036635D01*
X172083907Y-75036634D01*
X172083914Y-75036632D01*
X172247782Y-74927139D01*
X172387139Y-74787782D01*
X172496632Y-74623914D01*
X172497164Y-74622631D01*
X172538716Y-74522313D01*
X172572051Y-74441835D01*
X172600687Y-74297873D01*
X172610500Y-74248543D01*
X172610500Y-73251456D01*
X172572052Y-73058170D01*
X172572051Y-73058169D01*
X172572051Y-73058165D01*
X172553420Y-73013186D01*
X172496635Y-72876092D01*
X172496628Y-72876079D01*
X172383755Y-72707153D01*
X172385278Y-72706135D01*
X172361331Y-72649723D01*
X172360500Y-72635389D01*
X172360500Y-72236079D01*
X172331659Y-72091092D01*
X172331658Y-72091091D01*
X172331658Y-72091087D01*
X172306388Y-72030080D01*
X172275087Y-71954511D01*
X172275080Y-71954498D01*
X172192952Y-71831585D01*
X172167569Y-71806202D01*
X172088416Y-71727049D01*
X171825761Y-71464394D01*
X171028421Y-70667052D01*
X171028420Y-70667051D01*
X171027326Y-70666320D01*
X170922978Y-70596598D01*
X170922977Y-70596596D01*
X170909018Y-70587270D01*
X170905495Y-70584916D01*
X170905493Y-70584915D01*
X170905490Y-70584913D01*
X170768917Y-70528343D01*
X170768907Y-70528340D01*
X170623920Y-70499500D01*
X170623918Y-70499500D01*
X165912229Y-70499500D01*
X165845190Y-70479815D01*
X165824548Y-70463181D01*
X165592183Y-70230816D01*
X165558698Y-70169493D01*
X165563682Y-70099801D01*
X165605554Y-70043868D01*
X165671018Y-70019451D01*
X165699261Y-70020661D01*
X165887648Y-70050500D01*
X165887649Y-70050500D01*
X166092351Y-70050500D01*
X166092352Y-70050500D01*
X166294534Y-70018477D01*
X166489219Y-69955220D01*
X166671610Y-69862287D01*
X166764590Y-69794732D01*
X166837213Y-69741971D01*
X166837215Y-69741968D01*
X166837219Y-69741966D01*
X166981966Y-69597219D01*
X166984650Y-69593524D01*
X167015100Y-69551615D01*
X167070429Y-69508949D01*
X167115418Y-69500500D01*
X170187770Y-69500500D01*
X170254809Y-69520185D01*
G37*
G04 #@! TD.AperFunction*
G04 #@! TA.AperFunction,Conductor*
G36*
X164113181Y-72419628D02*
G01*
X164146666Y-72480951D01*
X164149500Y-72507309D01*
X164149500Y-73281664D01*
X164129815Y-73348703D01*
X164077011Y-73394458D01*
X164007853Y-73404402D01*
X163944297Y-73375377D01*
X163937819Y-73369345D01*
X163864648Y-73296174D01*
X163864646Y-73296172D01*
X163705405Y-73180476D01*
X163530025Y-73091116D01*
X163530024Y-73091115D01*
X163528235Y-73090204D01*
X163477439Y-73042230D01*
X163460644Y-72974409D01*
X163483181Y-72908274D01*
X163528236Y-72869234D01*
X163705141Y-72779097D01*
X163740125Y-72753678D01*
X163740126Y-72753678D01*
X163096448Y-72110000D01*
X163102661Y-72110000D01*
X163204394Y-72082741D01*
X163295606Y-72030080D01*
X163370080Y-71955606D01*
X163422741Y-71864394D01*
X163450000Y-71762661D01*
X163450000Y-71756446D01*
X164113181Y-72419628D01*
G37*
G04 #@! TD.AperFunction*
G04 #@! TA.AperFunction,Conductor*
G36*
X139181904Y-54031976D02*
G01*
X139237837Y-54073848D01*
X139262254Y-54139312D01*
X139260188Y-54172348D01*
X139249500Y-54226082D01*
X139249500Y-54600249D01*
X139229815Y-54667288D01*
X139199812Y-54699515D01*
X139142457Y-54742451D01*
X139142451Y-54742457D01*
X139056206Y-54857664D01*
X139056202Y-54857671D01*
X139005908Y-54992517D01*
X138999501Y-55052116D01*
X138999500Y-55052135D01*
X138999500Y-56947870D01*
X138999501Y-56947876D01*
X139005908Y-57007483D01*
X139056202Y-57142328D01*
X139056206Y-57142335D01*
X139142452Y-57257544D01*
X139142455Y-57257547D01*
X139257664Y-57343793D01*
X139257671Y-57343797D01*
X139392517Y-57394091D01*
X139392516Y-57394091D01*
X139399444Y-57394835D01*
X139452127Y-57400500D01*
X140547872Y-57400499D01*
X140607483Y-57394091D01*
X140742331Y-57343796D01*
X140754575Y-57334629D01*
X140820035Y-57310210D01*
X140876339Y-57319333D01*
X140978308Y-57361569D01*
X141020000Y-57369862D01*
X141020000Y-56375277D01*
X141096306Y-56419333D01*
X141210756Y-56450000D01*
X141329244Y-56450000D01*
X141443694Y-56419333D01*
X141520000Y-56375277D01*
X141520000Y-57369862D01*
X141561690Y-57361569D01*
X141561692Y-57361569D01*
X141743673Y-57286191D01*
X141743676Y-57286189D01*
X141835657Y-57224729D01*
X141902334Y-57203850D01*
X141969715Y-57222334D01*
X141973440Y-57224728D01*
X142066079Y-57286628D01*
X142066092Y-57286635D01*
X142234558Y-57356415D01*
X142248165Y-57362051D01*
X142248169Y-57362051D01*
X142248170Y-57362052D01*
X142441456Y-57400500D01*
X142441459Y-57400500D01*
X142638543Y-57400500D01*
X142792567Y-57369862D01*
X142831835Y-57362051D01*
X143013914Y-57286632D01*
X143106109Y-57225029D01*
X143172786Y-57204151D01*
X143240166Y-57222635D01*
X143243891Y-57225029D01*
X143335423Y-57286189D01*
X143336086Y-57286632D01*
X143336088Y-57286633D01*
X143336092Y-57286635D01*
X143504558Y-57356415D01*
X143518165Y-57362051D01*
X143518169Y-57362051D01*
X143518170Y-57362052D01*
X143711456Y-57400500D01*
X143711459Y-57400500D01*
X143908543Y-57400500D01*
X144062567Y-57369862D01*
X144101835Y-57362051D01*
X144283914Y-57286632D01*
X144447782Y-57177139D01*
X144587139Y-57037782D01*
X144696632Y-56873914D01*
X144716044Y-56827046D01*
X144759884Y-56772645D01*
X144826178Y-56750579D01*
X144830605Y-56750500D01*
X149187770Y-56750500D01*
X149254809Y-56770185D01*
X149275451Y-56786819D01*
X151685507Y-59196875D01*
X151718992Y-59258198D01*
X151714008Y-59327890D01*
X151672136Y-59383823D01*
X151654121Y-59395041D01*
X151513566Y-59466657D01*
X151437965Y-59521585D01*
X151322490Y-59605483D01*
X151322488Y-59605485D01*
X151322487Y-59605485D01*
X151155485Y-59772487D01*
X151155485Y-59772488D01*
X151155483Y-59772490D01*
X151027713Y-59948350D01*
X151027687Y-59948386D01*
X150972357Y-59991051D01*
X150927369Y-59999500D01*
X147172631Y-59999500D01*
X147105592Y-59979815D01*
X147072313Y-59948386D01*
X147072287Y-59948350D01*
X146944517Y-59772490D01*
X146777510Y-59605483D01*
X146586433Y-59466657D01*
X146530450Y-59438132D01*
X146375996Y-59359433D01*
X146151368Y-59286446D01*
X145918097Y-59249500D01*
X145918092Y-59249500D01*
X145681908Y-59249500D01*
X145681903Y-59249500D01*
X145448631Y-59286446D01*
X145224003Y-59359433D01*
X145013566Y-59466657D01*
X144937965Y-59521585D01*
X144822490Y-59605483D01*
X144822488Y-59605485D01*
X144822487Y-59605485D01*
X144655485Y-59772487D01*
X144655485Y-59772488D01*
X144655483Y-59772490D01*
X144625697Y-59813487D01*
X144516657Y-59963566D01*
X144409433Y-60174003D01*
X144336446Y-60398631D01*
X144299500Y-60631902D01*
X144299500Y-60868097D01*
X144336446Y-61101368D01*
X144409433Y-61325996D01*
X144516657Y-61536433D01*
X144570566Y-61610632D01*
X144594046Y-61676439D01*
X144578221Y-61744493D01*
X144528115Y-61793188D01*
X144459637Y-61807063D01*
X144394528Y-61781714D01*
X144382567Y-61771199D01*
X144086819Y-61475451D01*
X144053334Y-61414128D01*
X144050500Y-61387770D01*
X144050500Y-59926079D01*
X144021659Y-59781092D01*
X144021658Y-59781091D01*
X144021658Y-59781087D01*
X144012451Y-59758859D01*
X143965087Y-59644511D01*
X143965080Y-59644498D01*
X143882952Y-59521585D01*
X143882951Y-59521584D01*
X143778416Y-59417049D01*
X143610867Y-59249500D01*
X143028421Y-58667052D01*
X143028420Y-58667051D01*
X142963864Y-58623917D01*
X142927025Y-58599302D01*
X142927025Y-58599301D01*
X142905495Y-58584916D01*
X142905490Y-58584913D01*
X142768917Y-58528343D01*
X142768907Y-58528340D01*
X142623920Y-58499500D01*
X142623918Y-58499500D01*
X139123918Y-58499500D01*
X136226082Y-58499500D01*
X136226076Y-58499500D01*
X136197242Y-58505234D01*
X136197243Y-58505235D01*
X136081093Y-58528339D01*
X136081083Y-58528342D01*
X136001081Y-58561479D01*
X136001082Y-58561480D01*
X135944506Y-58584915D01*
X135886136Y-58623917D01*
X135821582Y-58667049D01*
X135821579Y-58667052D01*
X135457052Y-59031578D01*
X135457046Y-59031585D01*
X135411668Y-59099499D01*
X135411669Y-59099500D01*
X135374913Y-59154508D01*
X135318343Y-59291082D01*
X135318340Y-59291092D01*
X135289500Y-59436079D01*
X135289500Y-59758859D01*
X135269815Y-59825898D01*
X135217011Y-59871653D01*
X135212143Y-59873565D01*
X135208663Y-59875187D01*
X135059342Y-59967289D01*
X134935289Y-60091342D01*
X134875539Y-60188213D01*
X134823591Y-60234937D01*
X134754628Y-60246160D01*
X134690546Y-60218316D01*
X134664461Y-60188213D01*
X134655696Y-60174003D01*
X134604712Y-60091344D01*
X134480656Y-59967288D01*
X134372375Y-59900500D01*
X134331336Y-59875187D01*
X134324791Y-59872136D01*
X134325840Y-59869885D01*
X134278035Y-59836772D01*
X134251225Y-59772251D01*
X134250500Y-59758859D01*
X134250500Y-58912229D01*
X134270185Y-58845190D01*
X134286819Y-58824548D01*
X136661367Y-56450000D01*
X139050891Y-54060475D01*
X139112212Y-54026992D01*
X139181904Y-54031976D01*
G37*
G04 #@! TD.AperFunction*
G04 #@! TA.AperFunction,Conductor*
G36*
X156754809Y-40270185D02*
G01*
X156775451Y-40286819D01*
X156910721Y-40422089D01*
X156944206Y-40483412D01*
X156939222Y-40553104D01*
X156897350Y-40609037D01*
X156831886Y-40633454D01*
X156798848Y-40631387D01*
X156638543Y-40599500D01*
X156638541Y-40599500D01*
X156441459Y-40599500D01*
X156441457Y-40599500D01*
X156248170Y-40637947D01*
X156248160Y-40637950D01*
X156066093Y-40713364D01*
X156066082Y-40713370D01*
X155973440Y-40775271D01*
X155906762Y-40796148D01*
X155839382Y-40777663D01*
X155835659Y-40775270D01*
X155743684Y-40713814D01*
X155743671Y-40713807D01*
X155561691Y-40638429D01*
X155561683Y-40638427D01*
X155520000Y-40630135D01*
X155520000Y-41624722D01*
X155443694Y-41580667D01*
X155329244Y-41550000D01*
X155210756Y-41550000D01*
X155096306Y-41580667D01*
X155020000Y-41624722D01*
X155020000Y-40630136D01*
X155019999Y-40630135D01*
X154978316Y-40638427D01*
X154876339Y-40680666D01*
X154806870Y-40688133D01*
X154754578Y-40665372D01*
X154742330Y-40656203D01*
X154742328Y-40656202D01*
X154607482Y-40605908D01*
X154607483Y-40605908D01*
X154547883Y-40599501D01*
X154547881Y-40599500D01*
X154547873Y-40599500D01*
X154547864Y-40599500D01*
X153452129Y-40599500D01*
X153452123Y-40599501D01*
X153392516Y-40605908D01*
X153257671Y-40656202D01*
X153257664Y-40656206D01*
X153142455Y-40742452D01*
X153142452Y-40742455D01*
X153056206Y-40857664D01*
X153056202Y-40857671D01*
X153005908Y-40992517D01*
X152999501Y-41052116D01*
X152999500Y-41052135D01*
X152999500Y-42947870D01*
X152999501Y-42947876D01*
X153005908Y-43007483D01*
X153056202Y-43142328D01*
X153056203Y-43142329D01*
X153056204Y-43142331D01*
X153142454Y-43257546D01*
X153191547Y-43294297D01*
X153199810Y-43300482D01*
X153241682Y-43356415D01*
X153249500Y-43399749D01*
X153249500Y-44273918D01*
X153249500Y-44273920D01*
X153249499Y-44273920D01*
X153278340Y-44418907D01*
X153278342Y-44418913D01*
X153334915Y-44555493D01*
X153336668Y-44558116D01*
X153336672Y-44558128D01*
X153336675Y-44558127D01*
X153399974Y-44652863D01*
X153417051Y-44678420D01*
X153417052Y-44678421D01*
X154321584Y-45582952D01*
X154321586Y-45582954D01*
X154351058Y-45602645D01*
X154395270Y-45632186D01*
X154444505Y-45665084D01*
X154444506Y-45665084D01*
X154444507Y-45665085D01*
X154444509Y-45665086D01*
X154581082Y-45721656D01*
X154581087Y-45721658D01*
X154581091Y-45721658D01*
X154581092Y-45721659D01*
X154726079Y-45750500D01*
X154726082Y-45750500D01*
X154726083Y-45750500D01*
X154873918Y-45750500D01*
X158428095Y-45750500D01*
X158440154Y-45754041D01*
X158452677Y-45752961D01*
X158473045Y-45763699D01*
X158495134Y-45770185D01*
X158503363Y-45779682D01*
X158514484Y-45785545D01*
X158525813Y-45805591D01*
X158540889Y-45822989D01*
X158542677Y-45835430D01*
X158548862Y-45846372D01*
X158547555Y-45869355D01*
X158550833Y-45892147D01*
X158545515Y-45905253D01*
X158544898Y-45916129D01*
X158528439Y-45947350D01*
X158527713Y-45948350D01*
X158472398Y-45991035D01*
X158427369Y-45999500D01*
X153672631Y-45999500D01*
X153605592Y-45979815D01*
X153572313Y-45948386D01*
X153572287Y-45948350D01*
X153444517Y-45772490D01*
X153277510Y-45605483D01*
X153086433Y-45466657D01*
X152875996Y-45359433D01*
X152651368Y-45286446D01*
X152418097Y-45249500D01*
X152418092Y-45249500D01*
X152181908Y-45249500D01*
X152181903Y-45249500D01*
X151948631Y-45286446D01*
X151724003Y-45359433D01*
X151513566Y-45466657D01*
X151404550Y-45545862D01*
X151322490Y-45605483D01*
X151322488Y-45605485D01*
X151322487Y-45605485D01*
X151155485Y-45772487D01*
X151155485Y-45772488D01*
X151155483Y-45772490D01*
X151027713Y-45948350D01*
X151027687Y-45948386D01*
X150972357Y-45991051D01*
X150927369Y-45999500D01*
X147172631Y-45999500D01*
X147105592Y-45979815D01*
X147072313Y-45948386D01*
X147072287Y-45948350D01*
X146944517Y-45772490D01*
X146777510Y-45605483D01*
X146586433Y-45466657D01*
X146375996Y-45359433D01*
X146151368Y-45286446D01*
X145918097Y-45249500D01*
X145918092Y-45249500D01*
X145681908Y-45249500D01*
X145681903Y-45249500D01*
X145448631Y-45286446D01*
X145224003Y-45359433D01*
X145013566Y-45466657D01*
X144904550Y-45545862D01*
X144822490Y-45605483D01*
X144822488Y-45605485D01*
X144822487Y-45605485D01*
X144655485Y-45772487D01*
X144655485Y-45772488D01*
X144655483Y-45772490D01*
X144650258Y-45779682D01*
X144516657Y-45963566D01*
X144409433Y-46174003D01*
X144336446Y-46398631D01*
X144299500Y-46631902D01*
X144299500Y-46868097D01*
X144336446Y-47101368D01*
X144409433Y-47325996D01*
X144482254Y-47468913D01*
X144516657Y-47536433D01*
X144655483Y-47727510D01*
X144822490Y-47894517D01*
X145002335Y-48025183D01*
X145045000Y-48080512D01*
X145050979Y-48150126D01*
X145018373Y-48211920D01*
X144957534Y-48246278D01*
X144929449Y-48249500D01*
X142976076Y-48249500D01*
X142947242Y-48255234D01*
X142947243Y-48255235D01*
X142831093Y-48278339D01*
X142831083Y-48278342D01*
X142751081Y-48311479D01*
X142751082Y-48311480D01*
X142694505Y-48334915D01*
X142645272Y-48367812D01*
X142623760Y-48382186D01*
X142612372Y-48389795D01*
X142571585Y-48417047D01*
X142571581Y-48417050D01*
X132917048Y-58071583D01*
X132897438Y-58100932D01*
X132877958Y-58130088D01*
X132834919Y-58194499D01*
X132834912Y-58194511D01*
X132778343Y-58331082D01*
X132778340Y-58331092D01*
X132749500Y-58476079D01*
X132749500Y-59758859D01*
X132729815Y-59825898D01*
X132677011Y-59871653D01*
X132672143Y-59873565D01*
X132668663Y-59875187D01*
X132519342Y-59967289D01*
X132395289Y-60091342D01*
X132335539Y-60188213D01*
X132283591Y-60234937D01*
X132214628Y-60246160D01*
X132150546Y-60218316D01*
X132124461Y-60188213D01*
X132115696Y-60174003D01*
X132064712Y-60091344D01*
X131940656Y-59967288D01*
X131832375Y-59900500D01*
X131791336Y-59875187D01*
X131791331Y-59875185D01*
X131780672Y-59871653D01*
X131624797Y-59820001D01*
X131624795Y-59820000D01*
X131522010Y-59809500D01*
X130397998Y-59809500D01*
X130397981Y-59809501D01*
X130295203Y-59820000D01*
X130295200Y-59820001D01*
X130128668Y-59875185D01*
X130128663Y-59875187D01*
X129979342Y-59967289D01*
X129855289Y-60091342D01*
X129795539Y-60188213D01*
X129743591Y-60234937D01*
X129674628Y-60246160D01*
X129610546Y-60218316D01*
X129584461Y-60188213D01*
X129575696Y-60174003D01*
X129524712Y-60091344D01*
X129400656Y-59967288D01*
X129292375Y-59900500D01*
X129251336Y-59875187D01*
X129251331Y-59875185D01*
X129240672Y-59871653D01*
X129084797Y-59820001D01*
X129084795Y-59820000D01*
X128982010Y-59809500D01*
X127857998Y-59809500D01*
X127857981Y-59809501D01*
X127755203Y-59820000D01*
X127755200Y-59820001D01*
X127588668Y-59875185D01*
X127588663Y-59875187D01*
X127439342Y-59967289D01*
X127315289Y-60091342D01*
X127255539Y-60188213D01*
X127203591Y-60234937D01*
X127134628Y-60246160D01*
X127070546Y-60218316D01*
X127044461Y-60188213D01*
X127035696Y-60174003D01*
X126984712Y-60091344D01*
X126860656Y-59967288D01*
X126752375Y-59900500D01*
X126711336Y-59875187D01*
X126711331Y-59875185D01*
X126700672Y-59871653D01*
X126544797Y-59820001D01*
X126544795Y-59820000D01*
X126442010Y-59809500D01*
X125317998Y-59809500D01*
X125317981Y-59809501D01*
X125215203Y-59820000D01*
X125215200Y-59820001D01*
X125048668Y-59875185D01*
X125048663Y-59875187D01*
X124899342Y-59967289D01*
X124775289Y-60091342D01*
X124715539Y-60188213D01*
X124663591Y-60234937D01*
X124594628Y-60246160D01*
X124530546Y-60218316D01*
X124504461Y-60188213D01*
X124495696Y-60174003D01*
X124444712Y-60091344D01*
X124320656Y-59967288D01*
X124212375Y-59900500D01*
X124171336Y-59875187D01*
X124171331Y-59875185D01*
X124160672Y-59871653D01*
X124004797Y-59820001D01*
X124004795Y-59820000D01*
X123902016Y-59809500D01*
X123902009Y-59809500D01*
X123601229Y-59809500D01*
X123534190Y-59789815D01*
X123488435Y-59737011D01*
X123478491Y-59667853D01*
X123507516Y-59604297D01*
X123513548Y-59597819D01*
X125824548Y-57286819D01*
X125885871Y-57253334D01*
X125912229Y-57250500D01*
X133123920Y-57250500D01*
X133264001Y-57222635D01*
X133268913Y-57221658D01*
X133405495Y-57165084D01*
X133454729Y-57132186D01*
X133528416Y-57082952D01*
X137227156Y-53384211D01*
X137309289Y-53261290D01*
X137365863Y-53124708D01*
X137373778Y-53084916D01*
X137394705Y-52979713D01*
X137394705Y-52426633D01*
X137414390Y-52359594D01*
X137467194Y-52313839D01*
X137505452Y-52303343D01*
X137551688Y-52298373D01*
X137686536Y-52248078D01*
X137801751Y-52161828D01*
X137888001Y-52046613D01*
X137938296Y-51911765D01*
X137944705Y-51852155D01*
X137944704Y-50156410D01*
X137938296Y-50096799D01*
X137888001Y-49961951D01*
X137888000Y-49961950D01*
X137887998Y-49961946D01*
X137801752Y-49846737D01*
X137801749Y-49846734D01*
X137686540Y-49760488D01*
X137686533Y-49760484D01*
X137622846Y-49736731D01*
X137566912Y-49694860D01*
X137542495Y-49629396D01*
X137557346Y-49561123D01*
X137578495Y-49532871D01*
X142074548Y-45036819D01*
X142135871Y-45003334D01*
X142162229Y-45000500D01*
X149364739Y-45000500D01*
X149412191Y-45009938D01*
X149551918Y-45067816D01*
X149716228Y-45100499D01*
X149716232Y-45100500D01*
X149716233Y-45100500D01*
X149883768Y-45100500D01*
X149883769Y-45100499D01*
X150048082Y-45067816D01*
X150202863Y-45003703D01*
X150342162Y-44910626D01*
X150460626Y-44792162D01*
X150553703Y-44652863D01*
X150617816Y-44498082D01*
X150650500Y-44333767D01*
X150650500Y-44166233D01*
X150617816Y-44001918D01*
X150553703Y-43847137D01*
X150522537Y-43800494D01*
X150460626Y-43707837D01*
X150342162Y-43589373D01*
X150202860Y-43496295D01*
X150048082Y-43432184D01*
X150048074Y-43432182D01*
X149883771Y-43399500D01*
X149883767Y-43399500D01*
X149716233Y-43399500D01*
X149716228Y-43399500D01*
X149551925Y-43432182D01*
X149551917Y-43432184D01*
X149412192Y-43490061D01*
X149364739Y-43499500D01*
X144374109Y-43499500D01*
X144307070Y-43479815D01*
X144261315Y-43427011D01*
X144251371Y-43357853D01*
X144280396Y-43294297D01*
X144305218Y-43272398D01*
X144385653Y-43218651D01*
X144447782Y-43177139D01*
X144587139Y-43037782D01*
X144696632Y-42873914D01*
X144772051Y-42691835D01*
X144784632Y-42628582D01*
X144810500Y-42498543D01*
X144810500Y-41501456D01*
X144772052Y-41308170D01*
X144772051Y-41308169D01*
X144772051Y-41308165D01*
X144764401Y-41289695D01*
X144696635Y-41126092D01*
X144696628Y-41126079D01*
X144587139Y-40962218D01*
X144587136Y-40962214D01*
X144447785Y-40822863D01*
X144447781Y-40822860D01*
X144283920Y-40713371D01*
X144283907Y-40713364D01*
X144101839Y-40637950D01*
X144101829Y-40637947D01*
X143908543Y-40599500D01*
X143908541Y-40599500D01*
X143711459Y-40599500D01*
X143711457Y-40599500D01*
X143518170Y-40637947D01*
X143518160Y-40637950D01*
X143336089Y-40713366D01*
X143243890Y-40774971D01*
X143177213Y-40795848D01*
X143109833Y-40777363D01*
X143106110Y-40774971D01*
X143057440Y-40742451D01*
X143013914Y-40713368D01*
X143013911Y-40713366D01*
X143013910Y-40713366D01*
X142831839Y-40637950D01*
X142831829Y-40637947D01*
X142638543Y-40599500D01*
X142638541Y-40599500D01*
X142441459Y-40599500D01*
X142441457Y-40599500D01*
X142248170Y-40637947D01*
X142248160Y-40637950D01*
X142066093Y-40713364D01*
X142066082Y-40713370D01*
X141973440Y-40775271D01*
X141906762Y-40796148D01*
X141839382Y-40777663D01*
X141835659Y-40775270D01*
X141743684Y-40713814D01*
X141743671Y-40713807D01*
X141561691Y-40638429D01*
X141561683Y-40638427D01*
X141520000Y-40630135D01*
X141520000Y-41624722D01*
X141443694Y-41580667D01*
X141329244Y-41550000D01*
X141210756Y-41550000D01*
X141096306Y-41580667D01*
X141020000Y-41624722D01*
X141020000Y-40630136D01*
X141019999Y-40630135D01*
X140978316Y-40638427D01*
X140921951Y-40661774D01*
X140889314Y-40665282D01*
X140856853Y-40669950D01*
X140854765Y-40668996D01*
X140852482Y-40669242D01*
X140823139Y-40654553D01*
X140793297Y-40640925D01*
X140792055Y-40638993D01*
X140790003Y-40637966D01*
X140773257Y-40609743D01*
X140755523Y-40582147D01*
X140755087Y-40579118D01*
X140754351Y-40577877D01*
X140750500Y-40547212D01*
X140750500Y-40412229D01*
X140770185Y-40345190D01*
X140786819Y-40324548D01*
X140824548Y-40286819D01*
X140885871Y-40253334D01*
X140912229Y-40250500D01*
X156687770Y-40250500D01*
X156754809Y-40270185D01*
G37*
G04 #@! TD.AperFunction*
G04 #@! TA.AperFunction,Conductor*
G36*
X155754809Y-53520185D02*
G01*
X155775451Y-53536819D01*
X156626451Y-54387819D01*
X156659936Y-54449142D01*
X156654952Y-54518834D01*
X156613080Y-54574767D01*
X156547616Y-54599184D01*
X156538770Y-54599500D01*
X156441457Y-54599500D01*
X156248170Y-54637947D01*
X156248160Y-54637950D01*
X156066093Y-54713364D01*
X156066082Y-54713370D01*
X155973440Y-54775271D01*
X155906762Y-54796148D01*
X155839382Y-54777663D01*
X155835659Y-54775270D01*
X155743684Y-54713814D01*
X155743671Y-54713807D01*
X155561691Y-54638429D01*
X155561683Y-54638427D01*
X155520000Y-54630135D01*
X155520000Y-55624722D01*
X155443694Y-55580667D01*
X155329244Y-55550000D01*
X155210756Y-55550000D01*
X155096306Y-55580667D01*
X155020000Y-55624722D01*
X155020000Y-54630136D01*
X155019999Y-54630135D01*
X154978316Y-54638427D01*
X154876339Y-54680666D01*
X154806870Y-54688133D01*
X154754578Y-54665372D01*
X154742330Y-54656203D01*
X154742328Y-54656202D01*
X154607482Y-54605908D01*
X154607483Y-54605908D01*
X154547883Y-54599501D01*
X154547881Y-54599500D01*
X154547873Y-54599500D01*
X154547864Y-54599500D01*
X153452129Y-54599500D01*
X153452123Y-54599501D01*
X153392516Y-54605908D01*
X153257671Y-54656202D01*
X153257664Y-54656206D01*
X153142455Y-54742452D01*
X153142452Y-54742455D01*
X153056206Y-54857664D01*
X153056202Y-54857671D01*
X153005908Y-54992517D01*
X152999501Y-55052116D01*
X152999500Y-55052135D01*
X152999500Y-56947870D01*
X152999501Y-56947876D01*
X153005908Y-57007483D01*
X153056202Y-57142328D01*
X153056203Y-57142329D01*
X153056204Y-57142331D01*
X153142454Y-57257546D01*
X153180716Y-57286189D01*
X153199810Y-57300482D01*
X153241682Y-57356415D01*
X153249500Y-57399749D01*
X153249500Y-58023918D01*
X153249500Y-58023920D01*
X153249499Y-58023920D01*
X153278340Y-58168907D01*
X153278343Y-58168917D01*
X153302836Y-58228048D01*
X153306343Y-58260673D01*
X153311013Y-58293147D01*
X153310059Y-58295234D01*
X153310305Y-58297517D01*
X153295616Y-58326860D01*
X153281988Y-58356703D01*
X153280057Y-58357943D01*
X153279030Y-58359996D01*
X153250814Y-58376736D01*
X153223210Y-58394477D01*
X153220180Y-58394912D01*
X153218941Y-58395648D01*
X153188275Y-58399500D01*
X153062230Y-58399500D01*
X152995191Y-58379815D01*
X152974549Y-58363181D01*
X150028421Y-55417052D01*
X150028414Y-55417046D01*
X149954729Y-55367812D01*
X149954729Y-55367813D01*
X149905491Y-55334913D01*
X149768917Y-55278343D01*
X149768907Y-55278340D01*
X149623920Y-55249500D01*
X149623918Y-55249500D01*
X144830605Y-55249500D01*
X144763566Y-55229815D01*
X144717811Y-55177011D01*
X144716060Y-55172990D01*
X144696632Y-55126086D01*
X144647215Y-55052128D01*
X144587139Y-54962217D01*
X144447785Y-54822863D01*
X144447781Y-54822860D01*
X144283920Y-54713371D01*
X144283907Y-54713364D01*
X144101839Y-54637950D01*
X144101829Y-54637947D01*
X143908543Y-54599500D01*
X143908541Y-54599500D01*
X143711459Y-54599500D01*
X143711457Y-54599500D01*
X143518170Y-54637947D01*
X143518160Y-54637950D01*
X143336089Y-54713366D01*
X143243890Y-54774971D01*
X143177213Y-54795848D01*
X143109833Y-54777363D01*
X143106110Y-54774971D01*
X143057440Y-54742451D01*
X143013914Y-54713368D01*
X143013911Y-54713366D01*
X143013910Y-54713366D01*
X142831839Y-54637950D01*
X142831829Y-54637947D01*
X142638543Y-54599500D01*
X142638541Y-54599500D01*
X142441459Y-54599500D01*
X142441457Y-54599500D01*
X142248170Y-54637947D01*
X142248160Y-54637950D01*
X142066093Y-54713364D01*
X142066082Y-54713370D01*
X141973440Y-54775271D01*
X141906762Y-54796148D01*
X141839382Y-54777663D01*
X141835659Y-54775270D01*
X141743684Y-54713814D01*
X141743671Y-54713807D01*
X141561691Y-54638429D01*
X141561683Y-54638427D01*
X141520000Y-54630135D01*
X141520000Y-55624722D01*
X141443694Y-55580667D01*
X141329244Y-55550000D01*
X141210756Y-55550000D01*
X141096306Y-55580667D01*
X141020000Y-55624722D01*
X141020000Y-54630136D01*
X141004042Y-54617040D01*
X140990852Y-54615860D01*
X140935677Y-54572995D01*
X140912435Y-54507105D01*
X140928505Y-54439108D01*
X140948572Y-54412795D01*
X141824549Y-53536819D01*
X141885872Y-53503334D01*
X141912230Y-53500500D01*
X155687770Y-53500500D01*
X155754809Y-53520185D01*
G37*
G04 #@! TD.AperFunction*
G04 #@! TA.AperFunction,Conductor*
G36*
X165704809Y-25020185D02*
G01*
X165725451Y-25036819D01*
X167206329Y-26517697D01*
X167239814Y-26579020D01*
X167234830Y-26648712D01*
X167192960Y-26704644D01*
X167142457Y-26742450D01*
X167142451Y-26742457D01*
X167056206Y-26857664D01*
X167056202Y-26857671D01*
X167005908Y-26992517D01*
X166999501Y-27052116D01*
X166999500Y-27052135D01*
X166999500Y-28947870D01*
X166999501Y-28947876D01*
X167005908Y-29007483D01*
X167056202Y-29142328D01*
X167056206Y-29142335D01*
X167142452Y-29257544D01*
X167142455Y-29257547D01*
X167257664Y-29343793D01*
X167257671Y-29343797D01*
X167392517Y-29394091D01*
X167392516Y-29394091D01*
X167399444Y-29394835D01*
X167452127Y-29400500D01*
X168547872Y-29400499D01*
X168607483Y-29394091D01*
X168742331Y-29343796D01*
X168754575Y-29334629D01*
X168820035Y-29310210D01*
X168876339Y-29319333D01*
X168978308Y-29361569D01*
X169020000Y-29369862D01*
X169020000Y-28375277D01*
X169096306Y-28419333D01*
X169210756Y-28450000D01*
X169329244Y-28450000D01*
X169443694Y-28419333D01*
X169520000Y-28375277D01*
X169520000Y-29369862D01*
X169561690Y-29361569D01*
X169561692Y-29361569D01*
X169743673Y-29286191D01*
X169743676Y-29286189D01*
X169835657Y-29224729D01*
X169902334Y-29203850D01*
X169969715Y-29222334D01*
X169973440Y-29224728D01*
X170066079Y-29286628D01*
X170066092Y-29286635D01*
X170247001Y-29361569D01*
X170248165Y-29362051D01*
X170248169Y-29362051D01*
X170248170Y-29362052D01*
X170441456Y-29400500D01*
X170441459Y-29400500D01*
X170638542Y-29400500D01*
X170678649Y-29392521D01*
X170798850Y-29368612D01*
X170868439Y-29374839D01*
X170923617Y-29417701D01*
X170946862Y-29483591D01*
X170930795Y-29551588D01*
X170910721Y-29577910D01*
X170275451Y-30213181D01*
X170214128Y-30246666D01*
X170187770Y-30249500D01*
X155912230Y-30249500D01*
X155845191Y-30229815D01*
X155824549Y-30213181D01*
X155056319Y-29444951D01*
X155022834Y-29383628D01*
X155020000Y-29357270D01*
X155020000Y-28375277D01*
X155096306Y-28419333D01*
X155210756Y-28450000D01*
X155329244Y-28450000D01*
X155443694Y-28419333D01*
X155520000Y-28375277D01*
X155520000Y-29369862D01*
X155561690Y-29361569D01*
X155561692Y-29361569D01*
X155743673Y-29286191D01*
X155743676Y-29286189D01*
X155835657Y-29224729D01*
X155902334Y-29203850D01*
X155969715Y-29222334D01*
X155973440Y-29224728D01*
X156066079Y-29286628D01*
X156066092Y-29286635D01*
X156247001Y-29361569D01*
X156248165Y-29362051D01*
X156248169Y-29362051D01*
X156248170Y-29362052D01*
X156441456Y-29400500D01*
X156441459Y-29400500D01*
X156638543Y-29400500D01*
X156798851Y-29368612D01*
X156831835Y-29362051D01*
X157013914Y-29286632D01*
X157106109Y-29225029D01*
X157172786Y-29204151D01*
X157240166Y-29222635D01*
X157243891Y-29225029D01*
X157335423Y-29286189D01*
X157336086Y-29286632D01*
X157336088Y-29286633D01*
X157336092Y-29286635D01*
X157517001Y-29361569D01*
X157518165Y-29362051D01*
X157518169Y-29362051D01*
X157518170Y-29362052D01*
X157711456Y-29400500D01*
X157711459Y-29400500D01*
X157908543Y-29400500D01*
X158068851Y-29368612D01*
X158101835Y-29362051D01*
X158283914Y-29286632D01*
X158447782Y-29177139D01*
X158587139Y-29037782D01*
X158696632Y-28873914D01*
X158772051Y-28691835D01*
X158810500Y-28498541D01*
X158810500Y-27501459D01*
X158810500Y-27501456D01*
X158772052Y-27308170D01*
X158772051Y-27308169D01*
X158772051Y-27308165D01*
X158772049Y-27308160D01*
X158696635Y-27126092D01*
X158696628Y-27126079D01*
X158583755Y-26957153D01*
X158585278Y-26956135D01*
X158561331Y-26899723D01*
X158560500Y-26885389D01*
X158560500Y-26426079D01*
X158531659Y-26281092D01*
X158531658Y-26281091D01*
X158531658Y-26281087D01*
X158488164Y-26176082D01*
X158475085Y-26144507D01*
X158475084Y-26144505D01*
X158442186Y-26095270D01*
X158442185Y-26095268D01*
X158392956Y-26021589D01*
X158392952Y-26021584D01*
X157583549Y-25212181D01*
X157550064Y-25150858D01*
X157555048Y-25081166D01*
X157596920Y-25025233D01*
X157662384Y-25000816D01*
X157671230Y-25000500D01*
X165637770Y-25000500D01*
X165704809Y-25020185D01*
G37*
G04 #@! TD.AperFunction*
M02*
